<svg xmlns="http://www.w3.org/2000/svg" viewBox="0 0 528 499" width="528" height="499">
  <rect x="0" y="0" width="100%" height="100%" fill="#fffaf0"/>
  <g fill="none" stroke="#2a2a2a" stroke-width="1.4" stroke-linejoin="round" stroke-linecap="round">
    <path d="M1430 4950 c0 -24 -6 -33 -27 -41 -16 -6 -35 -17 -45 -26 -15 -13
-18 -13 -28 6 -9 18 -17 20 -53 15 -44 -7 -63 -22 -47 -38 12 -12 13 -83 3
-89 -5 -3 -18 -1 -30 4 -19 7 -23 16 -23 52 0 53 -2 55 -39 49 -35 -5 -62 -41
-70 -91 -11 -64 -71 -65 -71 0 0 28 13 43 40 44 24 0 17 30 -7 33 -26 4 -63
-47 -63 -86 0 -55 48 -96 80 -67 12 11 26 15 37 10 44 -17 100 -15 117 4 10
11 25 16 40 14 27 -6 41 19 26 46 -5 10 -6 31 -1 46 6 24 13 29 37 29 27 0 29
-2 30 -43 2 -52 13 -61 75 -61 35 0 49 4 53 17 4 10 1 20 -10 26 -14 8 -15 19
-10 71 4 33 10 71 13 84 4 16 1 22 -11 22 -11 0 -16 -9 -16 -30z m-25 -121 c0
-27 -4 -34 -20 -34 -24 0 -33 38 -14 61 19 23 34 11 34 -27z m-257 -18 c5 -50
-27 -80 -47 -43 -12 22 13 86 31 80 7 -3 14 -19 16 -37z"/>
    <path d="M1507 4888 c-3 -51 -7 -100 -9 -108 -2 -11 8 -16 39 -18 39 -3 44 -1
69 37 15 23 28 41 30 41 2 0 10 -13 19 -30 32 -63 125 -25 125 51 0 72 -59
104 -101 54 l-22 -24 -27 29 c-29 31 -54 38 -65 20 -9 -15 -25 -2 -25 21 0 10
-6 19 -14 19 -10 0 -15 -24 -19 -92z m95 -19 c-3 -41 -46 -89 -63 -72 -22 22
28 119 55 110 6 -2 10 -19 8 -38z m143 -14 c0 -36 -3 -40 -27 -43 -21 -3 -30
2 -39 21 -16 36 4 69 39 65 24 -3 27 -7 27 -43z"/>
    <path d="M2256 4965 c-3 -8 -18 -15 -34 -15 -17 0 -38 -10 -52 -25 -25 -26
-40 -25 -40 5 0 27 -17 34 -51 20 -23 -10 -33 -10 -42 -1 -6 6 -17 11 -24 11
-21 0 -27 -30 -9 -43 13 -10 14 -21 7 -67 -10 -61 -9 -65 14 -57 9 4 15 19 15
40 0 22 8 41 24 56 23 22 25 22 49 6 17 -11 23 -22 20 -36 -4 -13 3 -29 18
-45 21 -23 28 -24 79 -18 70 8 91 25 66 53 -14 15 -17 33 -14 75 2 37 -1 56
-8 56 -7 0 -14 -7 -18 -15z m-25 -55 c37 -20 18 -80 -26 -80 -43 0 -51 33 -17
73 18 20 18 20 43 7z"/>
    <path d="M2462 4968 c-16 -16 -15 -28 3 -28 8 0 19 9 25 20 8 15 8 20 -3 20
-7 0 -18 -5 -25 -12z"/>
    <path d="M2526 4900 c-6 -65 -11 -82 -27 -91 -11 -5 -17 -14 -14 -20 9 -14 42
-11 75 6 33 17 41 48 13 43 -16 -3 -18 6 -17 70 0 49 -3 72 -12 72 -7 0 -14
-29 -18 -80z"/>
    <path d="M3097 4974 c-10 -10 -81 -25 -114 -24 -31 1 -44 -12 -24 -24 5 -3 7
-34 4 -67 -5 -50 -3 -61 8 -57 8 3 17 21 20 40 7 44 36 91 52 85 8 -3 11 -23
9 -62 -5 -73 18 -73 33 1 12 57 22 77 37 68 6 -4 8 -22 4 -46 -7 -41 8 -82 27
-75 12 4 13 112 1 150 -5 16 -44 24 -57 11z"/>
    <path d="M4740 4970 c0 -13 4 -24 201 -600 360 -1052 328 -964 328 -892 1 29
-6 68 -14 88 -8 19 -56 157 -106 307 -51 150 -114 335 -140 412 -219 641 -237
690 -253 693 -9 2 -16 -2 -16 -8z"/>
    <path d="M2800 4960 c-25 -5 -52 -6 -61 -4 -20 6 -27 -11 -35 -81 -4 -33 -2
-55 4 -59 13 -8 32 24 32 51 0 11 6 28 14 39 23 30 35 6 26 -51 -4 -27 -6 -52
-4 -54 9 -10 34 24 34 46 0 31 28 85 40 78 6 -4 10 -33 10 -66 0 -43 4 -59 14
-59 10 0 14 20 15 85 2 96 7 92 -89 75z"/>
    <path d="M1839 4921 c-38 -39 -41 -93 -4 -117 13 -8 28 -13 34 -10 5 4 21 1
35 -5 20 -9 29 -9 41 1 21 17 19 27 -6 33 -19 5 -20 10 -14 56 6 43 4 51 -14
60 -30 16 -40 14 -72 -18z m50 -25 c8 -9 8 -21 1 -40 -11 -29 -31 -34 -50 -11
-10 12 -9 20 4 40 19 28 29 31 45 11z"/>
    <path d="M4475 4879 c-39 -25 -56 -30 -83 -25 -21 3 -46 -1 -63 -9 -15 -8 -39
-15 -54 -15 -25 0 -34 -14 -15 -25 6 -4 21 -28 35 -55 14 -27 33 -51 44 -55
28 -8 67 3 88 27 10 11 29 24 42 29 17 7 21 14 16 27 -20 47 -17 60 14 77 35
18 51 13 51 -16 0 -21 29 -27 31 -6 3 27 -3 43 -23 60 -26 22 -26 22 -83 -14z
m-80 -63 c42 -18 46 -48 11 -72 -35 -22 -68 -15 -79 19 -7 22 -5 32 9 48 21
23 16 22 59 5z"/>
    <path d="M4458 4673 c-2 -10 -25 -25 -57 -38 -30 -11 -58 -27 -64 -36 -16 -25
-1 -63 33 -83 25 -14 30 -23 26 -41 -9 -36 10 -39 51 -8 24 18 49 28 71 28 43
0 49 14 22 46 -18 22 -21 23 -30 7 -27 -44 -145 -23 -138 24 2 16 19 27 68 44
69 24 83 39 54 61 -24 17 -32 16 -36 -4z"/>
    <path d="M1427 4498 c-15 -187 -3 -335 18 -238 10 45 25 47 57 9 23 -28 30
-31 38 -19 6 10 2 24 -16 47 -29 38 -30 45 -4 68 21 19 27 45 11 45 -5 0 -24
-18 -41 -40 -17 -22 -36 -37 -42 -34 -7 5 -8 47 -3 125 8 136 -8 168 -18 37z"/>
    <path d="M1047 4534 c-3 -3 -1 -18 4 -32 5 -14 8 -37 5 -51 -5 -23 -10 -216
-7 -248 3 -30 21 -10 21 22 0 41 26 99 40 90 6 -4 10 -28 10 -56 0 -37 4 -49
15 -49 12 0 15 13 15 59 0 33 -3 66 -6 75 -7 18 -39 22 -49 6 -16 -27 -23 9
-18 95 5 80 4 95 -9 95 -8 0 -17 -3 -21 -6z"/>
    <path d="M4472 4420 c-29 -18 -32 -24 -32 -70 0 -41 4 -52 24 -65 56 -37 123
1 128 74 2 26 -3 37 -22 51 -40 29 -62 31 -98 10z m76 -32 c17 -17 15 -63 -2
-78 -8 -6 -25 -10 -37 -8 -28 4 -47 61 -28 84 14 17 51 18 67 2z"/>
    <path d="M975 4403 c-3 -15 -9 -67 -12 -115 -5 -90 3 -118 33 -118 20 0 17 37
-2 44 -13 5 -15 14 -10 44 21 107 13 231 -9 145z"/>
    <path d="M1301 4364 c-12 -15 -21 -39 -21 -55 0 -17 -7 -32 -19 -38 -26 -14
-31 -5 -31 51 0 35 -4 48 -15 48 -22 0 -39 -38 -25 -56 9 -9 10 -32 5 -70 -7
-62 -8 -62 53 -17 27 21 33 22 38 9 9 -24 48 -19 74 9 29 31 21 41 -18 21 -35
-18 -42 -13 -42 29 0 38 20 61 38 43 17 -17 36 4 27 31 -9 29 -39 26 -64 -5z"/>
    <path d="M4499 4224 c-11 -13 -11 -21 3 -44 11 -19 13 -31 6 -38 -12 -12 -2
-62 12 -62 6 0 10 9 10 21 0 22 51 49 93 49 32 0 47 19 36 48 -11 28 -35 29
-42 1 -4 -16 -12 -20 -39 -17 -28 2 -34 7 -36 31 -4 30 -23 35 -43 11z"/>
    <path d="M3690 4160 c-52 -4 -153 -8 -223 -9 -142 -1 -147 -3 -275 -85 -176
-114 -344 -176 -627 -233 -125 -26 -362 -23 -499 6 -175 37 -355 120 -463 214
-25 22 -36 26 -50 18 -10 -6 -87 -19 -170 -29 -188 -24 -203 -31 -203 -105 0
-122 -98 -2051 -130 -2557 -8 -131 -13 -287 -11 -325 1 -7 62 -9 177 -7 97 3
180 0 184 -4 5 -5 4 -113 -1 -243 -7 -168 -7 -237 1 -245 11 -11 151 -11 395
-1 118 6 552 18 1098 31 l279 7 9 24 c15 40 18 68 25 268 5 127 11 198 19 205
6 5 114 12 241 16 126 4 240 11 253 16 23 8 23 9 6 35 -16 24 -17 44 -11 182
7 170 23 616 31 886 3 94 10 269 15 390 6 121 12 279 14 350 10 302 28 736 41
955 7 129 11 238 9 242 -3 4 -13 7 -22 6 -9 -1 -60 -5 -112 -8z m85 -44 c17
-12 18 -25 11 -207 -3 -107 -11 -257 -16 -334 -5 -77 -12 -221 -15 -320 -3
-99 -8 -209 -10 -245 -3 -36 -10 -171 -15 -300 -6 -129 -12 -282 -15 -340 -5
-115 -17 -447 -20 -575 -1 -44 -8 -199 -14 -345 -10 -205 -16 -268 -27 -280
-12 -12 -56 -16 -223 -20 -170 -5 -213 -9 -233 -22 l-26 -17 -7 -230 c-5 -152
-11 -234 -19 -239 -6 -5 -231 -14 -501 -21 -573 -13 -1090 -29 -1157 -35 -29
-3 -50 0 -56 7 -6 8 -6 73 0 177 5 90 7 201 6 245 l-3 80 -85 -1 c-47 0 -130
-2 -185 -4 -82 -3 -100 -1 -100 11 0 42 17 353 25 479 5 80 17 276 25 435 8
160 20 364 25 455 6 91 15 257 20 370 11 248 37 746 50 964 6 107 13 163 22
172 11 10 229 38 255 33 4 -1 16 1 25 5 35 16 41 3 39 -87 -2 -73 0 -87 13
-87 16 0 23 51 17 118 -2 28 24 39 47 19 59 -53 324 -159 452 -181 362 -60
767 20 1106 219 52 31 99 53 104 50 6 -3 10 -40 10 -81 0 -56 3 -75 13 -72 7
3 16 39 22 96 6 50 14 94 18 99 5 4 88 11 185 14 97 3 186 6 198 7 11 1 29 -4
39 -12z"/>
    <path d="M3297 3753 c-11 -10 -8 -151 3 -158 13 -8 17 6 25 93 5 58 3 72 -8
72 -7 0 -17 -3 -20 -7z"/>
    <path d="M1546 3703 c-3 -3 -6 -47 -6 -96 0 -78 2 -88 15 -77 11 9 15 33 15
91 0 72 -8 98 -24 82z"/>
    <path d="M3404 3679 c-10 -17 13 -36 27 -22 12 12 4 33 -11 33 -5 0 -12 -5
-16 -11z"/>
    <path d="M1467 3673 c-13 -12 -7 -33 8 -33 8 0 15 9 15 20 0 20 -11 26 -23 13z"/>
    <path d="M3294 3469 c-15 -18 -24 -132 -13 -150 18 -30 30 8 27 86 -2 60 -6
75 -14 64z"/>
    <path d="M1457 3464 c-14 -14 -7 -35 11 -32 9 2 17 10 17 17 0 16 -18 25 -28
15z"/>
    <path d="M3394 3439 c-3 -6 -2 -15 4 -21 13 -13 32 -2 32 18 0 16 -26 19 -36
3z"/>
    <path d="M1530 3325 c0 -52 4 -95 9 -95 14 0 21 39 21 118 0 57 -3 72 -15 72
-12 0 -15 -17 -15 -95z"/>
    <path d="M3267 3153 c-4 -3 -7 -46 -7 -95 0 -80 2 -89 18 -86 14 3 17 17 20
96 2 73 0 92 -11 92 -7 0 -17 -3 -20 -7z"/>
    <path d="M1505 3034 c-5 -57 -3 -90 4 -97 18 -18 22 -4 24 88 1 58 -2 89 -9
92 -8 3 -14 -25 -19 -83z"/>
    <path d="M3248 2798 c-1 -61 2 -111 8 -117 13 -13 23 22 26 89 3 64 1 75 -14
78 -15 3 -18 -5 -20 -50z"/>
    <path d="M1497 2813 c-4 -3 -7 -44 -7 -90 0 -63 3 -84 13 -81 8 3 13 33 15 91
3 79 -3 99 -21 80z"/>
    <path d="M3486 2736 c4 -24 1 -97 -6 -163 -13 -121 -14 -152 -7 -160 3 -2 28
7 55 21 55 28 102 80 102 113 0 37 -33 66 -76 67 l-39 1 4 45 c1 24 9 57 17
72 21 40 18 48 -21 48 l-35 0 6 -44z m102 -168 c20 -20 14 -45 -19 -73 -39
-32 -53 -28 -57 14 -5 53 44 91 76 59z"/>
    <path d="M3354 2619 c-8 -14 18 -31 30 -19 9 9 0 30 -14 30 -5 0 -12 -5 -16
-11z"/>
    <path d="M1270 2560 c-44 -11 -60 -34 -60 -84 0 -55 11 -70 44 -62 15 4 35 2
46 -4 15 -8 26 -7 43 2 l22 12 -25 6 c-24 6 -25 9 -22 73 1 37 -1 67 -5 66 -5
-1 -24 -5 -43 -9z m5 -71 c0 -27 -4 -34 -20 -34 -24 0 -33 38 -14 61 19 23 34
11 34 -27z"/>
    <path d="M3244 2548 c-5 -7 -9 -49 -9 -93 0 -68 3 -80 18 -83 15 -3 17 6 17
82 0 47 0 89 1 93 1 13 -18 14 -27 1z"/>
    <path d="M1487 2523 c-10 -10 -8 -153 2 -153 11 0 21 51 21 111 0 46 -7 59
-23 42z"/>
    <path d="M3350 2490 c0 -11 4 -20 9 -20 13 0 32 26 24 33 -13 14 -33 6 -33
-13z"/>
    <path d="M1466 2244 c-3 -9 -6 -40 -6 -70 0 -39 4 -54 14 -54 17 0 26 31 26
93 0 33 -4 47 -14 47 -8 0 -17 -7 -20 -16z"/>
    <path d="M3226 2234 c-9 -23 -7 -184 2 -184 24 0 32 30 32 112 0 69 -3 88 -14
88 -8 0 -17 -7 -20 -16z"/>
    <path d="M1458 1993 c-10 -20 -9 -173 1 -173 16 0 18 10 26 98 6 70 5 82 -8
82 -9 0 -17 -3 -19 -7z"/>
    <path d="M3324 1919 c-10 -17 13 -36 27 -22 12 12 4 33 -11 33 -5 0 -12 -5
-16 -11z"/>
    <path d="M3217 1883 c-2 -4 -8 -50 -11 -100 -6 -80 -5 -93 8 -93 22 0 24 6 27
104 3 62 0 91 -8 93 -6 2 -13 0 -16 -4z"/>
    <path d="M1370 1849 c0 -24 23 -21 28 4 2 10 -3 17 -12 17 -10 0 -16 -9 -16
-21z"/>
    <path d="M1367 1733 c-13 -12 -7 -33 8 -33 8 0 15 9 15 20 0 20 -11 26 -23 13z"/>
    <path d="M1443 1703 c-12 -30 -9 -166 3 -170 16 -5 24 31 24 115 0 69 -12 94
-27 55z"/>
    <path d="M1350 1580 c0 -11 7 -20 15 -20 8 0 15 9 15 20 0 11 -7 20 -15 20 -8
0 -15 -9 -15 -20z"/>
    <path d="M3199 1578 c-6 -22 -6 -127 0 -137 18 -28 31 1 31 70 0 55 -3 69 -15
69 -8 0 -15 -1 -16 -2z"/>
    <path d="M3307 1556 c-7 -16 1 -26 20 -26 7 0 13 9 13 20 0 23 -25 27 -33 6z"/>
    <path d="M1350 1438 c0 -30 1 -31 16 -16 9 9 14 24 11 32 -11 27 -27 17 -27
-16z"/>
    <path d="M3304 1439 c-10 -17 13 -36 27 -22 12 12 4 33 -11 33 -5 0 -12 -5
-16 -11z"/>
    <path d="M1433 1379 c-15 -19 -20 -172 -5 -177 15 -5 24 50 20 127 -2 51 -5
61 -15 50z"/>
    <path d="M1347 1324 c-11 -11 -8 -44 3 -44 15 0 24 30 13 41 -5 5 -12 6 -16 3z"/>
    <path d="M3184 1307 c-3 -8 -4 -36 -2 -63 2 -36 7 -49 18 -49 20 0 22 116 3
122 -7 3 -16 -2 -19 -10z"/>
    <path d="M1334 1175 c-7 -17 4 -37 17 -30 12 8 12 45 -1 45 -6 0 -13 -7 -16
-15z"/>
    <path d="M2392 1121 c-34 -3 -62 -9 -62 -13 0 -5 0 -13 0 -19 0 -18 159 -8
170 11 5 8 6 18 4 22 -5 8 -9 8 -112 -1z"/>
    <path d="M2627 1123 c-4 -3 -7 -12 -7 -20 0 -9 18 -13 65 -13 58 0 65 2 65 20
0 18 -7 20 -58 20 -32 0 -62 -3 -65 -7z"/>
    <path d="M2897 1123 c-19 -18 3 -23 113 -23 100 0 120 3 120 15 0 12 -19 15
-113 15 -63 0 -117 -3 -120 -7z"/>
    <path d="M2083 1112 c-56 -2 -73 -6 -73 -17 0 -12 16 -15 74 -15 43 0 78 5 82
11 11 19 -9 24 -83 21z"/>
    <path d="M1771 1101 c-19 -3 -36 -12 -39 -19 -3 -10 14 -12 74 -10 66 3 79 6
82 21 3 14 -4 17 -40 16 -24 -1 -58 -4 -77 -8z"/>
    <path d="M1511 1086 c-10 -11 -8 -16 9 -21 34 -11 110 4 110 21 0 20 -103 20
-119 0z"/>
    <path d="M2272 914 c-35 -24 -65 -93 -65 -146 0 -25 4 -51 7 -57 4 -6 33 -11
65 -11 44 0 65 5 85 21 15 12 25 24 22 27 -3 2 -12 0 -19 -7 -8 -6 -34 -14
-59 -17 -41 -6 -48 -4 -61 17 -28 42 11 149 53 149 26 0 33 -15 15 -30 -24
-20 -19 -52 7 -48 16 2 25 13 32 37 9 30 7 36 -18 57 -32 28 -35 29 -64 8z"/>
    <path d="M4664 4081 c23 -25 17 -32 -45 -56 -37 -13 -51 -14 -68 -6 -18 10
-22 9 -31 -14 -5 -14 -16 -25 -24 -25 -7 0 -24 -9 -37 -20 -23 -19 -23 -19 -3
-20 12 0 35 5 53 11 24 8 35 8 46 -1 9 -7 16 -11 18 -9 1 2 7 12 12 22 6 10
35 28 65 40 52 21 55 24 55 57 0 31 -3 35 -30 38 -30 4 -30 4 -11 -17z"/>
    <path d="M4666 3951 c-11 -13 -15 -27 -11 -40 3 -12 3 -26 0 -31 -11 -17 -35
9 -35 37 0 34 -24 24 -28 -11 -4 -31 22 -66 49 -66 37 0 49 12 49 49 0 21 3
41 7 44 13 14 33 -17 33 -50 0 -23 4 -33 13 -31 17 6 21 55 7 89 -15 35 -57
40 -84 10z"/>
    <path d="M4767 3655 c-42 -14 -63 -36 -73 -74 -6 -19 -1 -30 20 -48 15 -12 38
-26 51 -29 30 -7 79 19 108 58 17 23 18 31 8 56 -7 16 -24 34 -37 41 -30 13
-30 13 -77 -4z m81 -51 c4 -27 -51 -76 -76 -67 -28 10 -42 24 -42 44 0 46 112
68 118 23z"/>
    <path d="M4875 3471 c5 -16 -2 -24 -36 -41 -30 -16 -44 -19 -52 -11 -17 17
-31 13 -42 -11 -6 -12 -27 -30 -48 -41 -45 -23 -36 -43 12 -26 24 9 35 9 44 0
18 -18 37 -13 47 13 5 14 31 36 62 53 42 22 53 33 53 53 0 19 -6 26 -23 28
-20 3 -23 0 -17 -17z"/>
    <path d="M4950 3170 c0 -6 11 -15 25 -20 36 -14 51 -57 29 -81 -21 -24 -33
-24 -41 -1 -10 30 -35 52 -58 52 -30 0 -45 -19 -45 -57 0 -26 6 -36 30 -48 41
-21 67 -19 118 11 43 25 44 28 39 65 -8 58 -31 89 -67 89 -17 0 -30 -5 -30
-10z m-16 -104 c18 -29 6 -42 -24 -26 -20 11 -26 31 -13 43 11 12 20 8 37 -17z"/>
    <path d="M5040 2986 c0 -7 7 -19 15 -26 38 -31 -9 -109 -57 -95 -39 12 -49 26
-43 57 4 15 3 28 -2 28 -19 0 -33 -26 -33 -61 0 -33 4 -38 31 -48 18 -6 47
-11 65 -11 28 0 39 7 64 42 35 49 37 66 9 102 -22 28 -49 35 -49 12z"/>
    <path d="M5081 2820 c-9 -5 -4 -14 18 -29 24 -18 29 -26 22 -43 -12 -32 -29
-33 -41 -4 -17 46 -86 48 -108 3 -26 -54 -1 -77 85 -77 103 0 144 120 52 153
-9 3 -21 2 -28 -3z m-34 -86 c3 -8 1 -20 -4 -25 -12 -12 -48 14 -39 29 10 17
36 15 43 -4z"/>
    <path d="M5143 2652 c-6 -11 -36 -29 -67 -42 -31 -12 -56 -25 -56 -29 0 -4 7
-16 15 -27 15 -19 15 -19 32 3 10 12 41 31 68 41 40 16 50 24 50 43 0 29 -26
36 -42 11z"/>
    <path d="M5100 2523 c-32 -30 -36 -50 -24 -120 10 -60 29 -74 57 -40 12 15 48
38 80 53 59 26 74 50 35 56 -15 2 -24 11 -26 25 -4 27 -38 53 -69 53 -13 0
-36 -12 -53 -27z m88 -44 c4 -33 -20 -53 -53 -45 -34 9 -42 32 -19 57 26 29
68 22 72 -12z"/>
    <path d="M5233 2184 c-3 -10 -1 -31 5 -48 13 -34 4 -50 -24 -44 -12 2 -20 13
-22 31 -4 33 -32 37 -32 4 0 -35 27 -67 59 -67 40 0 51 17 51 82 0 45 -3 58
-15 58 -9 0 -18 -7 -22 -16z"/>
    <path d="M5239 2001 c-20 -16 -22 -23 -13 -38 19 -31 38 -21 41 20 2 20 2 37
-1 37 -2 0 -14 -9 -27 -19z"/>
    <path d="M5172 1731 c-124 -43 -155 -70 -117 -101 12 -10 16 -8 24 13 8 20 28
31 100 57 54 20 91 38 91 46 0 19 -2 18 -98 -15z"/>
    <path d="M5244 1590 c-36 -14 -38 -30 -5 -30 24 0 31 4 31 20 0 11 -1 20 -2
19 -2 0 -13 -4 -24 -9z"/>
    <path d="M3411 860 c-40 -9 -51 -24 -51 -67 l0 -32 118 5 c130 5 152 16 152
75 l0 29 -92 -1 c-51 -1 -108 -5 -127 -9z"/>
    <path d="M3751 824 c-31 -39 -59 -123 -72 -216 -11 -72 -10 -91 5 -140 22 -77
46 -93 123 -83 68 8 97 34 131 119 24 63 27 98 12 177 -9 46 -19 62 -67 111
-66 67 -98 75 -132 32z m68 -28 c7 -8 21 -59 33 -113 35 -171 4 -313 -54 -245
-35 40 -52 307 -22 350 18 26 27 27 43 8z"/>
    <path d="M3518 737 c-21 -17 -108 -135 -108 -147 0 -5 13 -5 31 2 28 10 34 8
62 -21 28 -27 31 -37 32 -90 0 -77 -21 -103 -79 -99 -40 3 -41 4 -38 36 2 30
0 33 -20 30 -20 -3 -23 -8 -21 -42 4 -56 16 -66 83 -66 43 0 65 6 91 23 65 44
103 149 79 221 -15 46 -54 78 -86 70 -13 -3 -31 -4 -39 0 -13 5 -11 12 11 46
28 42 29 59 2 37z"/>
    <path d="M1882 167 c-26 -12 -62 -74 -62 -106 0 -33 11 -51 31 -51 17 0 18 3
9 21 -21 38 30 119 66 105 13 -5 16 -17 12 -66 l-4 -60 32 0 c40 0 44 7 46 67
0 40 -4 51 -31 75 -33 30 -61 34 -99 15z"/>
    <path d="M1510 161 c-51 -6 -55 -8 -58 -34 -6 -47 13 -60 79 -52 67 8 82 -5
48 -41 -22 -23 -22 -24 -2 -24 30 0 135 131 118 148 -8 9 -120 11 -185 3z"/>
  </g>
</svg>