<svg xmlns="http://www.w3.org/2000/svg" viewBox="0 0 576 1622" width="576" height="1622">
  <rect x="0" y="0" width="100%" height="100%" fill="#fffaf0"/>
  <g id="potrace-paths" transform="translate(0.000000,1622.000000) scale(0.100000,-0.100000)" fill="none" stroke="#2a2a2a" stroke-width="1.4" stroke-linejoin="round" stroke-linecap="round">
    <path d="M3284 16069 c-9 -17 -23 -55 -31 -83 -8 -28 -37 -103 -63 -166 -49
-115 -110 -265 -135 -330 -8 -19 -125 -312 -261 -650 -135 -338 -268 -671
-295 -740 -26 -69 -71 -183 -99 -255 -29 -71 -71 -179 -94 -240 -24 -60 -84
-211 -133 -335 -50 -124 -154 -385 -231 -580 -78 -195 -192 -479 -253 -630
-61 -151 -121 -302 -134 -335 -23 -62 -52 -136 -86 -215 -10 -25 -93 -234
-184 -465 -91 -231 -201 -510 -244 -620 -44 -110 -132 -333 -196 -495 -63
-162 -125 -315 -135 -340 -11 -25 -40 -99 -66 -165 -25 -66 -63 -165 -84 -220
-21 -55 -46 -127 -56 -160 -22 -79 -60 -200 -78 -251 -37 -102 -25 -437 20
-579 20 -64 24 -75 98 -295 35 -102 87 -259 116 -350 29 -91 62 -190 72 -220
10 -30 93 -275 183 -545 161 -482 367 -1086 399 -1175 16 -44 31 -89 60 -187
8 -27 31 -95 51 -153 56 -161 129 -375 201 -590 36 -107 82 -242 103 -300 21
-58 44 -121 50 -140 40 -117 214 -631 324 -955 71 -209 135 -400 144 -425 62
-188 94 -282 188 -555 59 -170 149 -431 200 -580 50 -148 110 -324 133 -390
23 -65 42 -127 42 -136 0 -10 7 -25 17 -34 14 -15 34 -16 162 -11 80 3 443 11
806 16 923 14 1097 18 1106 27 6 7 18 450 49 1878 5 231 12 521 15 645 3 124
10 470 15 770 6 300 15 734 20 965 6 231 14 605 20 830 5 226 12 536 15 690 3
154 7 357 10 450 3 94 7 274 10 400 3 127 9 444 15 705 6 261 15 603 20 760 5
157 12 402 15 545 3 143 10 377 15 520 5 143 12 386 15 540 6 308 10 455 25
925 5 173 12 414 15 535 3 121 10 337 15 480 6 143 17 550 25 905 8 355 19
787 25 960 18 558 31 1247 24 1274 -4 16 -15 28 -28 30 -19 4 -268 12 -686 21
-74 1 -373 6 -665 10 -501 7 -531 8 -551 26 -27 25 -31 24 -50 -12z m1536 -70
c201 -6 373 -15 383 -21 18 -9 18 -23 13 -241 -3 -128 -8 -344 -11 -482 -3
-137 -10 -394 -15 -570 -5 -176 -12 -426 -15 -555 -11 -484 -45 -1751 -65
-2430 -5 -184 -14 -515 -20 -735 -5 -220 -12 -472 -15 -560 -2 -88 -7 -252
-10 -365 -3 -113 -8 -270 -11 -350 -2 -80 -7 -226 -9 -325 -18 -703 -26 -1038
-35 -1445 -5 -256 -12 -550 -15 -655 -7 -242 -32 -1344 -40 -1750 -3 -170 -8
-353 -10 -405 -3 -52 -7 -282 -10 -510 -3 -228 -7 -485 -10 -570 -3 -85 -7
-231 -10 -325 -3 -93 -10 -390 -15 -660 -12 -594 -19 -866 -25 -1005 -3 -58
-7 -249 -11 -424 -3 -176 -9 -327 -14 -337 -11 -20 -144 -26 -765 -35 -225 -3
-549 -9 -720 -13 -358 -8 -490 -5 -503 12 -5 7 -24 57 -41 112 -18 55 -50 150
-71 210 -22 61 -76 216 -121 345 -150 430 -186 534 -231 655 -25 66 -88 251
-141 410 -54 160 -112 333 -130 385 -19 52 -70 203 -115 335 -45 132 -102 299
-127 370 -26 72 -51 146 -56 165 -7 30 -68 208 -150 440 -11 30 -35 100 -53
155 -19 55 -80 233 -136 395 -56 162 -130 381 -165 485 -35 105 -113 336 -174
515 -211 625 -319 946 -369 1100 -28 85 -71 214 -96 285 -24 72 -54 164 -66
205 -12 41 -34 111 -50 155 -33 93 -106 330 -129 421 -16 59 -14 228 3 288 8
28 24 89 37 136 23 90 67 217 100 288 10 23 19 53 19 65 0 25 47 155 130 357
29 69 60 150 70 180 16 49 271 693 320 810 10 25 31 79 46 120 15 41 35 93 45
115 10 22 36 87 58 145 21 58 96 247 166 420 70 173 137 342 150 375 12 33 79
200 148 370 69 171 143 355 165 410 23 55 85 215 140 355 55 140 139 354 187
475 48 121 139 351 202 510 155 393 153 388 330 825 86 212 170 423 188 470
18 47 53 132 77 190 25 58 61 148 82 200 20 52 43 108 51 123 8 16 15 39 15
51 0 39 146 331 172 344 28 14 916 9 1478 -9z"/>
    <path d="M3337 15933 c-13 -12 -7 -33 8 -33 8 0 15 9 15 20 0 20 -11 26 -23
13z"/>
    <path d="M3330 15844 c0 -31 23 -28 28 4 2 15 -2 22 -12 22 -11 0 -16 -9 -16
-26z"/>
    <path d="M3327 15748 c-7 -24 12 -43 26 -29 12 12 5 43 -9 48 -6 2 -14 -6 -17
-19z"/>
    <path d="M3320 15649 c0 -14 5 -19 17 -17 26 5 29 38 4 38 -15 0 -21 -6 -21
-21z"/>
    <path d="M3320 15530 c0 -11 7 -20 15 -20 8 0 15 9 15 20 0 11 -7 20 -15 20
-8 0 -15 -9 -15 -20z"/>
    <path d="M3320 15424 c0 -31 23 -28 28 4 2 15 -2 22 -12 22 -11 0 -16 -9 -16
-26z"/>
    <path d="M3314 15339 c-10 -17 13 -36 27 -22 12 12 4 33 -11 33 -5 0 -12 -5
-16 -11z"/>
    <path d="M3310 15256 c0 -21 21 -31 31 -15 14 22 11 29 -11 29 -11 0 -20 -6
-20 -14z"/>
    <path d="M3314 15166 c-6 -17 2 -36 17 -36 12 0 12 37 -1 45 -6 3 -13 -1 -16
-9z"/>
    <path d="M3310 14925 c0 -17 5 -25 13 -22 6 2 12 12 12 22 0 10 -6 20 -12 23
-8 2 -13 -6 -13 -23z"/>
    <path d="M3290 14706 c0 -8 4 -17 8 -20 13 -8 35 11 28 23 -10 16 -36 14 -36
-3z"/>
    <path d="M3290 14511 c0 -12 6 -21 16 -21 9 0 14 7 12 17 -5 25 -28 28 -28 4z"/>
    <path d="M3290 14409 c0 -24 23 -21 28 4 2 10 -3 17 -12 17 -10 0 -16 -9 -16
-21z"/>
    <path d="M3280 14300 c0 -11 7 -20 15 -20 8 0 15 9 15 20 0 11 -7 20 -15 20
-8 0 -15 -9 -15 -20z"/>
    <path d="M3284 14206 c-4 -10 -2 -22 4 -28 8 -8 13 -7 18 6 4 10 2 22 -4 28
-8 8 -13 7 -18 -6z"/>
    <path d="M3275 14060 c-7 -21 0 -40 16 -40 5 0 9 14 9 30 0 34 -15 40 -25 10z"/>
    <path d="M3270 13939 c0 -24 23 -21 28 4 2 10 -3 17 -12 17 -10 0 -16 -9 -16
-21z"/>
    <path d="M4666 13871 c-25 -26 -27 -34 -25 -95 3 -76 -10 -99 -39 -73 -10 10
-24 45 -31 82 -14 70 -36 104 -54 86 -12 -12 -20 -155 -11 -183 4 -15 18 -18
85 -18 l79 0 24 54 c28 62 57 86 106 86 59 0 106 -66 75 -106 -15 -19 -16 -19
-31 4 -20 27 -54 30 -54 4 0 -55 70 -82 110 -42 38 38 16 154 -38 201 -29 26
-40 29 -100 29 -62 0 -71 -3 -96 -29z"/>
    <path d="M3270 13820 c0 -11 7 -20 15 -20 8 0 15 9 15 20 0 11 -7 20 -15 20
-8 0 -15 -9 -15 -20z"/>
    <path d="M3267 13734 c-14 -15 -6 -34 14 -34 14 0 19 5 17 17 -3 18 -20 27
-31 17z"/>
    <path d="M3267 13603 c-13 -12 -7 -43 8 -43 9 0 15 9 15 25 0 24 -10 32 -23
18z"/>
    <path d="M3267 13493 c-13 -12 -7 -33 8 -33 8 0 15 9 15 20 0 20 -11 26 -23
13z"/>
    <path d="M4790 13468 c0 -8 6 -38 14 -68 7 -30 17 -71 20 -91 4 -21 15 -48 25
-60 9 -13 20 -32 24 -41 14 -40 26 -13 32 75 5 68 3 107 -7 143 l-14 49 -47 3
c-34 2 -47 -1 -47 -10z"/>
    <path d="M4538 13415 c-78 -41 -91 -98 -37 -160 56 -64 128 -84 163 -46 31 34
-6 101 -57 101 -28 0 -33 -30 -8 -49 21 -16 21 -18 6 -31 -14 -12 -21 -12 -43
1 -34 19 -47 55 -33 92 9 22 17 27 46 27 49 0 105 -31 152 -84 46 -52 108 -92
118 -76 3 5 0 13 -9 16 -15 6 -116 138 -116 152 0 21 -95 83 -124 82 -6 -1
-32 -12 -58 -25z"/>
    <path d="M3257 13375 c-8 -18 11 -31 25 -17 11 11 3 32 -12 32 -4 0 -10 -7
-13 -15z"/>
    <path d="M3254 13165 c-3 -8 -3 -19 1 -25 11 -18 25 -11 25 15 0 27 -17 34
-26 10z"/>
    <path d="M3823 13104 c-37 -37 -28 -96 21 -141 34 -31 66 -43 66 -25 0 5 -12
15 -27 23 -33 18 -59 75 -42 95 9 12 15 11 36 -6 39 -31 53 -26 53 18 0 32 -5
41 -25 50 -38 17 -53 15 -82 -14z"/>
    <path d="M3250 13026 c0 -17 5 -26 16 -26 10 0 14 7 12 22 -5 32 -28 35 -28 4z"/>
    <path d="M4291 12983 c-29 -36 -35 -64 -28 -138 7 -70 -1 -85 -45 -85 -39 0
-35 -17 8 -35 47 -19 64 -19 93 4 24 18 25 23 22 119 -2 94 -1 101 21 116 56
40 154 0 188 -76 20 -45 13 -83 -20 -113 -24 -22 -56 -16 -52 10 11 63 -4 90
-43 79 -40 -12 -48 -28 -31 -61 43 -83 148 -82 176 2 13 39 5 77 -27 128 -37
59 -75 77 -165 77 -71 0 -78 -2 -97 -27z"/>
    <path d="M3983 12970 c-17 -10 -37 -28 -42 -39 -18 -34 -13 -95 12 -132 31
-46 118 -93 156 -84 57 12 80 94 51 180 -28 85 -106 118 -177 75z m134 -62
c25 -24 32 -79 11 -96 -7 -5 -32 -13 -55 -17 -113 -18 -145 85 -38 123 45 16
56 14 82 -10z"/>
    <path d="M3242 12893 c5 -25 28 -28 28 -4 0 12 -6 21 -16 21 -9 0 -14 -7 -12
-17z"/>
    <path d="M3240 12756 c0 -17 5 -26 16 -26 10 0 14 7 12 22 -5 32 -28 35 -28 4z"/>
    <path d="M3224 12659 c-10 -17 13 -36 27 -22 12 12 4 33 -11 33 -5 0 -12 -5
-16 -11z"/>
    <path d="M3220 12550 c0 -11 7 -20 15 -20 8 0 15 9 15 20 0 11 -7 20 -15 20
-8 0 -15 -9 -15 -20z"/>
    <path d="M3220 12460 c0 -11 7 -20 15 -20 8 0 15 9 15 20 0 11 -7 20 -15 20
-8 0 -15 -9 -15 -20z"/>
    <path d="M3220 12380 c0 -21 4 -30 13 -27 6 2 12 14 12 27 0 13 -6 25 -12 28
-9 2 -13 -7 -13 -28z"/>
    <path d="M3214 12289 c-8 -14 11 -33 25 -25 11 7 4 36 -9 36 -5 0 -12 -5 -16
-11z"/>
    <path d="M3212 12133 c5 -25 28 -28 28 -4 0 12 -6 21 -16 21 -9 0 -14 -7 -12
-17z"/>
    <path d="M3217 11983 c-11 -10 -8 -53 3 -53 6 0 10 14 10 30 0 31 -2 35 -13
23z"/>
    <path d="M3206 11884 c-10 -25 -7 -34 9 -34 9 0 15 9 15 25 0 28 -15 34 -24 9z"/>
    <path d="M3200 11749 c0 -24 23 -21 28 4 2 10 -3 17 -12 17 -10 0 -16 -9 -16
-21z"/>
    <path d="M3197 11654 c-14 -15 -6 -34 14 -34 14 0 19 5 17 17 -3 18 -20 27
-31 17z"/>
    <path d="M3192 11503 c5 -25 28 -28 28 -4 0 12 -6 21 -16 21 -9 0 -14 -7 -12
-17z"/>
    <path d="M3190 11389 c0 -24 23 -21 28 4 2 10 -3 17 -12 17 -10 0 -16 -9 -16
-21z"/>
    <path d="M3170 11073 c0 -5 4 -14 9 -22 11 -17 32 -5 24 14 -5 15 -33 21 -33
8z"/>
    <path d="M3170 10934 c0 -9 7 -14 17 -12 25 5 28 28 4 28 -12 0 -21 -6 -21
-16z"/>
    <path d="M3176 10853 c-12 -12 -6 -43 9 -43 8 0 15 9 15 19 0 21 -13 34 -24
24z"/>
    <path d="M3164 10715 c-3 -8 -3 -19 1 -25 11 -18 25 -11 25 15 0 27 -17 34
-26 10z"/>
    <path d="M3166 10633 c-12 -12 -6 -43 9 -43 8 0 15 9 15 19 0 21 -13 34 -24
24z"/>
    <path d="M3157 10413 c-13 -12 -7 -33 8 -33 8 0 15 9 15 20 0 20 -11 26 -23
13z"/>
    <path d="M3150 10175 c0 -17 5 -25 13 -22 6 2 12 12 12 22 0 10 -6 20 -12 23
-8 2 -13 -6 -13 -23z"/>
    <path d="M3136 9994 c-8 -21 -1 -28 19 -20 9 3 15 11 13 18 -7 19 -25 20 -32
2z"/>
    <path d="M3124 9639 c-3 -6 -1 -16 5 -22 9 -9 14 -8 21 3 9 15 4 30 -10 30 -5
0 -12 -5 -16 -11z"/>
    <path d="M3120 9514 c0 -31 23 -28 28 4 2 15 -2 22 -12 22 -11 0 -16 -9 -16
-26z"/>
    <path d="M3126 9473 c-9 -10 -7 -83 3 -83 11 0 21 25 21 55 0 25 -12 39 -24
28z"/>
    <path d="M3117 9303 c-4 -3 -7 -12 -7 -20 0 -17 26 -17 33 1 8 21 -11 35 -26
19z"/>
    <path d="M1643 9180 c-121 -13 -319 -127 -478 -277 -16 -15 -44 -40 -62 -54
-46 -37 -105 -118 -113 -155 -9 -41 11 -77 66 -119 21 -16 71 -56 110 -90 160
-135 247 -189 358 -226 158 -50 349 2 476 132 132 134 181 342 119 500 -25 64
-79 147 -126 190 -82 79 -206 113 -350 99z m140 -45 c43 -7 97 -25 121 -39 58
-34 133 -119 164 -185 34 -73 49 -198 32 -265 -20 -84 -68 -167 -132 -233 -77
-78 -150 -112 -267 -126 -100 -11 -143 -3 -260 50 -88 41 -145 79 -214 145
-27 26 -65 56 -84 68 -71 42 -123 93 -123 121 0 33 69 119 141 174 28 22 63
52 77 68 14 15 30 27 35 27 5 0 34 18 66 40 167 120 215 146 291 160 64 11 66
11 153 -5z"/>
    <path d="M1818 8948 c-3 -33 -3 -33 -55 -31 -39 2 -53 -1 -53 -11 0 -17 22
-26 60 -26 19 0 33 -7 40 -21 22 -40 53 -63 83 -60 42 4 79 -24 75 -57 -3 -26
-5 -27 -65 -25 -46 1 -63 -2 -63 -12 0 -27 100 -34 137 -9 22 14 25 21 20 56
-8 59 -29 77 -96 80 -42 2 -56 7 -56 18 0 12 12 14 61 12 48 -3 65 1 84 16 22
17 23 23 12 46 -16 35 -41 34 -39 -1 2 -26 0 -28 -39 -27 -62 1 -74 9 -74 49
0 46 -27 49 -32 3z"/>
    <path d="M1457 8905 c-15 -21 -26 -25 -69 -25 -44 0 -49 -2 -38 -15 7 -9 29
-15 51 -15 28 0 42 -6 51 -20 15 -24 34 -26 42 -5 4 12 16 15 43 12 56 -6 86
5 94 33 6 26 -5 60 -21 60 -5 0 -10 -12 -12 -27 -3 -26 -6 -28 -48 -28 -38 0
-45 3 -50 24 -8 33 -22 35 -43 6z"/>
    <path d="M1488 8779 c-30 -17 -20 -25 28 -25 50 1 73 -17 60 -49 -5 -15 -15
-17 -66 -12 -46 4 -60 2 -60 -8 0 -8 22 -18 56 -25 47 -10 59 -9 80 4 30 21
34 84 6 109 -21 19 -77 22 -104 6z"/>
    <path d="M1839 8621 c-54 -55 -33 -126 42 -137 52 -7 84 25 83 82 -2 83 -68
112 -125 55z m85 -23 c21 -30 20 -51 -5 -74 -19 -17 -23 -17 -47 -3 -37 20
-39 52 -6 78 33 26 39 26 58 -1z"/>
    <path d="M1438 8609 c-12 -6 -18 -22 -18 -43 0 -44 26 -75 72 -85 32 -8 40 -5
61 18 27 28 30 38 28 89 -2 49 -31 44 -31 -6 0 -52 -19 -77 -54 -68 -15 4 -32
18 -38 32 -10 22 -9 28 6 39 10 8 15 18 11 24 -8 13 -15 13 -37 0z"/>
    <path d="M3116 9103 c-12 -12 -6 -43 9 -43 8 0 15 9 15 19 0 21 -13 34 -24 24z"/>
    <path d="M3100 8821 c0 -12 6 -21 16 -21 9 0 14 7 12 17 -5 25 -28 28 -28 4z"/>
    <path d="M3094 8539 c-10 -17 13 -36 27 -22 12 12 4 33 -11 33 -5 0 -12 -5
-16 -11z"/>
    <path d="M3097 8354 c-11 -11 -8 -54 3 -54 6 0 13 6 16 14 7 17 -9 50 -19 40z"/>
    <path d="M3082 8048 c5 -32 28 -35 28 -4 0 17 -5 26 -16 26 -10 0 -14 -7 -12
-22z"/>
    <path d="M3074 7899 c-10 -17 13 -36 27 -22 12 12 4 33 -11 33 -5 0 -12 -5
-16 -11z"/>
    <path d="M3070 7770 c0 -11 7 -20 15 -20 8 0 15 9 15 20 0 11 -7 20 -15 20 -8
0 -15 -9 -15 -20z"/>
    <path d="M3066 7533 c-12 -12 -6 -43 9 -43 8 0 15 9 15 19 0 21 -13 34 -24 24z"/>
    <path d="M3062 7428 c-18 -18 -14 -28 8 -28 11 0 20 6 20 14 0 21 -15 27 -28
14z"/>
    <path d="M3050 7250 c0 -29 4 -40 15 -40 11 0 15 11 15 40 0 29 -4 40 -15 40
-11 0 -15 -11 -15 -40z"/>
    <path d="M3050 7131 c0 -12 6 -21 16 -21 9 0 14 7 12 17 -5 25 -28 28 -28 4z"/>
    <path d="M3050 7019 c0 -24 23 -21 28 4 2 10 -3 17 -12 17 -10 0 -16 -9 -16
-21z"/>
    <path d="M3040 6906 c0 -21 21 -31 31 -15 14 22 11 29 -11 29 -11 0 -20 -6
-20 -14z"/>
    <path d="M3047 6843 c-3 -5 -5 -27 -4 -50 0 -63 23 -56 25 7 1 44 -9 64 -21
43z"/>
    <path d="M3040 6670 c0 -11 7 -20 15 -20 8 0 15 9 15 20 0 11 -7 20 -15 20 -8
0 -15 -9 -15 -20z"/>
    <path d="M3034 6465 c-7 -17 4 -37 17 -30 12 8 12 45 -1 45 -6 0 -13 -7 -16
-15z"/>
    <path d="M3034 6346 c-6 -17 2 -36 17 -36 12 0 12 37 -1 45 -6 3 -13 -1 -16
-9z"/>
    <path d="M3030 6230 c0 -11 7 -20 15 -20 8 0 15 9 15 20 0 11 -7 20 -15 20 -8
0 -15 -9 -15 -20z"/>
    <path d="M3023 6064 c-7 -19 18 -38 28 -22 9 14 0 38 -12 38 -5 0 -12 -7 -16
-16z"/>
    <path d="M3020 5800 c0 -11 7 -20 15 -20 8 0 15 9 15 20 0 11 -7 20 -15 20 -8
0 -15 -9 -15 -20z"/>
    <path d="M3022 5698 c2 -13 8 -23 13 -23 6 0 11 10 13 23 2 15 -2 22 -13 22
-11 0 -15 -7 -13 -22z"/>
    <path d="M3013 5585 c-3 -9 -3 -18 0 -22 10 -10 37 6 37 22 0 20 -29 20 -37 0z"/>
    <path d="M3011 5406 c-12 -14 -5 -26 16 -26 15 0 18 26 4 34 -5 3 -14 0 -20
-8z"/>
    <path d="M3006 5315 c-8 -21 1 -35 20 -35 10 0 14 8 12 22 -4 27 -23 34 -32
13z"/>
    <path d="M3000 5215 c0 -8 9 -15 20 -15 11 0 20 7 20 15 0 8 -9 15 -20 15 -11
0 -20 -7 -20 -15z"/>
    <path d="M3007 5143 c-13 -13 -7 -53 8 -53 10 0 15 10 15 30 0 29 -9 38 -23
23z"/>
    <path d="M2987 5035 c-7 -16 8 -29 23 -20 15 9 12 35 -4 35 -8 0 -16 -7 -19
-15z"/>
    <path d="M2987 4954 c-14 -14 -7 -35 11 -32 9 2 17 10 17 17 0 16 -18 25 -28
15z"/>
    <path d="M4096 4874 c-3 -26 -6 -66 -6 -90 0 -42 1 -43 43 -55 42 -11 172 -8
184 5 4 4 1 16 -6 28 -12 19 -11 23 5 35 29 21 110 17 135 -8 23 -23 13 -45
-23 -51 -36 -5 -34 -28 2 -28 47 0 68 16 80 59 13 48 5 69 -41 109 -31 27 -45
32 -87 32 -88 0 -126 -32 -127 -105 0 -38 -2 -40 -38 -46 -45 -7 -57 4 -64 63
-6 46 -28 98 -42 98 -5 0 -11 -21 -15 -46z"/>
    <path d="M2980 4840 c0 -11 7 -20 15 -20 8 0 15 9 15 20 0 11 -7 20 -15 20 -8
0 -15 -9 -15 -20z"/>
    <path d="M2980 4606 c0 -17 5 -26 16 -26 10 0 14 7 12 22 -5 32 -28 35 -28 4z"/>
    <path d="M4436 4601 c-3 -5 5 -29 19 -53 24 -42 34 -111 17 -122 -9 -5 -66 33
-142 95 -67 54 -85 61 -136 53 -61 -9 -98 -40 -89 -75 10 -41 72 -99 106 -99
31 0 45 19 35 45 -5 13 -9 13 -26 3 -26 -17 -55 0 -55 33 0 22 4 24 51 24 45
-1 58 -6 115 -49 76 -58 164 -99 194 -92 21 5 22 9 17 113 -2 60 -9 114 -14
121 -12 14 -84 17 -92 3z"/>
    <path d="M2974 4519 c-3 -6 -2 -15 4 -21 13 -13 32 -2 32 18 0 16 -26 19 -36
3z"/>
    <path d="M2977 4444 c-14 -14 -7 -35 11 -32 9 2 17 10 17 17 0 16 -18 25 -28
15z"/>
    <path d="M3605 4412 c-33 -11 -61 -35 -84 -72 -40 -67 -22 -137 48 -178 45
-26 49 -27 188 -24 78 1 153 -2 167 -7 13 -6 41 -35 60 -66 43 -66 76 -78 50
-17 -32 75 -33 81 -22 88 12 8 160 -2 278 -20 76 -11 86 -15 97 -38 7 -14 20
-31 28 -38 20 -17 20 -1 -2 61 -17 46 -20 49 -53 50 -36 0 -128 6 -290 17
l-95 7 -16 50 c-23 68 -37 68 -41 -1 l-3 -57 -150 -2 c-82 -2 -158 1 -167 6
-23 12 -48 61 -48 93 0 37 30 105 51 116 20 11 72 13 82 3 4 -3 -2 -17 -14
-29 -24 -26 -18 -44 15 -44 59 0 54 78 -6 99 -34 12 -43 12 -73 3z"/>
    <path d="M2974 4313 c0 -26 6 -48 13 -50 8 -3 12 11 11 46 -1 33 -6 51 -14 51
-8 0 -11 -16 -10 -47z"/>
    <path d="M2970 4191 c0 -12 6 -21 16 -21 9 0 14 7 12 17 -5 25 -28 28 -28 4z"/>
    <path d="M2964 4109 c-3 -6 -2 -15 4 -21 13 -13 32 -2 32 18 0 16 -26 19 -36
3z"/>
    <path d="M2967 4034 c-14 -14 -7 -35 11 -32 9 2 17 10 17 17 0 16 -18 25 -28
15z"/>
    <path d="M2967 3944 c-14 -15 -6 -34 14 -34 14 0 19 5 17 17 -3 18 -20 27 -31
17z"/>
    <path d="M2967 3853 c-4 -3 -7 -24 -7 -45 0 -27 4 -38 15 -38 11 0 15 12 15
45 0 42 -7 54 -23 38z"/>
    <path d="M2957 3727 c-3 -8 -1 -20 4 -28 8 -12 10 -12 19 1 5 8 8 19 7 24 -5
16 -24 18 -30 3z"/>
    <path d="M2957 3644 c-4 -4 -7 -22 -7 -41 0 -40 29 -48 32 -8 0 14 1 30 2 37
1 13 -17 21 -27 12z"/>
    <path d="M2952 3493 c5 -25 28 -28 28 -4 0 12 -6 21 -16 21 -9 0 -14 -7 -12
-17z"/>
    <path d="M2945 3401 c-8 -15 3 -31 21 -31 9 0 14 7 12 17 -4 20 -24 28 -33 14z"/>
    <path d="M2940 3326 c0 -10 9 -16 21 -16 24 0 21 23 -4 28 -10 2 -17 -3 -17
-12z"/>
    <path d="M2947 3144 c-4 -4 -7 -23 -7 -41 0 -42 23 -41 28 1 4 29 -9 52 -21
40z"/>
    <path d="M2934 2899 c-3 -6 -1 -16 5 -22 9 -9 14 -8 21 3 9 15 4 30 -10 30 -5
0 -12 -5 -16 -11z"/>
    <path d="M2923 2535 c0 -29 5 -45 13 -45 8 0 12 15 12 45 -1 27 -6 45 -13 45
-7 0 -12 -17 -12 -45z"/>
    <path d="M2920 2371 c0 -12 6 -21 16 -21 9 0 14 7 12 17 -5 25 -28 28 -28 4z"/>
    <path d="M2917 2293 c-13 -12 -7 -33 8 -33 8 0 15 9 15 20 0 20 -11 26 -23 13z"/>
    <path d="M2907 1973 c-13 -12 -7 -43 8 -43 9 0 15 9 15 25 0 24 -10 32 -23 18z"/>
    <path d="M2907 1863 c-13 -12 -7 -33 8 -33 8 0 15 9 15 20 0 20 -11 26 -23 13z"/>
    <path d="M2900 1730 c0 -16 5 -30 10 -30 6 0 10 14 10 30 0 17 -4 30 -10 30
-5 0 -10 -13 -10 -30z"/>
    <path d="M2897 1658 c-7 -23 -1 -38 14 -38 5 0 9 14 9 30 0 35 -15 40 -23 8z"/>
    <path d="M2890 1550 c0 -11 7 -20 15 -20 8 0 15 9 15 20 0 11 -7 20 -15 20 -8
0 -15 -9 -15 -20z"/>
    <path d="M2897 1473 c-13 -12 -7 -33 8 -33 8 0 15 9 15 20 0 20 -11 26 -23 13z"/>
    <path d="M2890 1375 c0 -14 4 -25 9 -25 12 0 23 29 15 41 -10 18 -24 9 -24
-16z"/>
    <path d="M2516 15563 c-40 -10 -98 -58 -118 -97 -56 -110 -72 -261 -35 -333
44 -84 220 -64 248 29 15 47 3 124 -22 149 -25 25 -79 25 -112 -1 -14 -11 -28
-17 -31 -12 -5 8 9 122 22 182 6 28 13 35 32 35 20 0 27 -8 40 -47 11 -36 21
-48 40 -51 39 -8 53 10 47 62 -4 34 -12 51 -34 68 -28 23 -40 25 -77 16z m3
-307 c7 -8 11 -37 9 -68 -3 -49 -5 -53 -28 -53 -16 0 -29 8 -37 25 -13 27 -17
92 -6 103 11 12 50 7 62 -7z"/>
    <path d="M1982 15510 c-57 -41 -78 -113 -46 -159 13 -18 23 -22 45 -17 48 9
42 -12 -12 -46 -43 -26 -56 -42 -80 -95 -34 -74 -35 -84 -11 -106 16 -15 35
-16 152 -9 l134 7 23 34 c27 39 32 108 8 117 -8 4 -24 -5 -37 -21 -16 -18 -41
-30 -83 -40 -33 -7 -74 -19 -91 -26 -17 -7 -39 -9 -48 -6 -15 6 -14 11 10 42
14 19 50 48 79 65 30 17 76 51 104 76 48 43 51 49 51 93 0 39 -5 52 -27 73
-62 57 -110 62 -171 18z m80 -47 c22 -19 23 -62 4 -89 -16 -21 -15 -21 -32 34
-6 21 -34 25 -54 7 -28 -25 -43 -10 -25 25 22 43 73 54 107 23z"/>
    <path d="M62 15048 c-33 -6 -52 -15 -52 -24 0 -11 14 -13 63 -11 l62 2 0 -95
c-1 -83 -6 -206 -30 -685 -3 -55 -10 -194 -15 -310 -16 -376 -50 -1085 -61
-1295 -6 -113 -12 -437 -14 -720 l-4 -515 19 355 c10 195 23 481 30 635 6 154
13 300 15 325 2 25 7 142 10 260 3 118 10 280 15 360 5 80 19 366 30 635 11
270 27 598 36 730 9 132 14 267 12 300 -3 59 -4 60 -33 62 -16 0 -54 -3 -83
-9z"/>
    <path d="M5741 9010 c-1 -74 -6 -342 -11 -595 -5 -253 -10 -507 -10 -565 -2
-161 -28 -1350 -35 -1565 -3 -104 -12 -575 -20 -1045 -8 -470 -19 -1021 -25
-1225 -5 -203 -12 -503 -15 -665 -3 -162 -10 -468 -15 -680 -5 -212 -12 -531
-15 -710 -3 -179 -7 -390 -10 -470 -3 -80 -7 -271 -10 -425 -3 -154 -7 -347
-10 -430 -3 -82 -8 -257 -11 -387 l-7 -238 25 0 26 0 6 152 c3 84 8 277 11
428 3 151 10 462 15 690 24 990 31 1304 40 1780 5 278 12 568 15 645 2 77 7
307 10 510 3 204 10 548 15 765 5 217 12 577 16 800 3 223 8 437 11 475 6 89
16 2796 11 2850 -3 22 -6 -21 -7 -95z"/>
    <path d="M424 7295 c6 -24 2 -28 -49 -50 -31 -14 -62 -25 -69 -25 -29 0 -201
-79 -204 -94 -5 -23 17 -20 94 15 117 53 107 53 145 3 31 -41 36 -44 80 -44
39 0 51 5 68 26 25 32 27 71 4 103 -9 13 -19 38 -22 55 -5 23 -13 32 -30 34
-21 3 -23 1 -17 -23z m47 -103 c5 -26 3 -35 -14 -47 -31 -21 -50 -19 -78 11
l-24 26 29 24 c41 36 78 30 87 -14z"/>
    <path d="M380 7034 c-14 -36 -13 -42 10 -54 14 -7 20 -21 20 -43 0 -31 15 -57
32 -57 4 0 8 9 8 20 0 20 63 60 95 60 17 0 20 23 5 51 -14 25 -52 26 -48 2 3
-23 -9 -43 -26 -43 -7 0 -25 10 -40 21 -20 15 -24 25 -17 32 18 18 13 37 -9
37 -13 0 -24 -10 -30 -26z"/>
    <path d="M530 6872 c0 -4 6 -14 13 -21 10 -10 8 -15 -8 -27 -11 -9 -32 -18
-46 -21 -24 -5 -25 -7 -19 -50 9 -57 39 -82 96 -83 75 0 110 72 59 120 -17 16
-23 30 -19 43 4 12 -1 24 -13 32 -20 16 -63 20 -63 7z m54 -98 c9 -4 21 -15
27 -26 21 -38 -33 -63 -82 -38 -23 13 -24 28 -2 52 17 19 31 22 57 12z"/>
    <path d="M565 6619 c-39 -35 -42 -51 -19 -109 17 -43 45 -57 86 -45 31 10 78
55 78 76 0 33 -29 85 -55 97 -39 18 -51 15 -90 -19z m87 -26 c22 -20 23 -51 1
-75 -35 -39 -83 -13 -83 44 0 46 46 64 82 31z"/>
    <path d="M596 6405 c-32 -30 -34 -70 -5 -102 17 -17 19 -23 8 -27 -98 -32
-174 -64 -183 -78 -13 -22 -3 -32 21 -20 30 16 114 49 168 65 63 19 165 66
165 76 0 13 -32 75 -48 94 -24 27 -93 23 -126 -8z m95 -15 c22 -12 25 -52 5
-69 -16 -13 -71 -4 -87 15 -15 18 -5 42 23 54 31 12 36 12 59 0z"/>
    <path d="M748 6223 c-3 -26 -11 -30 -155 -78 -88 -29 -153 -55 -153 -62 0 -19
42 -16 97 6 92 36 123 42 130 23 13 -35 36 -52 74 -52 21 0 44 7 52 15 21 21
30 70 18 94 -6 11 -11 29 -11 40 0 11 -9 25 -19 31 -28 14 -29 13 -33 -17z
m30 -76 c9 -10 7 -19 -4 -36 -18 -26 -52 -25 -68 2 -20 33 47 64 72 34z"/>
    <path d="M10 6139 c0 -12 7 -19 20 -19 11 0 20 6 20 14 0 7 -9 16 -20 19 -15
4 -20 0 -20 -14z"/>
    <path d="M90 6120 c-23 -23 -27 -77 -8 -103 7 -9 27 -19 43 -23 26 -5 36 0 63
27 33 34 35 40 26 75 -11 43 -90 58 -124 24z m78 -27 c16 -14 18 -23 11 -41
-7 -19 -15 -23 -41 -20 -26 2 -34 8 -36 26 -4 25 13 52 33 52 7 0 22 -8 33
-17z"/>
    <path d="M727 6003 c-12 -12 -7 -46 9 -65 13 -14 14 -21 5 -32 -10 -11 -9 -19
1 -35 15 -24 38 -28 38 -6 0 18 24 31 72 40 49 9 64 28 50 60 -8 17 -20 25
-37 25 -27 0 -32 -9 -13 -28 9 -9 7 -13 -6 -18 -28 -11 -70 9 -84 39 -13 27
-23 33 -35 20z"/>
    <path d="M883 5830 c6 -24 -4 -32 -58 -45 -39 -10 -40 -11 -37 -50 4 -55 38
-85 97 -85 35 0 48 5 64 26 36 45 35 61 -4 119 -36 55 -73 75 -62 35z m38 -70
c22 -12 25 -38 6 -65 -11 -14 -21 -16 -51 -11 -49 9 -57 33 -22 63 30 26 39
27 67 13z"/>
    <path d="M940 5620 c0 -5 8 -14 19 -19 10 -6 22 -18 25 -27 9 -22 -30 -64 -60
-64 -26 0 -51 25 -34 35 20 12 10 26 -17 23 -36 -4 -41 -33 -12 -64 33 -35 99
-34 134 3 30 33 32 76 5 103 -21 21 -60 27 -60 10z"/>
    <path d="M1135 5363 c-16 -8 -38 -22 -47 -30 -12 -11 -28 -13 -58 -8 -30 5
-47 3 -65 -9 -13 -9 -36 -16 -50 -16 -26 0 -33 -14 -14 -26 6 -3 19 -26 29
-49 24 -56 51 -71 100 -56 21 6 41 18 44 26 3 9 17 20 32 25 19 8 24 15 19 28
-20 47 -17 60 14 77 36 18 51 13 51 -16 0 -14 6 -19 17 -17 26 5 27 31 3 61
-25 31 -34 32 -75 10z m-100 -77 c24 -10 35 -22 35 -35 0 -25 -41 -54 -71 -49
-30 4 -42 49 -22 77 17 25 15 25 58 7z"/>
    <path d="M1098 5143 c-3 -10 -22 -24 -44 -32 -64 -22 -84 -39 -84 -70 0 -21 9
-36 35 -56 26 -19 34 -32 30 -45 -10 -31 13 -32 55 -1 33 24 48 28 76 24 29
-5 34 -3 34 13 0 11 -7 28 -16 39 -12 16 -17 17 -32 7 -45 -32 -61 -35 -99
-21 -29 12 -38 20 -38 39 0 20 10 27 63 45 35 12 67 26 72 31 12 12 0 30 -26
38 -16 5 -23 2 -26 -11z"/>
    <path d="M1130 4903 c-35 -13 -50 -37 -50 -79 0 -60 7 -73 46 -80 57 -11 80 1
99 51 10 24 15 51 12 59 -11 29 -78 59 -107 49z m64 -55 c7 -11 7 -26 0 -45
-7 -22 -16 -28 -39 -28 -24 0 -30 5 -37 33 -6 23 -5 38 3 48 16 19 59 14 73
-8z"/>
    <path d="M1137 4703 c-9 -9 -9 -48 1 -57 4 -4 7 -26 7 -48 0 -24 5 -43 13 -45
7 -3 12 4 12 17 0 23 50 50 93 50 34 0 51 23 37 49 -14 27 -36 27 -43 0 -4
-16 -12 -20 -39 -17 -28 2 -34 7 -36 31 -3 26 -28 37 -45 20z"/>
    <path d="M419 4636 c-4 -4 -267 -15 -361 -16 -42 0 -48 -3 -48 -21 0 -17 5
-20 23 -16 12 3 102 7 200 8 127 2 180 0 189 -9 12 -12 9 -114 -22 -742 -23
-453 -50 -1060 -51 -1130 0 -41 -5 -165 -9 -275 -5 -110 -14 -330 -21 -490 -9
-222 -14 -293 -25 -305 -11 -11 -47 -15 -149 -18 l-135 -4 0 -25 c0 -23 3 -25
31 -19 17 3 93 6 168 6 102 0 142 4 156 14 19 13 19 15 2 33 -15 17 -16 36
-12 154 3 74 10 269 15 434 17 486 29 815 39 1055 5 124 14 367 20 540 11 307
25 596 38 753 6 77 6 77 -19 77 -14 0 -27 -2 -29 -4z"/>
    <path d="M1299 4569 c-12 -8 -11 -11 4 -20 25 -14 8 -33 -48 -54 -33 -13 -48
-14 -63 -6 -18 9 -23 8 -32 -10 -7 -11 -27 -27 -46 -35 -61 -25 -31 -48 32
-24 19 8 30 8 38 0 16 -16 33 -12 39 9 2 11 24 26 53 36 65 24 74 32 74 66 0
32 -28 53 -51 38z"/>
    <path d="M60 4495 c0 -8 9 -15 20 -15 11 0 20 7 20 15 0 8 -9 15 -20 15 -11 0
-20 -7 -20 -15z"/>
    <path d="M1325 4438 c-29 -16 -36 -30 -30 -56 7 -31 -3 -46 -21 -31 -8 6 -14
25 -14 42 l0 31 -21 -21 c-19 -19 -20 -23 -8 -48 18 -37 40 -49 72 -41 24 6
27 11 27 46 0 21 4 41 9 44 16 10 33 -22 29 -55 -4 -37 12 -42 29 -9 9 19 9
31 -3 59 -13 32 -30 51 -44 51 -3 -1 -14 -6 -25 -12z"/>
    <path d="M44 4149 c-10 -17 13 -36 27 -22 12 12 4 33 -11 33 -5 0 -12 -5 -16
-11z"/>
    <path d="M1394 4121 c-42 -19 -72 -66 -60 -96 10 -27 68 -56 101 -50 30 6 70
37 87 68 13 26 -7 71 -38 86 -33 15 -42 14 -90 -8z m90 -43 c24 -39 -68 -90
-102 -56 -17 17 -15 35 9 59 24 24 77 23 93 -3z"/>
    <path d="M40 4026 c0 -8 4 -17 9 -20 11 -7 33 18 24 27 -12 12 -33 7 -33 -7z"/>
    <path d="M1515 3941 c5 -16 -2 -24 -33 -40 -35 -18 -42 -19 -52 -6 -18 21 -29
19 -40 -10 -5 -13 -28 -34 -51 -45 -29 -15 -38 -25 -31 -32 8 -8 20 -7 41 2
25 10 34 10 46 0 18 -15 45 -6 45 14 0 8 26 30 58 49 45 26 57 39 57 58 0 18
-6 25 -23 27 -20 3 -23 0 -17 -17z"/>
    <path d="M34 3909 c-8 -14 11 -33 25 -25 16 10 13 36 -3 36 -8 0 -18 -5 -22
-11z"/>
    <path d="M26 3712 c-2 -4 -1 -14 4 -22 7 -11 12 -12 21 -3 6 6 8 16 5 22 -8
13 -23 14 -30 3z"/>
    <path d="M1590 3640 c0 -5 13 -16 29 -24 36 -19 47 -55 22 -79 -17 -18 -19
-17 -45 17 -32 43 -68 48 -90 13 -20 -30 -10 -64 25 -82 39 -21 67 -18 114 8
37 21 40 26 39 64 -1 57 -26 93 -64 93 -17 0 -30 -4 -30 -10z m-16 -104 c18
-29 6 -42 -24 -26 -20 11 -26 31 -13 43 11 12 20 8 37 -17z"/>
    <path d="M14 3489 c-3 -6 -2 -15 2 -19 12 -12 38 5 30 19 -9 14 -23 14 -32 0z"/>
    <path d="M1680 3456 c0 -7 7 -19 15 -26 38 -31 -9 -109 -57 -95 -40 13 -49 26
-42 58 5 25 4 29 -11 24 -9 -4 -19 -7 -21 -7 -2 0 -4 -20 -4 -44 0 -40 3 -45
31 -55 36 -13 89 -14 105 -3 17 11 54 75 54 93 0 22 -38 69 -56 69 -8 0 -14
-6 -14 -14z"/>
    <path d="M10 3369 c0 -24 23 -21 28 4 2 10 -3 17 -12 17 -10 0 -16 -9 -16 -21z"/>
    <path d="M1715 3290 c-3 -5 6 -17 20 -26 19 -12 25 -24 23 -42 -4 -32 -28 -41
-35 -13 -3 12 -19 29 -35 37 -26 14 -32 14 -53 0 -27 -17 -43 -72 -26 -89 6
-6 37 -13 69 -15 52 -4 61 -1 90 23 24 20 32 35 32 58 0 38 -7 50 -37 66 -26
14 -40 14 -48 1z m-27 -87 c5 -17 -26 -29 -40 -15 -6 6 -7 15 -3 22 9 14 37 9
43 -7z"/>
    <path d="M143 3252 c-20 -3 -22 -8 -17 -46 5 -37 -9 -227 -22 -281 -9 -42 10
-49 64 -21 118 60 137 175 30 180 -30 1 -33 4 -36 38 -2 20 4 53 12 73 9 21
16 41 16 45 0 11 -21 17 -47 12z m85 -214 c20 -20 14 -45 -19 -73 -39 -32 -53
-28 -55 16 -3 54 42 89 74 57z"/>
    <path d="M1783 3121 c-6 -10 -35 -27 -64 -37 -58 -21 -70 -38 -45 -62 16 -16
18 -16 32 2 8 11 38 30 67 42 41 18 52 27 52 45 0 30 -26 36 -42 10z"/>
    <path d="M2055 3021 c-27 -26 -163 -84 -181 -77 -8 3 -14 14 -14 25 0 12 -11
28 -25 37 -63 41 -152 -30 -127 -100 7 -18 12 -42 12 -53 0 -11 7 -26 16 -34
13 -11 19 -9 37 14 24 29 253 137 291 137 47 0 86 50 50 64 -26 10 -38 7 -59
-13z m-237 -53 c30 -30 0 -75 -43 -64 -34 9 -42 32 -20 56 20 23 45 26 63 8z"/>
    <path d="M1891 2669 c-19 -7 -22 -14 -18 -37 13 -66 13 -67 -13 -67 -20 0 -26
6 -28 28 -3 26 -25 37 -36 18 -9 -13 21 -78 39 -84 19 -8 44 1 72 26 18 16 20
24 12 45 -6 16 -6 29 0 35 14 14 31 -1 31 -29 0 -15 6 -24 15 -24 24 0 20 76
-4 90 -23 12 -38 12 -70 -1z"/>
    <path d="M1994 2539 c-10 -12 -43 -32 -72 -45 -58 -26 -73 -47 -49 -71 17 -17
37 -10 37 13 0 18 58 44 99 44 39 0 52 34 24 62 -19 18 -20 18 -39 -3z"/>
    <path d="M1982 2379 c-29 -12 -60 -32 -69 -46 -15 -23 -15 -27 0 -53 21 -35
18 -37 -103 -80 -124 -43 -153 -68 -115 -100 12 -10 16 -8 24 12 7 18 25 31
68 46 32 11 119 42 193 69 92 33 135 53 135 63 0 17 -21 17 -83 -2 -48 -14
-77 -4 -77 28 0 14 14 24 58 38 33 10 57 24 57 32 0 19 -25 17 -88 -7z"/>
    <path d="M2108 2188 c-2 -26 -11 -36 -40 -52 l-38 -20 -24 23 c-29 27 -45 21
-38 -14 4 -22 -2 -28 -52 -51 -91 -41 -87 -63 6 -34 l57 18 16 -25 c20 -30 36
-21 32 19 -2 26 3 32 38 46 75 32 85 40 85 76 0 22 -6 36 -16 40 -23 9 -22 9
-26 -26z"/>
    <path d="M2219 1853 c-1 -5 -2 -17 -3 -27 -1 -16 -9 -20 -41 -20 -32 -1 -42
-6 -55 -28 -13 -25 -13 -31 0 -55 32 -57 134 -50 162 12 19 42 -18 125 -56
125 -3 0 -7 -3 -7 -7z m-25 -96 c8 -12 7 -20 -2 -29 -16 -16 -47 13 -38 37 7
19 25 16 40 -8z"/>
    <path d="M2200 1620 c-46 -31 -60 -58 -26 -52 11 2 36 15 55 28 40 27 61 30
79 12 33 -33 4 -78 -63 -101 -48 -17 -58 -37 -18 -37 38 0 104 39 123 73 14
25 13 30 -5 65 -17 32 -25 37 -60 40 -31 2 -50 -5 -85 -28z"/>
    <path d="M2375 1428 c-11 -24 -165 -99 -287 -138 -36 -12 -76 -33 -89 -46 -20
-21 -20 -26 -9 -54 13 -31 42 -55 53 -43 4 3 -1 19 -10 34 -22 36 -12 48 67
77 100 38 275 113 298 128 15 10 22 23 20 37 -4 30 -31 33 -43 5z"/>
    <path d="M119 1339 c-47 -3 -91 -9 -97 -13 -7 -4 -12 -27 -12 -51 l0 -44 88 4
c48 3 99 5 114 5 30 0 56 30 60 70 3 21 -2 25 -32 30 -19 3 -74 2 -121 -1z"/>
    <path d="M397 1302 c-42 -46 -87 -198 -87 -294 0 -52 29 -127 56 -145 29 -18
115 -11 152 13 38 25 82 136 81 202 -1 85 -18 126 -78 187 -58 60 -94 70 -124
37z m67 -50 c8 -16 22 -71 31 -122 28 -162 -3 -287 -56 -224 -35 42 -53 310
-23 352 20 29 30 28 48 -6z"/>
    <path d="M2350 1281 c-47 -23 -55 -32 -58 -59 -3 -31 22 -82 40 -82 9 0 9 8
-8 67 -5 20 0 26 41 43 26 11 49 20 51 20 11 0 87 -77 99 -99 23 -46 5 -116
-43 -164 -38 -38 -46 -41 -95 -41 -35 0 -64 7 -87 20 -38 22 -80 86 -80 122 0
14 -5 22 -12 20 -23 -8 -19 -42 9 -98 21 -40 38 -60 65 -73 81 -40 158 -34
214 15 69 60 90 136 58 204 -23 47 -102 134 -122 134 -10 -1 -42 -13 -72 -29z"/>
    <path d="M158 1207 c-24 -19 -108 -134 -108 -147 0 -8 7 -9 18 -5 39 16 48 15
75 -13 38 -40 47 -114 17 -160 -18 -29 -25 -33 -58 -30 -35 3 -37 5 -40 41 -4
41 -5 42 -33 27 -24 -14 -25 -61 -1 -88 34 -39 132 -31 184 15 29 25 68 112
68 151 0 75 -52 139 -103 127 -43 -11 -49 3 -20 46 27 41 28 58 1 36z"/>
    <path d="M2355 60 c-10 -16 4 -50 21 -50 11 0 14 8 12 27 -3 28 -22 41 -33 23z"/>
    <path d="M2183 44 c-6 -17 12 -34 38 -34 21 0 31 24 16 39 -16 16 -47 13 -54
-5z"/>
  </g>
</svg>