<?xml version="1.0" encoding="UTF-8"?>
<svg xmlns="http://www.w3.org/2000/svg"
     xmlns:inkscape="http://www.inkscape.org/namespaces/inkscape"
     viewBox="0 0 432 842" width="432" height="842">
  <rect x="0" y="0" width="100%" height="100%" fill="#fffaf0"/>
  <g transform="translate(0.000000,842.000000) scale(0.100000,-0.100000)">
    <g inkscape:groupmode="layer" inkscape:label="silhouette" fill="none" stroke="#2a2a2a" stroke-width="1.4" stroke-linejoin="round" stroke-linecap="round">
      <path d="M3810 7234 c-371 -56 -518 -81 -635 -109 -33 -8 -121 -28 -195 -44 -74 -17 -166 -40 -205 -51 -38 -12 -88 -25 -109 -31 -50 -13 -158 -46 -214 -66 -35 -13 -44 -22 -51 -52 -6 -20 -17 -157 -26 -306 -8 -148 -20 -331 -25 -405 -5 -74 -17 -263 -25 -420 -9 -157 -20 -350 -26 -430 -11 -172 -30 -495 -69 -1175 -6 -99 -15 -252 -20 -340 -14 -232 -19 -333 -30 -579 -6 -120 -14 -280 -20 -355 -5 -75 -14 -244 -20 -376 -6 -132 -12 -258 -15 -280 -6 -46 -11 -121 -25 -355 -6 -91 -15 -228 -21 -305 -27 -340 -4 -509 94 -700 73 -143 234 -272 390 -312 100 -25 276 -23 373 4 303 87 558 299 698 579 71 144 116 283 116 361 0 23 4 44 9 48 6 3 10 87 10 193 0 103 5 255 10 337 6 83 15 263 21 400 5 138 14 327 19 420 6 94 13 224 16 290 3 66 8 165 10 220 44 933 57 1217 75 1695 5 146 14 348 20 450 18 317 20 373 40 855 11 259 24 517 30 575 15 169 13 277 -6 284 -19 7 -5 9 -194 -20z m165 -119 c0 -55 -6 -210 -13 -345 -7 -135 -15 -292 -17 -350 -11 -267 -16 -367 -25 -530 -6 -96 -17 -332 -25 -525 -8 -192 -20 -444 -25 -560 -5 -115 -14 -334 -20 -485 -6 -151 -17 -394 -25 -540 -8 -146 -19 -377 -25 -515 -5 -137 -12 -281 -15 -320 -2 -38 -9 -182 -15 -320 -6 -137 -15 -322 -21 -410 -5 -88 -14 -290 -19 -450 -11 -328 -22 -389 -101 -566 -51 -114 -87 -171 -168 -268 -167 -200 -406 -335 -636 -359 -336 -36 -599 145 -692 477 -32 117 -37 204 -24 421 7 102 21 343 31 535 11 193 24 427 30 520 10 167 30 544 50 940 6 110 17 313 25 450 8 138 20 336 25 440 15 292 48 848 70 1165 6 80 15 237 20 350 6 113 14 257 20 320 5 63 12 169 15 235 3 66 10 163 15 215 5 52 10 123 10 156 0 44 5 68 17 83 18 20 195 84 321 115 31 8 102 26 157 40 55 14 156 37 225 51 69 14 152 32 185 40 33 8 107 22 165 31 347 53 418 62 450 61 l35 -2 0 -100z"/>
    </g>
    <g inkscape:groupmode="layer" inkscape:label="cutouts" fill="none" stroke="#2a2a2a" stroke-width="1.4" stroke-linejoin="round" stroke-linecap="round">
      <path d="M2210 6536 c-6 -16 -18 -26 -36 -28 -33 -4 -45 -28 -15 -28 12 0 24 -7 28 -16 8 -22 -10 -117 -24 -121 -6 -2 -22 14 -35 36 -26 47 -44 56 -81 42 -27 -11 -57 -57 -57 -88 0 -21 27 -63 40 -63 5 0 14 9 19 19 8 15 6 25 -11 46 -21 27 -21 28 -2 42 28 20 45 13 77 -35 26 -38 32 -42 69 -42 39 0 40 1 34 28 -8 30 -8 33 -4 119 2 35 9 68 16 75 7 7 12 18 12 25 0 22 -20 14 -30 -11z"/>
      <path d="M2103 6238 c-12 -13 -23 -32 -25 -43 -2 -15 -11 -20 -33 -20 -28 0 -30 -3 -37 -45 -10 -67 -9 -100 2 -100 6 0 10 15 10 33 0 18 6 41 13 51 12 16 14 16 26 2 8 -9 20 -16 28 -16 12 0 14 8 9 35 -8 40 5 69 36 86 18 10 24 8 40 -11 26 -32 22 -64 -12 -104 -32 -35 -26 -56 9 -37 40 22 55 160 20 182 -25 16 -65 9 -86 -13z"/>
      <path d="M2086 5906 c-40 -54 -32 -126 14 -126 9 0 26 -13 38 -29 l21 -29 -22 -19 c-31 -28 -54 -34 -67 -17 -17 20 -30 18 -30 -5 0 -12 -11 -25 -27 -33 -37 -18 -41 -37 -6 -35 24 2 28 -2 31 -26 4 -35 22 -25 22 13 0 25 7 33 50 55 27 14 57 37 66 51 16 24 16 27 -4 54 l-22 29 25 37 c30 44 32 75 7 97 -31 28 -66 21 -96 -17z m72 -8 c19 -19 14 -42 -12 -68 -46 -42 -83 -2 -46 50 23 32 39 37 58 18z"/>
      <path d="M2154 5395 c-12 -35 -54 -85 -71 -85 -9 0 -25 8 -35 17 -12 11 -22 13 -28 7 -7 -7 2 -23 25 -49 41 -44 40 -57 -1 -67 -16 -4 -50 -12 -76 -18 -47 -11 -88 -47 -88 -76 0 -22 16 -16 27 9 9 19 25 27 75 37 89 19 172 55 177 75 2 14 -2 17 -19 12 -35 -9 -36 21 -2 56 35 37 45 66 32 87 -7 12 -10 11 -16 -5z"/>
      <path d="M2117 5087 c6 -69 -6 -91 -49 -85 -27 4 -36 44 -18 79 9 15 9 24 1 32 -7 7 -15 0 -26 -26 -20 -48 -19 -80 3 -107 15 -18 24 -21 50 -15 18 4 40 17 48 30 31 48 30 155 -1 155 -11 0 -13 -12 -8 -63z"/>
      <path d="M2097 4944 c-3 -3 -2 -17 3 -30 11 -27 8 -29 -47 -39 l-43 -7 0 -59 c0 -60 21 -99 54 -99 44 0 94 84 74 124 -6 10 -7 33 -4 51 4 18 4 40 0 49 -6 16 -25 21 -37 10z m15 -129 c9 -21 8 -28 -7 -45 -39 -43 -86 -10 -59 42 18 35 50 37 66 3z"/>
      <path d="M2050 4673 c-40 -15 -60 -46 -60 -94 0 -53 -8 -61 -82 -82 -24 -8 -46 -22 -56 -39 -19 -32 -8 -51 13 -22 8 12 41 28 77 39 35 10 88 26 118 35 l55 17 3 56 c2 46 -1 60 -18 77 -21 21 -25 22 -50 13z m35 -53 c21 -23 14 -46 -19 -62 -46 -20 -74 25 -39 64 21 23 36 23 58 -2z"/>
      <path d="M1997 4278 c-35 -47 -41 -90 -16 -117 23 -24 29 -25 63 -9 29 13 39 35 38 91 -1 43 -6 51 -39 61 -17 5 -27 0 -46 -26z m57 -30 c16 -26 -9 -70 -36 -66 -29 4 -34 30 -12 63 18 28 32 28 48 3z"/>
      <path d="M2060 4101 c0 -24 -43 -56 -65 -47 -8 3 -12 12 -9 21 3 8 2 15 -4 15 -13 0 -29 -21 -33 -44 -3 -12 -20 -24 -51 -34 -27 -8 -48 -21 -48 -28 0 -17 19 -18 56 -4 19 7 31 7 37 1 7 -7 17 -5 30 7 10 9 40 28 65 42 39 21 47 30 47 54 0 16 -6 31 -12 34 -8 2 -13 -5 -13 -17z"/>
      <path d="M2047 3833 c-4 -3 -7 -16 -7 -27 -1 -12 -11 -34 -24 -49 -20 -25 -24 -26 -36 -13 -14 17 -40 22 -40 7 0 -5 12 -23 26 -40 14 -17 23 -34 20 -39 -2 -4 -44 -21 -92 -38 -76 -25 -106 -45 -92 -59 2 -3 63 15 134 40 101 34 129 48 129 62 0 12 -7 18 -22 18 -31 0 -31 12 0 51 34 42 37 121 4 87z"/>
      <path d="M2035 3532 c6 -48 5 -51 -22 -65 -18 -10 -36 -12 -50 -6 -27 10 -28 17 -7 47 8 12 14 30 12 40 -6 25 -48 -45 -48 -79 0 -73 112 -64 138 10 12 34 2 93 -17 99 -10 3 -12 -6 -6 -46z"/>
      <path d="M2005 3372 c7 -23 -18 -42 -54 -42 -15 0 -20 -6 -20 -22 1 -13 -3 -36 -10 -52 -13 -31 -7 -61 17 -88 21 -25 49 -22 77 6 23 23 24 31 22 118 -2 81 -4 93 -20 96 -15 3 -18 0 -12 -16z m0 -102 c35 -39 -11 -102 -50 -70 -19 16 -19 40 1 68 19 27 26 27 49 2z"/>
      <path d="M1920 3080 c-26 -26 -33 -60 -20 -94 6 -16 8 -31 5 -35 -4 -3 -37 -15 -73 -27 -49 -15 -70 -27 -79 -45 -13 -26 2 -43 17 -19 9 14 123 54 185 64 22 4 46 11 54 15 18 12 27 126 11 146 -18 22 -76 19 -100 -5z m83 -32 c8 -12 7 -24 -1 -43 -10 -22 -18 -26 -45 -23 -27 3 -32 7 -35 33 -6 49 56 74 81 33z"/>
      <path d="M1974 2684 c18 -45 18 -75 1 -100 -18 -28 -31 -23 -37 15 -4 28 -29 47 -52 38 -22 -9 -22 -99 0 -121 20 -20 19 -20 65 6 46 25 61 59 57 124 -2 39 -7 50 -22 52 -15 3 -17 0 -12 -14z m-54 -104 c0 -10 -5 -22 -10 -25 -13 -8 -24 20 -16 41 8 20 26 9 26 -16z"/>
      <path d="M1908 2464 c-16 -8 -28 -23 -28 -34 0 -18 1 -18 29 -2 23 13 32 14 44 4 43 -36 16 -87 -53 -98 -50 -8 -55 -34 -7 -34 53 0 106 45 107 90 0 43 -11 67 -36 79 -29 13 -23 14 -56 -5z"/>
      <path d="M1961 2251 c-7 -12 -47 -30 -111 -51 -126 -42 -160 -62 -160 -95 0 -14 5 -25 10 -25 6 0 10 7 10 15 0 16 27 30 120 63 122 43 119 42 130 21 19 -34 30 -20 30 36 0 56 -11 70 -29 36z"/>
      <path d="M1925 2098 c-70 -23 -80 -32 -83 -73 -3 -41 12 -40 20 0 2 14 12 21 35 23 87 8 74 -155 -17 -232 -39 -32 -64 -33 -95 -1 -32 31 -33 93 -5 165 15 37 16 50 7 50 -14 0 -57 -110 -57 -144 0 -45 24 -98 51 -112 49 -25 83 -18 122 25 53 59 71 99 70 161 0 84 -6 150 -12 149 -3 -1 -19 -6 -36 -11z"/>
    </g>
    <g inkscape:groupmode="layer" inkscape:label="folds-valley" fill="none" stroke="#2a2a2a" stroke-width="1.4" stroke-linejoin="round" stroke-linecap="round">
    </g>
    <g inkscape:groupmode="layer" inkscape:label="folds-mountain" fill="none" stroke="#2a2a2a" stroke-width="1.4" stroke-linejoin="round" stroke-linecap="round">
    </g>
    <g inkscape:groupmode="layer" inkscape:label="axles" fill="none" stroke="#2a2a2a" stroke-width="1.4" stroke-linejoin="round" stroke-linecap="round">
    </g>
    <g inkscape:groupmode="layer" inkscape:label="glue-zones" fill="none" stroke="#2a2a2a" stroke-width="1.4" stroke-linejoin="round" stroke-linecap="round">
    </g>
    <g inkscape:groupmode="layer" inkscape:label="labels" fill="none" stroke="#2a2a2a" stroke-width="1.4" stroke-linejoin="round" stroke-linecap="round">
      <path d="M3249 7873 c-6 -16 -13 -41 -16 -56 -3 -15 -14 -32 -24 -38 -11 -5 -19 -17 -19 -26 0 -12 3 -13 15 -3 26 21 29 -14 16 -169 -10 -123 -15 -149 -32 -167 -24 -25 -12 -39 23 -25 13 5 34 12 48 15 47 11 55 21 31 45 -18 18 -21 33 -21 94 1 39 5 104 10 142 6 39 13 103 17 143 6 69 5 72 -16 72 -14 0 -25 -9 -32 -27z"/>
      <path d="M3058 7838 c-32 -4 -67 -12 -77 -18 -11 -5 -29 -10 -41 -10 -37 0 -80 -38 -80 -70 0 -16 3 -31 8 -34 4 -2 32 4 62 14 106 37 117 24 61 -70 -23 -38 -41 -72 -41 -77 0 -5 16 -7 35 -5 69 8 95 -53 57 -133 -47 -98 -167 -140 -162 -56 3 40 1 44 -15 31 -16 -13 -20 -67 -7 -86 15 -23 70 -24 124 -2 94 38 168 127 168 202 0 44 -54 106 -93 106 -14 0 -28 4 -31 9 -5 8 61 138 85 167 24 29 6 40 -53 32z"/>
      <path d="M10 8391 c0 -14 10 -21 38 -25 41 -8 312 -73 467 -112 55 -15 143 -36 195 -49 81 -19 150 -38 325 -85 17 -5 64 -18 105 -30 135 -39 331 -90 346 -90 8 0 14 10 14 24 0 34 169 191 322 300 l120 86 -966 0 c-940 0 -966 -1 -966 -19z"/>
      <path d="M4277 1023 c-37 -120 -44 -265 -23 -435 9 -70 21 -140 27 -155 7 -15 15 -44 20 -63 5 -24 7 -8 4 50 -2 47 -9 105 -15 130 -21 79 -24 263 -5 318 15 42 34 242 24 242 -3 0 -17 -39 -32 -87z"/>
    </g>
    <g inkscape:groupmode="layer" inkscape:label="marks-other" fill="none" stroke="#2a2a2a" stroke-width="1.4" stroke-linejoin="round" stroke-linecap="round">
    </g>
  </g>
</svg>