<svg xmlns="http://www.w3.org/2000/svg" viewBox="0 0 384 998" width="384" height="998">
  <rect x="0" y="0" width="100%" height="100%" fill="#fffaf0"/>
  <g id="potrace-paths" transform="translate(0.000000,998.000000) scale(0.100000,-0.100000)" fill="none" stroke="#2a2a2a" stroke-width="1.4" stroke-linejoin="round" stroke-linecap="round">
    <path d="M1870 9945 c0 -17 7 -28 23 -34 12 -4 186 -2 387 5 201 6 590 17 865
24 292 8 504 17 510 22 12 12 -1318 2 -1570 -11 -129 -6 -163 -5 -176 6 -24
20 -39 16 -39 -12z"/>
    <path d="M2359 9525 c-26 -14 -59 -78 -59 -113 0 -22 37 -82 50 -82 22 0 22
31 0 48 -27 22 -23 56 13 98 56 64 80 -32 33 -132 -32 -69 -103 -181 -143
-227 -36 -41 -46 -84 -15 -72 33 13 164 35 207 35 24 0 47 5 50 10 3 6 9 39
12 75 6 75 -4 82 -44 35 -29 -35 -63 -54 -110 -63 -44 -9 -48 5 -11 39 82 78
148 192 148 258 0 36 -6 50 -31 75 -33 34 -60 38 -100 16z"/>
    <path d="M1990 9521 c-51 -6 -55 -8 -58 -34 -6 -47 13 -59 78 -51 79 9 83 -5
22 -74 -27 -31 -53 -68 -57 -82 -8 -24 -7 -24 18 -7 59 39 97 7 97 -81 0 -50
-3 -58 -40 -94 -27 -28 -46 -39 -62 -36 -21 3 -23 8 -20 49 4 52 -8 68 -32 43
-16 -16 -22 -80 -8 -100 41 -62 172 -30 227 55 52 84 42 157 -33 220 l-46 39
30 37 c72 90 77 98 58 112 -18 13 -75 14 -174 4z"/>
    <path d="M3000 8699 c-307 -12 -980 -29 -1142 -29 -81 0 -149 -4 -152 -8 -5
-8 -9 -68 -26 -362 -29 -512 -44 -803 -55 -1075 -3 -71 -10 -213 -15 -315 -10
-189 -12 -237 -30 -635 -6 -126 -15 -300 -20 -385 -12 -176 -26 -422 -40 -685
-5 -99 -14 -261 -19 -360 -6 -99 -15 -286 -21 -415 -6 -129 -15 -307 -21 -395
-5 -88 -14 -261 -19 -385 -20 -438 -30 -607 -47 -765 -41 -371 -12 -589 109
-830 131 -261 336 -425 596 -478 96 -19 112 -20 220 -8 128 14 199 34 303 87
114 57 171 98 258 186 148 148 250 330 310 553 18 67 49 389 56 575 3 96 10
303 15 460 5 157 14 377 20 490 5 113 17 394 25 625 17 482 20 561 40 1005 8
179 22 492 30 695 16 399 28 689 46 1105 13 307 15 355 23 590 4 96 14 303 23
459 16 275 16 284 -2 297 -21 16 -135 16 -465 3z m437 -45 c3 -9 -1 -173 -11
-363 -9 -190 -19 -429 -22 -531 -2 -102 -7 -207 -9 -235 -3 -27 -11 -241 -19
-475 -8 -234 -20 -533 -26 -665 -6 -132 -17 -404 -26 -605 -8 -201 -16 -408
-19 -460 -3 -52 -12 -282 -20 -510 -9 -228 -22 -575 -31 -770 -8 -195 -17
-438 -20 -540 -9 -346 -34 -775 -54 -928 -24 -177 -53 -277 -121 -416 -67
-135 -122 -208 -231 -310 -75 -70 -113 -96 -202 -141 -158 -79 -245 -99 -411
-93 -117 5 -138 8 -215 38 -133 52 -188 87 -281 179 -126 126 -194 237 -250
402 -54 162 -68 294 -49 472 5 51 14 200 20 332 6 132 15 312 20 400 5 88 17
297 25 465 14 286 19 395 46 960 5 124 19 367 29 540 28 464 62 1111 80 1525
6 132 18 371 26 530 8 160 22 418 30 575 24 472 32 572 46 586 10 9 171 16
623 28 336 9 644 18 685 19 332 9 380 8 387 -9z"/>
    <path d="M3694 2123 c-71 -76 -158 -168 -195 -204 -37 -37 -74 -81 -83 -97
-10 -19 -22 -29 -30 -26 -7 3 -16 -2 -19 -10 -4 -9 -11 -136 -17 -283 -5 -148
-15 -360 -20 -473 -6 -113 -10 -268 -10 -345 l0 -140 111 -111 c73 -73 109
-116 104 -124 -6 -10 -96 -11 -419 -6 -662 11 -1027 24 -1311 46 -357 28 -632
51 -646 56 -31 9 -48 -7 -53 -49 -3 -23 -8 -111 -11 -194 -6 -146 -5 -153 13
-153 18 0 20 12 26 163 5 92 12 168 19 175 11 14 32 13 247 -8 232 -23 338
-31 535 -40 116 -6 228 -12 250 -15 22 -2 263 -9 535 -14 272 -6 579 -13 681
-16 263 -8 268 4 79 180 l-118 110 4 270 c4 280 10 371 23 380 5 2 27 -5 50
-18 34 -18 43 -20 58 -9 34 24 44 24 67 3 28 -26 46 -27 77 -2 23 18 24 25 24
127 0 92 -3 109 -16 112 -13 2 -17 -14 -22 -105 -4 -59 -11 -111 -15 -115 -19
-19 -42 30 -48 106 l-7 77 -22 -21 c-12 -11 -32 -20 -46 -20 -26 0 -68 -24
-82 -47 -20 -33 -25 11 -21 195 7 292 -4 258 128 401 63 67 118 122 123 122 4
0 10 -27 13 -58 4 -43 9 -58 20 -58 12 0 16 16 18 70 2 39 7 74 12 79 5 5 37
8 70 7 49 -2 60 0 60 13 0 12 -11 16 -50 16 -73 0 -74 18 -6 88 34 35 56 66
56 80 0 12 -2 22 -4 22 -2 0 -62 -62 -132 -137z m-190 -890 c-12 -34 -44 -41
-68 -14 -22 24 -8 58 26 63 35 6 54 -16 42 -49z"/>
    <path d="M3651 1756 c-8 -9 -11 -45 -9 -98 2 -66 6 -83 18 -83 12 0 16 19 18
98 3 94 -3 112 -27 83z"/>
    <path d="M2660 1182 c-27 -27 -40 -47 -40 -66 0 -31 17 -67 36 -79 8 -4 14
-14 14 -21 0 -16 -54 -67 -102 -95 -22 -13 -38 -30 -38 -41 0 -17 11 -19 108
-22 59 -2 112 -2 119 0 15 5 37 58 28 72 -5 8 -13 7 -28 -3 -24 -15 -92 -29
-101 -20 -3 3 23 34 57 70 73 75 103 143 85 193 -21 62 -79 67 -138 12z m82
-47 c9 -19 8 -29 -6 -50 -21 -32 -43 -32 -58 0 -10 22 -8 29 12 50 29 31 38
31 52 0z"/>
    <path d="M2936 1188 c-33 -25 -56 -73 -56 -118 0 -45 39 -80 89 -80 49 0 53
-6 36 -48 -16 -36 -40 -51 -58 -33 -6 6 -21 11 -34 11 -30 0 -30 -30 0 -58 51
-48 101 -15 147 97 16 41 30 82 30 91 0 33 -31 105 -57 132 -32 33 -58 35 -97
6z m74 -59 c12 -22 20 -53 18 -67 -2 -22 -9 -28 -35 -30 -35 -3 -63 25 -63 64
0 22 35 74 51 74 5 0 18 -18 29 -41z"/>
    <path d="M3631 1066 c-6 -7 -13 -49 -14 -92 -2 -68 0 -79 16 -82 15 -3 17 6
17 92 0 53 -2 96 -4 96 -2 0 -9 -6 -15 -14z"/>
    <path d="M3618 710 c-23 -36 -26 -230 -3 -230 23 0 26 16 23 141 -3 110 -4
113 -20 89z"/>
    <path d="M3767 293 c-18 -17 -5 -33 28 -33 28 0 35 4 35 20 0 15 -7 20 -28 20
-16 0 -32 -3 -35 -7z"/>
    <path d="M2014 256 c-6 -17 2 -36 17 -36 12 0 12 37 -1 45 -6 3 -13 -1 -16 -9z"/>
    <path d="M2815 220 c-3 -5 -16 -10 -29 -10 -30 0 -86 -59 -86 -91 0 -39 34
-65 68 -53 22 9 33 7 56 -9 28 -20 29 -20 62 -2 38 20 70 52 61 61 -3 3 -24
-4 -47 -17 -38 -21 -41 -22 -57 -6 -15 14 -15 25 -7 77 8 46 7 60 -2 60 -7 0
-16 -4 -19 -10z m-15 -74 c0 -28 -22 -49 -46 -44 -28 5 -27 25 0 53 29 29 46
26 46 -9z"/>
    <path d="M3196 211 c-8 -13 4 -42 15 -35 12 7 12 44 0 44 -6 0 -12 -4 -15 -9z"/>
    <path d="M3601 181 c-17 -31 -14 -171 3 -171 18 0 26 32 26 112 0 70 -11 93
-29 59z"/>
    <path d="M2003 134 c-7 -20 8 -36 25 -25 14 8 6 41 -9 41 -5 0 -12 -7 -16 -16z"/>
  </g>
</svg>