<svg xmlns="http://www.w3.org/2000/svg" viewBox="0 0 960 905" width="960" height="905">
  <rect x="0" y="0" width="100%" height="100%" fill="#fffaf0"/>
  <g id="potrace-paths" transform="translate(0.000000,905.000000) scale(0.100000,-0.100000)" fill="none" stroke="#2a2a2a" stroke-width="1.4" stroke-linejoin="round" stroke-linecap="round">
    <path d="M1426 8978 c-3 -35 -8 -124 -11 -198 -4 -74 -13 -196 -22 -270 -25
-224 -27 -342 -9 -467 31 -207 104 -383 227 -543 72 -94 105 -125 197 -185
185 -120 368 -157 586 -119 107 19 293 103 391 177 189 142 355 411 409 663
22 104 44 367 56 664 13 338 13 340 -3 340 -11 0 -15 -34 -21 -147 -28 -619
-47 -806 -100 -960 -31 -90 -115 -257 -161 -319 -146 -194 -349 -326 -576
-374 -55 -12 -242 -9 -304 4 -52 11 -168 59 -227 93 -70 41 -152 115 -218 198
-60 75 -145 226 -159 281 -5 22 -17 58 -25 82 -9 24 -24 92 -33 152 -14 94
-15 129 -5 252 7 79 17 235 22 348 6 113 13 247 16 298 4 77 3 92 -10 92 -11
0 -16 -16 -20 -62z"/>
    <path d="M9222 8628 c-7 -227 -17 -613 -22 -858 -5 -245 -12 -537 -15 -650
-12 -434 -25 -976 -30 -1225 -3 -143 -10 -411 -15 -595 -5 -184 -12 -526 -16
-760 -3 -234 -8 -427 -9 -430 -2 -3 -6 -181 -10 -395 -4 -215 -9 -392 -10
-395 -2 -3 -6 -147 -9 -320 -4 -173 -8 -367 -11 -430 -3 -63 -7 -225 -10 -360
-3 -135 -8 -277 -11 -317 -9 -117 -15 -113 139 -113 112 0 136 -3 156 -19 14
-10 22 -25 19 -37 -3 -17 -14 -19 -101 -22 -86 -2 -98 -5 -95 -19 2 -10 14
-20 28 -23 20 -5 26 -14 31 -48 9 -72 71 -131 124 -118 40 10 54 58 52 186
l-2 115 93 3 92 3 0 36 0 36 -237 -4 -238 -4 3 275 c2 151 7 381 12 510 5 129
12 366 15 525 3 160 10 436 16 615 5 179 13 520 18 758 5 269 11 436 18 443 7
7 14 5 23 -6 7 -8 19 -15 26 -15 26 0 14 29 -22 57 l-37 27 7 236 c3 129 8
350 11 490 3 140 7 318 10 395 3 77 7 282 10 455 3 173 7 367 10 430 3 63 10
315 15 560 6 245 12 528 15 630 2 102 7 307 10 455 4 149 9 285 12 303 5 30 3
32 -24 32 l-29 0 -12 -412z m119 -6988 c32 -18 18 -90 -18 -90 -41 0 -69 60
-41 88 15 15 33 15 59 2z"/>
    <path d="M9468 8498 l-3 -33 -67 -3 c-58 -2 -68 -6 -68 -21 0 -10 -3 -32 -6
-48 -8 -39 35 -93 75 -93 38 0 71 38 71 82 0 20 7 41 15 48 11 9 15 26 13 53
-4 50 -25 61 -30 15z m-37 -109 c15 -30 -9 -54 -46 -45 -34 9 -44 35 -20 52
27 20 53 17 66 -7z"/>
    <path d="M9307 8263 c-4 -3 -7 -15 -7 -25 0 -22 26 -24 34 -2 10 25 -10 45
-27 27z"/>
    <path d="M9424 8259 c-9 -15 11 -33 30 -26 9 4 13 13 10 22 -7 17 -30 20 -40
4z"/>
    <path d="M9550 8250 c0 -13 7 -20 20 -20 13 0 20 7 20 20 0 13 -7 20 -20 20
-13 0 -20 -7 -20 -20z"/>
    <path d="M9282 8148 c7 -19 38 -22 38 -4 0 10 -9 16 -21 16 -12 0 -19 -5 -17
-12z"/>
    <path d="M5009 8045 c-3 -2 -234 -6 -515 -9 -281 -3 -517 -8 -526 -11 -9 -4
-110 -106 -224 -228 -115 -121 -232 -244 -260 -272 -28 -27 -59 -62 -68 -77
-10 -15 -22 -26 -26 -23 -22 14 -29 -40 -40 -290 -6 -149 -15 -362 -20 -474
-6 -112 -10 -269 -10 -349 l0 -146 112 -113 c84 -85 109 -116 100 -125 -8 -8
-158 -8 -599 1 -323 7 -608 14 -633 16 -62 5 -298 18 -335 18 -74 -1 -702 49
-796 63 -70 10 -64 64 -99 -841 -9 -229 -21 -497 -40 -885 -19 -376 -49 -1152
-52 -1348 -4 -174 -3 -176 119 -186 43 -4 121 -13 173 -21 241 -34 589 -69
860 -85 102 -6 196 -13 210 -16 44 -8 486 -25 790 -30 206 -4 299 -9 307 -17
9 -9 -15 -37 -108 -122 -67 -60 -129 -118 -139 -128 -23 -24 -24 -40 -46 -923
l-6 -241 38 -55 c22 -30 65 -91 97 -136 31 -44 57 -85 57 -91 0 -6 4 -11 9
-11 5 0 45 -55 90 -123 45 -67 113 -168 152 -225 l70 -103 52 1 c29 1 189 -1
356 -4 265 -5 306 -8 323 -22 17 -16 19 -16 36 -1 17 15 59 17 399 17 l381 0
158 167 c319 338 356 373 391 373 26 0 34 5 37 23 4 17 29 1081 30 1282 l1 50
-133 135 c-79 80 -128 138 -123 143 5 5 87 13 183 17 418 20 679 31 1058 46
223 8 497 20 610 25 684 30 819 35 851 32 28 -4 38 -1 43 12 6 18 12 279 21
1025 3 228 7 469 10 535 2 66 7 298 10 515 3 217 11 564 16 770 12 422 12 421
0 433 -6 6 -99 5 -243 -2 -128 -6 -363 -16 -523 -21 -159 -5 -337 -12 -395
-15 -224 -11 -585 -23 -895 -31 -126 -3 -266 -8 -310 -12 -130 -11 -288 -9
-292 5 -2 6 45 53 106 103 60 51 116 106 124 124 12 24 16 108 22 391 4 198 9
364 12 368 2 4 2 121 -2 260 l-7 252 -288 283 c-159 156 -305 294 -325 307
-34 24 -43 25 -184 25 -81 0 -150 -2 -152 -5z m467 -180 c80 -80 142 -150 139
-155 -4 -6 -28 -8 -58 -5 -57 6 -83 -4 -74 -29 5 -12 17 -14 59 -10 29 3 59 7
66 10 24 7 26 -1 23 -68 -3 -76 4 -108 24 -108 16 0 30 58 22 96 -10 57 24 38
140 -77 l114 -114 -6 -245 c-4 -135 -9 -249 -12 -253 -3 -5 -20 6 -38 23 -22
21 -40 31 -56 28 -22 -3 -24 1 -27 51 -3 47 0 57 23 81 33 34 23 41 -38 28
-51 -11 -57 -23 -31 -63 13 -21 15 -39 9 -102 -4 -43 -11 -88 -17 -102 -5 -14
-7 -36 -3 -48 12 -49 107 -15 146 52 12 19 25 33 29 30 5 -3 7 -60 5 -128 -2
-67 -7 -220 -10 -341 -4 -120 -9 -224 -11 -231 -3 -6 -35 -36 -71 -66 -160
-131 -224 -192 -221 -213 3 -19 10 -21 93 -21 136 0 734 15 785 20 25 2 117 7
205 10 88 3 360 12 605 21 245 8 486 17 535 19 462 18 504 18 512 0 3 -10 1
-185 -5 -389 -7 -204 -14 -477 -17 -606 -12 -583 -26 -1170 -35 -1449 -6 -167
-10 -395 -10 -506 0 -159 -3 -205 -14 -214 -8 -6 -90 -15 -197 -21 -101 -5
-213 -12 -249 -14 -36 -3 -144 -8 -240 -11 -96 -3 -238 -10 -315 -15 -121 -9
-405 -20 -890 -35 -272 -8 -436 -15 -607 -26 -216 -13 -218 -13 -218 71 0 32
-5 71 -11 87 -10 27 -11 28 -25 8 -12 -16 -15 -44 -12 -130 4 -130 -7 -112
169 -294 l120 -123 -6 -157 c-3 -86 -10 -318 -15 -516 -6 -198 -13 -407 -16
-465 l-6 -105 -118 -119 c-67 -67 -123 -115 -129 -112 -6 4 -11 18 -11 31 0
40 -26 37 -43 -6 -18 -45 -19 -45 -110 -54 -56 -6 -68 -10 -65 -23 3 -14 16
-17 75 -17 39 0 74 -3 78 -7 10 -9 -192 -226 -225 -242 -31 -16 -119 -19 -483
-20 -315 0 -309 -2 -322 61 -6 29 -3 34 19 44 32 15 36 44 6 34 -22 -7 -50 9
-50 29 0 7 6 20 13 30 11 16 17 17 36 7 21 -12 22 -11 19 21 l-3 33 50 3 c27
1 53 6 58 11 21 21 -8 29 -105 28 -89 -2 -103 -4 -106 -19 -2 -12 3 -18 16
-18 29 0 34 -12 13 -34 -12 -14 -20 -43 -24 -86 -5 -58 -4 -67 14 -78 21 -14
25 -47 7 -58 -7 -5 -159 -7 -338 -6 l-325 2 -35 39 c-43 47 -90 112 -120 167
-28 49 -22 76 17 74 58 -4 83 0 83 14 0 20 -17 24 -88 21 -37 -2 -65 2 -69 8
-4 6 -7 59 -7 117 -1 86 -4 105 -16 105 -11 0 -16 -15 -18 -65 -4 -80 -13 -92
-48 -60 -21 21 -112 147 -149 208 -5 9 -20 33 -32 53 l-22 38 9 423 c12 549
18 668 36 695 7 12 32 36 55 55 22 18 71 59 107 90 37 31 70 54 74 52 4 -3 8
-50 8 -104 0 -94 9 -125 30 -104 4 5 9 65 11 134 2 69 7 136 12 150 4 13 6 34
3 45 -5 20 -12 21 -118 21 -205 -1 -727 18 -1058 39 -36 2 -135 9 -220 14
-244 15 -777 69 -910 91 -36 6 -89 16 -119 21 -89 15 -85 -2 -77 294 3 143 9
314 12 380 2 66 11 275 19 465 8 190 20 449 25 575 18 400 60 1370 60 1391 0
11 6 28 13 37 11 15 24 16 127 6 317 -28 547 -46 710 -54 63 -3 140 -7 170 -9
30 -2 165 -7 300 -10 938 -24 1111 -27 1130 -21 46 15 25 50 -104 175 l-123
121 3 247 c4 276 11 389 25 398 5 3 22 -4 38 -15 35 -25 59 -26 89 -5 22 15
25 15 46 -5 28 -26 46 -26 78 -1 24 19 26 25 27 124 1 78 -3 107 -13 115 -20
17 -23 7 -31 -107 -4 -56 -12 -105 -17 -108 -21 -13 -38 24 -44 99 l-7 78 -22
-21 c-12 -11 -33 -20 -47 -20 -14 0 -41 -11 -61 -25 -20 -13 -38 -21 -41 -17
-2 4 -1 106 3 228 5 187 9 224 24 247 23 35 214 237 224 237 5 0 10 -26 13
-57 4 -43 9 -58 20 -58 12 0 16 17 20 75 l5 75 73 3 c55 2 72 6 72 17 0 11
-13 15 -49 15 -86 0 -82 12 56 163 l127 137 385 0 c393 0 953 10 960 16 8 7
12 4 157 -141z m365 -945 c26 -15 24 -34 -9 -72 -19 -21 -34 -29 -45 -25 -21
8 -21 27 -3 72 16 37 26 41 57 25z m-2334 -36 c9 -23 -14 -64 -35 -64 -11 0
-27 9 -36 19 -14 15 -15 24 -6 40 13 26 67 29 77 5z"/>
    <path d="M4581 7925 c-22 -26 -31 -46 -31 -71 0 -49 12 -68 60 -89 40 -18 42
-18 85 3 46 22 81 64 70 82 -9 15 -35 12 -42 -5 -7 -20 -55 -45 -87 -45 -14 0
-30 8 -35 19 -12 22 -5 31 26 31 13 0 37 7 53 15 36 19 42 68 11 85 -39 21
-77 12 -110 -25z"/>
    <path d="M4028 7693 c-58 -4 -67 -10 -47 -30 12 -12 139 -6 154 9 12 11 -12
29 -35 26 -8 -1 -41 -3 -72 -5z"/>
    <path d="M4265 7690 c-14 -23 13 -31 91 -28 62 2 79 6 79 18 0 12 -17 16 -82
18 -52 2 -84 -1 -88 -8z"/>
    <path d="M4617 7693 c-37 -9 -9 -28 46 -31 55 -3 97 9 97 28 0 10 -109 12
-143 3z"/>
    <path d="M4890 7686 c0 -24 14 -26 94 -19 54 4 76 10 76 19 0 11 -20 14 -85
14 -67 0 -85 -3 -85 -14z"/>
    <path d="M5192 7683 c3 -14 15 -18 58 -20 77 -3 120 5 120 22 0 12 -18 15 -91
15 -81 0 -90 -2 -87 -17z"/>
    <path d="M3652 7378 c-8 -8 -12 -45 -12 -101 0 -79 2 -88 18 -85 14 3 17 17
20 101 3 95 -2 109 -26 85z"/>
    <path d="M5635 7360 c-8 -14 -10 -189 -2 -197 4 -3 13 -3 22 0 21 9 22 179 1
196 -10 9 -16 9 -21 1z"/>
    <path d="M5624 6985 c-12 -19 -15 -43 -13 -104 4 -84 9 -97 34 -88 12 5 15 25
15 106 0 55 -4 102 -10 106 -5 3 -17 -6 -26 -20z"/>
    <path d="M3626 6691 c-4 -5 -9 -45 -13 -88 -4 -64 -3 -81 10 -91 23 -20 29 -1
31 96 1 57 -3 87 -11 89 -6 2 -14 0 -17 -6z"/>
    <path d="M5607 6633 c-11 -107 -9 -133 9 -140 26 -10 34 16 34 115 0 83 -2 92
-19 92 -15 0 -19 -11 -24 -67z"/>
    <path d="M5598 6293 c-5 -85 4 -110 28 -78 21 29 16 149 -7 153 -14 3 -17 -10
-21 -75z"/>
    <path d="M3618 6330 c-25 -34 -27 -230 -3 -230 23 0 26 16 23 141 -3 112 -3
113 -20 89z"/>
    <path d="M5594 6066 c-8 -22 0 -91 11 -91 15 0 29 49 21 79 -7 28 -23 34 -32
12z"/>
    <path d="M5415 5921 c-37 -4 -51 -11 -53 -24 -3 -16 4 -18 80 -15 77 3 83 5
86 26 4 24 -7 26 -113 13z"/>
    <path d="M3763 5905 c-8 -23 -3 -25 68 -27 69 -2 89 4 89 28 0 21 -148 20
-157 -1z"/>
    <path d="M4047 5913 c-4 -3 -7 -15 -7 -25 0 -16 9 -18 69 -18 77 0 101 6 101
25 0 7 -7 16 -16 19 -21 8 -139 8 -147 -1z"/>
    <path d="M4418 5913 c-29 -3 -38 -9 -38 -23 0 -19 24 -20 163 -11 4 1 7 8 7
16 0 10 -10 15 -27 15 -16 0 -37 2 -48 4 -11 2 -37 1 -57 -1z"/>
    <path d="M4704 5909 c-15 -25 21 -33 124 -31 45 2 52 5 52 22 0 18 -7 20 -84
20 -50 0 -88 -4 -92 -11z"/>
    <path d="M5007 5914 c-4 -4 -7 -13 -7 -21 0 -11 20 -13 98 -11 78 2 97 6 97
18 0 12 -18 16 -90 18 -50 1 -94 0 -98 -4z"/>
    <path d="M2017 5883 c-13 -12 -7 -43 8 -43 9 0 15 9 15 25 0 24 -10 32 -23 18z"/>
    <path d="M6449 5871 c-18 -14 -20 -21 -11 -38 7 -13 10 -51 6 -99 -3 -44 -1
-85 4 -93 23 -32 132 28 132 73 0 33 -26 64 -61 71 -35 8 -47 30 -31 56 7 10
12 23 12 28 0 18 -30 20 -51 2z m91 -156 c0 -17 -9 -29 -29 -39 -34 -18 -41
-13 -41 30 0 21 6 37 17 43 25 13 53 -5 53 -34z"/>
    <path d="M2815 5840 c-3 -5 -17 -10 -31 -10 -33 0 -84 -56 -84 -92 0 -46 42
-72 79 -49 10 7 24 3 44 -11 l30 -21 43 22 c39 21 61 47 50 58 -3 3 -23 -5
-46 -18 -41 -23 -42 -23 -56 -4 -16 22 -17 44 -5 98 7 28 6 37 -4 37 -8 0 -17
-4 -20 -10z m-21 -87 c-7 -20 -16 -28 -34 -28 -19 0 -24 5 -22 20 2 11 13 28
24 38 28 24 46 8 32 -30z"/>
    <path d="M3192 5818 c2 -13 8 -23 13 -23 6 0 11 10 13 23 2 15 -2 22 -13 22
-11 0 -15 -7 -13 -22z"/>
    <path d="M6032 5819 c1 -13 8 -23 13 -21 15 3 12 35 -3 40 -9 3 -13 -3 -10
-19z"/>
    <path d="M7312 5819 c1 -12 9 -24 16 -27 9 -3 13 3 10 19 -1 12 -9 24 -16 27
-9 3 -13 -3 -10 -19z"/>
    <path d="M3602 5804 c-17 -33 -21 -183 -5 -196 22 -18 28 -1 31 99 4 96 -6
134 -26 97z"/>
    <path d="M5580 5788 c-1 -13 -3 -74 -6 -135 -6 -108 -5 -113 14 -113 12 0 22
9 26 23 8 29 8 211 0 231 -9 24 -34 19 -34 -6z"/>
    <path d="M2003 5754 c-8 -21 13 -42 28 -27 13 13 5 43 -11 43 -6 0 -13 -7 -17
-16z"/>
    <path d="M6020 5690 c0 -11 7 -20 15 -20 8 0 15 9 15 20 0 11 -7 20 -15 20 -8
0 -15 -9 -15 -20z"/>
    <path d="M2000 5615 c0 -17 5 -25 13 -22 6 2 12 12 12 22 0 10 -6 20 -12 23
-8 2 -13 -6 -13 -23z"/>
    <path d="M3180 5615 c-10 -12 -9 -16 5 -21 17 -7 38 13 29 28 -8 12 -20 10
-34 -7z"/>
    <path d="M6020 5576 c0 -17 5 -26 16 -26 10 0 14 7 12 22 -5 32 -28 35 -28 4z"/>
    <path d="M7312 5548 c-16 -16 -15 -38 2 -38 17 0 30 30 18 42 -4 4 -13 3 -20
-4z"/>
    <path d="M3180 5500 c0 -11 7 -20 15 -20 8 0 15 9 15 20 0 11 -7 20 -15 20 -8
0 -15 -9 -15 -20z"/>
    <path d="M1995 5490 c-7 -23 2 -43 16 -35 12 8 12 55 0 55 -5 0 -12 -9 -16
-20z"/>
    <path d="M6014 5454 c3 -9 6 -18 6 -20 0 -2 7 -4 15 -4 8 0 15 9 15 20 0 14
-7 20 -21 20 -15 0 -19 -4 -15 -16z"/>
    <path d="M3576 5408 c-3 -13 -6 -62 -6 -110 0 -71 3 -88 15 -88 21 0 26 32 23
129 -3 83 -19 117 -32 69z"/>
    <path d="M7300 5370 c0 -21 4 -30 13 -27 6 2 12 14 12 27 0 13 -6 25 -12 28
-9 2 -13 -7 -13 -28z"/>
    <path d="M3166 5374 c-3 -9 -4 -20 -1 -24 9 -15 35 1 35 21 0 23 -25 25 -34 3z"/>
    <path d="M1990 5354 c0 -16 5 -24 13 -22 18 7 20 35 2 41 -11 5 -15 0 -15 -19z"/>
    <path d="M5566 5328 c-3 -13 -6 -71 -6 -130 0 -99 2 -108 19 -108 15 0 19 10
25 53 8 67 8 171 0 191 -9 23 -31 19 -38 -6z"/>
    <path d="M6018 5325 c-10 -11 4 -45 19 -45 9 0 13 8 11 22 -3 21 -19 34 -30
23z"/>
    <path d="M3160 5236 c0 -18 16 -29 30 -21 13 8 1 35 -16 35 -8 0 -14 -6 -14
-14z"/>
    <path d="M1984 5215 c-3 -8 -3 -19 1 -25 11 -18 25 -11 25 15 0 27 -17 34 -26
10z"/>
    <path d="M7300 5210 c0 -11 7 -20 15 -20 8 0 15 9 15 20 0 11 -7 20 -15 20 -8
0 -15 -9 -15 -20z"/>
    <path d="M6012 5173 c5 -25 28 -28 28 -4 0 12 -6 21 -16 21 -9 0 -14 -7 -12
-17z"/>
    <path d="M3167 5113 c-4 -3 -7 -15 -7 -25 0 -26 24 -17 28 10 3 21 -8 29 -21
15z"/>
    <path d="M1980 5064 c0 -31 23 -28 28 4 2 15 -2 22 -12 22 -11 0 -16 -9 -16
-26z"/>
    <path d="M7300 5066 c0 -17 5 -26 16 -26 10 0 14 7 12 22 -5 32 -28 35 -28 4z"/>
    <path d="M6005 5070 c-10 -16 16 -43 28 -31 11 11 2 41 -12 41 -5 0 -13 -5
-16 -10z"/>
    <path d="M3566 5015 c-3 -8 -8 -62 -12 -120 -6 -93 -5 -105 10 -111 9 -4 18
-5 20 -3 2 2 6 59 10 127 5 102 4 122 -8 122 -7 0 -16 -7 -20 -15z"/>
    <path d="M3167 5014 c-11 -11 -8 -44 3 -44 15 0 24 30 13 41 -5 5 -12 6 -16 3z"/>
    <path d="M6007 4954 c-14 -15 -6 -34 14 -34 14 0 19 5 17 17 -3 18 -20 27 -31
17z"/>
    <path d="M1970 4905 c0 -28 15 -34 24 -9 10 25 7 34 -9 34 -9 0 -15 -9 -15
-25z"/>
    <path d="M5556 4915 c-11 -29 -7 -263 5 -271 21 -13 27 13 30 146 4 118 2 135
-12 138 -9 2 -19 -4 -23 -13z"/>
    <path d="M7297 4913 c-13 -12 -7 -33 8 -33 8 0 15 9 15 20 0 20 -11 26 -23 13z"/>
    <path d="M3150 4879 c0 -24 23 -21 28 4 2 10 -3 17 -12 17 -10 0 -16 -9 -16
-21z"/>
    <path d="M7868 4843 c-9 -2 -23 -15 -32 -28 -11 -17 -27 -25 -53 -27 -30 -2
-42 -10 -60 -37 -31 -46 -30 -88 4 -123 21 -22 24 -31 15 -40 -20 -20 -14 -48
11 -49 94 -3 92 -3 95 -30 2 -15 -4 -43 -12 -63 -12 -28 -21 -36 -41 -36 -35
0 -45 29 -17 48 25 16 29 47 8 55 -8 3 -26 -3 -40 -14 -20 -16 -26 -30 -26
-59 0 -45 18 -60 72 -60 45 0 62 15 83 76 21 60 15 95 -20 126 l-24 21 22 29
c25 34 29 107 7 133 -17 21 3 46 22 27 14 -14 44 -16 52 -3 4 5 2 21 -4 35 -9
25 -23 29 -62 19z m-50 -99 c26 -18 29 -59 6 -92 -19 -28 -32 -28 -61 0 -27
25 -29 54 -7 86 18 26 32 28 62 6z"/>
    <path d="M6000 4800 c0 -11 6 -20 14 -20 7 0 16 9 19 20 4 15 0 20 -14 20 -12
0 -19 -7 -19 -20z"/>
    <path d="M1970 4776 c-13 -17 -7 -46 9 -46 14 0 25 40 14 51 -6 6 -15 4 -23
-5z"/>
    <path d="M1270 4766 c0 -8 7 -17 16 -20 15 -6 16 -26 10 -184 -9 -238 -13
-273 -37 -279 -10 -3 -19 -14 -19 -24 0 -15 7 -19 40 -19 l40 0 -1 70 c-1 61
2 76 25 111 17 25 33 39 44 37 25 -5 30 -152 6 -179 -27 -30 -11 -51 33 -43
49 9 50 10 28 34 -15 17 -17 30 -11 90 5 56 3 77 -10 103 -26 49 -45 54 -85
20 -9 -7 -19 -10 -22 -7 -10 10 4 257 15 271 15 19 0 33 -38 33 -22 0 -34 -5
-34 -14z"/>
    <path d="M3150 4761 c0 -11 4 -22 9 -25 11 -7 23 22 15 35 -9 16 -24 10 -24
-10z"/>
    <path d="M7290 4745 c0 -16 6 -25 15 -25 9 0 15 9 15 25 0 16 -6 25 -15 25 -9
0 -15 -9 -15 -25z"/>
    <path d="M1967 4633 c-13 -13 -7 -53 8 -53 8 0 15 8 15 18 0 22 -14 44 -23 35z"/>
    <path d="M3147 4634 c-4 -4 -7 -16 -7 -26 0 -16 3 -17 21 -8 11 6 19 16 16 23
-4 14 -21 20 -30 11z"/>
    <path d="M3546 4608 c-3 -13 -7 -65 -10 -116 -6 -92 -6 -93 17 -90 21 3 22 8
25 116 2 95 0 112 -12 112 -9 0 -18 -10 -20 -22z"/>
    <path d="M7283 4544 c-8 -22 15 -43 27 -24 5 8 10 21 10 28 0 17 -30 15 -37
-4z"/>
    <path d="M5997 4535 c-8 -18 11 -31 25 -17 11 11 3 32 -12 32 -4 0 -10 -7 -13
-15z"/>
    <path d="M5710 4531 c0 -5 7 -14 15 -21 12 -10 15 -38 15 -129 0 -64 4 -122 9
-130 12 -19 56 -7 87 24 33 33 34 97 2 113 -13 6 -32 12 -43 14 -18 3 -20 11
-19 71 l1 67 -34 0 c-18 0 -33 -4 -33 -9z m118 -198 c2 -24 -2 -34 -18 -43
-27 -14 -40 -5 -40 29 0 56 53 69 58 14z"/>
    <path d="M3140 4474 c0 -31 23 -28 28 4 2 15 -2 22 -12 22 -11 0 -16 -9 -16
-26z"/>
    <path d="M1956 4473 c-12 -12 -6 -43 9 -43 8 0 15 9 15 19 0 21 -13 34 -24 24z"/>
    <path d="M5545 4447 c-3 -6 -6 -71 -8 -142 -2 -124 -1 -130 18 -130 19 0 20 8
25 120 3 66 4 130 2 143 -4 23 -29 30 -37 9z"/>
    <path d="M5994 4405 c-7 -17 4 -37 17 -30 12 8 12 45 -1 45 -6 0 -13 -7 -16
-15z"/>
    <path d="M7280 4360 c0 -11 7 -20 15 -20 8 0 15 9 15 20 0 11 -7 20 -15 20 -8
0 -15 -9 -15 -20z"/>
    <path d="M3137 4353 c-13 -12 -7 -43 8 -43 9 0 15 9 15 25 0 24 -10 32 -23 18z"/>
    <path d="M1952 4310 c-10 -26 -7 -40 7 -40 13 0 20 36 10 51 -6 10 -10 7 -17
-11z"/>
    <path d="M3299 4297 c-39 -31 -46 -90 -13 -118 14 -12 148 -22 177 -13 26 8
22 36 -5 32 -21 -3 -23 2 -28 52 l-5 55 -55 2 c-32 2 -62 -2 -71 -10z m74 -49
c15 -23 1 -48 -26 -48 -46 0 -64 44 -24 60 27 11 38 8 50 -12z"/>
    <path d="M5984 4259 c-10 -17 13 -36 27 -22 12 12 4 33 -11 33 -5 0 -12 -5
-16 -11z"/>
    <path d="M3542 4248 c-8 -8 -12 -51 -12 -126 0 -103 2 -113 18 -110 15 3 17
18 20 126 1 67 -1 122 -6 122 -4 0 -13 -5 -20 -12z"/>
    <path d="M3130 4195 c0 -17 5 -25 13 -22 6 2 12 12 12 22 0 10 -6 20 -12 23
-8 2 -13 -6 -13 -23z"/>
    <path d="M7287 4213 c-13 -12 -7 -43 8 -43 9 0 15 9 15 25 0 24 -10 32 -23 18z"/>
    <path d="M1940 4125 c0 -28 15 -34 24 -9 10 25 7 34 -9 34 -9 0 -15 -9 -15
-25z"/>
    <path d="M3127 4073 c-13 -12 -7 -43 8 -43 9 0 15 9 15 25 0 24 -10 32 -23 18z"/>
    <path d="M5655 4051 c-3 -6 6 -16 20 -21 26 -10 27 -11 11 -35 -21 -31 -20
-35 5 -35 56 0 80 -54 37 -84 -25 -18 -38 -13 -38 15 0 28 -24 19 -28 -10 -11
-73 89 -62 118 13 11 29 5 52 -21 81 -9 11 -19 34 -21 50 -3 27 -7 30 -40 33
-20 2 -39 -2 -43 -7z"/>
    <path d="M7270 4030 c0 -11 7 -20 15 -20 8 0 15 9 15 20 0 11 -7 20 -15 20 -8
0 -15 -9 -15 -20z"/>
    <path d="M5854 4022 c-37 -25 -46 -110 -14 -142 11 -11 23 -20 28 -20 22 0 53
35 62 71 9 33 8 44 -7 69 -17 29 -45 38 -69 22z m41 -78 c0 -27 -4 -39 -14
-39 -25 0 -36 31 -23 60 17 37 37 26 37 -21z"/>
    <path d="M3200 4010 c0 -6 11 -15 25 -20 21 -8 24 -14 19 -40 -6 -25 -3 -30
14 -30 31 0 46 -25 36 -62 -12 -41 -29 -46 -47 -13 -12 23 -15 25 -26 11 -7
-8 -11 -25 -9 -38 2 -18 10 -24 39 -26 30 -3 41 2 58 24 26 34 27 84 1 117
-11 14 -20 39 -20 56 0 30 -1 31 -45 31 -25 0 -45 -5 -45 -10z"/>
    <path d="M5980 3995 c0 -17 5 -25 13 -22 6 2 12 12 12 22 0 10 -6 20 -12 23
-8 2 -13 -6 -13 -23z"/>
    <path d="M3380 3968 c-34 -74 -19 -136 37 -153 35 -10 73 36 73 89 0 55 -31
106 -65 106 -21 0 -30 -9 -45 -42z m70 -17 c15 -29 12 -77 -6 -92 -14 -11 -19
-10 -35 10 -23 28 -24 49 -3 79 19 27 30 28 44 3z"/>
    <path d="M1930 3968 c0 -7 4 -19 8 -26 6 -9 12 -6 20 13 10 22 9 25 -8 25 -11
0 -20 -6 -20 -12z"/>
    <path d="M5525 3834 c-5 -96 -4 -139 4 -147 25 -25 35 12 38 133 2 127 -1 150
-22 150 -10 0 -15 -35 -20 -136z"/>
    <path d="M3115 3910 c-8 -25 1 -41 20 -33 19 7 20 53 1 53 -8 0 -17 -9 -21
-20z"/>
    <path d="M5973 3874 c-7 -18 11 -39 26 -30 17 11 13 46 -4 46 -9 0 -18 -7 -22
-16z"/>
    <path d="M3515 3798 c-10 -107 -3 -183 15 -183 12 0 16 18 21 80 8 100 1 175
-17 175 -8 0 -14 -24 -19 -72z"/>
    <path d="M7277 3863 c-13 -12 -7 -33 8 -33 8 0 15 9 15 20 0 20 -11 26 -23 13z"/>
    <path d="M1926 3824 c-9 -24 -7 -34 8 -34 16 0 29 27 20 41 -8 14 -21 11 -28
-7z"/>
    <path d="M3115 3750 c-7 -23 2 -43 16 -35 12 8 12 55 0 55 -5 0 -12 -9 -16
-20z"/>
    <path d="M5970 3735 c0 -16 6 -25 15 -25 9 0 15 9 15 25 0 16 -6 25 -15 25 -9
0 -15 -9 -15 -25z"/>
    <path d="M1920 3680 c0 -21 4 -30 13 -27 6 2 12 14 12 27 0 13 -6 25 -12 28
-9 2 -13 -7 -13 -28z"/>
    <path d="M7267 3674 c-9 -10 4 -34 19 -34 8 0 14 9 14 20 0 19 -19 27 -33 14z"/>
    <path d="M5974 3616 c-7 -20 2 -46 16 -46 13 0 13 47 0 55 -6 3 -13 -1 -16 -9z"/>
    <path d="M3110 3596 c0 -17 5 -26 16 -26 10 0 14 7 12 22 -5 32 -28 35 -28 4z"/>
    <path d="M1921 3561 c-9 -6 -12 -18 -7 -36 9 -35 29 -19 24 19 -2 19 -7 23
-17 17z"/>
    <path d="M5524 3528 c-11 -17 -18 -190 -10 -223 8 -31 34 -33 41 -2 9 43 0
230 -12 234 -6 2 -15 -2 -19 -9z"/>
    <path d="M7267 3504 c-15 -15 -7 -45 11 -42 9 2 17 12 17 22 0 20 -16 31 -28
20z"/>
    <path d="M3102 3463 c5 -25 28 -28 28 -4 0 12 -6 21 -16 21 -9 0 -14 -7 -12
-17z"/>
    <path d="M3506 3428 c-9 -36 -7 -201 4 -218 19 -30 28 6 31 120 4 99 2 115
-12 118 -10 2 -19 -6 -23 -20z"/>
    <path d="M5967 3333 c-13 -12 -7 -33 8 -33 8 0 15 9 15 20 0 20 -11 26 -23 13z"/>
    <path d="M3095 3320 c-10 -16 16 -43 28 -31 11 11 2 41 -12 41 -5 0 -13 -5
-16 -10z"/>
    <path d="M7264 3305 c-7 -17 4 -37 17 -30 12 8 12 45 -1 45 -6 0 -13 -7 -16
-15z"/>
    <path d="M1906 3241 c-8 -13 4 -42 15 -35 12 7 12 44 0 44 -6 0 -12 -4 -15 -9z"/>
    <path d="M5962 3179 c1 -13 8 -23 13 -21 15 3 12 35 -3 40 -9 3 -13 -3 -10
-19z"/>
    <path d="M3097 3173 c-13 -12 -7 -43 8 -43 9 0 15 9 15 25 0 24 -10 32 -23 18z"/>
    <path d="M5505 3128 c-16 -88 7 -228 29 -173 10 28 19 152 12 179 -9 37 -34
33 -41 -6z"/>
    <path d="M3092 3028 c-16 -16 -15 -38 2 -38 17 0 30 30 18 42 -4 4 -13 3 -20
-4z"/>
    <path d="M6355 3020 c-3 -5 -8 -39 -12 -75 -6 -67 -11 -76 -66 -105 -42 -23
-57 -62 -33 -88 13 -16 31 -20 84 -20 59 0 70 3 95 26 15 14 27 35 27 46 0 18
-3 17 -29 -8 -27 -26 -68 -33 -65 -10 6 40 15 244 11 244 -3 0 -8 -4 -12 -10z
m-37 -218 c4 -27 -22 -39 -43 -22 -14 11 -14 15 2 32 20 23 37 19 41 -10z"/>
    <path d="M3503 2998 c-14 -17 -24 -251 -12 -269 8 -12 12 -11 24 5 11 15 15
50 15 148 0 122 -5 144 -27 116z"/>
    <path d="M7257 3003 c-13 -12 -7 -33 8 -33 8 0 15 9 15 20 0 20 -11 26 -23 13z"/>
    <path d="M1896 2954 c-7 -19 2 -37 15 -29 12 8 12 45 0 45 -5 0 -12 -7 -15
-16z"/>
    <path d="M2640 2910 c-12 -17 -24 -49 -27 -70 -5 -34 -1 -43 25 -70 17 -16 39
-30 49 -30 22 0 93 46 93 60 0 12 -27 13 -34 1 -3 -5 -18 -12 -32 -15 -20 -5
-33 -1 -50 15 -29 27 -31 59 -5 90 20 25 25 21 33 -26 2 -11 11 -21 21 -23 14
-3 17 4 17 35 0 69 -52 87 -90 33z"/>
    <path d="M5962 2878 c2 -13 8 -23 13 -23 6 0 11 10 13 23 2 15 -2 22 -13 22
-11 0 -15 -7 -13 -22z"/>
    <path d="M3080 2865 c0 -17 5 -25 13 -22 6 2 12 12 12 22 0 10 -6 20 -12 23
-8 2 -13 -6 -13 -23z"/>
    <path d="M7252 2835 c2 -14 8 -26 13 -26 6 0 11 12 13 26 2 18 -1 25 -13 25
-12 0 -15 -7 -13 -25z"/>
    <path d="M5260 2651 c-65 -5 -75 -9 -75 -25 0 -17 8 -18 110 -17 113 2 132 8
122 35 -7 17 -17 17 -157 7z"/>
    <path d="M3625 2640 c-15 -25 16 -36 102 -38 93 -2 120 6 110 32 -5 13 -24 16
-106 16 -59 0 -102 -4 -106 -10z"/>
    <path d="M3968 2643 c-18 -4 -25 -28 -10 -36 4 -3 47 -6 96 -8 77 -4 90 -2
100 14 9 14 8 20 -4 27 -15 10 -149 12 -182 3z"/>
    <path d="M4298 2643 c-20 -3 -28 -10 -28 -24 0 -17 7 -19 69 -19 50 0 74 4 85
16 9 8 14 20 11 25 -6 9 -84 10 -137 2z"/>
    <path d="M4553 2635 c-3 -9 -3 -18 -1 -21 3 -3 45 -6 94 -7 85 -2 89 -1 92 21
3 21 1 22 -88 22 -72 0 -92 -3 -97 -15z"/>
    <path d="M4860 2635 c-23 -28 0 -36 96 -33 91 3 115 12 99 38 -10 16 -182 11
-195 -5z"/>
    <path d="M4260 2488 c-32 -34 -45 -91 -31 -126 12 -28 46 -52 74 -52 27 0 67
26 67 42 0 17 -2 17 -34 1 -32 -15 -37 -15 -60 1 -32 21 -34 56 -5 103 26 42
53 41 57 -4 2 -23 7 -30 18 -26 19 7 18 48 -2 67 -22 23 -60 20 -84 -6z"/>
    <path d="M4492 2491 c2 -11 14 -16 37 -16 43 0 50 -19 17 -41 -32 -20 -36 -48
-6 -39 45 14 68 -42 28 -69 -20 -14 -24 -14 -40 1 -23 20 -32 12 -24 -22 7
-29 30 -32 66 -9 50 34 63 73 38 113 -9 15 -9 26 1 47 6 15 8 30 4 34 -4 4
-34 10 -66 12 -49 4 -57 2 -55 -11z"/>
    <path d="M5485 2488 c-3 -13 -5 -70 -3 -128 2 -85 6 -105 18 -105 12 0 17 22
23 105 8 115 4 150 -18 150 -8 0 -17 -10 -20 -22z"/>
    <path d="M4725 2457 c-42 -65 -23 -147 35 -147 53 0 94 82 68 137 -10 22 -21
29 -50 31 -30 3 -40 -1 -53 -21z m73 -19 c18 -18 15 -53 -7 -79 -16 -20 -23
-22 -38 -13 -36 22 -23 104 15 104 10 0 23 -5 30 -12z"/>
    <path d="M3460 2145 c-5 -14 -10 -73 -10 -130 0 -81 3 -104 15 -108 24 -10 27
9 29 136 0 87 -3 122 -12 125 -6 2 -16 -8 -22 -23z"/>
    <path d="M5676 2088 c-3 -13 -7 -32 -8 -42 -2 -13 -15 -23 -35 -28 -43 -11
-73 -52 -73 -98 0 -53 20 -67 69 -50 22 7 50 10 64 6 34 -8 39 1 20 38 -12 22
-16 54 -14 114 1 50 -2 82 -9 82 -5 0 -12 -10 -14 -22z m-18 -134 c4 -25 -32
-59 -53 -51 -20 8 -19 36 2 59 21 23 47 19 51 -8z"/>
    <path d="M5477 2083 c-8 -13 -13 -300 -5 -308 4 -4 14 -5 23 -1 13 5 15 27 13
157 -2 105 -7 154 -15 156 -6 2 -13 0 -16 -4z"/>
    <path d="M3292 2028 c-42 -54 -53 -122 -24 -157 20 -24 73 -31 96 -12 28 23
18 32 -31 29 l-48 -3 -3 38 c-3 41 21 92 39 81 7 -4 6 -10 -1 -19 -18 -22 -8
-60 15 -60 16 0 21 8 23 42 2 33 -1 44 -20 57 -27 19 -33 20 -46 4z"/>
    <path d="M3457 1747 c-3 -8 -8 -54 -12 -103 -6 -74 -5 -92 8 -102 21 -18 25
-1 29 117 2 64 -1 96 -8 98 -6 2 -14 -2 -17 -10z"/>
    <path d="M5464 1577 c-2 -7 -3 -58 -2 -113 3 -85 5 -99 21 -102 15 -3 17 7 17
112 0 98 -2 116 -15 116 -9 0 -18 -6 -21 -13z"/>
    <path d="M3446 1338 c-11 -54 -13 -119 -3 -125 20 -12 38 31 35 86 -3 56 -23
81 -32 39z"/>
    <path d="M5450 1126 c0 -40 -2 -86 -5 -102 -3 -16 -1 -36 5 -44 9 -13 12 -12
25 4 11 15 15 47 15 118 0 91 -1 98 -20 98 -18 0 -20 -7 -20 -74z"/>
    <path d="M3740 770 c0 -19 5 -21 77 -18 65 3 78 6 81 21 3 15 -6 17 -77 17
-75 0 -81 -2 -81 -20z"/>
    <path d="M4034 775 c-10 -25 10 -32 87 -30 50 2 75 7 87 19 15 15 12 16 -45
16 -33 0 -74 3 -92 6 -24 5 -32 2 -37 -11z"/>
    <path d="M4697 772 c-20 -2 -27 -8 -25 -20 2 -13 16 -18 52 -20 65 -4 96 4 96
26 0 14 -10 17 -48 18 -26 0 -60 -2 -75 -4z"/>
    <path d="M4974 769 c-10 -17 16 -29 61 -29 54 0 85 10 85 26 0 18 -135 20
-146 3z"/>
    <path d="M9382 8014 c2 -11 11 -20 22 -22 13 -3 17 1 14 14 -2 11 -11 20 -22
22 -13 3 -17 -1 -14 -14z"/>
    <path d="M9440 7940 c0 -15 5 -20 18 -18 9 2 17 10 17 18 0 8 -8 16 -17 18
-13 2 -18 -3 -18 -18z"/>
    <path d="M2660 6802 c-49 -48 -53 -88 -14 -139 25 -34 26 -35 7 -55 -10 -12
-41 -36 -70 -54 -95 -62 -85 -73 65 -79 118 -4 125 -1 137 46 8 33 -10 47 -34
25 -19 -17 -66 -22 -75 -7 -3 4 18 35 47 67 58 64 93 140 82 176 -22 70 -83
78 -145 20z m81 -48 c7 -20 6 -32 -6 -50 -19 -29 -41 -31 -55 -4 -11 21 -8 32
18 63 21 24 31 21 43 -9z"/>
    <path d="M2931 6804 c-34 -28 -55 -83 -49 -128 4 -36 44 -67 89 -69 42 -2 50
-31 20 -68 -19 -24 -20 -24 -50 -6 -17 10 -36 15 -41 12 -17 -11 -11 -41 13
-63 51 -48 101 -16 146 92 37 90 38 109 7 180 -36 80 -80 97 -135 50z m89 -84
c11 -32 11 -42 0 -55 -18 -22 -56 -18 -74 7 -22 31 -20 60 5 92 20 25 23 26
39 11 9 -8 23 -33 30 -55z"/>
    <path d="M9482 5353 c5 -25 28 -28 28 -4 0 12 -6 21 -16 21 -9 0 -14 -7 -12
-17z"/>
    <path d="M9350 5236 c0 -8 4 -17 9 -20 11 -7 33 18 24 27 -12 12 -33 7 -33 -7z"/>
    <path d="M9307 5183 c-13 -12 -7 -33 8 -33 8 0 15 9 15 20 0 20 -11 26 -23 13z"/>
    <path d="M9242 5093 c5 -25 28 -28 28 -4 0 12 -6 21 -16 21 -9 0 -14 -7 -12
-17z"/>
    <path d="M9551 5011 c-14 -9 -9 -41 7 -41 15 0 34 28 27 40 -8 12 -16 13 -34
1z"/>
    <path d="M9317 5003 c-4 -3 -7 -12 -7 -20 0 -17 26 -17 33 1 8 21 -11 35 -26
19z"/>
    <path d="M9427 5004 c-14 -14 -7 -35 11 -32 9 2 17 10 17 17 0 16 -18 25 -28
15z"/>
  </g>
</svg>