<svg xmlns="http://www.w3.org/2000/svg" viewBox="0 0 624 2714" width="624" height="2714">
  <rect x="0" y="0" width="100%" height="100%" fill="#fffaf0"/>
  <g fill="none" stroke="#2a2a2a" stroke-width="1.4" stroke-linejoin="round" stroke-linecap="round">
    <path d="M140 27117 c0 -19 29 -57 45 -57 25 0 27 -19 5 -49 -25 -37 -50 -105
-50 -140 0 -35 17 -51 54 -51 17 0 46 -9 64 -20 32 -20 33 -20 70 -1 65 33 73
49 70 131 l-3 73 -48 15 c-65 21 -79 7 -49 -47 26 -46 28 -88 6 -119 -19 -28
-29 -28 -59 3 -21 20 -25 34 -25 80 0 63 19 100 55 109 15 4 32 21 45 46 l20
40 -23 0 c-16 0 -28 -9 -35 -25 -6 -14 -16 -25 -21 -25 -5 0 -18 11 -29 25
-15 18 -29 25 -56 25 -23 0 -36 -5 -36 -13z"/>
    <path d="M570 26763 c0 -203 -3 -395 -6 -428 -3 -35 -1 -72 5 -88 l11 -29 793
4 792 4 6 90 c4 49 7 252 8 452 1 353 1 362 -19 362 -19 0 -19 -9 -20 -370 0
-377 -4 -453 -24 -469 -6 -5 -319 -11 -748 -14 -611 -4 -740 -2 -749 9 -8 10
-9 127 -4 429 l7 415 -25 0 -26 0 -1 -367z"/>
    <path d="M2709 27043 c0 -49 -2 -122 -3 -163 -7 -164 -8 -629 -2 -639 8 -12
1576 -3 1590 10 6 5 4 24 -4 48 -10 32 -12 124 -8 436 5 382 5 395 -13 395
-14 0 -19 -7 -19 -27 -1 -16 -3 -199 -6 -408 -3 -209 -9 -383 -13 -387 -14
-16 -1443 -33 -1471 -18 -20 10 -20 21 -20 425 0 362 -2 415 -15 415 -12 0
-15 -17 -16 -87z"/>
    <path d="M4626 27114 c-9 -24 2 -36 24 -24 10 6 21 7 23 3 3 -5 8 -51 12 -104
l7 -96 -29 -22 c-27 -22 -27 -23 -9 -37 14 -10 35 -12 75 -8 88 10 118 34 66
54 -25 9 -25 11 -25 130 l0 120 -69 0 c-54 0 -70 -3 -75 -16z"/>
    <path d="M4900 27096 c0 -19 9 -45 21 -60 18 -23 28 -27 63 -24 l41 3 3 -47
c4 -59 -20 -120 -43 -112 -9 4 -21 17 -26 31 -11 29 -34 39 -54 23 -28 -23 7
-85 59 -103 57 -19 90 -6 115 46 22 48 37 175 26 236 -7 40 -8 41 -45 41 -35
0 -39 -3 -42 -27 -2 -17 -9 -28 -18 -28 -9 0 -16 11 -18 28 -3 24 -7 27 -43
27 -38 0 -39 -1 -39 -34z"/>
    <path d="M802 26523 l3 -38 -57 -3 c-42 -2 -58 -7 -58 -17 0 -8 4 -16 9 -20 5
-3 12 -19 16 -35 8 -38 51 -90 74 -90 40 0 55 25 62 106 7 84 -7 134 -37 134
-11 0 -14 -9 -12 -37z m-6 -139 c-6 -16 -8 -16 -23 -2 -9 10 -13 23 -9 34 6
16 8 16 23 2 9 -10 13 -23 9 -34z"/>
    <path d="M2017 26554 c-3 -3 -1 -17 4 -31 14 -36 4 -43 -63 -43 -58 0 -60 -1
-53 -22 4 -13 8 -34 9 -47 2 -13 16 -38 33 -57 24 -27 38 -34 66 -34 48 0 61
24 63 120 1 63 -2 79 -19 98 -21 23 -29 26 -40 16z m3 -139 c16 -19 6 -45 -18
-45 -29 0 -48 26 -32 45 16 19 34 19 50 0z"/>
    <path d="M2975 26539 c-3 -9 -5 -22 -3 -30 2 -11 -9 -14 -47 -14 -40 0 -49 -3
-46 -15 2 -8 6 -33 9 -55 5 -46 33 -74 74 -75 37 0 58 25 58 68 0 20 3 46 6
58 7 28 -41 88 -51 63z m-5 -134 c-9 -11 -16 -13 -23 -6 -7 7 -6 15 3 26 9 11
16 13 23 6 7 -7 6 -15 -3 -26z"/>
    <path d="M4135 26536 c-3 -9 -7 -23 -10 -32 -5 -14 -15 -16 -60 -11 -43 4 -55
2 -55 -8 0 -8 5 -17 10 -20 6 -3 10 -21 10 -39 0 -62 75 -100 113 -58 10 10
17 33 17 50 0 18 5 40 11 50 8 13 9 28 2 47 -11 33 -31 44 -38 21z m-18 -102
c9 -24 -11 -38 -37 -24 -17 9 -19 14 -9 26 15 19 38 18 46 -2z"/>
    <path d="M3680 25756 c-3 -2 -509 -7 -1125 -10 -616 -4 -1426 -9 -1800 -11
-374 -3 -695 -5 -712 -5 -30 0 -33 -3 -33 -30 l0 -30 716 3 c547 2 718 0 725
-9 7 -8 10 -188 9 -496 -1 -266 -1 -491 -1 -500 1 -20 29 -24 36 -5 3 6 6 231
8 498 1 352 5 490 14 500 9 12 84 14 440 14 l428 0 3 -458 c2 -408 4 -458 18
-464 9 -3 20 0 25 8 5 8 9 213 9 455 0 341 3 444 13 452 8 7 301 11 882 14
l870 3 5 -455 5 -455 22 -3 23 -3 2 458 3 458 421 -1 c282 -1 427 -5 441 -12
20 -11 20 -19 21 -453 l0 -443 43 -35 c24 -20 64 -52 90 -71 97 -71 214 -163
225 -177 8 -10 12 -81 11 -226 0 -324 13 -1692 23 -2447 5 -371 14 -1100 20
-1620 5 -520 12 -1118 15 -1330 2 -212 8 -666 11 -1010 3 -344 7 -695 9 -780
20 -1002 30 -1793 40 -3095 9 -1167 15 -1704 20 -1975 3 -146 7 -546 10 -890
5 -640 12 -1297 20 -1865 5 -341 12 -1023 20 -1895 8 -861 8 -3130 0 -3195 -8
-59 -9 -61 -95 -145 -47 -47 -134 -130 -193 -185 l-106 -100 -1 -385 c-1 -459
-5 -541 -25 -556 -8 -6 -68 -14 -132 -17 -116 -6 -330 -19 -593 -37 -91 -6
-140 -5 -154 2 -19 10 -19 21 -13 508 5 416 4 500 -8 516 -9 13 -17 16 -24 9
-7 -7 -12 -193 -17 -525 -3 -283 -8 -518 -10 -521 -4 -7 -181 -19 -349 -24
-60 -2 -191 -8 -290 -14 -99 -6 -268 -15 -375 -21 -107 -6 -226 -13 -264 -16
-38 -3 -101 -7 -140 -8 -39 -2 -148 -6 -243 -11 -122 -6 -176 -5 -186 3 -10 9
-12 98 -9 481 4 478 1 511 -33 511 -12 0 -15 -25 -16 -147 -1 -82 -4 -308 -8
-503 l-6 -355 -90 -7 c-169 -13 -590 -32 -705 -33 l-115 0 -2 499 c-1 312 -6
503 -12 509 -5 5 -17 7 -25 4 -14 -6 -16 -65 -18 -514 l-3 -508 -265 -11
c-146 -7 -395 -18 -555 -25 -159 -8 -321 -14 -360 -15 -38 0 -112 -1 -162 -2
l-93 -2 0 -36 0 -37 223 7 c122 3 296 9 387 11 91 3 233 10 315 15 83 5 263
14 400 20 138 6 430 20 650 30 220 11 450 22 510 25 61 3 148 7 195 10 47 3
139 7 205 10 66 3 185 10 265 15 153 10 280 16 470 25 63 3 180 10 260 15 123
9 473 29 775 45 86 5 304 19 530 36 77 5 143 13 148 18 4 4 9 147 12 317 2
170 7 390 11 489 l6 180 71 65 c39 36 125 117 190 181 l120 115 4 80 c6 124 5
2389 -1 2889 -3 248 -8 702 -11 1010 -3 308 -8 668 -10 800 -6 329 -14 947
-20 1580 -3 292 -10 854 -15 1250 -5 396 -12 1114 -15 1595 -5 858 -15 1908
-20 2185 -1 77 -3 349 -4 605 -1 256 -6 551 -11 655 -5 105 -14 658 -20 1230
-26 2726 -30 3052 -35 3340 -3 143 -10 724 -15 1290 -12 1201 -21 1949 -23
1952 -2 2 -81 64 -205 160 -44 34 -96 77 -116 96 l-36 34 -1 104 c0 57 0 256
0 441 0 312 -1 338 -18 359 l-18 23 -740 3 c-406 2 -741 2 -743 -1z"/>
    <path d="M2024 25304 c13 -49 -2 -54 -175 -54 l-159 0 0 -34 c0 -44 18 -56 39
-27 15 19 25 22 81 19 l65 -3 1 -48 c3 -77 62 -122 127 -98 40 15 61 55 60
115 -1 28 3 65 10 83 9 27 8 35 -8 53 -27 29 -49 26 -41 -6z m-16 -116 c17
-17 15 -38 -5 -60 -22 -25 -69 -24 -84 3 -22 41 55 91 89 57z"/>
    <path d="M4539 25301 c-55 -55 -30 -152 44 -172 56 -15 142 -2 176 27 42 35
47 87 14 130 -14 19 -29 34 -34 34 -14 0 -10 -33 6 -54 25 -32 19 -64 -15 -81
-17 -9 -35 -13 -40 -10 -6 3 -10 32 -10 64 0 69 -18 91 -74 91 -28 0 -45 -7
-67 -29z m100 -28 c11 -22 5 -93 -9 -107 -8 -8 -21 -5 -48 9 -31 17 -37 25
-35 50 3 33 34 65 64 65 10 0 22 -8 28 -17z"/>
    <path d="M3324 25279 c4 -13 10 -45 13 -71 5 -43 3 -50 -25 -78 -24 -23 -39
-30 -69 -30 -63 1 -126 68 -103 111 11 19 13 19 35 5 20 -13 25 -13 35 -1 22
27 8 50 -34 53 -53 5 -76 -18 -76 -76 0 -38 5 -50 39 -83 36 -36 43 -39 95
-39 31 0 70 7 86 15 55 28 73 99 46 175 -15 41 -54 58 -42 19z"/>
    <path d="M402 25250 c-21 -20 -29 -39 -34 -90 -3 -24 -7 -25 -75 -28 -78 -3
-92 -15 -79 -68 8 -31 24 -31 36 1 l10 25 143 0 c127 0 146 2 160 18 10 10 17
26 17 34 0 22 -29 90 -48 111 -22 25 -101 23 -130 -3z m106 -33 c6 -7 12 -25
14 -41 3 -27 0 -30 -37 -38 -33 -7 -42 -6 -52 9 -19 25 -16 50 9 67 27 19 52
20 66 3z"/>
    <path d="M4300 24785 c-18 -22 -9 -27 62 -37 67 -9 97 4 85 36 -9 22 -129 23
-147 1z"/>
    <path d="M4664 24792 c-21 -13 3 -52 33 -53 95 -3 139 14 113 45 -13 17 -124
23 -146 8z"/>
    <path d="M4924 24785 c-14 -36 21 -55 100 -55 42 0 58 13 54 41 -3 22 -8 24
-76 27 -58 2 -73 0 -78 -13z"/>
    <path d="M1591 24771 c-69 -19 -6 -55 78 -45 59 7 77 20 59 41 -11 14 -94 16
-137 4z"/>
    <path d="M1872 24768 c-20 -20 3 -46 40 -43 18 2 50 3 71 4 40 1 61 26 36 42
-20 13 -133 11 -147 -3z"/>
    <path d="M2150 24765 c-22 -26 2 -36 76 -33 63 3 69 5 72 26 3 21 0 22 -66 22
-50 0 -73 -4 -82 -15z"/>
    <path d="M5149 24616 c-17 -37 -2 -236 18 -243 25 -10 33 18 33 119 0 131 -23
186 -51 124z"/>
    <path d="M2400 24566 c-7 -9 -10 -65 -8 -162 3 -141 4 -149 23 -149 19 0 20 8
23 156 2 130 0 158 -12 162 -8 3 -19 0 -26 -7z"/>
    <path d="M1466 24528 c-13 -41 -16 -75 -10 -114 5 -34 10 -44 26 -44 17 0 19
7 16 82 -2 54 -7 83 -15 86 -7 2 -15 -2 -17 -10z"/>
    <path d="M4214 24456 c-6 -16 -9 -110 -6 -203 2 -47 6 -63 16 -63 8 0 18 10
22 23 8 24 13 224 6 245 -6 16 -31 15 -38 -2z"/>
    <path d="M3317 24273 c-4 -3 -7 -74 -7 -157 0 -149 0 -150 -27 -178 -24 -26
-33 -28 -99 -28 -105 0 -136 -8 -132 -34 3 -20 10 -21 117 -24 159 -3 151 7
151 -204 0 -145 2 -169 16 -175 9 -3 20 0 25 8 5 8 9 91 9 186 0 126 3 174 13
180 6 4 65 9 131 10 119 1 144 8 133 37 -7 17 -70 22 -184 17 -85 -4 -89 5
-98 203 -6 148 -9 166 -24 166 -10 0 -21 -3 -24 -7z"/>
    <path d="M514 24178 c-5 -7 -10 -66 -12 -132 -1 -65 -7 -126 -12 -136 -7 -14
-29 -19 -109 -24 -104 -8 -136 -21 -106 -46 12 -10 41 -11 114 -7 68 4 102 2
110 -6 7 -7 11 -55 11 -134 0 -104 3 -125 16 -130 28 -11 35 19 31 129 -6 144
-8 142 127 142 84 1 109 4 116 16 19 29 3 35 -102 38 -139 4 -137 0 -140 167
-3 111 -5 130 -20 133 -9 2 -20 -3 -24 -10z"/>
    <path d="M1456 24174 c-3 -9 -6 -72 -6 -140 0 -105 3 -126 16 -131 27 -10 34
17 34 139 0 123 -4 148 -25 148 -7 0 -16 -7 -19 -16z"/>
    <path d="M5157 24184 c-4 -4 -7 -59 -7 -121 0 -113 0 -114 23 -111 21 3 22 6
22 118 0 96 -3 115 -15 118 -9 1 -19 0 -23 -4z"/>
    <path d="M2395 24108 c-3 -8 -4 -75 -3 -149 3 -126 4 -134 23 -134 19 0 20 7
20 145 0 130 -2 145 -18 148 -9 2 -19 -3 -22 -10z"/>
    <path d="M4209 23893 c-1 -43 -2 -94 -3 -113 -1 -19 2 -43 6 -52 10 -21 34
-24 41 -5 3 9 2 193 -2 240 -1 4 -10 7 -21 7 -18 0 -20 -7 -21 -77z"/>
    <path d="M5150 23596 c0 -154 3 -170 31 -155 17 9 19 22 19 130 0 121 -8 159
-35 159 -12 0 -15 -23 -15 -134z"/>
    <path d="M1457 23674 c-4 -4 -7 -58 -7 -119 0 -83 4 -116 14 -124 28 -23 37
12 34 130 -2 93 -6 114 -18 117 -9 1 -19 0 -23 -4z"/>
    <path d="M2401 23616 c-8 -9 -11 -60 -9 -157 3 -138 4 -144 24 -147 28 -4 30
9 26 181 -3 104 -7 137 -17 137 -7 0 -18 -6 -24 -14z"/>
    <path d="M4217 23513 c-11 -11 -8 -211 3 -218 6 -4 17 -1 25 5 11 9 15 36 15
100 0 49 -3 95 -6 104 -6 16 -26 21 -37 9z"/>
    <path d="M1465 23201 c-6 -6 -8 -48 -5 -98 4 -69 8 -88 20 -88 12 0 16 19 18
98 2 76 0 97 -11 97 -7 0 -17 -4 -22 -9z"/>
    <path d="M5167 23133 c-3 -5 -7 -77 -9 -160 -2 -116 0 -155 10 -165 11 -11 16
-10 26 4 9 12 12 61 12 170 -1 134 -3 153 -18 156 -9 2 -18 -1 -21 -5z"/>
    <path d="M4221 23086 c-8 -9 -11 -52 -9 -127 3 -106 4 -114 23 -114 19 0 20 8
23 116 2 90 -1 119 -11 128 -11 9 -17 8 -26 -3z"/>
    <path d="M2390 22933 c0 -146 7 -176 34 -154 13 11 16 38 16 152 l0 139 -25 0
-25 0 0 -137z"/>
    <path d="M1458 22883 c-2 -10 -2 -88 1 -173 5 -129 9 -155 21 -155 13 0 15 27
18 173 2 163 2 172 -17 172 -10 0 -21 -8 -23 -17z"/>
    <path d="M4214 22657 c-7 -19 1 -265 9 -273 3 -4 13 -4 21 -1 11 4 15 33 18
129 2 68 0 131 -4 141 -10 20 -36 23 -44 4z"/>
    <path d="M5167 22624 c-4 -4 -7 -58 -7 -120 0 -88 3 -113 14 -117 29 -11 37
19 34 129 -2 89 -6 109 -18 112 -9 1 -19 0 -23 -4z"/>
    <path d="M2397 22564 c-9 -9 -9 -256 -1 -278 8 -20 30 -21 37 -2 3 7 5 73 4
147 -2 112 -5 134 -17 137 -9 1 -19 0 -23 -4z"/>
    <path d="M5413 22417 c10 -38 -15 -54 -59 -38 -20 7 -37 11 -39 9 -10 -10 14
-110 30 -128 22 -25 67 -26 87 -2 20 23 11 173 -11 180 -10 3 -12 -2 -8 -21z
m-18 -91 c23 -16 14 -46 -15 -46 -12 0 -24 9 -29 23 -15 38 8 50 44 23z"/>
    <path d="M1460 22181 c0 -101 3 -130 14 -134 8 -3 17 -3 20 0 3 4 6 64 6 135
0 121 -1 128 -20 128 -19 0 -20 -7 -20 -129z"/>
    <path d="M4232 22171 c-20 -12 -12 -206 8 -206 21 0 38 181 18 201 -7 8 -18
10 -26 5z"/>
    <path d="M5166 22123 c-3 -10 -2 -63 2 -118 6 -79 10 -100 22 -100 20 0 37
167 21 208 -12 30 -37 36 -45 10z"/>
    <path d="M2394 22044 c-7 -28 2 -264 11 -272 2 -2 11 -2 20 1 12 5 15 30 15
152 0 138 -1 145 -20 145 -13 0 -22 -9 -26 -26z"/>
    <path d="M4227 21833 c-4 -3 -7 -61 -7 -128 0 -94 3 -125 14 -134 12 -10 17
-8 25 8 15 28 14 234 -1 249 -14 14 -22 15 -31 5z"/>
    <path d="M1448 21783 c-2 -5 -2 -52 0 -106 3 -85 6 -98 20 -95 14 3 17 20 20
106 3 96 2 102 -17 102 -11 0 -21 -3 -23 -7z"/>
    <path d="M5177 21723 c-10 -10 -8 -256 2 -272 5 -8 16 -11 25 -8 14 5 16 26
16 135 0 86 -4 132 -12 140 -14 14 -22 15 -31 5z"/>
    <path d="M2399 21528 c-2 -117 4 -265 12 -273 7 -7 15 -4 25 10 11 15 14 47
11 150 -4 124 -5 130 -25 133 -17 3 -22 -2 -23 -20z"/>
    <path d="M4231 21301 c-10 -6 -12 -36 -9 -119 1 -61 6 -114 10 -117 4 -4 14
-5 23 -2 12 5 15 26 15 115 0 111 -9 141 -39 123z"/>
    <path d="M1454 21218 c-12 -36 -7 -299 6 -312 23 -23 30 21 27 173 -1 107 -6
156 -14 158 -6 2 -15 -6 -19 -19z"/>
    <path d="M5182 21088 c3 -125 4 -133 23 -133 18 0 20 8 23 100 4 128 -3 165
-29 165 -19 0 -19 -6 -17 -132z"/>
    <path d="M2396 21025 c-8 -21 2 -277 12 -287 4 -4 14 -3 22 2 11 7 15 37 17
132 2 68 1 133 -2 146 -6 25 -40 30 -49 7z"/>
    <path d="M4228 20824 c-2 -9 -1 -55 2 -103 4 -71 8 -86 23 -89 15 -3 17 7 17
102 0 98 -1 106 -19 106 -11 0 -21 -7 -23 -16z"/>
    <path d="M5191 20721 c-9 -6 -12 -42 -9 -149 2 -77 6 -144 10 -147 4 -4 14 -5
23 -2 12 5 15 29 15 145 0 142 -8 172 -39 153z"/>
    <path d="M1450 20486 c0 -120 1 -126 20 -126 20 0 20 5 18 122 -3 108 -5 123
-20 126 -16 3 -18 -8 -18 -122z"/>
    <path d="M2405 20548 c-3 -8 -4 -86 -3 -173 3 -152 4 -160 23 -160 19 0 20 7
20 170 0 154 -2 170 -18 173 -9 2 -19 -3 -22 -10z"/>
    <path d="M4237 20373 c-9 -8 -9 -206 -1 -227 5 -12 10 -13 25 -5 17 8 19 22
19 109 0 54 -3 105 -6 114 -6 16 -26 21 -37 9z"/>
    <path d="M5194 20117 c-2 -7 -3 -65 -2 -127 3 -97 6 -115 19 -118 26 -5 31 25
23 145 -5 87 -10 113 -21 113 -7 0 -16 -6 -19 -13z"/>
    <path d="M2407 20053 c-12 -11 -8 -271 3 -278 6 -4 17 -1 25 5 12 10 15 39 15
130 0 65 -3 125 -6 134 -6 16 -26 21 -37 9z"/>
    <path d="M1449 19983 c-2 -32 -2 -94 1 -138 4 -62 8 -80 20 -80 13 0 15 22 15
135 0 116 -2 135 -16 138 -13 2 -17 -8 -20 -55z"/>
    <path d="M4242 19873 c-11 -19 -3 -244 9 -257 19 -21 37 16 38 77 2 146 -20
229 -47 180z"/>
    <path d="M5194 19509 c4 -62 9 -116 12 -121 3 -4 11 -5 20 -1 12 4 14 25 12
117 -3 109 -4 111 -27 114 l-24 4 7 -113z"/>
    <path d="M2412 19558 c-8 -8 -12 -56 -12 -154 0 -115 3 -144 15 -154 30 -25
36 3 33 160 -3 151 -9 175 -36 148z"/>
    <path d="M4247 19433 c-10 -10 -8 -146 2 -162 5 -8 16 -11 25 -8 13 5 16 22
16 80 0 78 -18 116 -43 90z"/>
    <path d="M1457 19394 c-11 -11 -8 -217 3 -234 17 -27 28 2 33 86 7 111 -9 175
-36 148z"/>
    <path d="M3340 19112 c0 -148 -2 -171 -17 -185 -14 -11 -52 -17 -153 -22 -74
-4 -139 -11 -143 -15 -5 -4 -7 -16 -5 -26 3 -18 13 -19 133 -15 121 3 132 2
158 -19 l27 -21 1 -142 c1 -186 8 -232 34 -232 19 0 20 7 20 195 0 107 4 201
8 208 6 8 40 12 110 12 121 0 147 6 147 31 0 32 -32 40 -139 33 l-101 -7 -15
36 c-11 27 -15 73 -14 174 0 76 0 144 0 151 -1 6 -12 12 -26 12 l-25 0 0 -168z"/>
    <path d="M502 19128 c-7 -7 -9 -47 -5 -119 8 -154 14 -149 -186 -149 -86 0
-162 -4 -169 -9 -8 -5 -12 -17 -10 -27 3 -18 15 -19 160 -19 152 0 158 -1 182
-24 25 -24 26 -28 26 -153 0 -119 1 -128 19 -128 27 0 29 11 29 149 0 165 -4
161 162 161 134 0 160 8 146 46 -6 15 -24 16 -148 13 l-142 -4 -14 25 c-10 19
-12 51 -7 127 5 93 4 103 -13 112 -13 7 -22 7 -30 -1z"/>
    <path d="M2407 19134 c-9 -9 -9 -266 -1 -288 3 -9 15 -16 25 -16 19 0 19 8 17
152 -3 129 -5 153 -18 156 -9 1 -19 0 -23 -4z"/>
    <path d="M5200 19013 c0 -123 7 -150 34 -140 14 6 16 23 14 129 -3 119 -4 123
-25 126 -23 3 -23 2 -23 -115z"/>
    <path d="M4252 19008 c-13 -13 -15 -64 -6 -157 6 -49 10 -61 25 -61 23 0 30
36 25 132 -5 96 -15 115 -44 86z"/>
    <path d="M1450 18731 c0 -72 4 -132 9 -135 19 -12 29 23 31 104 3 151 2 160
-20 160 -19 0 -20 -7 -20 -129z"/>
    <path d="M2406 18574 c-8 -59 -8 -247 0 -268 3 -9 14 -16 24 -16 16 0 19 12
24 83 8 117 -4 241 -25 245 -12 2 -18 -8 -23 -44z"/>
    <path d="M5217 18563 c-12 -11 -8 -231 3 -238 6 -4 17 -2 25 5 10 9 13 36 11
114 -2 57 -6 108 -10 114 -8 13 -19 15 -29 5z"/>
    <path d="M1445 18500 c-4 -6 -3 -85 1 -176 6 -144 9 -165 23 -162 14 3 16 25
19 153 1 83 0 160 -3 173 -6 23 -29 30 -40 12z"/>
    <path d="M4263 18503 c-9 -3 -13 -35 -13 -109 0 -113 11 -154 36 -133 10 9 14
38 14 119 0 108 -8 133 -37 123z"/>
    <path d="M2406 18051 c-3 -4 -3 -76 1 -160 5 -113 9 -151 19 -151 22 0 25 17
28 138 4 149 -1 182 -25 182 -10 0 -20 -4 -23 -9z"/>
    <path d="M4258 18008 c-2 -24 -2 -87 0 -140 4 -75 8 -98 19 -98 7 0 18 11 23
25 12 31 11 214 -2 238 -16 31 -36 19 -40 -25z"/>
    <path d="M5215 18018 c-2 -7 -3 -67 -2 -133 2 -117 3 -120 25 -123 l23 -3 -3
133 c-3 117 -5 133 -21 136 -9 2 -19 -2 -22 -10z"/>
    <path d="M1450 17769 c0 -128 2 -140 18 -137 15 3 17 19 20 141 2 132 2 137
-18 137 -19 0 -20 -6 -20 -141z"/>
    <path d="M5223 17543 c-5 -10 -6 -70 -3 -133 5 -110 6 -115 28 -118 l23 -4 -3
134 c-3 115 -5 133 -20 136 -9 2 -20 -5 -25 -15z"/>
    <path d="M2422 17518 c-8 -8 -12 -54 -12 -149 0 -139 6 -163 35 -139 11 9 14
41 14 140 -1 133 -11 174 -37 148z"/>
    <path d="M4262 17393 c3 -100 4 -108 23 -108 18 0 20 8 23 85 4 105 -2 130
-29 130 -19 0 -20 -5 -17 -107z"/>
    <path d="M1450 17231 c0 -108 3 -131 15 -131 20 0 27 47 23 160 -3 81 -6 95
-20 98 -16 3 -18 -8 -18 -127z"/>
    <path d="M2417 17024 c-12 -12 -8 -292 3 -299 6 -4 18 -1 26 6 22 18 16 292
-6 297 -9 1 -19 0 -23 -4z"/>
    <path d="M5237 16984 c-4 -4 -7 -60 -7 -125 0 -122 9 -151 37 -113 11 15 13
41 7 119 -6 92 -20 136 -37 119z"/>
    <path d="M4270 16941 c-15 -29 -9 -236 8 -253 10 -10 15 -9 25 2 11 12 13 43
8 139 -6 126 -17 156 -41 112z"/>
    <path d="M1457 16853 c-4 -3 -7 -57 -7 -120 0 -95 3 -115 16 -120 9 -3 19 -1
23 6 9 14 6 215 -3 230 -8 12 -19 14 -29 4z"/>
    <path d="M2417 16483 c-9 -8 -9 -260 -1 -290 4 -13 14 -23 24 -23 16 0 18 14
22 148 2 81 2 153 0 160 -4 13 -34 17 -45 5z"/>
    <path d="M4275 16428 c-11 -29 0 -271 12 -275 19 -7 26 38 27 166 1 103 -1
116 -17 119 -9 2 -19 -3 -22 -10z"/>
    <path d="M5235 16390 c-9 -15 3 -172 14 -183 22 -22 31 8 31 99 0 86 -2 94
-19 94 -11 0 -23 -5 -26 -10z"/>
    <path d="M1456 16354 c-3 -9 -6 -67 -6 -130 0 -96 3 -116 16 -121 9 -3 20 0
25 8 10 16 12 192 3 226 -7 27 -30 37 -38 17z"/>
    <path d="M5240 15826 c0 -146 6 -170 35 -146 12 10 15 38 15 120 0 135 -6 170
-31 170 -18 0 -19 -10 -19 -144z"/>
    <path d="M2417 15954 c-8 -9 -7 -177 2 -219 3 -16 13 -31 22 -33 14 -2 17 13
22 95 8 138 6 157 -18 161 -12 2 -24 0 -28 -4z"/>
    <path d="M4287 15933 c-4 -3 -7 -51 -7 -105 0 -91 1 -98 20 -98 25 0 31 25 27
116 -4 84 -17 111 -40 87z"/>
    <path d="M1456 15883 c-6 -25 -2 -220 5 -227 3 -4 14 -4 23 0 13 5 16 23 16
113 0 70 -4 111 -12 119 -17 17 -26 15 -32 -5z"/>
    <path d="M1456 15433 c-4 -10 -4 -73 0 -141 6 -105 9 -122 23 -120 14 3 16 22
16 138 0 116 -2 135 -16 138 -9 2 -20 -5 -23 -15z"/>
    <path d="M2425 15414 c-10 -4 -9 -303 0 -331 2 -7 14 -13 25 -13 20 0 20 5 18
172 -3 145 -5 173 -18 175 -8 1 -20 0 -25 -3z"/>
    <path d="M5246 15344 c-4 -10 -4 -84 0 -166 6 -136 9 -148 26 -148 17 0 18 9
16 162 -3 141 -5 163 -19 166 -9 2 -19 -5 -23 -14z"/>
    <path d="M4282 15238 c3 -111 4 -113 27 -116 l24 -4 -5 94 c-3 52 -10 104 -17
116 -24 46 -32 23 -29 -90z"/>
    <path d="M1457 14951 c-5 -22 1 -213 8 -219 2 -3 11 -2 20 2 24 9 18 229 -6
234 -10 2 -19 -5 -22 -17z"/>
    <path d="M4290 14736 c0 -108 1 -116 19 -116 17 0 20 11 26 87 8 93 0 136 -28
141 -15 3 -17 -8 -17 -112z"/>
    <path d="M2418 14793 c-2 -10 -2 -82 0 -160 4 -131 5 -143 22 -143 25 0 32 51
28 200 -3 108 -4 115 -24 118 -14 2 -23 -3 -26 -15z"/>
    <path d="M5244 14724 c-8 -70 2 -244 16 -258 22 -22 29 14 31 151 1 145 -2
163 -26 163 -9 0 -16 -19 -21 -56z"/>
    <path d="M1456 14455 c-8 -21 -8 -203 0 -232 4 -14 14 -23 25 -23 18 0 19 8
17 132 -3 113 -5 133 -19 136 -9 2 -19 -4 -23 -13z"/>
    <path d="M4297 14353 c-4 -3 -7 -53 -7 -110 0 -86 3 -105 16 -110 9 -3 20 0
25 8 13 22 11 193 -3 207 -14 14 -22 15 -31 5z"/>
    <path d="M2425 14238 c-3 -8 -4 -72 -3 -144 3 -121 4 -129 23 -129 19 0 20 7
20 140 0 125 -2 140 -18 143 -9 2 -19 -3 -22 -10z"/>
    <path d="M5256 14172 c-9 -14 -11 -316 -2 -340 4 -14 14 -22 24 -20 14 3 16
26 17 173 0 94 -1 176 -3 183 -5 14 -28 16 -36 4z"/>
    <path d="M1455 14059 c-4 -5 -4 -63 0 -127 7 -108 16 -139 37 -126 13 8 10
238 -4 252 -15 15 -25 15 -33 1z"/>
    <path d="M4290 13737 c0 -119 4 -137 31 -137 18 0 19 7 17 118 -3 113 -4 117
-25 120 -23 3 -23 2 -23 -101z"/>
    <path d="M2419 13663 c-3 -49 3 -288 7 -295 3 -4 14 -8 25 -8 18 0 19 7 18
143 -1 143 -8 177 -34 177 -8 0 -15 -8 -16 -17z"/>
    <path d="M1458 13558 c-2 -7 -2 -65 1 -128 5 -100 8 -115 24 -118 16 -3 17 6
15 125 -3 109 -5 128 -19 131 -9 2 -18 -3 -21 -10z"/>
    <path d="M5255 13550 c-5 -9 -6 -279 -1 -382 1 -34 22 -56 37 -41 15 15 -2
425 -18 430 -6 2 -14 -1 -18 -7z"/>
    <path d="M4294 13354 c-7 -29 0 -137 11 -154 5 -8 11 -8 21 1 21 17 20 165 -2
173 -23 9 -23 8 -30 -20z"/>
    <path d="M1465 13158 c-3 -8 -4 -70 -3 -138 3 -110 5 -125 21 -128 15 -3 17 8
17 126 0 103 -3 132 -15 142 -12 10 -16 9 -20 -2z"/>
    <path d="M2432 13078 c-8 -8 -12 -45 -11 -102 2 -113 9 -150 32 -154 15 -3 17
8 17 121 0 91 -4 127 -13 136 -10 8 -17 7 -25 -1z"/>
    <path d="M5253 12818 c0 -120 7 -158 32 -158 12 0 15 16 15 89 0 50 4 93 10
96 6 4 5 14 -2 28 -6 12 -14 29 -18 37 -4 8 -14 16 -22 18 -12 2 -14 -17 -15
-110z"/>
    <path d="M4300 12723 c0 -142 6 -170 34 -160 13 5 15 25 12 139 -3 73 -5 139
-5 146 -1 6 -10 12 -21 12 -19 0 -20 -7 -20 -137z"/>
    <path d="M1460 12471 c0 -114 3 -141 16 -152 27 -22 33 8 28 144 -5 137 -7
147 -30 147 -11 0 -14 -25 -14 -139z"/>
    <path d="M2427 12583 c-10 -10 -8 -226 2 -242 5 -8 16 -11 25 -8 24 9 24 242
0 251 -19 7 -19 7 -27 -1z"/>
    <path d="M5260 12300 c0 -111 2 -132 16 -137 26 -10 30 11 28 132 -2 119 -6
135 -30 135 -11 0 -14 -24 -14 -130z"/>
    <path d="M4304 12217 c-3 -8 -4 -49 -2 -93 3 -73 5 -79 26 -82 21 -3 22 0 22
73 0 75 -11 115 -31 115 -5 0 -12 -6 -15 -13z"/>
    <path d="M2420 11991 c0 -114 3 -143 16 -155 8 -9 20 -16 25 -16 10 0 13 268
3 294 -3 9 -15 16 -25 16 -18 0 -19 -9 -19 -139z"/>
    <path d="M1465 12068 c-3 -8 -4 -59 -3 -113 3 -101 17 -131 38 -83 14 31 0
200 -17 206 -7 2 -15 -3 -18 -10z"/>
    <path d="M5267 11838 c-11 -42 3 -282 16 -290 28 -18 36 22 31 156 -3 72 -7
137 -9 144 -7 20 -32 14 -38 -10z"/>
    <path d="M4308 11758 c-3 -7 -2 -58 1 -113 5 -80 9 -100 21 -100 12 0 16 20
18 113 2 105 1 112 -17 112 -10 0 -21 -6 -23 -12z"/>
    <path d="M2427 11533 c-4 -3 -7 -68 -7 -143 0 -137 11 -183 38 -166 13 8 17
270 6 300 -6 16 -26 21 -37 9z"/>
    <path d="M1462 11398 c3 -115 4 -123 23 -123 19 0 20 7 20 106 -1 103 -10 139
-37 139 -5 0 -7 -54 -6 -122z"/>
    <path d="M4310 11258 c-1 -2 -3 -55 -6 -118 -4 -92 -2 -119 10 -135 28 -38 37
-6 34 126 -3 109 -5 124 -20 127 -10 2 -18 2 -18 0z"/>
    <path d="M5284 11228 c-12 -18 -16 -221 -6 -237 6 -8 17 -11 26 -8 13 5 16 25
16 120 0 86 -3 117 -14 126 -11 9 -16 9 -22 -1z"/>
    <path d="M3382 11208 c-8 -8 -12 -64 -12 -184 0 -130 -3 -174 -13 -183 -8 -6
-77 -14 -155 -17 -157 -8 -182 -16 -162 -53 11 -22 16 -23 83 -17 118 10 202
9 225 -3 25 -13 29 -60 23 -248 -3 -107 10 -173 35 -173 15 0 18 50 15 274 -2
165 -2 166 133 166 57 0 137 3 179 6 64 6 77 10 77 24 0 37 -21 40 -197 34
-110 -5 -172 -3 -176 3 -4 6 -7 88 -8 182 -1 135 -5 175 -16 187 -17 17 -16
17 -31 2z"/>
    <path d="M507 11044 c-4 -4 -7 -63 -7 -130 l0 -123 -29 -20 c-24 -18 -44 -21
-123 -21 -51 0 -124 -3 -161 -7 -62 -5 -68 -8 -65 -27 3 -20 7 -21 159 -18
l156 3 32 -26 31 -27 0 -123 c0 -122 11 -179 34 -172 7 2 12 61 14 164 2 125
6 164 17 173 10 8 56 11 140 11 109 -1 126 1 132 15 13 35 -24 45 -150 43 -66
-2 -121 1 -127 7 -5 5 -11 70 -12 144 -3 112 -6 135 -18 138 -9 1 -19 0 -23
-4z"/>
    <path d="M1460 10911 c0 -94 3 -121 15 -131 9 -7 18 -10 21 -8 8 9 14 169 7
216 -4 32 -10 42 -24 42 -18 0 -19 -9 -19 -119z"/>
    <path d="M2425 10970 c-3 -6 -3 -69 1 -141 6 -112 9 -129 23 -127 13 3 16 23
19 127 2 82 -1 128 -9 137 -14 17 -25 18 -34 4z"/>
    <path d="M4311 10667 c-14 -18 -11 -163 4 -184 24 -33 35 -4 35 98 0 77 -3 99
-14 99 -7 0 -19 -6 -25 -13z"/>
    <path d="M5276 10568 c-8 -133 2 -203 29 -203 19 0 20 8 23 127 2 129 -6 178
-32 178 -10 0 -15 -24 -20 -102z"/>
    <path d="M2433 10488 c-4 -7 -10 -83 -11 -169 -3 -126 -1 -157 11 -167 11 -10
17 -9 26 2 16 19 11 338 -6 343 -6 2 -15 -2 -20 -9z"/>
    <path d="M1462 10253 c3 -112 5 -128 21 -131 15 -3 17 8 17 127 0 125 -1 131
-20 131 -20 0 -20 -5 -18 -127z"/>
    <path d="M4310 10088 c0 -62 5 -120 10 -128 21 -30 35 14 38 115 3 97 -4 125
-34 125 -11 0 -14 -24 -14 -112z"/>
    <path d="M5282 10013 c3 -160 4 -168 23 -168 19 0 20 8 23 155 2 137 1 156
-15 167 -9 7 -21 13 -25 13 -5 0 -7 -75 -6 -167z"/>
    <path d="M2426 9944 c-3 -9 -6 -78 -6 -154 0 -139 6 -164 34 -140 18 14 22
276 5 297 -15 17 -25 17 -33 -3z"/>
    <path d="M1462 9663 c3 -133 5 -158 18 -158 13 0 15 24 15 155 0 140 -2 155
-18 158 -16 3 -17 -8 -15 -155z"/>
    <path d="M4315 9698 c-3 -8 -4 -68 -3 -134 3 -111 4 -119 23 -119 19 0 20 7
20 130 0 116 -2 130 -18 133 -9 2 -19 -3 -22 -10z"/>
    <path d="M5296 9657 c-14 -10 -16 -29 -14 -132 3 -116 4 -120 26 -123 22 -3
22 -2 22 127 0 71 -4 132 -9 135 -4 3 -16 0 -25 -7z"/>
    <path d="M2420 9483 c-1 -33 -2 -231 -1 -241 1 -8 10 -12 24 -10 21 3 22 6 22
128 0 122 -1 125 -22 128 -13 2 -23 0 -23 -5z"/>
    <path d="M1457 9243 c-3 -5 -5 -72 -5 -150 0 -112 3 -144 14 -154 29 -24 35 5
32 157 -3 129 -5 149 -20 152 -9 2 -18 -1 -21 -5z"/>
    <path d="M5570 9213 c0 -4 5 -21 12 -39 9 -26 9 -36 -2 -49 -12 -14 -26 -16
-82 -11 -72 6 -83 -1 -48 -31 13 -11 20 -30 20 -51 0 -25 9 -43 33 -66 27 -28
38 -32 70 -28 46 5 58 37 33 89 -15 32 -15 37 -1 53 20 22 19 89 -1 118 -14
21 -34 30 -34 15z m-10 -175 c24 -40 25 -47 5 -55 -21 -7 -55 25 -55 52 0 45
23 46 50 3z"/>
    <path d="M4310 9062 c0 -96 3 -122 15 -132 29 -24 36 3 33 126 -3 115 -4 119
-25 122 -23 3 -23 2 -23 -116z"/>
    <path d="M5297 9123 c-9 -8 -9 -225 -1 -287 5 -36 11 -46 25 -46 18 0 19 10
19 151 0 161 -12 213 -43 182z"/>
    <path d="M2427 9083 c-4 -3 -7 -66 -7 -140 0 -113 2 -135 16 -140 9 -3 20 0
25 8 10 16 12 222 3 257 -6 21 -24 29 -37 15z"/>
    <path d="M1456 8713 c-3 -4 -6 -66 -6 -140 0 -111 3 -135 15 -140 9 -3 18 -3
21 -1 8 8 17 224 11 250 -7 25 -29 42 -41 31z"/>
    <path d="M4323 8662 c-7 -4 -10 -21 -8 -37 2 -17 4 -58 4 -93 1 -48 5 -64 17
-69 26 -10 34 16 31 102 -3 97 -12 117 -44 97z"/>
    <path d="M5302 8621 c-4 -11 -5 -75 -2 -143 4 -103 8 -123 21 -126 23 -4 29
26 29 150 0 84 -3 110 -16 122 -20 20 -23 20 -32 -3z"/>
    <path d="M2427 8544 c-4 -4 -7 -78 -7 -164 0 -130 3 -160 15 -170 30 -25 36 3
33 171 -3 138 -5 164 -18 167 -9 1 -19 0 -23 -4z"/>
    <path d="M4327 8173 c-8 -8 -9 -237 -1 -245 3 -3 14 -4 25 -1 17 5 19 15 19
117 0 74 -4 116 -12 124 -14 14 -22 15 -31 5z"/>
    <path d="M5300 8016 c0 -158 3 -176 31 -176 18 0 19 9 19 141 0 140 -8 179
-35 179 -13 0 -15 -24 -15 -144z"/>
    <path d="M1450 7936 c0 -74 4 -137 9 -140 5 -4 16 -3 25 0 13 5 16 26 16 124
0 132 -4 150 -31 150 -18 0 -19 -9 -19 -134z"/>
    <path d="M2426 7948 c-3 -13 -6 -75 -6 -139 0 -87 4 -119 14 -128 29 -24 37
11 34 150 -3 114 -5 134 -19 137 -10 2 -19 -6 -23 -20z"/>
    <path d="M4329 7683 c-5 -66 3 -279 11 -287 22 -22 30 13 31 134 1 169 2 160
-21 160 -11 0 -20 -3 -21 -7z"/>
    <path d="M5314 7547 c-2 -7 -3 -80 -2 -162 3 -147 3 -150 26 -153 22 -3 22 -3
22 143 0 139 -8 185 -31 185 -5 0 -12 -6 -15 -13z"/>
    <path d="M1457 7493 c-4 -3 -7 -62 -7 -130 0 -123 0 -124 23 -121 21 3 22 7
25 117 2 75 -1 118 -9 127 -13 15 -22 18 -32 7z"/>
    <path d="M2425 7428 c-3 -13 -4 -79 -3 -148 3 -121 4 -125 26 -128 l23 -3 -3
148 c-3 130 -5 148 -20 151 -11 2 -19 -5 -23 -20z"/>
    <path d="M4330 6953 c0 -133 7 -160 34 -150 14 6 16 24 15 124 -2 140 -4 153
-30 153 -18 0 -19 -8 -19 -127z"/>
    <path d="M5315 6998 c-3 -7 -4 -64 -2 -127 2 -97 5 -115 20 -125 31 -20 38 10
31 134 -3 63 -8 118 -10 122 -8 13 -34 9 -39 -4z"/>
    <path d="M2426 6941 c-4 -5 -7 -76 -7 -157 0 -109 4 -149 13 -156 29 -18 33 1
33 158 0 140 -2 159 -17 162 -9 2 -19 -1 -22 -7z"/>
    <path d="M1462 6891 c-8 -5 -15 -40 -19 -94 -5 -72 -3 -91 12 -113 9 -14 21
-22 25 -18 12 12 16 212 4 224 -5 5 -15 6 -22 1z"/>
    <path d="M4334 6472 c5 -72 12 -112 21 -121 23 -23 30 -5 32 86 2 98 -6 128
-38 136 l-22 6 7 -107z"/>
    <path d="M5327 6503 c-4 -3 -7 -71 -7 -149 0 -131 2 -144 19 -154 11 -5 22
-10 25 -10 8 0 8 284 0 304 -6 16 -26 21 -37 9z"/>
    <path d="M1442 6278 c3 -135 4 -143 23 -143 19 0 20 7 20 140 0 138 0 140 -23
143 l-23 3 3 -143z"/>
    <path d="M2425 6410 c-3 -5 -6 -68 -6 -140 -1 -132 6 -160 37 -160 11 0 14 29
14 149 0 127 -2 150 -16 155 -21 8 -22 8 -29 -4z"/>
    <path d="M4346 6053 c-3 -4 -6 -53 -6 -110 0 -84 3 -105 15 -110 9 -3 19 -2
23 1 9 10 15 140 8 180 -6 32 -27 52 -40 39z"/>
    <path d="M5325 5948 c-2 -13 -4 -56 -2 -97 1 -57 6 -76 19 -85 9 -5 20 -7 24
-4 5 5 8 139 5 196 -2 22 -40 13 -46 -10z"/>
    <path d="M2425 5888 c-3 -8 -4 -83 -3 -168 3 -153 3 -155 26 -158 l22 -3 -2
168 c-3 151 -5 168 -21 171 -9 2 -19 -3 -22 -10z"/>
    <path d="M1447 5873 c-10 -10 -8 -226 2 -242 5 -8 16 -11 25 -8 13 5 16 25 16
116 0 60 -3 116 -6 125 -6 16 -26 21 -37 9z"/>
    <path d="M5327 5491 c-9 -80 3 -222 21 -228 23 -9 30 14 30 106 1 109 -8 165
-29 169 -12 2 -17 -9 -22 -47z"/>
    <path d="M4340 5452 c0 -54 4 -75 19 -93 25 -31 31 -24 36 42 7 72 -5 113 -33
117 -21 3 -22 0 -22 -66z"/>
    <path d="M1446 5378 c-3 -13 -6 -62 -6 -110 0 -118 26 -175 51 -110 12 32 2
210 -13 230 -15 18 -25 15 -32 -10z"/>
    <path d="M2426 5363 c-4 -9 -4 -90 0 -180 6 -141 9 -165 25 -173 26 -14 29 4
29 184 0 161 -5 186 -36 186 -6 0 -15 -8 -18 -17z"/>
    <path d="M4350 4981 c0 -68 4 -93 16 -105 26 -27 34 -9 34 83 0 86 -8 111 -37
111 -10 0 -13 -23 -13 -89z"/>
    <path d="M5337 5013 c-4 -3 -7 -68 -7 -144 0 -127 2 -139 19 -149 11 -5 22 -7
24 -2 3 4 7 69 8 145 3 112 0 140 -11 147 -18 12 -25 12 -33 3z"/>
    <path d="M1449 4948 c-1 -7 0 -71 1 -143 2 -132 10 -166 36 -144 11 9 14 43
14 139 0 71 -3 135 -6 144 -7 19 -44 22 -45 4z"/>
    <path d="M2435 4788 c-3 -8 -4 -61 -3 -119 3 -96 4 -104 23 -104 19 0 20 7 20
115 0 101 -2 115 -18 118 -9 2 -19 -3 -22 -10z"/>
    <path d="M4350 4480 c0 -91 3 -112 15 -117 25 -9 29 2 33 102 4 97 -3 125 -34
125 -11 0 -14 -23 -14 -110z"/>
    <path d="M5334 4562 c-13 -21 -8 -172 6 -186 6 -6 15 -4 25 4 13 10 15 28 12
89 -6 104 -19 132 -43 93z"/>
    <path d="M1445 4478 c-3 -8 -2 -70 2 -138 7 -116 9 -125 28 -125 19 0 20 7 20
135 0 132 0 135 -23 138 -12 2 -24 -3 -27 -10z"/>
    <path d="M2428 4373 c-4 -132 1 -196 17 -213 27 -26 35 5 35 137 0 135 -4 153
-31 153 -17 0 -19 -9 -21 -77z"/>
    <path d="M5326 4168 c-10 -38 -7 -218 4 -239 6 -10 17 -19 25 -19 12 0 15 18
15 94 0 51 3 107 6 123 4 21 1 35 -11 46 -22 23 -32 21 -39 -5z"/>
    <path d="M4341 4033 c2 -94 6 -128 17 -139 11 -11 17 -12 28 -3 10 8 13 38 10
127 -2 65 -4 120 -5 123 -1 4 -12 9 -26 11 l-25 5 1 -124z"/>
    <path d="M1445 4021 c-8 -28 2 -172 14 -184 5 -5 14 -7 19 -3 14 8 24 149 13
180 -12 30 -37 34 -46 7z"/>
    <path d="M2430 3905 c0 -97 3 -117 16 -122 26 -10 34 16 34 110 0 91 -10 127
-35 127 -12 0 -15 -21 -15 -115z"/>
    <path d="M5122 3783 c-67 -4 -86 -19 -62 -49 10 -11 31 -14 89 -12 72 3 76 4
79 27 4 23 -13 42 -33 39 -5 -1 -38 -3 -73 -5z"/>
    <path d="M4820 3763 c-42 -5 -54 -22 -34 -44 13 -14 29 -16 97 -12 45 3 83 7
85 8 1 1 -2 14 -7 29 -10 23 -15 26 -58 24 -27 0 -64 -3 -83 -5z"/>
    <path d="M4513 3741 c-77 -6 -89 -12 -80 -36 5 -12 25 -15 107 -15 90 0 100 2
100 18 0 23 -19 42 -39 40 -9 -1 -48 -4 -88 -7z"/>
    <path d="M2177 3643 c-13 -3 -16 -10 -11 -26 10 -32 9 -32 87 -29 75 3 102 17
91 45 -5 14 -19 17 -78 16 -39 -1 -79 -3 -89 -6z"/>
    <path d="M1870 3621 c0 -34 24 -42 112 -39 82 3 83 3 86 31 l3 27 -100 0 c-92
0 -101 -2 -101 -19z"/>
    <path d="M1559 3604 c-7 -8 -5 -17 7 -28 12 -13 31 -16 78 -14 58 3 61 4 61
28 0 24 -2 25 -68 26 -41 0 -71 -4 -78 -12z"/>
    <path d="M5030 3307 c0 -31 -30 -40 -148 -44 -64 -2 -120 -7 -125 -12 -15 -15
-4 -86 14 -89 10 -2 19 5 22 18 5 18 13 20 105 20 93 0 102 -2 116 -22 24 -34
39 -9 40 68 1 45 -3 68 -11 71 -7 3 -13 -2 -13 -10z"/>
    <path d="M3568 3269 l-17 -39 -73 0 c-93 0 -116 -14 -120 -73 l-3 -42 -107 -9
-108 -9 -6 -33 c-3 -19 -4 -41 0 -49 8 -22 36 -18 36 5 0 11 6 23 13 25 6 3
95 9 197 14 l185 8 26 -23 c34 -32 39 -30 39 15 0 68 0 68 -108 63 -82 -4
-100 -2 -111 12 -12 14 -11 19 3 35 13 14 33 19 98 20 45 1 85 4 90 7 13 8 9
90 -5 102 -9 8 -16 1 -29 -29z"/>
    <path d="M4646 3224 c-9 -23 19 -53 35 -37 15 15 7 47 -12 51 -9 2 -19 -5 -23
-14z"/>
    <path d="M2133 3180 c-12 -5 -31 -22 -44 -39 l-22 -30 -32 35 c-38 40 -83 45
-129 15 -32 -21 -49 -19 -39 4 4 11 -2 15 -21 15 -37 0 -37 -46 -1 -60 22 -8
25 -16 25 -56 0 -64 39 -104 102 -104 41 0 46 3 61 35 19 41 26 43 50 15 25
-30 37 -16 37 44 0 59 10 72 57 82 26 5 33 1 51 -27 25 -40 21 -49 -24 -49
-30 0 -34 -3 -34 -25 0 -15 9 -31 24 -41 55 -35 107 29 86 106 -18 66 -89 105
-147 80z m-145 -62 c18 -18 14 -60 -8 -88 l-19 -25 -25 24 c-32 30 -33 48 -4
78 24 26 38 29 56 11z"/>
    <path d="M105 3151 c-70 -17 -95 -45 -95 -105 0 -23 9 -45 24 -63 l24 -28 143
0 143 0 15 -30 c8 -16 17 -37 21 -45 11 -23 26 -8 21 20 -11 69 -19 65 126 67
l132 3 21 -30 c25 -35 40 -31 40 10 0 19 -11 42 -29 62 -28 32 -30 32 -49 15
-14 -13 -44 -19 -129 -24 -110 -6 -111 -6 -137 21 -31 30 -36 32 -36 12 0 -26
-26 -34 -138 -41 -100 -7 -115 -6 -132 10 -27 24 -25 47 6 76 l26 24 23 -28
c27 -35 59 -33 63 4 3 23 -31 80 -46 78 -4 -1 -20 -4 -37 -8z"/>
    <path d="M1882 2155 c-7 -14 -12 -41 -12 -58 0 -26 -10 -43 -45 -77 -25 -24
-45 -48 -45 -52 0 -18 32 -20 50 -3 18 17 20 17 26 1 6 -15 -7 -220 -20 -310
-2 -17 -13 -38 -25 -47 -11 -9 -21 -25 -21 -34 0 -16 8 -17 68 -11 119 12 133
16 130 39 -2 13 -13 23 -28 27 l-25 6 3 154 c2 85 10 200 17 254 15 113 10
136 -34 136 -20 0 -31 -7 -39 -25z"/>
    <path d="M2122 2122 c-21 -18 -44 -56 -68 -112 l-36 -85 7 -110 c9 -138 28
-188 79 -205 45 -15 65 -8 98 33 49 63 89 173 99 279 9 90 8 101 -12 143 -41
87 -105 109 -167 57z m73 -155 c7 -84 -8 -235 -27 -270 -9 -18 -11 -18 -26 -3
-33 32 -25 289 10 359 18 36 36 -1 43 -86z"/>
  </g>
</svg>