<svg xmlns="http://www.w3.org/2000/svg" viewBox="0 0 634 700" width="634" height="700">
  <rect x="0" y="0" width="100%" height="100%" fill="#fffaf0"/>
  <g fill="none" stroke="#2a2a2a" stroke-width="1.4" stroke-linejoin="round" stroke-linecap="round">
    <path d="M 0.00 350.00 L 0.00 0.00 L 317.00 0.00 L 634.00 0.00 L 634.00 350.00 L 634.00 700.00 L 317.00 700.00 L 0.00 700.00 L 0.00 350.00 Z"/>
    <path d="M 76.01 690.25 C 76.03 676.69 76.97 623.13 77.47 607.25 C 77.71 599.25 77.52 593.00 77.02 593.00 C 76.53 593.00 75.99 594.46 75.81 596.25 L 75.50 599.50 L 48.29 599.77 C 21.99 600.02 21.05 599.97 20.02 598.04 C 19.43 596.94 19.24 594.91 19.58 593.52 C 19.96 592.02 19.79 591.00 19.17 591.00 C 18.59 591.00 17.98 592.91 17.81 595.25 L 17.50 599.50 L 9.25 599.79 C 4.71 599.95 1.00 600.51 1.00 601.03 C 1.00 601.60 15.65 602.08 38.25 602.24 L 75.50 602.50 L 75.50 607.50 L 75.50 612.50 L 47.66 612.77 L 19.82 613.03 L 19.25 610.84 L 18.67 608.65 L 17.87 610.82 C 17.13 612.81 16.37 613.00 9.03 613.00 C 4.34 613.00 1.00 613.42 1.00 614.00 C 1.00 614.58 4.36 615.00 9.09 615.00 C 16.56 615.00 17.23 615.17 17.76 617.18 L 18.33 619.35 L 19.14 617.16 L 19.95 614.97 L 47.72 615.23 L 75.50 615.50 L 75.50 619.50 L 75.50 623.50 L 38.25 623.76 C 14.57 623.93 1.00 624.38 1.00 625.01 C 1.00 625.59 4.67 626.01 9.75 626.02 C 14.56 626.03 31.32 626.15 47.00 626.27 L 75.50 626.50 L 75.50 631.50 L 75.50 636.50 L 61.50 636.76 C 53.80 636.90 41.20 636.67 33.50 636.26 L 19.50 635.50 L 18.93 631.50 C 18.36 627.45 17.38 628.13 16.80 633.00 C 16.51 635.40 16.18 635.51 8.75 635.79 C -1.62 636.18 -1.21 637.99 9.25 638.02 C 13.79 638.04 30.55 638.15 46.50 638.27 L 75.50 638.50 L 75.35 641.77 C 75.06 648.20 76.49 647.99 36.91 647.36 C 11.92 646.97 1.00 647.12 1.00 647.86 C 1.00 648.49 4.14 649.03 8.75 649.21 L 16.50 649.50 L 17.06 654.00 C 17.56 658.13 17.68 658.28 18.40 655.81 C 18.83 654.33 18.93 652.69 18.61 652.17 C 16.90 649.41 21.26 648.97 47.62 649.23 L 74.50 649.50 L 74.50 654.50 L 74.50 659.50 L 46.00 659.73 C 30.32 659.85 13.79 659.97 9.25 659.98 C 4.50 659.99 1.00 660.42 1.00 660.99 C 1.00 661.62 14.40 662.07 37.75 662.24 L 74.50 662.50 L 74.50 667.50 L 74.50 672.50 L 46.50 672.50 L 18.50 672.50 L 18.08 669.00 L 17.65 665.50 L 17.08 669.00 L 16.50 672.50 L 8.50 673.07 L 0.50 673.63 L 8.19 673.82 C 12.42 673.92 16.17 674.47 16.53 675.05 C 16.97 675.76 17.57 675.77 18.41 675.07 C 19.23 674.39 28.80 674.29 47.07 674.78 L 74.50 675.50 L 74.50 679.50 L 74.50 683.50 L 37.75 683.17 C 12.70 682.94 1.00 683.16 1.00 683.87 C 1.00 684.48 4.22 685.04 8.75 685.21 L 16.50 685.50 L 16.50 690.50 L 16.50 695.50 L 8.75 695.79 C 4.49 695.95 1.00 696.51 1.00 697.03 C 1.00 697.60 14.98 698.08 36.25 698.25 C 55.64 698.40 72.51 698.63 73.75 698.76 C 75.93 698.99 76.00 698.72 76.01 690.25 Z"/>
    <path d="M 244.58 697.08 C 242.68 694.98 242.84 694.44 247.72 686.68 C 249.68 683.55 250.38 683.07 251.56 684.05 C 252.35 684.71 253.00 684.85 253.00 684.36 C 253.00 683.35 240.55 675.00 239.05 675.00 C 238.51 675.00 236.26 677.67 234.04 680.94 C 231.82 684.20 229.65 687.10 229.22 687.37 C 228.78 687.64 226.64 686.35 224.46 684.52 L 220.50 681.18 L 224.75 675.14 C 227.09 671.82 229.00 668.56 229.00 667.91 C 229.00 666.74 228.25 666.02 222.76 661.93 L 220.03 659.88 L 217.51 662.40 C 216.13 663.78 215.00 665.49 215.00 666.20 C 215.01 666.92 216.09 666.15 217.42 664.50 L 219.83 661.50 L 222.59 663.55 C 227.66 667.32 227.66 668.08 222.65 675.55 C 218.41 681.86 218.18 682.53 219.82 683.47 C 220.81 684.04 223.21 685.74 225.16 687.25 C 227.10 688.76 228.93 690.00 229.23 690.00 C 229.52 690.00 231.67 687.08 234.00 683.50 C 236.33 679.92 238.64 677.00 239.14 677.00 C 240.19 677.00 248.00 682.04 248.00 682.72 C 248.00 682.97 246.38 686.07 244.40 689.61 C 240.60 696.40 240.53 699.00 244.12 699.00 C 246.22 699.00 246.23 698.92 244.58 697.08 Z"/>
    <path d="M 257.40 694.01 L 260.12 689.02 L 263.99 690.99 C 268.74 693.42 269.40 694.39 268.01 696.98 C 267.32 698.27 267.29 699.00 267.93 699.00 C 269.37 699.00 271.25 695.09 270.61 693.42 C 269.89 691.55 261.60 687.56 259.83 688.24 C 258.17 688.87 252.48 699.00 253.78 699.00 C 254.28 699.00 255.90 696.75 257.40 694.01 Z"/>
    <path d="M 511.04 696.48 L 516.02 693.95 L 517.17 696.48 C 518.45 699.28 520.65 700.02 519.46 697.25 C 519.05 696.29 518.68 694.71 518.64 693.75 C 518.60 692.79 518.05 692.00 517.41 692.00 C 515.73 692.00 505.15 696.96 504.46 698.06 C 503.46 699.68 505.88 699.09 511.04 696.48 Z"/>
    <path d="M 533.45 693.90 C 532.03 691.09 531.11 688.17 531.40 687.40 C 531.70 686.63 533.57 685.22 535.58 684.26 L 539.21 682.53 L 541.62 685.51 C 542.94 687.16 544.96 690.41 546.10 692.75 C 547.24 695.09 548.32 697.00 548.50 697.00 C 548.68 697.00 551.22 695.42 554.14 693.50 C 557.06 691.58 559.80 690.00 560.23 690.00 C 561.73 690.00 560.95 688.04 556.88 681.55 C 552.29 674.23 552.36 673.85 558.87 670.19 L 562.86 667.95 L 567.52 674.47 C 570.08 678.06 572.44 681.00 572.76 681.00 C 574.15 681.00 584.00 673.57 584.00 672.52 C 584.00 671.89 581.90 668.55 579.34 665.10 L 574.68 658.83 L 577.59 656.40 C 583.12 651.79 583.59 651.73 586.55 655.26 C 588.04 657.04 590.58 660.00 592.18 661.84 L 595.10 665.18 L 599.84 660.74 C 602.45 658.30 605.24 656.07 606.05 655.78 C 607.15 655.38 606.65 654.31 603.98 651.38 C 602.04 649.24 599.37 646.26 598.04 644.74 L 595.63 641.98 L 599.02 638.47 L 602.42 634.97 L 608.48 640.98 L 614.54 646.99 L 619.77 642.21 C 622.65 639.58 625.00 637.15 625.00 636.81 C 625.00 636.47 622.29 633.56 618.97 630.35 L 612.94 624.50 L 616.04 620.75 C 617.75 618.69 619.46 617.00 619.84 617.00 C 620.22 617.00 623.33 619.27 626.76 622.05 C 630.19 624.82 632.98 626.51 632.96 625.80 C 632.94 625.08 630.23 622.49 626.94 620.03 C 622.91 617.03 621.12 615.07 621.48 614.03 C 621.77 613.19 618.82 615.80 614.92 619.83 C 611.02 623.86 608.10 627.43 608.43 627.77 C 608.76 628.10 609.55 627.85 610.18 627.22 C 611.03 626.37 612.55 627.11 616.26 630.22 C 618.98 632.49 621.44 634.98 621.73 635.74 C 622.31 637.24 616.35 644.00 614.46 644.00 C 612.69 644.00 604.46 633.75 604.85 632.03 C 605.23 630.36 603.65 631.51 596.79 637.88 L 593.08 641.32 L 597.29 646.24 C 604.82 655.04 604.69 654.30 599.46 658.59 L 594.82 662.39 L 589.83 656.69 C 587.08 653.56 584.16 651.00 583.33 651.00 C 581.33 651.00 573.00 657.03 573.00 658.48 C 573.00 659.11 575.10 662.45 577.66 665.90 L 582.32 672.17 L 579.41 674.55 C 574.47 678.60 572.85 678.68 570.02 675.01 C 568.63 673.20 566.34 670.37 564.91 668.70 L 562.32 665.68 L 556.69 669.09 C 553.59 670.97 551.04 673.13 551.03 673.91 C 551.01 674.68 552.06 676.70 553.35 678.41 C 554.65 680.11 556.45 682.95 557.37 684.73 L 559.03 687.96 L 555.03 690.48 C 552.84 691.87 550.39 693.00 549.59 693.00 C 548.80 693.00 546.50 690.30 544.50 687.00 C 542.50 683.70 540.22 681.00 539.45 681.00 C 538.38 681.00 532.64 683.35 528.20 685.61 C 527.59 685.92 534.46 699.00 535.23 699.00 C 535.67 699.00 534.87 696.70 533.45 693.90 Z"/>
    <path d="M 21.00 696.06 C 18.76 695.48 18.50 694.90 18.50 690.45 L 18.50 685.50 L 46.50 685.50 L 74.50 685.50 L 74.50 691.00 L 74.50 696.50 L 49.00 696.60 C 34.98 696.66 22.38 696.41 21.00 696.06 Z"/>
    <path d="M 211.49 672.01 C 213.07 670.37 214.12 668.79 213.84 668.50 C 213.55 668.22 212.50 668.89 211.51 669.99 C 209.01 672.75 207.91 672.54 204.08 668.58 L 200.77 665.17 L 205.89 658.85 L 211.00 652.53 L 206.51 648.04 L 202.02 643.54 L 196.02 649.48 L 190.02 655.41 L 186.51 652.01 C 184.58 650.14 183.00 648.12 183.00 647.52 C 183.00 646.92 185.25 644.21 188.00 641.50 C 190.75 638.79 193.00 636.10 193.00 635.52 C 193.00 633.61 186.90 627.00 185.14 627.00 C 184.19 627.00 181.43 629.02 179.00 631.50 C 176.57 633.98 174.04 636.00 173.36 636.00 C 172.69 636.00 170.74 634.31 169.02 632.25 L 165.89 628.50 L 171.98 622.98 L 178.08 617.47 L 174.95 612.73 C 173.22 610.13 171.45 607.78 171.00 607.50 C 170.56 607.23 167.45 609.06 164.10 611.58 C 160.75 614.11 157.54 616.01 156.97 615.82 C 156.41 615.64 154.85 613.65 153.51 611.40 L 151.08 607.33 L 157.54 602.58 C 161.09 599.97 164.00 597.68 164.00 597.49 C 164.00 596.76 157.68 587.00 157.21 587.00 C 156.94 587.00 153.87 588.80 150.38 591.00 C 146.90 593.20 143.82 595.00 143.54 595.00 C 142.92 595.00 139.00 587.40 139.00 586.18 C 139.00 585.69 141.68 583.63 144.97 581.60 C 152.18 577.15 152.56 576.62 150.50 573.75 L 148.89 571.50 L 149.53 574.16 C 150.12 576.60 149.61 577.14 143.08 581.02 C 139.19 583.33 136.00 585.31 136.00 585.41 C 136.00 585.51 137.47 588.35 139.28 591.73 L 142.55 597.86 L 149.43 593.44 C 156.78 588.71 157.26 588.73 160.28 593.88 L 162.06 596.92 L 155.52 602.06 L 148.98 607.20 L 151.05 610.85 C 152.19 612.86 153.98 615.54 155.02 616.80 L 156.91 619.11 L 163.34 614.05 C 166.87 611.27 170.04 609.00 170.37 609.00 C 170.70 609.00 172.19 610.84 173.68 613.09 L 176.39 617.19 L 170.15 622.84 L 163.90 628.50 L 167.70 633.69 C 169.79 636.55 171.82 638.91 172.21 638.94 C 172.60 638.98 175.74 636.49 179.19 633.41 L 185.45 627.82 L 188.78 631.46 L 192.12 635.10 L 186.10 641.88 L 180.09 648.67 L 184.33 652.83 C 186.67 655.13 189.00 657.00 189.51 657.00 C 190.02 657.00 193.05 654.42 196.23 651.27 L 202.01 645.55 L 205.47 649.02 L 208.92 652.50 L 203.54 659.42 L 198.16 666.34 L 202.58 669.72 C 205.01 671.57 207.00 673.52 207.00 674.05 C 207.00 675.77 208.58 675.05 211.49 672.01 Z"/>
    <path d="M 251.99 670.96 C 252.00 670.66 250.54 669.98 248.75 669.46 C 246.06 668.67 245.56 668.07 245.85 666.05 C 246.15 663.87 246.01 663.75 244.55 664.95 C 243.27 666.02 242.65 666.05 241.71 665.11 C 241.04 664.44 240.50 663.36 240.50 662.70 C 240.50 662.04 239.49 661.36 238.25 661.18 C 235.78 660.83 235.34 661.94 237.20 663.80 C 237.86 664.46 238.00 665.00 237.51 665.00 C 237.02 665.00 237.49 665.64 238.56 666.43 C 240.45 667.82 240.43 667.89 238.00 668.83 C 235.80 669.68 235.71 669.89 237.29 670.52 C 238.40 670.97 239.75 670.63 240.87 669.62 C 243.03 667.67 244.31 668.55 242.97 671.07 C 242.16 672.58 242.44 672.92 244.75 673.18 C 247.40 673.49 251.98 672.08 251.99 670.96 Z"/>
    <path d="M 231.11 659.63 C 230.48 658.87 230.23 657.57 230.55 656.73 C 231.29 654.81 229.57 653.69 227.08 654.47 C 222.43 655.95 224.10 661.00 229.24 661.00 C 231.68 661.00 232.03 660.74 231.11 659.63 Z"/>
    <path d="M 631.41 606.56 C 629.71 605.31 629.70 605.10 631.31 602.66 C 633.88 598.72 633.33 597.46 630.50 600.82 C 629.12 602.45 628.00 604.14 628.00 604.58 C 628.00 606.07 632.45 610.14 632.83 609.00 C 633.04 608.38 632.40 607.28 631.41 606.56 Z"/>
    <path d="M 77.86 563.25 C 77.79 547.44 77.53 535.54 77.29 536.80 C 77.04 538.10 75.74 539.53 74.31 540.07 C 72.86 540.62 60.87 540.92 46.14 540.77 L 20.50 540.50 L 20.09 537.50 L 19.67 534.50 L 19.08 537.50 L 18.49 540.50 L 9.49 541.06 C -4.75 541.95 3.86 542.31 41.50 542.41 L 76.50 542.50 L 76.50 547.00 L 76.50 551.50 L 38.75 551.76 C 15.79 551.92 1.00 552.40 1.00 552.97 C 1.00 553.50 4.94 554.05 9.75 554.21 L 18.50 554.50 L 18.94 559.00 L 19.37 563.50 L 19.94 559.00 L 20.50 554.50 L 48.50 554.50 L 76.50 554.50 L 76.50 559.50 L 76.50 564.50 L 48.00 564.73 C 32.32 564.85 15.26 564.97 10.08 564.98 C 4.90 564.99 0.89 565.23 1.17 565.50 C 1.45 565.78 18.06 566.26 38.09 566.58 C 58.11 566.89 75.09 567.33 75.81 567.56 C 76.66 567.84 77.01 569.30 76.81 571.74 L 76.50 575.50 L 54.50 576.00 C 42.40 576.27 29.58 576.27 26.00 576.00 C 16.94 575.30 1.00 575.96 1.00 577.03 C 1.00 577.52 4.71 578.05 9.25 578.21 L 17.50 578.50 L 17.81 582.25 C 17.98 584.31 18.52 586.00 19.00 586.00 C 19.48 586.00 20.02 584.31 20.19 582.25 L 20.50 578.50 L 48.50 578.50 L 76.50 578.50 L 76.82 581.82 C 77.43 588.19 78.48 588.03 38.25 587.96 C 18.18 587.93 1.52 588.15 1.22 588.45 C 0.91 588.75 3.10 589.02 6.08 589.05 C 59.35 589.57 75.40 590.00 76.33 590.93 C 76.92 591.52 77.54 592.00 77.70 592.00 C 77.86 592.00 77.94 579.06 77.86 563.25 Z"/>
    <path d="M 138.49 570.40 C 144.14 567.29 145.27 566.98 146.69 568.15 C 148.17 569.37 148.21 569.28 147.11 567.21 L 145.89 564.92 L 139.23 568.46 C 135.56 570.41 132.20 572.00 131.75 572.00 C 131.07 572.00 127.00 563.79 127.00 562.43 C 127.00 562.21 129.72 560.66 133.05 558.98 C 136.37 557.30 139.36 555.23 139.68 554.39 C 140.37 552.59 138.63 546.22 136.78 543.76 C 135.59 542.18 135.06 542.28 129.50 545.01 C 126.20 546.63 122.94 547.97 122.26 547.98 C 120.75 548.00 117.81 541.27 118.21 538.70 C 118.40 537.48 120.71 535.92 125.00 534.11 C 132.22 531.08 132.68 529.95 129.67 522.76 L 128.18 519.18 L 121.58 521.19 C 117.95 522.30 114.37 522.97 113.62 522.68 C 112.36 522.20 110.57 516.03 111.17 514.26 C 111.31 513.84 114.37 512.57 117.96 511.44 L 124.50 509.37 L 124.27 504.03 C 124.14 501.10 123.41 497.98 122.65 497.10 C 121.89 496.22 121.49 494.82 121.78 494.00 C 122.06 493.18 121.44 493.49 120.40 494.69 C 119.04 496.25 116.86 497.07 112.76 497.55 C 106.44 498.30 106.23 498.13 105.76 492.05 L 105.50 488.59 L 112.22 487.05 C 121.12 485.00 121.49 484.54 119.91 477.51 L 118.64 471.80 L 110.57 472.15 L 102.50 472.50 L 102.20 468.31 C 101.83 463.25 102.84 462.53 111.85 461.50 L 118.21 460.78 L 117.47 454.14 C 117.06 450.49 116.71 446.94 116.70 446.27 C 116.68 445.51 116.25 445.37 115.58 445.91 C 114.99 446.40 111.58 446.95 108.00 447.15 L 101.50 447.50 L 101.19 442.67 C 101.02 440.02 101.39 437.24 102.00 436.50 C 102.89 435.43 102.69 435.27 101.06 435.70 C 99.25 436.17 99.00 437.02 99.00 442.58 L 99.00 448.92 L 107.25 449.21 L 115.50 449.50 L 115.50 454.50 L 115.50 459.50 L 107.71 460.37 L 99.91 461.25 L 100.21 467.87 L 100.50 474.50 L 108.95 474.50 L 117.40 474.50 L 118.34 478.41 C 119.48 483.18 118.07 484.57 111.11 485.60 C 104.27 486.60 101.58 487.78 102.78 489.27 C 103.33 489.94 104.09 492.86 104.48 495.75 C 104.87 498.64 105.26 501.00 105.34 501.00 C 105.43 501.00 108.81 500.31 112.86 499.46 C 121.13 497.74 122.39 498.18 123.38 503.17 C 124.23 507.39 123.03 508.50 115.42 510.56 C 111.85 511.53 108.76 512.59 108.55 512.91 C 108.24 513.43 110.84 525.09 111.42 525.73 C 111.53 525.86 115.12 524.88 119.40 523.56 L 127.17 521.16 L 128.65 524.70 C 129.46 526.64 129.91 528.79 129.65 529.46 C 129.39 530.14 126.55 531.74 123.34 533.01 C 120.13 534.28 116.98 535.72 116.34 536.21 C 114.85 537.35 118.91 549.97 120.78 549.99 C 121.48 549.99 124.73 548.88 128.00 547.50 C 131.27 546.12 134.40 545.00 134.96 545.00 C 136.22 545.00 139.22 551.98 138.62 553.54 C 138.38 554.17 135.22 556.22 131.60 558.09 C 127.97 559.97 125.01 561.95 125.01 562.50 C 125.03 564.46 129.93 574.00 130.92 574.00 C 131.48 574.00 134.88 572.38 138.49 570.40 Z"/>
    <path d="M 328.30 549.90 C 329.80 547.50 328.35 543.33 325.76 542.60 C 323.55 541.98 323.54 541.94 325.44 540.48 C 327.34 539.03 327.33 539.00 325.19 539.00 C 322.24 539.00 322.08 543.53 325.00 544.29 C 326.34 544.64 327.00 545.65 327.00 547.35 C 327.00 550.09 325.53 551.66 324.51 550.02 C 323.55 548.47 322.00 548.81 322.00 550.57 C 322.00 552.63 326.91 552.12 328.30 549.90 Z"/>
    <path d="M 316.80 545.80 C 318.47 544.13 318.30 540.49 316.49 538.99 C 315.34 538.04 315.25 537.41 316.11 536.37 C 317.34 534.89 316.84 534.67 313.00 534.99 C 309.75 535.26 309.45 535.63 310.98 537.48 C 311.68 538.31 311.85 539.04 311.37 539.10 C 310.89 539.15 311.62 539.51 313.00 539.89 C 314.80 540.40 315.50 541.28 315.50 543.05 C 315.50 544.56 314.93 545.50 314.00 545.50 C 313.18 545.50 312.61 544.94 312.75 544.25 C 313.05 542.76 311.38 542.58 310.50 544.00 C 308.85 546.67 314.36 548.24 316.80 545.80 Z"/>
    <path d="M 306.00 534.12 C 306.00 533.63 305.04 532.98 303.87 532.68 C 302.27 532.26 301.88 531.58 302.29 529.98 C 302.72 528.36 302.49 527.98 301.35 528.42 C 300.52 528.74 299.21 529.00 298.45 529.00 C 296.79 529.00 294.66 532.64 295.51 534.02 C 296.27 535.24 306.00 535.33 306.00 534.12 Z"/>
    <path d="M 78.21 416.46 C 78.37 352.68 78.72 286.77 79.00 270.00 C 79.28 253.22 79.28 236.57 79.00 233.00 L 78.50 226.50 L 73.50 226.66 C 70.75 226.75 53.31 227.13 34.75 227.52 C 16.19 227.91 1.00 228.61 1.00 229.08 C 1.00 229.54 4.94 230.05 9.75 230.21 L 18.50 230.50 L 18.81 233.75 C 19.21 237.82 21.00 238.05 21.00 234.04 C 21.00 232.11 21.69 230.70 22.97 230.02 C 24.24 229.34 34.20 229.06 51.11 229.23 L 77.29 229.50 L 77.67 233.20 C 77.96 236.10 77.62 237.13 76.09 237.95 C 74.94 238.57 66.81 239.00 56.32 239.00 C 31.27 239.01 1.00 240.17 1.00 241.12 C 1.00 241.56 4.94 242.05 9.75 242.21 L 18.50 242.50 L 18.50 247.00 L 18.50 251.50 L 9.75 251.79 C 4.94 251.95 1.00 252.49 1.00 253.00 C 1.00 254.20 17.97 254.72 24.78 253.73 C 27.68 253.31 40.51 253.08 53.28 253.23 L 76.50 253.50 L 76.82 257.38 C 76.99 259.52 76.77 261.61 76.32 262.03 C 75.87 262.45 63.35 262.95 48.50 263.15 L 21.50 263.50 L 21.20 261.00 C 20.62 256.13 19.64 255.45 19.07 259.50 L 18.50 263.50 L 9.75 263.79 C 4.94 263.95 1.00 264.48 1.00 264.97 C 1.00 266.20 18.56 266.67 29.50 265.73 C 34.45 265.31 47.05 265.08 57.50 265.23 L 76.50 265.50 L 76.50 270.00 L 76.50 274.50 L 50.16 275.32 C 35.67 275.77 23.18 275.90 22.41 275.60 C 21.57 275.28 21.00 273.64 21.00 271.53 C 21.00 266.82 19.20 267.00 18.81 271.75 L 18.50 275.50 L 13.00 275.75 C 6.06 276.06 0.63 276.96 1.35 277.68 C 1.65 277.98 5.63 278.29 10.20 278.36 L 18.50 278.50 L 18.50 282.98 C 18.50 287.43 18.47 287.47 14.50 288.18 C 12.30 288.57 8.29 288.91 5.58 288.94 C 2.88 288.97 0.94 289.28 1.28 289.61 C 1.61 289.95 12.38 290.07 25.19 289.89 C 38.01 289.71 54.80 289.55 62.50 289.53 L 76.50 289.50 L 76.50 294.00 L 76.50 298.50 L 50.00 299.21 C 35.42 299.61 22.94 299.73 22.25 299.50 C 21.56 299.26 21.00 297.47 21.00 295.53 C 21.00 290.82 19.20 291.00 18.81 295.75 L 18.50 299.50 L 9.75 299.79 C 4.94 299.95 1.00 300.49 1.00 301.00 C 1.00 301.51 4.94 302.05 9.75 302.21 L 18.50 302.50 L 18.81 306.75 C 18.98 309.09 19.57 311.00 20.13 311.00 C 20.72 311.00 21.03 309.01 20.86 306.31 L 20.57 301.62 L 48.54 301.56 L 76.50 301.50 L 76.80 305.59 C 76.98 308.06 76.59 310.09 75.80 310.73 C 74.72 311.61 40.34 312.85 13.55 312.98 C 10.37 312.99 8.95 313.35 9.56 313.96 C 10.09 314.49 13.22 314.90 16.51 314.86 C 19.81 314.83 34.65 314.73 49.50 314.65 L 76.50 314.50 L 76.50 319.00 L 76.50 323.50 L 59.00 324.26 C 49.38 324.67 37.00 324.90 31.50 324.76 L 21.50 324.50 L 21.19 320.75 C 21.02 318.69 20.48 317.00 20.00 317.00 C 19.52 317.00 18.98 318.69 18.81 320.75 C 18.57 323.65 18.05 324.54 16.50 324.70 C 15.40 324.80 11.35 325.25 7.50 325.69 L 0.50 326.49 L 9.50 326.99 L 18.50 327.50 L 19.00 331.50 C 19.32 334.07 19.79 335.05 20.32 334.23 C 20.77 333.54 21.00 331.74 20.82 330.23 L 20.50 327.50 L 38.50 326.75 C 48.40 326.34 61.00 326.11 66.50 326.25 L 76.50 326.50 L 76.50 330.93 C 76.50 334.98 76.25 335.42 73.57 336.14 C 71.96 336.57 58.01 336.97 42.57 337.02 C 27.13 337.08 11.35 337.48 7.50 337.92 L 0.50 338.72 L 10.00 338.98 C 15.22 339.12 19.76 339.21 20.08 339.18 C 20.39 339.14 33.22 338.98 48.58 338.81 L 76.50 338.50 L 76.81 342.18 C 77.04 345.05 76.66 346.11 75.09 346.95 C 73.75 347.67 64.22 347.94 46.78 347.77 L 20.50 347.50 L 20.39 345.00 C 20.20 340.58 19.73 340.40 19.11 344.50 L 18.50 348.50 L 9.72 348.79 C 4.88 348.95 1.17 349.47 1.47 349.95 C 1.77 350.43 6.17 350.67 11.26 350.48 C 16.34 350.29 33.10 349.99 48.50 349.82 L 76.50 349.50 L 76.82 353.38 C 76.99 355.52 76.77 357.62 76.32 358.05 C 75.87 358.48 63.12 358.98 48.00 359.16 L 20.50 359.48 L 20.07 355.49 L 19.64 351.50 L 19.07 355.50 L 18.50 359.50 L 9.75 359.79 C 4.94 359.95 1.00 360.40 1.00 360.79 C 1.00 361.18 17.99 361.50 38.75 361.50 L 76.50 361.50 L 76.50 372.50 L 76.50 383.50 L 48.50 383.50 L 20.50 383.50 L 19.88 380.00 L 19.26 376.50 L 19.13 379.69 C 19.06 381.45 18.57 383.15 18.05 383.47 C 17.53 383.79 13.37 384.38 8.80 384.78 C 3.15 385.27 12.61 385.66 38.50 386.00 L 76.50 386.50 L 76.81 390.26 C 77.01 392.70 76.66 394.17 75.81 394.45 C 74.57 394.86 28.50 395.93 9.75 395.98 C 4.14 395.99 1.00 396.39 1.00 397.08 C 1.00 397.80 3.94 398.07 9.75 397.87 L 18.49 397.57 L 19.09 400.53 C 19.70 403.56 20.08 403.21 21.57 398.23 C 21.87 397.24 27.90 397.03 49.22 397.23 L 76.50 397.50 L 76.82 401.38 C 76.99 403.52 76.77 405.62 76.32 406.06 C 75.58 406.77 33.64 408.01 10.25 408.00 C 4.75 408.00 1.00 408.41 1.00 409.00 C 1.00 409.59 4.53 410.00 9.59 410.00 C 17.35 410.00 18.24 410.20 18.71 412.00 C 19.41 414.68 20.78 414.54 21.18 411.75 L 21.50 409.50 L 49.00 409.50 L 76.50 409.50 L 76.50 413.99 C 76.50 418.17 76.29 418.52 73.50 419.12 C 71.85 419.47 54.86 419.82 35.75 419.88 C 14.27 419.95 1.00 420.37 1.00 420.96 C 1.00 421.49 4.94 422.05 9.75 422.21 L 18.50 422.50 L 18.82 426.38 C 18.99 428.52 18.77 430.62 18.32 431.06 C 17.87 431.50 13.79 431.99 9.25 432.14 C 4.71 432.29 1.00 432.76 1.00 433.19 C 1.00 433.62 17.99 434.09 38.75 434.24 L 76.50 434.50 L 76.50 439.00 L 76.50 443.50 L 49.29 443.77 L 22.09 444.03 L 20.89 441.80 L 19.70 439.57 L 18.88 441.79 C 18.16 443.75 17.30 444.02 11.28 444.15 C 2.60 444.35 2.28 444.38 1.40 445.26 C 1.00 445.67 4.54 446.00 9.28 446.00 C 16.45 446.00 18.07 446.30 18.89 447.75 C 19.84 449.41 19.95 449.41 21.19 447.73 C 22.40 446.11 24.66 445.99 49.50 446.23 L 76.50 446.50 L 76.81 450.25 C 77.08 453.51 76.78 454.13 74.50 455.00 C 70.79 456.41 21.32 456.33 20.45 454.91 C 19.96 454.13 19.47 454.13 18.69 454.91 C 18.08 455.52 13.94 456.00 9.30 456.00 C -1.78 456.00 -1.41 457.84 9.75 458.21 L 18.50 458.50 L 19.12 462.00 C 19.79 465.78 19.91 465.78 20.60 462.02 C 20.85 460.66 21.38 459.24 21.78 458.86 C 22.18 458.49 34.65 458.03 49.50 457.84 L 76.50 457.50 L 76.50 462.50 L 76.50 467.50 L 38.75 467.76 C 15.79 467.92 1.00 468.40 1.00 468.97 C 1.00 469.50 4.94 470.05 9.75 470.21 L 18.50 470.50 L 18.50 475.00 L 18.50 479.50 L 9.75 479.50 C 4.94 479.50 1.00 479.83 1.00 480.24 C 1.00 480.64 17.99 481.09 38.75 481.24 L 76.50 481.50 L 76.50 486.50 L 76.50 491.50 L 48.50 491.50 L 20.50 491.50 L 20.08 488.00 L 19.65 484.50 L 19.08 488.00 L 18.50 491.50 L 9.75 491.79 C 4.94 491.95 1.00 492.51 1.00 493.04 C 1.00 494.04 7.57 494.20 36.50 493.92 C 66.86 493.62 75.20 493.80 76.18 494.78 C 76.71 495.31 76.99 497.48 76.82 499.62 L 76.50 503.50 L 48.50 503.50 L 20.50 503.50 L 20.10 501.00 L 19.69 498.50 L 19.05 501.00 C 18.44 503.40 18.05 503.51 9.71 503.79 C -1.59 504.16 -1.69 506.00 9.59 506.00 C 17.66 506.00 18.22 506.14 18.79 508.25 L 19.39 510.50 L 19.95 508.15 L 20.52 505.80 L 48.51 505.65 L 76.50 505.50 L 76.50 510.50 L 76.50 515.50 L 38.75 515.76 C 15.79 515.92 1.00 516.40 1.00 516.97 C 1.00 517.50 4.94 518.05 9.75 518.21 L 18.50 518.50 L 18.50 523.00 L 18.50 527.50 L 9.75 527.79 C 4.94 527.95 1.00 528.50 1.00 529.02 C 1.00 529.60 15.58 529.89 38.74 529.76 C 74.42 529.56 76.50 529.65 76.83 531.35 C 77.02 532.34 77.34 532.99 77.55 532.79 C 77.75 532.58 78.05 480.24 78.21 416.46 Z"/>
    <path d="M 20.40 526.61 C 20.10 525.83 20.00 523.69 20.18 521.85 L 20.50 518.50 L 48.50 518.50 L 76.50 518.50 L 76.50 523.00 L 76.50 527.50 L 48.72 527.77 C 25.47 527.99 20.86 527.80 20.40 526.61 Z"/>
    <path d="M 25.04 479.00 C 22.03 478.57 21.48 478.04 20.85 475.00 C 20.46 473.07 20.47 471.16 20.88 470.73 C 21.30 470.31 33.98 470.09 49.07 470.23 L 76.50 470.50 L 76.81 474.26 C 77.01 476.69 76.66 478.18 75.81 478.47 C 73.92 479.13 29.16 479.60 25.04 479.00 Z"/>
    <path d="M 388.93 471.37 C 392.44 466.90 391.13 462.60 385.68 460.66 C 383.97 460.05 384.00 459.81 386.18 456.90 C 390.21 451.50 390.44 451.11 389.88 450.55 C 389.58 450.24 386.60 450.28 383.27 450.63 C 377.26 451.26 377.22 451.29 376.64 454.83 C 375.91 459.31 376.31 459.69 378.92 457.08 C 381.10 454.90 383.50 454.38 384.43 455.89 C 384.73 456.37 384.31 457.33 383.49 458.01 C 381.58 459.59 381.56 462.00 383.46 462.00 C 385.19 462.00 387.00 465.02 387.00 467.91 C 387.00 469.03 385.87 470.69 384.49 471.60 C 382.45 472.94 381.71 473.00 380.46 471.97 C 379.62 471.27 379.05 469.98 379.20 469.10 C 379.56 466.98 377.60 466.43 377.16 468.52 C 376.62 471.15 379.96 474.00 383.58 474.00 C 385.93 474.00 387.44 473.25 388.93 471.37 Z"/>
    <path d="M 416.37 470.93 C 420.38 467.77 419.98 463.51 415.43 460.83 L 411.86 458.72 L 415.45 455.05 C 417.43 453.03 418.73 451.06 418.35 450.69 C 417.51 449.84 411.31 449.81 408.25 450.63 C 406.55 451.09 406.00 451.97 406.00 454.24 C 406.00 456.79 406.23 457.06 407.49 456.01 C 408.31 455.33 409.67 455.04 410.53 455.37 C 411.79 455.86 411.87 456.38 410.94 458.11 C 409.95 459.96 410.17 460.56 412.48 462.41 C 416.07 465.27 415.75 470.03 411.87 471.38 C 410.42 471.89 408.46 472.01 407.50 471.64 C 406.08 471.10 406.00 470.71 407.03 469.46 C 408.41 467.80 407.75 466.42 406.07 467.46 C 404.88 468.19 404.63 471.29 405.67 472.33 C 407.14 473.81 413.82 472.93 416.37 470.93 Z"/>
    <path d="M 398.79 440.75 L 398.50 434.50 L 406.00 433.93 L 413.50 433.36 L 406.87 433.18 C 399.94 432.99 397.83 431.83 398.15 428.38 C 398.24 427.35 398.25 424.05 398.16 421.05 C 397.92 412.71 396.19 416.23 395.98 425.50 C 395.58 442.65 395.90 447.00 397.54 447.00 C 398.79 447.00 399.03 445.84 398.79 440.75 Z"/>
    <path d="M 392.81 440.25 C 392.62 439.29 391.81 438.50 391.00 438.50 C 390.19 438.50 389.38 439.29 389.19 440.25 C 388.95 441.48 389.49 442.00 391.00 442.00 C 392.51 442.00 393.05 441.48 392.81 440.25 Z"/>
    <path d="M 406.50 439.93 C 406.50 439.16 405.71 438.38 404.75 438.19 C 403.03 437.86 402.31 439.98 403.69 441.35 C 404.74 442.40 406.50 441.51 406.50 439.93 Z"/>
    <path d="M 117.00 429.62 C 117.00 423.29 116.98 423.25 113.88 422.62 C 112.16 422.28 108.77 422.00 106.34 422.00 C 101.13 422.00 100.34 420.76 101.64 414.69 L 102.55 410.50 L 110.24 410.81 C 118.80 411.16 118.17 411.71 119.36 402.81 C 119.98 398.20 118.95 397.32 111.98 396.43 C 104.67 395.50 103.72 394.63 104.54 389.58 C 104.91 387.34 105.52 385.16 105.91 384.74 C 106.30 384.32 109.52 384.57 113.06 385.29 C 117.80 386.25 119.50 387.03 119.51 388.23 C 119.55 392.60 120.92 390.39 121.94 384.32 C 124.05 371.76 124.10 370.67 122.49 372.01 C 120.74 373.46 111.78 371.65 109.99 369.49 C 108.80 368.06 110.25 360.58 111.91 359.56 C 112.38 359.26 114.96 359.69 117.63 360.50 C 125.93 363.02 126.64 362.75 128.49 356.39 C 129.38 353.31 129.87 350.54 129.57 350.23 C 129.27 349.93 129.52 349.08 130.13 348.34 C 131.42 346.79 129.90 346.50 128.39 348.01 C 127.40 349.00 118.58 346.71 116.64 344.96 C 115.78 344.18 117.56 337.25 119.03 335.64 C 119.47 335.17 122.83 335.78 126.50 337.00 C 130.21 338.23 133.55 338.84 134.01 338.36 C 134.82 337.52 139.00 325.78 139.00 324.34 C 139.00 323.94 138.43 324.40 137.73 325.36 C 136.53 326.99 136.10 326.94 130.75 324.48 C 127.61 323.05 124.86 321.56 124.65 321.19 C 123.90 319.88 127.92 312.00 129.33 312.00 C 130.11 312.00 132.84 312.93 135.40 314.06 C 137.96 315.19 140.92 315.84 141.97 315.51 C 143.44 315.04 149.00 307.09 149.00 305.45 C 149.00 305.28 146.41 303.69 143.25 301.91 C 134.56 297.03 134.78 297.35 137.02 292.97 C 138.09 290.86 139.48 288.82 140.11 288.43 C 140.73 288.05 144.08 289.25 147.55 291.10 C 151.02 292.96 154.02 294.26 154.22 293.99 C 156.08 291.44 160.97 282.68 161.55 280.84 C 162.17 278.88 162.06 278.71 160.83 279.72 C 159.65 280.70 158.39 280.27 154.19 277.44 C 151.33 275.52 149.00 273.71 149.00 273.42 C 149.00 272.29 151.94 267.29 153.25 266.21 C 154.32 265.32 155.76 265.83 159.77 268.53 C 162.60 270.44 165.54 272.00 166.29 272.00 C 167.61 272.00 174.00 264.01 174.00 262.36 C 174.00 261.91 171.48 259.28 168.41 256.52 L 162.82 251.50 L 166.27 247.52 L 169.73 243.55 L 175.21 247.77 C 178.22 250.10 181.15 252.00 181.73 252.00 C 183.11 252.00 190.00 244.32 190.00 242.78 C 190.00 242.11 187.65 239.18 184.78 236.27 L 179.55 230.98 L 183.27 227.27 L 186.98 223.55 L 192.44 228.94 C 196.80 233.25 198.18 234.10 199.29 233.17 C 200.95 231.80 202.00 232.61 202.00 235.25 C 202.00 236.96 202.48 237.10 206.25 236.47 C 211.38 235.63 212.02 235.15 209.74 233.88 C 208.78 233.34 208.00 232.30 208.00 231.57 C 208.00 230.83 206.99 229.95 205.75 229.60 C 203.65 229.01 203.62 228.88 205.25 227.62 C 206.21 226.88 207.00 225.79 207.00 225.19 C 207.00 224.59 207.79 223.61 208.75 223.00 C 210.29 222.04 210.24 221.97 208.36 222.48 C 206.70 222.93 205.30 222.02 202.11 218.39 C 199.85 215.82 198.00 213.42 198.00 213.06 C 198.00 212.69 199.62 210.84 201.59 208.95 L 205.19 205.50 L 210.48 211.37 C 213.38 214.60 216.21 217.08 216.76 216.87 C 217.31 216.67 219.65 214.78 221.97 212.67 L 226.18 208.84 L 222.09 203.01 C 219.84 199.81 218.00 196.74 218.00 196.19 C 218.00 194.66 225.00 188.88 226.06 189.54 C 226.58 189.86 228.82 192.79 231.03 196.04 L 235.04 201.95 L 240.52 198.27 C 243.53 196.24 246.00 194.28 246.00 193.91 C 246.00 193.54 244.43 190.63 242.50 187.43 C 240.58 184.23 239.00 181.28 239.00 180.86 C 239.00 180.16 243.89 176.20 246.67 174.64 C 247.39 174.23 249.03 176.06 250.93 179.37 C 255.51 187.38 256.16 187.71 261.61 184.88 C 264.14 183.57 266.41 181.98 266.67 181.35 C 266.92 180.72 265.73 177.43 264.01 174.02 C 261.38 168.82 261.10 167.59 262.19 166.26 C 263.86 164.26 269.79 161.75 271.04 162.53 C 271.56 162.85 272.94 165.32 274.11 168.03 C 277.23 175.28 278.15 175.74 283.99 173.01 C 286.69 171.74 289.12 170.13 289.39 169.43 C 289.66 168.73 288.81 165.22 287.51 161.64 C 285.75 156.77 285.45 154.89 286.33 154.23 C 288.54 152.55 293.88 150.81 294.90 151.44 C 295.46 151.78 296.91 154.79 298.13 158.13 C 299.34 161.46 300.88 164.40 301.55 164.66 C 302.75 165.12 312.85 162.28 314.21 161.10 C 314.60 160.76 313.99 157.45 312.85 153.73 C 311.72 150.02 311.03 146.38 311.31 145.63 C 311.59 144.89 313.69 143.81 315.97 143.23 C 320.64 142.05 320.76 142.20 323.15 151.67 C 323.77 154.14 324.89 156.40 325.63 156.69 C 327.36 157.35 336.82 155.10 337.60 153.83 C 337.93 153.30 337.65 149.93 336.97 146.35 C 335.54 138.78 336.18 137.57 342.16 136.48 C 346.48 135.69 347.40 136.82 348.52 144.30 C 349.55 151.14 350.63 151.91 357.49 150.67 L 363.14 149.64 L 362.82 141.59 L 362.50 133.54 L 366.89 132.60 C 370.68 131.79 371.46 131.91 372.64 133.52 C 373.39 134.54 374.01 137.21 374.01 139.44 C 374.04 147.58 374.43 148.00 381.87 147.99 C 385.51 147.98 389.52 147.70 390.77 147.36 C 392.82 146.82 392.88 146.63 391.39 145.55 C 389.32 144.03 388.42 135.56 389.91 131.70 C 390.91 129.10 391.34 128.91 395.75 129.20 L 400.50 129.50 L 400.79 138.25 L 401.08 147.00 L 404.79 147.01 C 406.83 147.01 410.98 147.29 414.00 147.63 C 418.98 148.18 419.32 148.10 417.59 146.77 C 415.92 145.48 415.76 144.45 416.32 138.47 C 416.67 134.71 417.36 131.24 417.84 130.76 C 418.33 130.27 420.70 130.01 423.11 130.19 L 427.50 130.50 L 427.14 139.16 L 426.79 147.83 L 432.32 148.52 C 435.37 148.90 438.45 149.02 439.18 148.78 C 439.93 148.54 441.17 144.94 442.04 140.43 L 443.59 132.50 L 448.04 132.83 C 454.81 133.32 455.45 134.41 454.00 142.99 C 453.28 147.24 453.16 150.56 453.69 151.09 C 454.18 151.58 457.19 152.51 460.39 153.15 C 467.10 154.50 467.24 154.39 469.10 146.51 C 471.36 136.93 471.30 137.00 476.14 138.43 C 478.48 139.12 480.59 140.26 480.82 140.95 C 481.05 141.65 480.46 145.09 479.51 148.60 C 478.56 152.11 478.02 155.61 478.31 156.38 C 478.61 157.14 481.47 158.53 484.67 159.47 C 487.88 160.41 491.62 161.63 492.98 162.17 C 495.42 163.15 495.43 163.13 493.64 161.16 C 491.88 159.21 491.89 158.95 494.03 152.82 C 495.24 149.34 496.62 146.09 497.09 145.58 C 498.19 144.39 506.04 146.94 506.72 148.71 C 507.38 150.42 503.22 161.57 501.35 163.13 C 500.17 164.10 501.08 164.83 506.37 167.16 C 509.92 168.72 513.46 169.76 514.24 169.46 C 515.02 169.16 516.67 166.57 517.91 163.71 C 519.15 160.84 520.81 157.49 521.61 156.25 L 523.05 153.99 L 528.01 156.50 L 532.97 159.02 L 530.61 164.26 C 529.32 167.14 527.68 170.74 526.97 172.25 C 526.26 173.77 525.86 175.15 526.09 175.33 C 528.28 177.02 536.18 181.00 537.34 181.00 C 538.16 181.00 540.45 178.09 542.44 174.54 C 544.42 170.99 546.47 167.82 546.99 167.50 C 547.90 166.95 553.16 169.18 555.69 171.20 C 556.58 171.91 555.87 173.81 552.94 178.59 C 548.42 185.97 548.08 188.23 551.25 189.79 C 552.49 190.39 554.92 191.83 556.66 192.99 L 559.82 195.08 L 564.57 188.79 C 567.19 185.33 569.68 182.09 570.12 181.59 C 570.96 180.64 579.00 185.39 579.00 186.84 C 579.00 187.29 576.99 190.32 574.53 193.58 C 572.07 196.83 570.04 200.03 570.03 200.68 C 570.00 202.05 578.16 209.00 579.79 209.00 C 580.39 209.00 583.26 206.30 586.16 203.00 C 589.07 199.70 591.82 197.00 592.28 197.00 C 593.62 197.00 600.00 202.41 600.00 203.55 C 600.00 204.13 597.75 207.13 595.00 210.21 C 592.25 213.30 590.00 216.27 590.00 216.82 C 590.00 217.37 592.25 219.70 594.99 222.00 L 599.99 226.18 L 606.24 220.19 L 612.50 214.20 L 616.25 217.45 C 618.31 219.25 620.00 221.37 620.00 222.17 C 620.00 222.96 617.52 225.76 614.50 228.37 C 611.48 230.98 609.00 233.67 609.00 234.35 C 609.00 235.03 610.94 237.49 613.31 239.81 L 617.62 244.04 L 623.94 238.97 C 627.42 236.17 630.88 234.13 631.63 234.41 C 632.50 234.75 633.00 234.22 633.00 232.97 C 633.00 231.89 632.65 231.00 632.22 231.00 C 631.80 231.00 628.31 233.50 624.47 236.56 L 617.50 242.12 L 614.14 238.45 L 610.77 234.78 L 617.02 228.48 L 623.27 222.17 L 618.08 216.68 L 612.89 211.19 L 607.15 217.09 C 603.99 220.34 600.72 223.00 599.90 223.00 C 599.07 223.00 596.96 221.52 595.21 219.72 L 592.03 216.43 L 596.99 210.47 C 599.72 207.18 601.95 204.05 601.95 203.50 C 601.95 202.95 599.93 200.38 597.45 197.78 L 592.94 193.06 L 589.63 196.78 C 587.81 198.83 584.98 202.02 583.34 203.89 L 580.37 207.27 L 576.18 204.50 C 573.88 202.98 572.00 201.29 572.00 200.75 C 572.00 200.22 574.03 197.08 576.50 193.79 C 578.98 190.50 581.00 187.25 581.00 186.57 C 581.00 184.60 572.23 178.79 570.21 179.43 C 569.23 179.74 567.69 181.24 566.78 182.75 C 565.87 184.26 563.84 187.02 562.27 188.88 C 559.46 192.21 559.37 192.24 556.38 190.70 C 550.65 187.73 550.50 186.86 554.44 179.26 C 556.40 175.47 558.00 171.95 558.00 171.43 C 558.00 170.91 555.64 169.06 552.75 167.32 C 546.58 163.60 545.95 163.88 541.05 172.56 C 539.42 175.46 537.62 178.11 537.07 178.46 C 536.07 179.07 528.00 175.47 528.00 174.40 C 528.00 174.09 529.60 170.51 531.57 166.43 C 533.53 162.36 534.82 158.52 534.44 157.91 C 533.70 156.71 524.18 152.03 522.44 152.01 C 521.86 152.00 519.85 155.18 517.97 159.06 C 516.09 162.95 514.08 166.52 513.50 167.00 C 512.87 167.52 510.76 167.12 508.27 166.01 C 503.58 163.91 503.59 164.15 507.86 153.06 C 509.01 150.07 509.72 147.38 509.43 147.10 C 508.50 146.17 499.55 143.00 497.86 143.00 C 496.76 143.00 495.31 145.25 493.51 149.75 C 492.03 153.46 490.40 157.01 489.88 157.64 C 488.69 159.08 481.06 157.31 480.33 155.43 C 480.06 154.72 480.76 150.90 481.89 146.92 C 483.01 142.95 483.71 139.35 483.45 138.91 C 482.56 137.48 471.78 134.82 470.81 135.79 C 470.30 136.30 469.19 139.36 468.35 142.60 C 465.97 151.71 465.61 152.12 460.71 151.38 C 458.40 151.03 456.14 150.42 455.70 150.03 C 454.97 149.36 455.96 140.91 457.48 134.92 C 458.11 132.42 457.94 132.31 451.10 131.02 C 442.76 129.44 441.04 130.26 440.92 135.87 C 440.88 137.87 440.28 141.07 439.58 143.00 C 438.40 146.28 438.04 146.50 433.91 146.50 L 429.50 146.50 L 429.50 137.51 L 429.50 128.51 L 425.00 127.83 C 414.86 126.29 415.44 125.83 414.41 136.24 L 413.50 145.48 L 409.00 145.16 C 406.52 144.98 404.10 144.45 403.61 143.98 C 403.12 143.51 402.69 139.49 402.65 135.06 C 402.60 128.55 402.29 126.97 401.04 126.85 C 398.85 126.64 393.97 126.63 390.79 126.83 L 388.08 127.00 L 387.79 136.25 L 387.50 145.50 L 383.11 145.81 C 380.70 145.99 378.23 145.63 377.61 145.03 C 377.00 144.42 376.05 140.68 375.50 136.71 L 374.50 129.50 L 369.57 129.19 C 366.85 129.02 363.58 129.14 362.29 129.46 C 360.02 130.03 359.96 130.33 360.22 139.26 L 360.50 148.47 L 356.16 149.06 C 351.19 149.74 350.59 148.96 349.43 140.17 C 348.44 132.70 348.24 132.57 340.94 134.44 C 337.46 135.33 334.42 136.25 334.19 136.48 C 333.96 136.71 334.43 140.18 335.24 144.20 C 336.05 148.21 336.53 151.83 336.31 152.22 C 336.09 152.62 334.08 153.44 331.83 154.05 C 326.73 155.42 326.26 154.98 323.51 146.27 C 322.08 141.74 320.89 139.57 319.93 139.71 C 317.96 140.01 308.58 142.30 308.17 142.59 C 307.99 142.72 308.81 146.27 310.00 150.49 C 311.18 154.71 311.94 158.69 311.69 159.33 C 311.09 160.86 302.93 163.34 301.92 162.30 C 301.49 161.86 300.05 158.57 298.72 155.00 C 297.39 151.43 295.89 148.51 295.40 148.53 C 292.85 148.62 283.00 152.51 283.00 153.43 C 283.00 154.02 283.85 156.75 284.88 159.50 C 288.49 169.13 288.53 168.69 283.98 171.01 C 278.99 173.55 278.11 173.03 274.99 165.72 C 271.60 157.74 271.52 157.70 266.06 161.06 C 263.43 162.68 260.51 164.00 259.57 164.00 C 257.49 164.00 257.98 165.95 262.13 174.22 C 263.71 177.37 265.00 180.17 265.00 180.45 C 265.00 180.73 263.22 181.87 261.05 182.98 L 257.10 184.99 L 254.71 181.75 C 253.39 179.96 251.31 176.81 250.08 174.75 C 248.85 172.69 247.65 171.00 247.43 171.00 C 247.20 171.00 244.95 172.57 242.43 174.50 C 239.91 176.42 237.43 178.00 236.92 178.00 C 235.23 178.00 235.97 180.24 239.91 187.08 L 243.82 193.86 L 239.93 196.43 C 237.79 197.84 235.80 199.00 235.51 199.00 C 235.22 199.00 233.29 196.43 231.24 193.28 C 229.18 190.13 227.20 187.12 226.83 186.60 C 226.45 186.06 224.56 186.91 222.48 188.57 C 220.46 190.18 217.73 192.21 216.42 193.08 L 214.03 194.65 L 219.02 201.74 L 224.01 208.82 L 220.08 211.93 L 216.15 215.05 L 211.39 209.52 C 207.23 204.71 203.00 202.33 203.00 204.81 C 203.00 205.25 201.21 206.94 199.02 208.56 C 196.84 210.18 195.04 211.88 195.02 212.34 C 195.01 212.80 197.25 215.70 200.00 218.79 C 202.75 221.87 205.00 224.67 205.00 225.00 C 205.00 225.34 203.53 227.03 201.73 228.78 L 198.46 231.94 L 192.39 226.53 L 186.31 221.12 L 181.44 226.06 L 176.57 231.01 L 182.41 236.91 L 188.25 242.81 L 185.51 246.40 C 184.00 248.38 182.22 250.00 181.56 250.00 C 180.52 250.00 178.28 248.32 169.77 241.18 C 168.24 239.89 167.96 239.94 167.35 241.61 C 166.98 242.65 165.39 245.14 163.83 247.14 C 162.28 249.15 161.00 251.16 161.00 251.62 C 161.00 252.08 163.56 254.75 166.69 257.55 L 172.39 262.64 L 170.11 266.32 C 168.86 268.34 167.27 270.00 166.57 270.00 C 165.88 270.00 162.55 268.21 159.17 266.03 L 153.02 262.06 L 149.49 267.59 C 147.54 270.63 146.22 273.54 146.54 274.06 C 146.86 274.58 149.80 276.82 153.06 279.04 C 156.33 281.26 159.00 283.29 159.00 283.56 C 159.00 284.15 153.85 292.00 153.46 292.00 C 153.30 292.00 150.00 290.20 146.12 288.00 C 138.56 283.71 136.74 283.17 137.61 285.43 C 137.92 286.22 137.00 288.85 135.58 291.27 C 134.16 293.69 133.00 296.31 133.00 297.09 C 133.01 297.86 135.52 299.85 138.58 301.50 C 146.22 305.61 146.50 306.09 144.05 310.91 L 141.98 314.96 L 136.24 312.37 C 126.97 308.19 127.39 308.11 124.34 314.64 C 122.83 317.86 121.43 320.83 121.22 321.24 C 121.01 321.65 124.25 323.53 128.42 325.43 C 132.59 327.33 136.00 329.15 136.00 329.48 C 136.00 330.42 133.14 337.00 132.73 337.00 C 132.52 337.00 129.05 335.88 125.01 334.50 C 120.97 333.13 117.58 332.12 117.47 332.25 C 117.37 332.39 116.32 335.40 115.14 338.94 C 112.71 346.26 112.63 346.13 120.62 348.47 C 127.45 350.48 128.51 351.85 126.65 356.29 L 125.20 359.76 L 119.85 358.72 C 109.53 356.71 109.72 356.62 107.81 364.48 C 106.88 368.31 106.25 371.58 106.41 371.74 C 106.57 371.90 109.33 372.72 112.54 373.55 C 119.87 375.46 121.18 376.55 120.80 380.41 C 120.54 383.10 120.07 383.54 117.19 383.82 C 115.37 383.99 111.77 383.69 109.20 383.14 C 105.87 382.43 104.33 382.46 103.84 383.26 C 103.04 384.55 101.61 395.94 102.17 396.51 C 102.38 396.72 105.69 397.39 109.53 398.00 C 113.36 398.61 116.85 399.46 117.27 399.88 C 117.70 400.30 117.67 402.41 117.21 404.57 L 116.38 408.50 L 108.45 408.50 L 100.51 408.50 L 99.77 415.00 C 99.36 418.57 99.23 422.06 99.48 422.75 C 99.78 423.57 102.12 424.00 106.28 424.00 C 114.37 424.00 116.25 425.29 115.82 430.54 L 115.50 434.50 L 110.00 435.09 L 104.50 435.67 L 110.75 435.84 L 117.00 436.00 L 117.00 429.62 Z"/>
    <path d="M 391.62 434.00 C 392.93 434.00 394.00 433.55 394.00 433.00 C 394.00 431.78 383.33 431.65 382.59 432.86 C 381.65 434.38 383.40 435.17 386.37 434.58 C 387.95 434.26 390.32 434.00 391.62 434.00 Z"/>
    <path d="M 21.40 430.61 C 21.10 429.83 21.00 427.69 21.18 425.85 L 21.50 422.50 L 41.00 421.75 C 51.73 421.33 64.10 421.10 68.50 421.25 L 76.50 421.50 L 76.50 426.50 L 76.50 431.50 L 49.22 431.77 C 26.40 431.99 21.86 431.80 21.40 430.61 Z"/>
    <path d="M 530.10 419.25 C 530.85 417.28 530.83 415.98 530.03 414.69 C 529.41 413.69 529.18 412.00 529.52 410.94 C 529.98 409.48 529.66 409.00 528.23 409.00 C 525.68 409.00 524.79 410.04 526.06 411.57 C 526.78 412.44 526.78 413.02 526.05 413.47 C 524.41 414.48 524.82 416.28 526.54 415.62 C 528.32 414.94 529.51 417.24 528.60 419.61 C 528.09 420.92 527.69 420.99 526.49 419.99 C 525.27 418.98 525.00 419.05 525.00 420.38 C 525.00 423.17 528.93 422.30 530.10 419.25 Z"/>
    <path d="M 538.25 416.48 C 538.12 414.29 537.96 411.52 537.89 410.32 C 537.72 407.07 533.60 408.85 533.18 412.36 C 532.92 414.60 533.22 414.96 535.18 414.75 C 536.92 414.56 537.50 415.00 537.50 416.50 C 537.50 417.79 536.88 418.45 535.75 418.36 C 534.79 418.28 534.00 418.55 534.00 418.94 C 534.00 420.23 535.37 421.08 536.95 420.76 C 538.09 420.53 538.43 419.40 538.25 416.48 Z"/>
    <path d="M 541.00 399.09 C 541.00 398.61 540.23 398.28 539.28 398.36 C 538.21 398.45 537.37 397.57 537.03 396.00 C 536.63 394.12 535.88 393.52 534.00 393.57 C 528.47 393.72 525.80 397.25 530.03 398.82 C 532.98 399.91 541.00 400.11 541.00 399.09 Z"/>
    <path d="M 530.50 396.99 C 529.74 395.76 532.49 394.57 533.97 395.48 C 534.55 395.84 534.77 396.56 534.46 397.07 C 533.69 398.30 531.28 398.26 530.50 396.99 Z"/>
    <path d="M 71.44 372.95 C 72.65 372.44 62.88 372.10 47.76 372.11 C 33.60 372.12 21.56 371.85 21.01 371.51 C 20.45 371.16 19.93 369.22 19.85 367.19 C 19.70 363.60 19.68 363.62 19.10 368.00 L 18.50 372.50 L 9.75 372.79 C 4.94 372.95 1.00 373.40 1.00 373.79 C 1.00 374.79 68.93 373.98 71.44 372.95 Z"/>
    <path d="M 326.00 327.35 C 327.26 326.94 327.22 326.71 325.75 325.88 C 324.79 325.34 324.00 324.08 324.00 323.07 C 324.00 320.67 319.69 319.83 317.02 321.70 C 314.54 323.44 314.40 326.56 316.74 327.88 C 318.34 328.77 322.25 328.55 326.00 327.35 Z"/>
    <path d="M 317.36 325.51 C 317.02 324.60 317.21 323.39 317.80 322.80 C 319.32 321.28 322.21 322.67 321.81 324.74 C 321.37 327.04 318.16 327.59 317.36 325.51 Z"/>
    <path d="M 341.80 319.80 C 343.23 318.37 343.39 314.36 342.04 313.53 C 341.52 313.20 341.34 312.28 341.65 311.47 C 342.28 309.83 339.42 309.45 337.18 310.87 C 336.18 311.50 336.58 312.38 338.87 314.54 C 342.07 317.56 342.09 319.48 338.92 318.47 C 337.06 317.88 336.32 318.98 337.67 320.33 C 338.69 321.36 340.47 321.13 341.80 319.80 Z"/>
    <path d="M 352.80 315.80 C 354.29 314.31 354.37 310.35 352.93 309.46 C 352.24 309.03 352.46 308.14 353.59 306.90 C 355.24 305.08 355.20 305.00 352.85 305.00 C 348.25 305.00 345.97 310.24 350.11 311.32 C 352.38 311.91 352.24 314.41 349.91 314.63 C 347.09 314.90 346.89 315.02 347.50 316.00 C 348.35 317.37 351.34 317.26 352.80 315.80 Z"/>
    <path d="M 7.00 314.00 C 7.00 313.45 5.65 313.00 4.00 313.00 C 2.35 313.00 1.00 313.45 1.00 314.00 C 1.00 314.55 2.35 315.00 4.00 315.00 C 5.65 315.00 7.00 314.55 7.00 314.00 Z"/>
    <path d="M 21.44 286.70 C 21.12 285.87 21.00 283.69 21.18 281.85 L 21.50 278.50 L 47.69 277.62 C 62.10 277.14 74.59 277.01 75.44 277.34 C 77.06 277.96 77.74 285.45 76.25 286.32 C 75.84 286.56 63.47 287.09 48.76 287.48 C 25.40 288.11 21.94 288.01 21.44 286.70 Z"/>
    <path d="M 630.58 257.92 C 627.39 254.12 627.38 253.63 630.50 251.18 C 631.88 250.10 633.00 248.67 633.00 248.01 C 633.00 246.71 626.19 251.95 626.07 253.34 C 625.95 254.79 632.43 263.20 632.81 262.07 C 633.01 261.48 632.01 259.61 630.58 257.92 Z"/>
    <path d="M 21.36 250.48 C 21.08 249.77 21.00 247.69 21.18 245.85 C 21.50 242.51 21.51 242.50 28.00 241.84 C 36.57 240.97 75.56 240.61 76.82 241.39 C 77.36 241.72 77.73 243.67 77.65 245.72 C 77.51 249.26 77.30 249.48 73.50 250.10 C 71.30 250.46 58.78 250.98 45.68 251.26 C 26.74 251.67 21.75 251.51 21.36 250.48 Z"/>
    <path d="M 219.85 227.63 C 221.00 225.23 221.65 224.88 224.07 225.36 C 225.64 225.68 227.18 225.52 227.49 225.01 C 227.81 224.50 228.69 224.33 229.46 224.62 C 230.46 225.01 230.70 224.58 230.31 223.09 C 230.02 221.95 229.43 221.23 229.02 221.49 C 227.71 222.30 224.92 218.37 225.58 216.64 C 225.93 215.74 225.92 215.00 225.57 215.00 C 225.22 215.00 224.05 217.05 222.97 219.56 C 221.14 223.85 219.00 224.80 219.00 221.33 C 219.00 220.33 218.44 220.00 217.42 220.39 C 216.55 220.73 215.59 221.00 215.30 221.00 C 215.00 221.00 215.32 221.68 216.00 222.50 C 216.68 223.32 216.91 224.00 216.50 224.00 C 216.09 224.00 216.31 224.67 216.99 225.49 C 217.99 226.69 217.92 227.09 216.61 227.60 C 214.42 228.44 214.53 231.24 216.74 230.81 C 217.70 230.63 219.10 229.20 219.85 227.63 Z"/>
    <path d="M 91.00 107.07 C 127.19 105.91 211.47 103.63 278.00 102.02 C 300.82 101.46 334.71 100.96 353.31 100.89 C 402.56 100.70 401.86 100.79 423.63 92.14 L 441.75 84.93 L 459.03 92.01 C 468.53 95.91 477.09 99.51 478.05 100.03 C 479.01 100.54 488.06 101.20 498.15 101.49 C 508.24 101.78 533.38 102.49 554.00 103.07 C 574.62 103.65 600.72 104.51 612.00 104.98 C 630.94 105.78 634.05 105.72 632.92 104.58 C 632.32 103.99 552.64 101.03 513.50 100.14 L 480.50 99.39 L 467.46 93.75 C 460.28 90.65 453.15 87.63 451.60 87.04 C 449.26 86.15 448.99 85.72 450.01 84.48 C 451.06 83.23 450.78 83.00 448.24 83.00 C 446.26 83.00 444.71 82.23 443.67 80.75 C 442.42 78.96 442.09 78.84 442.05 80.17 C 441.98 82.59 437.43 85.05 420.00 92.11 L 404.50 98.39 L 352.00 99.11 C 282.60 100.06 142.40 103.48 69.50 106.01 C 22.33 107.65 14.09 107.46 6.91 104.54 C 3.58 103.19 1.02 102.57 1.22 103.17 C 1.42 103.77 4.56 105.44 8.19 106.88 L 14.80 109.50 L 36.15 108.83 C 47.89 108.46 72.57 107.67 91.00 107.07 Z"/>
    <path d="M 25.12 93.31 C 28.20 92.68 28.29 92.57 26.13 92.05 C 22.92 91.27 16.00 91.99 16.00 93.11 C 16.00 94.17 20.43 94.27 25.12 93.31 Z"/>
    <path d="M 50.00 92.00 C 50.00 91.42 46.83 91.00 42.50 91.00 C 38.17 91.00 35.00 91.42 35.00 92.00 C 35.00 92.58 38.17 93.00 42.50 93.00 C 46.83 93.00 50.00 92.58 50.00 92.00 Z"/>
    <path d="M 70.00 91.00 C 70.00 89.81 65.09 89.79 59.50 90.94 C 55.90 91.69 56.22 91.78 62.75 91.89 C 66.99 91.95 70.00 91.59 70.00 91.00 Z"/>
    <path d="M 89.92 90.36 C 90.15 90.16 86.86 90.00 82.61 90.00 C 77.93 90.00 75.12 90.38 75.47 90.96 C 76.01 91.82 88.85 91.29 89.92 90.36 Z"/>
    <path d="M 110.50 90.06 C 113.86 89.36 113.10 89.21 105.75 89.11 C 100.51 89.05 97.00 89.40 97.00 90.00 C 97.00 91.19 104.86 91.22 110.50 90.06 Z"/>
    <path d="M 136.50 89.00 C 136.89 88.36 134.18 88.00 129.06 88.00 C 124.35 88.00 121.00 88.42 121.00 89.00 C 121.00 89.58 124.15 90.00 128.44 90.00 C 132.53 90.00 136.16 89.55 136.50 89.00 Z"/>
    <path d="M 155.35 88.04 C 154.88 87.62 151.35 87.52 147.50 87.81 C 143.32 88.12 141.42 88.57 142.78 88.92 C 145.91 89.72 156.41 88.98 155.35 88.04 Z"/>
    <path d="M 179.82 87.51 C 180.10 87.23 176.88 87.00 172.67 87.00 C 168.35 87.00 165.00 87.43 165.00 87.98 C 165.00 88.96 178.81 88.53 179.82 87.51 Z"/>
    <path d="M 619.00 88.00 C 619.00 87.43 616.15 87.00 612.44 87.00 C 608.32 87.00 606.11 87.37 606.50 88.00 C 606.84 88.55 609.79 89.00 613.06 89.00 C 616.35 89.00 619.00 88.55 619.00 88.00 Z"/>
    <path d="M 204.00 87.00 C 204.00 86.42 200.83 86.00 196.50 86.00 C 192.17 86.00 189.00 86.42 189.00 87.00 C 189.00 87.58 192.17 88.00 196.50 88.00 C 200.83 88.00 204.00 87.58 204.00 87.00 Z"/>
    <path d="M 227.00 85.78 C 227.00 85.10 225.35 84.95 222.36 85.36 C 219.81 85.71 216.41 86.00 214.80 86.00 C 213.20 86.00 212.09 86.34 212.34 86.75 C 213.06 87.91 227.00 86.99 227.00 85.78 Z"/>
    <path d="M 596.00 87.00 C 596.00 86.44 593.33 86.00 590.00 86.00 C 586.67 86.00 584.00 86.44 584.00 87.00 C 584.00 87.56 586.67 88.00 590.00 88.00 C 593.33 88.00 596.00 87.56 596.00 87.00 Z"/>
    <path d="M 247.00 86.00 C 247.00 85.45 244.53 85.00 241.50 85.00 C 238.47 85.00 236.00 85.45 236.00 86.00 C 236.00 86.55 238.47 87.00 241.50 87.00 C 244.53 87.00 247.00 86.55 247.00 86.00 Z"/>
    <path d="M 562.00 86.00 C 562.00 85.45 559.98 85.00 557.50 85.00 C 555.02 85.00 553.00 85.45 553.00 86.00 C 553.00 86.55 555.02 87.00 557.50 87.00 C 559.98 87.00 562.00 86.55 562.00 86.00 Z"/>
    <path d="M 260.28 84.88 C 259.49 84.09 258.06 84.06 255.33 84.78 L 251.50 85.79 L 256.45 85.90 C 260.10 85.97 261.11 85.71 260.28 84.88 Z"/>
    <path d="M 285.50 85.00 C 285.89 84.38 283.84 84.00 280.06 84.00 C 276.69 84.00 274.00 84.44 274.00 85.00 C 274.00 85.55 276.45 86.00 279.44 86.00 C 282.43 86.00 285.16 85.55 285.50 85.00 Z"/>
    <path d="M 542.00 85.00 C 542.00 84.42 538.81 84.00 534.44 84.00 C 529.66 84.00 527.11 84.37 527.50 85.00 C 527.84 85.55 531.24 86.00 535.06 86.00 C 539.02 86.00 542.00 85.57 542.00 85.00 Z"/>
    <path d="M 305.00 84.17 C 305.00 83.71 302.41 83.52 299.25 83.74 C 290.92 84.34 290.49 84.83 298.25 84.92 C 301.96 84.96 305.00 84.63 305.00 84.17 Z"/>
    <path d="M 331.00 84.00 C 331.00 83.42 327.83 83.00 323.50 83.00 C 319.17 83.00 316.00 83.42 316.00 84.00 C 316.00 84.58 319.17 85.00 323.50 85.00 C 327.83 85.00 331.00 84.58 331.00 84.00 Z"/>
    <path d="M 352.60 83.74 C 353.00 83.33 350.33 83.00 346.67 83.00 C 343.00 83.00 340.00 83.43 340.00 83.96 C 340.00 85.06 351.48 84.86 352.60 83.74 Z"/>
    <path d="M 370.50 83.50 C 371.05 83.31 368.69 83.12 365.25 83.08 C 361.81 83.04 359.00 83.38 359.00 83.85 C 359.00 84.62 368.03 84.34 370.50 83.50 Z"/>
    <path d="M 473.50 84.00 C 473.90 83.36 471.13 83.06 465.81 83.16 C 457.84 83.32 457.72 83.35 463.00 84.00 C 471.68 85.06 472.84 85.06 473.50 84.00 Z"/>
    <path d="M 495.00 84.00 C 495.00 83.44 492.33 83.00 489.00 83.00 C 485.67 83.00 483.00 83.44 483.00 84.00 C 483.00 84.56 485.67 85.00 489.00 85.00 C 492.33 85.00 495.00 84.56 495.00 84.00 Z"/>
    <path d="M 515.75 84.27 C 513.69 84.06 510.31 84.06 508.25 84.27 C 506.19 84.49 507.88 84.66 512.00 84.66 C 516.12 84.66 517.81 84.49 515.75 84.27 Z"/>
    <path d="M 393.45 83.10 C 392.92 82.60 389.65 82.54 386.00 82.97 L 379.50 83.73 L 386.95 83.86 C 391.38 83.94 394.02 83.64 393.45 83.10 Z"/>
    <path d="M 411.48 82.97 C 411.09 82.34 408.81 82.16 405.70 82.52 C 398.48 83.34 398.56 84.00 405.89 84.00 C 409.93 84.00 411.89 83.64 411.48 82.97 Z"/>
    <path d="M 432.50 83.00 C 431.80 81.86 425.97 81.86 421.50 83.00 C 419.25 83.57 420.33 83.79 425.81 83.88 C 430.45 83.96 432.89 83.64 432.50 83.00 Z"/>
    <path d="M 19.43 61.10 C 20.50 60.69 20.95 60.09 20.43 59.77 C 19.07 58.92 10.00 60.11 10.00 61.13 C 10.00 62.18 16.73 62.16 19.43 61.10 Z"/>
    <path d="M 38.00 60.00 C 38.00 59.43 35.15 59.00 31.44 59.00 C 27.32 59.00 25.11 59.37 25.50 60.00 C 25.84 60.55 28.79 61.00 32.06 61.00 C 35.35 61.00 38.00 60.55 38.00 60.00 Z"/>
    <path d="M 54.00 59.00 C 54.00 57.72 44.98 57.72 43.00 59.00 C 41.94 59.68 43.35 59.97 47.75 59.98 C 51.26 59.99 54.00 59.56 54.00 59.00 Z"/>
    <path d="M 71.77 58.56 C 73.08 57.26 70.81 56.88 65.58 57.53 C 58.13 58.46 58.15 60.47 65.61 59.70 C 68.69 59.38 71.46 58.87 71.77 58.56 Z"/>
    <path d="M 89.00 58.00 C 89.00 57.44 86.33 57.00 83.00 57.00 C 79.67 57.00 77.00 57.44 77.00 58.00 C 77.00 58.56 79.67 59.00 83.00 59.00 C 86.33 59.00 89.00 58.56 89.00 58.00 Z"/>
    <path d="M 107.00 56.90 C 107.00 55.88 101.66 55.72 98.26 56.63 C 97.03 56.96 96.20 57.51 96.42 57.86 C 97.02 58.84 107.00 57.93 107.00 56.90 Z"/>
    <path d="M 122.00 57.00 C 122.00 56.45 119.75 56.00 117.00 56.00 C 114.25 56.00 112.00 56.45 112.00 57.00 C 112.00 57.55 114.25 58.00 117.00 58.00 C 119.75 58.00 122.00 57.55 122.00 57.00 Z"/>
    <path d="M 445.22 52.25 C 445.82 51.51 448.76 50.97 452.37 50.94 C 457.36 50.89 458.05 50.69 456.08 49.91 C 454.70 49.35 454.05 48.59 454.58 48.11 C 455.09 47.66 460.45 45.45 466.50 43.21 C 472.55 40.97 479.28 38.38 481.46 37.46 C 484.86 36.03 487.94 35.89 503.46 36.41 C 513.38 36.75 535.67 37.47 553.00 38.01 C 570.33 38.55 588.55 39.20 593.50 39.47 C 617.45 40.74 633.44 41.19 632.86 40.57 C 632.50 40.19 618.10 39.25 600.86 38.49 C 583.61 37.72 564.77 36.85 559.00 36.57 C 553.23 36.28 534.06 35.74 516.40 35.37 L 484.31 34.70 L 464.72 42.35 C 453.95 46.56 444.71 50.00 444.18 50.00 C 443.66 50.00 434.09 46.34 422.92 41.87 L 402.61 33.74 L 364.56 33.89 C 305.54 34.12 194.06 37.12 63.50 41.98 C 16.30 43.73 16.65 43.70 8.32 47.82 C 4.30 49.81 1.00 51.79 1.00 52.22 C 1.00 53.56 2.44 53.11 10.07 49.40 L 17.48 45.79 L 76.49 43.44 C 133.86 41.15 212.77 38.60 259.50 37.53 C 272.15 37.23 289.70 36.77 298.50 36.50 C 307.30 36.23 333.85 35.73 357.50 35.40 L 400.50 34.78 L 415.03 40.64 C 423.02 43.86 429.72 46.95 429.92 47.50 C 430.11 48.05 429.20 49.08 427.89 49.79 C 425.77 50.94 426.29 51.05 432.50 50.82 C 440.39 50.53 442.00 51.13 442.00 54.39 C 442.00 57.57 443.43 58.69 443.85 55.84 C 444.04 54.56 444.65 52.94 445.22 52.25 Z"/>
    <path d="M 141.50 56.00 C 140.76 54.80 133.30 54.80 130.50 56.00 C 129.11 56.60 130.58 56.88 135.31 56.93 C 139.61 56.97 141.89 56.63 141.50 56.00 Z"/>
    <path d="M 157.50 56.00 C 158.91 55.39 157.67 55.12 153.25 55.07 C 149.70 55.03 147.00 55.43 147.00 56.00 C 147.00 57.21 154.69 57.21 157.50 56.00 Z"/>
    <path d="M 175.00 55.00 C 175.00 54.45 172.75 54.00 170.00 54.00 C 167.25 54.00 165.00 54.45 165.00 55.00 C 165.00 55.55 167.25 56.00 170.00 56.00 C 172.75 56.00 175.00 55.55 175.00 55.00 Z"/>
    <path d="M 189.50 55.00 C 191.96 54.37 191.45 54.22 186.69 54.12 C 183.05 54.04 181.11 54.37 181.50 55.00 C 182.20 56.13 185.07 56.13 189.50 55.00 Z"/>
    <path d="M 621.50 55.00 C 621.16 54.45 617.20 54.01 612.69 54.02 C 607.03 54.03 604.96 54.33 606.00 55.00 C 608.03 56.31 622.31 56.31 621.50 55.00 Z"/>
    <path d="M 209.00 54.00 C 209.00 53.44 206.33 53.00 203.00 53.00 C 199.67 53.00 197.00 53.44 197.00 54.00 C 197.00 54.56 199.67 55.00 203.00 55.00 C 206.33 55.00 209.00 54.56 209.00 54.00 Z"/>
    <path d="M 230.92 53.38 C 232.04 52.36 229.78 52.17 222.73 52.70 C 218.48 53.03 215.00 53.71 215.00 54.23 C 215.00 55.10 229.90 54.30 230.92 53.38 Z"/>
    <path d="M 596.00 54.00 C 596.00 53.42 592.65 53.00 587.94 53.00 C 582.82 53.00 580.11 53.36 580.50 54.00 C 580.84 54.55 584.47 55.00 588.56 55.00 C 592.85 55.00 596.00 54.58 596.00 54.00 Z"/>
    <path d="M 246.50 53.00 C 246.88 52.38 245.18 52.00 242.06 52.00 C 239.28 52.00 237.00 52.45 237.00 53.00 C 237.00 53.55 239.00 54.00 241.44 54.00 C 243.88 54.00 246.16 53.55 246.50 53.00 Z"/>
    <path d="M 568.50 53.00 C 568.16 52.45 564.96 52.00 561.38 52.00 C 557.30 52.00 555.11 52.37 555.50 53.00 C 555.84 53.55 559.04 54.00 562.62 54.00 C 566.70 54.00 568.89 53.63 568.50 53.00 Z"/>
    <path d="M 264.73 52.27 C 262.65 52.05 259.50 52.06 257.73 52.28 C 255.95 52.50 257.65 52.68 261.50 52.67 C 265.35 52.67 266.80 52.49 264.73 52.27 Z"/>
    <path d="M 289.00 52.00 C 290.04 51.32 288.30 51.03 283.25 51.02 C 279.07 51.01 276.00 51.42 276.00 52.00 C 276.00 53.28 287.02 53.28 289.00 52.00 Z"/>
    <path d="M 522.00 51.85 C 522.00 51.38 518.96 51.01 515.25 51.02 C 510.49 51.03 508.94 51.32 510.00 52.01 C 511.80 53.19 522.00 53.05 522.00 51.85 Z"/>
    <path d="M 545.77 52.43 C 544.64 51.31 532.00 50.85 532.00 51.94 C 532.00 52.59 534.78 53.00 539.17 53.00 C 543.11 53.00 546.08 52.75 545.77 52.43 Z"/>
    <path d="M 309.00 51.02 C 309.00 50.12 297.18 50.69 296.08 51.64 C 295.85 51.84 298.67 52.00 302.33 52.00 C 306.04 52.00 309.00 51.56 309.00 51.02 Z"/>
    <path d="M 326.50 51.00 C 326.16 50.45 323.88 50.00 321.44 50.00 C 319.00 50.00 317.00 50.45 317.00 51.00 C 317.00 51.55 319.28 52.00 322.06 52.00 C 325.18 52.00 326.88 51.62 326.50 51.00 Z"/>
    <path d="M 346.00 51.00 C 346.00 50.44 343.17 50.00 339.50 50.00 C 335.83 50.00 333.00 50.44 333.00 51.00 C 333.00 51.56 335.83 52.00 339.50 52.00 C 343.17 52.00 346.00 51.56 346.00 51.00 Z"/>
    <path d="M 365.50 51.05 C 370.35 50.29 370.26 50.26 362.75 50.13 C 358.16 50.05 355.00 50.41 355.00 51.00 C 355.00 52.15 358.34 52.16 365.50 51.05 Z"/>
    <path d="M 479.00 51.00 C 479.00 50.45 476.52 50.00 473.50 50.00 C 470.48 50.00 468.00 50.45 468.00 51.00 C 468.00 51.55 470.48 52.00 473.50 52.00 C 476.52 52.00 479.00 51.55 479.00 51.00 Z"/>
    <path d="M 499.00 51.00 C 499.00 50.44 496.17 50.00 492.50 50.00 C 488.83 50.00 486.00 50.44 486.00 51.00 C 486.00 51.56 488.83 52.00 492.50 52.00 C 496.17 52.00 499.00 51.56 499.00 51.00 Z"/>
    <path d="M 393.56 50.10 C 392.95 49.12 379.30 49.37 378.29 50.38 C 377.95 50.72 381.37 51.00 385.89 51.00 C 390.52 51.00 393.87 50.61 393.56 50.10 Z"/>
    <path d="M 415.59 50.15 C 414.83 48.92 403.27 48.76 402.52 49.97 C 402.10 50.64 404.38 51.00 409.00 51.00 C 412.91 51.00 415.88 50.62 415.59 50.15 Z"/>
    <path d="M 210.20 48.22 C 211.32 46.85 211.24 46.72 209.62 47.33 C 207.05 48.30 204.58 46.21 206.11 44.37 C 207.03 43.26 206.66 43.00 204.20 43.00 C 199.97 43.00 198.00 43.92 198.00 45.91 C 198.00 48.62 199.78 49.68 204.50 49.75 C 207.39 49.79 209.35 49.27 210.20 48.22 Z"/>
    <path d="M 12.00 10.99 C 14.14 4.51 15.54 4.16 17.90 9.51 C 20.17 14.63 21.30 14.61 23.46 9.43 C 24.25 7.54 25.33 6.00 25.85 6.00 C 26.37 6.00 27.73 7.58 28.87 9.50 C 30.00 11.43 31.31 13.00 31.78 13.00 C 32.25 13.00 33.64 11.20 34.88 9.00 C 36.12 6.80 37.54 5.00 38.04 5.00 C 38.54 5.00 39.69 6.46 40.60 8.25 C 43.78 14.52 44.29 14.63 46.03 9.42 C 46.91 6.78 48.12 4.46 48.72 4.26 C 49.32 4.06 50.84 5.72 52.09 7.95 C 54.55 12.33 55.46 12.86 56.38 10.45 C 56.71 9.59 56.55 9.16 56.03 9.48 C 54.93 10.16 50.77 2.57 51.71 1.62 C 52.05 1.28 46.42 1.00 39.19 1.00 L 26.04 1.00 L 24.03 4.93 C 21.35 10.20 20.36 10.60 18.58 7.16 C 16.88 3.87 17.32 3.00 20.67 3.00 C 21.95 3.00 23.00 2.54 23.00 1.97 C 23.00 1.31 20.58 1.15 16.25 1.52 C 4.29 2.55 3.26 2.85 2.61 5.43 C 2.28 6.74 1.75 8.64 1.44 9.66 C 1.13 10.67 1.59 10.26 2.47 8.75 C 3.35 7.24 4.24 6.00 4.46 6.00 C 4.68 6.00 5.87 8.02 7.11 10.50 C 8.34 12.98 9.65 15.00 10.02 15.00 C 10.38 15.00 11.28 13.19 12.00 10.99 Z"/>
    <path d="M 67.00 11.63 C 67.00 10.29 61.48 1.74 60.33 1.29 C 58.01 0.41 57.73 1.67 59.81 3.65 C 60.87 4.67 62.49 6.96 63.40 8.75 C 64.31 10.54 65.49 12.00 66.03 12.00 C 66.56 12.00 67.00 11.83 67.00 11.63 Z"/>
    <path d="M 7.72 7.96 C 6.06 4.02 6.73 2.68 10.12 3.17 C 13.13 3.59 13.50 5.83 11.08 8.96 L 9.18 11.42 L 7.72 7.96 Z"/>
    <path d="M 78.50 10.00 C 78.84 9.45 78.65 9.00 78.08 9.00 C 77.51 9.00 76.12 7.20 75.00 5.00 C 73.88 2.80 72.52 1.00 71.98 1.00 C 70.62 1.00 70.67 1.16 73.59 6.37 C 76.18 11.01 77.34 11.87 78.50 10.00 Z"/>
    <path d="M 91.06 8.88 C 91.86 7.39 91.87 6.96 91.10 7.44 C 90.47 7.83 89.11 6.60 87.90 4.56 C 86.67 2.46 85.02 1.00 83.90 1.00 C 82.86 1.00 82.00 1.19 82.00 1.42 C 82.00 1.65 81.74 2.66 81.42 3.67 C 80.88 5.40 80.91 5.40 81.99 3.73 C 83.44 1.46 84.55 2.19 87.03 7.07 C 88.14 9.23 89.24 11.00 89.49 11.00 C 89.73 11.00 90.44 10.05 91.06 8.88 Z"/>
    <path d="M 30.42 8.91 C 26.44 2.71 26.75 1.72 32.45 2.37 C 36.31 2.82 36.63 4.16 33.71 7.55 C 31.78 9.79 31.15 10.05 30.42 8.91 Z"/>
    <path d="M 102.00 9.07 C 102.00 8.56 100.99 6.54 99.75 4.58 C 97.41 0.89 94.12 0.10 93.17 3.00 C 92.75 4.27 92.93 4.29 94.28 3.18 C 95.68 2.02 96.15 2.37 97.96 5.93 C 99.87 9.66 102.00 11.32 102.00 9.07 Z"/>
    <path d="M 114.82 5.25 C 116.88 0.86 116.05 1.32 112.57 6.50 C 111.29 8.41 111.15 8.33 109.43 4.75 C 107.76 1.27 104.00 -0.59 104.00 2.06 C 104.00 2.64 104.42 2.86 104.93 2.54 C 105.44 2.23 106.87 3.78 108.11 5.99 C 109.35 8.19 110.87 10.00 111.48 10.00 C 112.10 10.00 113.60 7.86 114.82 5.25 Z"/>
    <path d="M 41.57 6.13 C 40.75 4.55 40.36 2.97 40.71 2.63 C 41.52 1.81 45.48 1.81 46.29 2.63 C 46.91 3.24 44.38 9.00 43.50 9.00 C 43.25 9.00 42.38 7.71 41.57 6.13 Z"/>
    <path d="M 126.06 4.75 L 128.16 0.50 L 125.67 3.50 L 123.19 6.50 L 121.93 3.75 C 121.24 2.24 120.07 1.00 119.33 1.00 C 118.40 1.00 118.81 2.27 120.62 5.00 C 122.07 7.20 123.42 9.00 123.61 9.00 C 123.80 9.00 124.90 7.09 126.06 4.75 Z"/>
    <path d="M 137.31 5.47 C 139.54 0.79 139.41 -0.07 136.94 3.00 L 134.92 5.50 L 133.34 3.25 C 130.72 -0.47 129.81 0.72 132.00 5.00 C 133.12 7.20 134.40 9.00 134.84 9.00 C 135.27 9.00 136.39 7.41 137.31 5.47 Z"/>
    <path d="M 148.81 4.25 C 149.41 2.46 149.52 1.00 149.06 1.00 C 148.61 1.00 147.94 2.01 147.58 3.25 L 146.92 5.50 L 145.34 3.25 C 142.66 -0.56 141.74 0.77 144.13 5.01 C 146.56 9.34 147.15 9.24 148.81 4.25 Z"/>
    <path d="M 159.43 3.00 C 160.00 0.84 159.94 0.75 158.96 2.32 C 157.88 4.05 157.72 4.06 155.90 2.41 C 153.12 -0.11 152.76 1.08 155.14 4.99 C 157.33 8.59 158.02 8.27 159.43 3.00 Z"/>
    <path d="M 185.11 2.75 C 186.50 0.22 184.73 0.59 183.12 3.17 L 181.77 5.34 L 179.95 2.94 C 177.31 -0.57 176.74 0.97 179.23 4.90 C 181.24 8.07 181.42 8.15 182.75 6.37 C 183.52 5.34 184.58 3.71 185.11 2.75 Z"/>
    <path d="M 624.06 5.25 C 626.38 0.61 626.36 0.42 623.72 2.84 L 621.17 5.19 L 620.00 3.01 C 619.36 1.81 618.62 1.05 618.35 1.32 C 617.68 1.99 620.84 8.00 621.87 8.00 C 622.31 8.00 623.30 6.76 624.06 5.25 Z"/>
    <path d="M 172.34 4.00 C 174.26 0.76 173.58 -0.10 171.36 2.75 C 170.07 4.41 169.92 4.40 168.51 2.57 C 166.36 -0.21 165.53 1.35 167.54 4.41 C 169.69 7.70 170.18 7.66 172.34 4.00 Z"/>
    <path d="M 195.25 4.19 C 196.64 1.41 196.62 1.39 193.43 1.30 L 190.21 1.20 L 191.86 4.10 C 192.76 5.69 193.58 6.99 193.68 6.99 C 193.77 7.00 194.48 5.74 195.25 4.19 Z"/>
    <path d="M 207.97 2.13 C 207.99 1.06 207.69 1.01 206.59 1.93 C 205.62 2.73 204.97 2.77 204.53 2.05 C 202.97 -0.48 202.11 1.30 203.55 4.09 C 205.06 7.01 205.22 7.08 206.54 5.34 C 207.31 4.33 207.95 2.88 207.97 2.13 Z"/>
    <path d="M 599.54 1.21 C 599.23 0.90 598.31 1.51 597.49 2.57 C 596.08 4.40 595.93 4.41 594.64 2.75 C 592.40 -0.13 591.75 0.77 593.69 4.06 L 595.50 7.12 L 597.80 4.44 C 599.07 2.97 599.85 1.52 599.54 1.21 Z"/>
    <path d="M 611.50 4.00 C 613.28 0.56 612.17 -0.10 610.12 3.17 L 608.77 5.34 L 606.82 2.92 L 604.88 0.50 L 606.47 3.75 C 608.43 7.78 609.52 7.84 611.50 4.00 Z"/>
    <path d="M 218.96 4.07 C 220.44 1.31 220.25 0.55 218.46 2.04 C 217.29 3.00 216.63 3.03 215.76 2.16 C 213.79 0.19 212.99 0.88 214.18 3.50 C 215.54 6.49 217.54 6.73 218.96 4.07 Z"/>
    <path d="M 230.94 3.11 C 231.75 1.59 231.46 1.33 228.95 1.33 C 225.63 1.33 225.60 1.38 227.05 4.09 C 228.19 6.22 229.45 5.90 230.94 3.11 Z"/>
    <path d="M 242.00 4.58 C 242.00 4.35 242.25 3.51 242.56 2.71 C 242.96 1.66 242.39 1.25 240.56 1.25 C 237.72 1.25 237.76 1.21 238.61 3.42 C 239.13 4.78 242.00 5.76 242.00 4.58 Z"/>
    <path d="M 254.26 3.12 C 254.63 1.69 254.20 1.25 252.41 1.25 C 250.43 1.25 250.22 1.54 251.07 3.12 C 251.62 4.16 252.45 5.00 252.92 5.00 C 253.39 5.00 253.99 4.16 254.26 3.12 Z"/>
    <path d="M 265.00 3.00 C 265.94 1.24 265.76 1.00 263.50 1.00 C 261.24 1.00 261.06 1.24 262.00 3.00 C 262.59 4.10 263.26 5.00 263.50 5.00 C 263.74 5.00 264.41 4.10 265.00 3.00 Z"/>
    <path d="M 561.36 3.15 C 562.95 1.40 562.89 1.30 560.02 1.22 C 557.34 1.14 557.12 1.35 558.04 3.07 C 559.30 5.43 559.30 5.43 561.36 3.15 Z"/>
    <path d="M 574.00 2.13 C 574.00 1.78 572.87 1.44 571.50 1.36 C 568.77 1.20 568.36 1.96 570.18 3.78 C 571.04 4.64 571.71 4.66 572.68 3.85 C 573.40 3.25 574.00 2.47 574.00 2.13 Z"/>
    <path d="M 584.80 3.80 C 586.48 2.12 586.30 0.50 584.59 1.93 C 583.62 2.73 582.97 2.77 582.53 2.05 C 581.30 0.06 579.89 0.93 581.00 3.00 C 582.23 5.30 583.11 5.49 584.80 3.80 Z"/>
  </g>
</svg>