<?xml version="1.0" encoding="UTF-8" standalone="no"?><!DOCTYPE svg PUBLIC "-//W3C//DTD SVG 1.1//EN" "http://www.w3.org/Graphics/SVG/1.1/DTD/svg11.dtd"><svg width="100%" height="100%" viewBox="0 0 29234 5575" version="1.1" xmlns="http://www.w3.org/2000/svg" xmlns:xlink="http://www.w3.org/1999/xlink" xml:space="preserve" xmlns:serif="http://www.serif.com/" style="fill-rule:evenodd;clip-rule:evenodd;stroke-linecap:round;stroke-linejoin:round;stroke-miterlimit:1.5;"><g><g><polygon id="Background" points="29059.67,1022.684 29059.67,4552.316 173.663,4552.316 173.663,1022.684 29059.67,1022.684 " style="fill:#808080;fill-opacity:0;"/><g><path d="M29059.67,4552.316l-28886.007,0l0,-3529.631l28886.007,-0l0,3529.631Z" style="fill:#fff;"/></g></g><g id="silhouette"><g><rect id="mask" x="0" y="0" width="29233.333" height="5575" style="fill:#f20d0d;"/><path d="M1346.86,1182.736l0,1066.988l-981.249,0l0,1019.566l1991.911,0l0,948.434l24552.776,0l-0,-1019.566l1957.881,0l-3.886,-968.324l-969.145,0l0,-1047.098l-26548.288,0Z" style="fill:#f20d0d;stroke:#000;stroke-width:12.5px;"/></g></g></g><g id="panels"><path id="a" d="M1362.667,1230.158l-15.807,1019.566l26548.288,-20.012l-7.904,-1046.976l-26524.577,47.422Z" style="fill:#f25e0d;stroke:#000;stroke-width:4.17px;"/><path id="main" d="M27895.148,3198.157l0,-968.324l-26548.288,19.89l-0,1019.566l26548.288,-71.133Z" style="fill:#f25e0d;stroke:#000;stroke-width:4.17px;"/><rect id="b" x="27895.148" y="2229.834" width="969.145" height="968.324" style="fill:#f25e0d;stroke:#000;stroke-width:4.17px;"/><rect id="c" x="365.611" y="2249.724" width="981.249" height="1019.566" style="fill:#f25e0d;stroke:#000;stroke-width:4.17px;"/><path id="xy" d="M2381.232,4217.724l-23.711,-948.434l24536.969,-71.133l15.807,987.952l-24529.065,31.614Z" style="fill:#f25e0d;stroke:#000;stroke-width:4.17px;"/></g></svg>