<svg xmlns="http://www.w3.org/2000/svg" viewBox="0 0 432 437" width="432" height="437">
  <rect x="0" y="0" width="100%" height="100%" fill="#fffaf0"/>
  <g fill="none" stroke="#2a2a2a" stroke-width="1.4" stroke-linejoin="round" stroke-linecap="round">
    <path d="M4282 4333 c6 -16 14 -44 18 -63 7 -30 8 -26 9 28 1 55 -1 62 -19 62
-17 0 -18 -3 -8 -27z"/>
    <path d="M3495 3553 c-157 -11 -540 -45 -595 -53 -36 -5 -135 -14 -220 -21
-186 -13 -575 -63 -611 -77 l-26 -10 -7 -159 c-4 -87 -11 -214 -16 -283 -17
-230 -24 -546 -12 -553 5 -4 84 2 174 13 530 65 674 78 1382 119 133 7 152 11
166 29 14 17 18 54 23 199 3 98 12 286 19 418 7 132 13 272 13 310 l0 70 -120
1 c-66 0 -142 -1 -170 -3z m241 -35 c8 -13 8 -13 -12 -488 -9 -206 -19 -391
-23 -410 l-7 -35 -149 -11 c-83 -6 -238 -17 -345 -23 -188 -11 -287 -19 -525
-41 -134 -12 -371 -37 -480 -50 -44 -5 -98 -11 -120 -12 l-40 -3 2 120 c3 128
20 517 31 677 4 54 12 102 19 109 23 23 537 92 922 124 102 8 215 17 251 20
36 3 103 8 150 11 94 7 275 20 302 23 9 0 20 -4 24 -11z"/>
    <path d="M3578 3250 c-13 -8 -16 -23 -12 -83 2 -39 0 -96 -4 -124 l-9 -53 42
0 c48 0 79 26 90 77 6 29 3 34 -19 44 -32 15 -41 7 -24 -20 15 -24 1 -56 -23
-56 -22 0 -25 162 -3 186 27 30 0 51 -38 29z"/>
    <path d="M2840 3248 c0 -1 -2 -52 -4 -112 -3 -74 -8 -113 -18 -122 -8 -8 -49
-16 -101 -20 -74 -6 -90 -10 -99 -27 -10 -20 -8 -20 91 -14 66 3 103 1 107 -5
4 -6 6 -45 4 -87 -4 -108 -3 -141 4 -148 18 -19 35 58 36 158 0 49 5 80 13 87
6 6 58 13 115 17 75 6 105 12 109 22 9 24 -6 28 -115 28 l-107 0 -5 109 c-3
75 -9 111 -17 114 -7 2 -13 2 -13 0z"/>
    <path d="M2150 2983 c-44 -16 -67 -97 -35 -123 13 -11 20 -11 41 0 19 11 27
11 36 2 17 -17 48 -15 48 2 0 8 -4 18 -10 21 -5 3 -10 28 -10 56 0 47 -1 49
-27 48 -16 0 -35 -3 -43 -6z m28 -46 c5 -23 -36 -43 -44 -22 -7 18 14 47 30
42 6 -2 12 -11 14 -20z"/>
    <path d="M4264 3396 c6 -24 2 -29 -46 -51 -29 -14 -60 -25 -68 -25 -31 0 -205
-79 -208 -94 -5 -24 16 -20 113 24 l90 40 18 -23 c54 -66 56 -67 102 -67 42 0
45 2 45 27 0 21 -3 24 -12 15 -7 -7 -22 -12 -33 -12 -23 0 -65 38 -65 58 0 18
59 44 87 39 23 -4 24 -2 21 42 -3 40 -6 46 -27 49 -21 3 -23 1 -17 -22z"/>
    <path d="M4220 3134 c-13 -34 -13 -33 14 -55 16 -12 22 -26 19 -38 -5 -21 12
-61 27 -61 6 0 10 9 10 19 0 11 5 23 10 26 19 12 10 41 -21 64 -22 17 -28 26
-20 34 18 18 13 37 -9 37 -13 0 -24 -10 -30 -26z"/>
    <path d="M1850 3074 c-6 -14 -10 -51 -10 -82 0 -56 -23 -234 -36 -281 -7 -23
-5 -24 26 -18 49 10 61 23 48 53 -8 18 -8 63 1 173 6 81 9 155 5 164 -9 24
-23 21 -34 -9z"/>
    <path d="M1655 3046 c-33 -33 -61 -130 -46 -162 14 -31 38 -41 64 -25 12 8 23
9 29 3 13 -13 1 -73 -23 -111 -15 -25 -25 -31 -53 -31 -33 0 -53 -20 -40 -41
9 -16 70 -10 86 9 74 83 103 307 47 363 -25 25 -35 24 -64 -5z m49 -70 c8 -32
7 -40 -12 -58 -17 -18 -23 -19 -36 -8 -21 16 -20 59 0 88 21 31 37 23 48 -22z"/>
    <path d="M3510 2354 c0 -16 -13 -39 -35 -61 -38 -38 -46 -59 -17 -48 35 13 37
10 37 -64 1 -68 -1 -74 -23 -82 -13 -5 -22 -15 -19 -22 6 -17 75 -13 94 6 14
13 13 16 -7 27 -21 11 -22 16 -16 98 4 48 9 106 13 130 4 34 2 42 -11 42 -11
0 -16 -9 -16 -26z"/>
    <path d="M3818 2303 c-2 -39 -7 -50 -25 -58 -28 -12 -29 -21 -3 -35 15 -8 20
-21 20 -48 0 -53 20 -78 48 -63 27 15 28 27 1 41 -29 16 -23 74 9 78 12 2 22
9 22 15 0 7 -10 17 -22 22 -18 8 -24 20 -26 53 -4 57 -20 54 -24 -5z"/>
    <path d="M3245 2315 c-36 -35 -35 -106 0 -129 32 -21 51 -20 91 4 19 12 35 17
38 11 10 -16 -11 -92 -33 -122 -25 -33 -27 -49 -6 -49 8 0 26 22 40 50 20 40
25 64 25 125 0 71 -2 79 -29 106 -38 38 -91 40 -126 4z m100 -35 c16 -18 17
-21 1 -45 -22 -33 -61 -42 -86 -20 -26 24 -25 49 3 68 30 22 61 21 82 -3z"/>
    <path d="M4278 2314 c-27 -14 -41 -52 -15 -40 6 3 20 9 30 12 9 4 17 15 17 25
0 22 2 22 -32 3z"/>
    <path d="M1648 2269 c-23 -13 -23 -25 2 -32 18 -5 19 -12 13 -128 -5 -102 -9
-128 -24 -145 -27 -29 -24 -34 21 -34 38 0 52 15 33 34 -5 4 -8 76 -8 158 0
92 -4 152 -10 154 -5 2 -18 -1 -27 -7z"/>
    <path d="M3936 2227 c-23 -17 -32 -86 -14 -109 7 -9 27 -19 44 -23 27 -5 35
-1 63 30 37 43 39 58 6 90 -27 28 -71 33 -99 12z m78 -36 c14 -15 15 -24 6
-40 -6 -12 -20 -21 -30 -21 -11 0 -23 0 -27 -1 -17 -1 -31 36 -22 59 11 28 49
29 73 3z"/>
    <path d="M2923 2208 c-20 -10 -43 -60 -43 -95 0 -47 108 -73 130 -32 15 28 11
30 -34 18 -27 -7 -42 -7 -49 0 -7 7 -5 12 9 16 50 17 64 26 70 50 3 14 4 32 0
40 -6 17 -50 19 -83 3z m55 -35 c5 -16 -22 -27 -44 -19 -13 5 -14 9 -4 22 15
17 41 15 48 -3z"/>
    <path d="M2608 2193 c-38 -46 -47 -125 -15 -145 7 -4 29 -8 50 -8 28 0 44 7
63 27 l24 26 23 -21 c26 -24 57 -28 75 -10 19 19 14 28 -16 28 -48 0 -70 43
-37 70 13 11 20 11 40 0 30 -16 40 -9 25 19 -16 31 -63 28 -89 -5 -12 -15 -21
-32 -21 -38 0 -7 -13 -25 -29 -40 -36 -35 -60 -26 -31 11 24 31 26 66 4 87
-20 21 -47 20 -66 -1z m49 -57 c-8 -20 -36 -21 -43 -1 -4 8 0 22 7 31 11 13
14 13 27 0 8 -8 12 -22 9 -30z"/>
    <path d="M1481 2154 c-67 -56 -68 -228 -1 -249 12 -4 36 4 65 20 43 26 45 29
45 74 0 47 -13 71 -37 71 -18 0 -16 -25 2 -40 22 -18 18 -43 -9 -69 -53 -50
-103 -1 -91 89 9 66 24 83 74 86 50 2 58 8 41 29 -19 22 -55 18 -89 -11z"/>
    <path d="M2345 2168 c-79 -26 -127 -64 -72 -56 l22 3 -3 -150 c-3 -110 -8
-154 -18 -166 -24 -27 -16 -39 26 -39 45 0 66 25 37 42 -14 7 -17 26 -17 104
0 67 4 96 13 98 6 3 23 7 37 10 37 8 68 41 76 82 5 29 2 40 -17 60 -24 26 -37
28 -84 12z m63 -40 c26 -26 -2 -78 -43 -78 -35 0 -46 19 -30 51 20 38 51 49
73 27z"/>
    <path d="M2470 2166 c0 -7 7 -19 15 -26 17 -14 20 -66 5 -75 -19 -12 -10 -35
14 -35 31 0 54 26 38 42 -7 7 -12 34 -12 60 0 47 -1 48 -30 48 -19 0 -30 -5
-30 -14z"/>
    <path d="M1882 2107 c-6 -7 -16 -25 -21 -40 -11 -29 -31 -29 -31 -1 0 9 -6 14
-12 11 -8 -2 -12 -17 -10 -38 3 -37 -18 -76 -36 -65 -7 4 -12 29 -12 57 0 51
-13 66 -24 27 -3 -13 -6 -42 -6 -65 0 -32 5 -45 20 -53 22 -12 33 -8 66 22 20
18 21 18 39 -2 10 -11 24 -20 31 -20 23 0 74 51 74 73 -1 21 -2 20 -21 -5 -23
-31 -50 -36 -69 -13 -10 12 -9 16 6 21 70 22 84 39 66 80 -12 26 -43 32 -60
11z"/>
    <path d="M3011 1671 c-7 -26 -28 -72 -47 -100 -39 -60 -39 -61 -20 -61 8 0 24
16 36 35 12 19 25 33 29 31 4 -3 3 -44 -2 -93 -7 -69 -13 -91 -28 -103 -38
-30 10 -41 61 -15 33 17 41 48 13 43 -17 -3 -18 9 -14 155 4 163 -5 197 -28
108z"/>
    <path d="M2743 1617 c0 -86 -5 -97 -42 -97 -16 0 -37 -10 -51 -25 -25 -26 -40
-25 -40 5 0 27 -17 34 -51 20 -23 -10 -33 -10 -42 -1 -6 6 -17 11 -24 11 -21
0 -27 -30 -9 -43 13 -10 14 -21 7 -67 -10 -61 -9 -65 14 -57 9 4 15 19 15 40
0 22 8 41 24 56 23 22 25 22 49 6 17 -11 23 -22 20 -36 -4 -13 3 -29 18 -45
21 -23 28 -24 79 -18 69 8 91 25 66 53 -15 17 -16 33 -10 145 6 108 5 126 -8
126 -12 0 -15 -15 -15 -73z m-32 -137 c37 -20 18 -80 -26 -80 -43 0 -51 33
-17 73 18 20 18 20 43 7z"/>
    <path d="M1907 1594 c-3 -3 -3 -28 0 -55 5 -46 4 -49 -23 -59 -16 -6 -36 -18
-46 -27 -15 -13 -18 -13 -28 6 -9 18 -17 20 -53 15 -44 -7 -63 -22 -47 -38 12
-12 13 -83 3 -89 -5 -3 -18 -1 -30 4 -19 7 -23 16 -23 52 0 53 -2 55 -39 49
-35 -5 -62 -41 -70 -91 -11 -64 -71 -65 -71 0 0 31 15 45 43 40 14 -2 18 3 15
16 -6 33 -45 28 -68 -9 -32 -52 -23 -105 21 -129 16 -8 25 -7 39 6 12 11 26
15 37 10 44 -17 100 -15 117 4 10 11 25 16 40 14 27 -6 41 19 26 46 -5 10 -6
31 -1 46 6 24 13 29 37 29 27 0 29 -2 29 -43 1 -51 13 -61 76 -61 52 0 73 22
43 45 -15 11 -16 21 -4 108 7 52 9 100 6 106 -8 12 -19 14 -29 5z m-19 -188
c4 -36 -12 -54 -33 -36 -18 15 -20 41 -3 58 18 18 33 9 36 -22z m-260 -25 c5
-50 -27 -80 -47 -43 -12 22 13 86 31 80 7 -3 14 -19 16 -37z"/>
    <path d="M1996 1578 c-3 -13 -7 -66 -9 -118 -3 -52 -7 -102 -9 -110 -2 -11 8
-16 39 -18 39 -3 44 -1 69 37 15 23 28 41 30 41 2 0 10 -13 19 -30 32 -63 125
-25 125 51 0 72 -59 104 -101 54 l-22 -24 -27 29 c-29 31 -54 38 -65 20 -13
-20 -25 2 -25 46 0 46 -16 61 -24 22z m86 -139 c-3 -41 -46 -89 -63 -72 -22
22 28 119 55 110 6 -2 10 -19 8 -38z m143 -14 c0 -36 -3 -40 -27 -43 -21 -3
-30 2 -39 21 -16 36 4 69 39 65 24 -3 27 -7 27 -43z"/>
    <path d="M3583 1549 c-14 -14 -81 -31 -120 -29 -33 1 -41 -8 -23 -26 6 -6 6
-30 1 -62 -4 -29 -4 -55 0 -58 16 -9 29 7 29 34 0 34 36 95 53 89 8 -3 11 -23
9 -62 -5 -73 18 -73 33 1 12 57 22 77 37 68 6 -4 7 -23 4 -48 -5 -28 -2 -48 7
-60 18 -25 33 -15 31 21 -1 15 -3 47 -3 70 -1 55 -32 88 -58 62z"/>
    <path d="M3280 1530 c-25 -5 -52 -6 -61 -4 -20 6 -27 -11 -35 -81 -4 -33 -2
-55 4 -59 13 -8 32 24 32 51 0 11 6 28 14 39 23 30 35 6 26 -51 -4 -27 -6 -52
-4 -54 9 -10 34 24 34 46 0 31 28 85 40 78 6 -4 10 -33 10 -66 0 -43 4 -59 14
-59 10 0 14 20 15 85 2 96 7 92 -89 75z"/>
    <path d="M2321 1494 c-25 -20 -31 -34 -31 -63 0 -42 29 -77 55 -67 8 3 26 0
40 -6 19 -8 28 -8 40 2 20 17 19 27 -5 33 -19 5 -20 10 -14 55 6 44 4 51 -14
61 -29 16 -37 14 -71 -15z m48 -28 c8 -9 8 -21 1 -40 -11 -29 -31 -34 -50 -11
-10 12 -9 20 4 40 19 28 29 31 45 11z"/>
    <path d="M1907 1068 c-15 -187 -3 -335 18 -238 10 45 25 47 57 9 23 -28 30
-31 38 -19 6 10 2 24 -16 47 -29 38 -30 45 -4 68 21 19 27 45 11 45 -5 0 -24
-18 -41 -40 -17 -22 -36 -37 -42 -34 -7 5 -8 47 -3 125 8 136 -8 168 -18 37z"/>
    <path d="M1527 1104 c-3 -3 -1 -18 4 -32 5 -14 8 -37 5 -51 -5 -23 -10 -216
-7 -248 3 -30 21 -10 21 22 0 41 26 99 40 90 6 -4 10 -28 10 -56 0 -37 4 -49
15 -49 12 0 15 13 15 59 0 33 -3 66 -6 75 -7 18 -39 22 -49 6 -16 -27 -23 9
-18 95 5 80 4 95 -9 95 -8 0 -17 -3 -21 -6z"/>
    <path d="M1456 978 c-3 -13 -9 -65 -12 -115 -7 -95 1 -123 32 -123 20 0 17 37
-2 44 -13 5 -15 14 -10 39 21 95 14 231 -8 155z"/>
    <path d="M1781 934 c-12 -15 -21 -39 -21 -55 0 -17 -7 -32 -19 -38 -26 -14
-31 -5 -31 51 0 35 -4 48 -15 48 -22 0 -39 -38 -25 -56 9 -9 10 -32 5 -70 -7
-62 -8 -62 53 -17 27 21 33 22 38 9 9 -24 48 -19 74 9 29 31 21 41 -18 21 -35
-18 -42 -13 -42 29 0 38 20 61 38 43 17 -17 36 4 27 31 -9 29 -39 26 -64 -5z"/>
    <path d="M4170 730 c-52 -4 -153 -8 -223 -9 -142 -1 -147 -3 -275 -85 -244
-157 -558 -249 -857 -250 -116 0 -176 5 -262 22 -176 35 -360 119 -469 215
-27 23 -36 26 -56 17 -12 -5 -89 -18 -170 -29 -87 -11 -157 -25 -171 -34 -23
-15 -24 -22 -31 -174 -3 -87 -9 -211 -13 -275 -5 -103 -4 -118 10 -118 17 0
19 20 36 344 7 125 14 183 23 191 11 11 229 39 255 34 4 -1 16 1 25 5 35 16
41 3 39 -87 -2 -73 0 -87 13 -87 16 0 19 15 20 109 1 43 15 48 58 18 101 -68
308 -149 438 -171 243 -41 502 -20 741 58 144 48 256 97 366 162 51 30 98 52
103 49 6 -3 10 -40 10 -81 0 -56 3 -75 13 -72 7 3 16 40 22 98 10 90 11 94 37
101 39 10 390 15 406 6 8 -6 12 -36 12 -95 0 -95 -16 -419 -26 -520 -5 -58 -4
-62 15 -62 20 0 21 5 21 143 0 78 7 238 15 356 7 118 12 218 9 223 -3 4 -13 7
-22 6 -9 -1 -60 -5 -112 -8z"/>
    <path d="M3900 596 c0 -10 9 -16 21 -16 24 0 21 23 -4 28 -10 2 -17 -3 -17
-12z"/>
    <path d="M3777 323 c-11 -10 -8 -151 3 -158 13 -8 17 6 25 93 5 58 3 72 -8 72
-7 0 -17 -3 -20 -7z"/>
    <path d="M2026 273 c-3 -3 -6 -47 -6 -96 0 -78 2 -88 15 -77 11 9 15 33 15 91
0 72 -8 98 -24 82z"/>
    <path d="M3884 249 c-10 -17 13 -36 27 -22 12 12 4 33 -11 33 -5 0 -12 -5 -16
-11z"/>
    <path d="M1947 243 c-13 -12 -7 -33 8 -33 8 0 15 9 15 20 0 20 -11 26 -23 13z"/>
  </g>
</svg>