<svg xmlns="http://www.w3.org/2000/svg" viewBox="0 0 576 3026" width="576" height="3026">
  <rect x="0" y="0" width="100%" height="100%" fill="#fffaf0"/>
  <g id="potrace-paths" transform="translate(0.000000,3026.000000) scale(0.100000,-0.100000)" fill="none" stroke="#2a2a2a" stroke-width="1.4" stroke-linejoin="round" stroke-linecap="round">
    <path d="M3720 29895 c-5 -14 -10 -32 -10 -39 0 -7 -11 -35 -25 -62 -14 -27
-25 -54 -25 -59 0 -13 -60 -156 -89 -213 -12 -23 -21 -51 -21 -63 0 -20 3 -21
69 -14 83 8 86 5 86 -90 0 -69 1 -70 27 -73 31 -4 33 2 42 106 3 35 8 68 12
73 3 5 21 9 40 9 41 0 43 23 3 28 -41 6 -47 18 -42 86 7 79 -5 88 -52 42 -29
-30 -35 -42 -35 -79 0 -23 -5 -48 -12 -55 -14 -14 -64 -16 -72 -3 -6 10 35 91
69 136 12 17 39 63 60 104 20 41 48 91 62 112 28 43 25 54 -14 62 -16 3 -36 9
-45 12 -13 5 -20 0 -28 -20z"/>
    <path d="M807 29144 c-3 -4 5 -20 19 -37 14 -16 23 -35 21 -41 -4 -12 -81 -13
-134 -1 -35 8 -44 -4 -18 -25 10 -9 13 -24 8 -56 -5 -40 -3 -46 26 -73 78 -73
128 -56 141 49 5 36 11 76 15 90 11 42 -53 119 -78 94z m18 -183 c0 -60 -65
-70 -73 -12 -6 39 5 53 40 49 30 -3 33 -6 33 -37z"/>
    <path d="M623 28822 c-30 -20 -32 -62 -42 -693 -6 -354 -13 -723 -16 -819 -3
-96 -8 -301 -10 -455 -3 -154 -10 -478 -16 -720 -6 -242 -13 -498 -14 -570 -3
-124 -19 -702 -30 -1060 -3 -93 -10 -386 -15 -650 -5 -264 -12 -559 -15 -655
-3 -96 -10 -438 -15 -760 -12 -700 -37 -1896 -45 -2140 -3 -96 -10 -427 -15
-735 -15 -880 -20 -1134 -30 -1520 -5 -198 -12 -495 -15 -660 -3 -165 -10
-475 -15 -690 -5 -214 -12 -541 -15 -725 -3 -184 -7 -389 -10 -455 -2 -66 -7
-248 -10 -405 -6 -301 -19 -810 -35 -1325 -6 -170 -10 -372 -10 -447 l0 -138
25 12 c24 11 25 14 26 112 1 173 9 450 14 465 4 10 8 11 20 1 16 -13 35 -6 35
15 0 20 -19 29 -34 16 -7 -6 -15 -9 -17 -7 -2 2 -1 141 3 308 4 166 14 600 23
963 8 363 22 964 30 1335 8 371 19 878 25 1125 5 248 12 590 15 760 3 171 10
495 15 720 5 226 12 586 15 800 4 215 8 431 10 480 2 50 6 225 10 390 3 165 8
383 10 485 3 102 7 318 10 480 3 162 7 381 10 485 3 105 7 343 10 530 3 187
10 480 15 650 6 171 15 549 20 840 6 292 15 665 20 830 18 594 33 1154 45
1775 6 325 14 661 20 815 3 72 7 299 10 505 6 411 14 670 20 681 5 7 127 5
555 -11 151 -6 356 -13 455 -15 749 -22 808 -24 817 -33 4 -4 4 -205 -1 -447
-5 -241 -7 -445 -4 -452 7 -19 30 -16 38 5 9 20 10 40 20 522 4 201 9 368 12
372 2 5 136 6 296 3 428 -8 548 -13 565 -27 13 -11 14 -70 8 -444 -7 -418 -5
-465 22 -431 10 13 22 378 23 682 0 112 4 184 11 192 8 10 115 12 537 7 289
-3 686 -6 881 -7 195 -1 361 -6 369 -11 11 -7 12 -83 6 -452 -6 -393 -5 -444
9 -444 8 0 17 4 20 9 3 4 8 140 11 302 7 399 15 578 26 585 5 3 102 5 214 4
l205 -1 0 31 0 30 -227 0 c-126 0 -451 1 -723 1 -272 0 -684 5 -915 10 -231 4
-431 8 -445 8 -328 0 -669 5 -1060 16 -654 20 -1434 43 -1606 49 -77 2 -145 1
-151 -2z"/>
    <path d="M4430 28408 c0 -1 7 -25 15 -51 13 -44 13 -52 -1 -79 -14 -27 -19
-30 -51 -25 -38 7 -83 32 -83 47 0 5 14 16 30 25 17 9 30 23 30 35 0 47 -65
34 -87 -17 -22 -54 -10 -88 43 -112 66 -31 116 -28 148 10 33 38 34 85 4 129
-19 28 -48 51 -48 38z"/>
    <path d="M1552 28380 c-12 -12 -22 -29 -22 -40 0 -26 -35 -43 -74 -37 -17 3
-40 7 -51 9 -16 2 -21 -3 -23 -29 -2 -24 1 -33 12 -33 8 0 18 5 22 11 5 9 42
10 133 4 124 -8 201 -8 209 0 8 8 -34 58 -81 95 -56 45 -92 51 -125 20z m123
-72 c0 -21 -76 -17 -89 5 -9 15 -7 21 8 32 17 13 23 12 50 -5 17 -10 31 -25
31 -32z"/>
    <path d="M3025 28383 c23 -55 -8 -66 -164 -57 -95 6 -113 5 -109 -7 3 -9 26
-16 60 -20 30 -3 60 -9 65 -12 6 -4 16 -26 22 -51 15 -61 80 -97 138 -75 26
10 43 62 32 101 -5 17 -2 33 7 45 19 25 17 57 -4 76 -26 23 -56 23 -47 0z m-5
-123 c26 -26 12 -60 -25 -60 -40 0 -80 51 -58 73 14 14 64 6 83 -13z"/>
    <path d="M5625 28347 c-25 -21 -26 -25 -16 -65 13 -46 39 -65 104 -77 36 -7
37 -6 37 22 0 16 -3 33 -7 37 -4 4 -8 23 -9 43 -2 62 -59 83 -109 40z m73 -51
c5 -40 -12 -54 -38 -31 -33 30 -25 69 15 63 14 -2 21 -12 23 -32z"/>
    <path d="M2641 27868 c-6 -16 -17 -28 -25 -28 -9 0 -20 -9 -26 -20 -9 -17 -8
-20 8 -20 10 0 29 -11 42 -25 24 -25 24 -25 32 -5 6 16 16 20 48 20 33 0 40 3
40 19 0 20 -18 31 -50 31 -10 0 -27 12 -38 28 l-21 27 -10 -27z"/>
    <path d="M2981 27858 c-7 -19 -19 -28 -38 -30 -39 -4 -43 -35 -6 -44 15 -4 35
-16 44 -27 l17 -20 11 21 c6 11 24 23 41 27 35 8 40 31 8 40 -13 4 -33 18 -45
33 l-22 26 -10 -26z"/>
    <path d="M3222 27846 c-7 -16 -21 -26 -39 -28 -40 -4 -37 -32 5 -36 25 -3 35
-10 43 -30 l10 -27 21 28 c11 15 28 27 39 27 34 0 20 28 -23 47 -16 7 -28 19
-28 28 0 23 -15 18 -28 -9z"/>
    <path d="M5414 27852 c-7 -4 -13 -16 -15 -27 -3 -11 -14 -21 -26 -23 -46 -7
-55 -52 -9 -52 27 0 46 -18 46 -44 0 -24 16 -10 22 18 2 12 15 23 36 28 39 10
44 38 7 38 -16 0 -28 7 -31 18 -14 42 -20 51 -30 44z"/>
    <path d="M5708 27833 c-2 -22 -9 -29 -33 -33 -39 -7 -44 -45 -5 -45 30 0 52
-13 45 -26 -9 -13 9 -11 23 3 17 17 15 63 -3 98 -19 37 -23 37 -27 3z"/>
    <path d="M2475 27660 c-6 -20 2 -96 12 -113 3 -4 11 -3 19 4 9 7 14 32 14 70
0 52 -2 59 -19 59 -11 0 -23 -9 -26 -20z"/>
    <path d="M3404 27617 c-3 -8 -3 -56 -2 -107 3 -97 15 -121 36 -75 13 27 16
152 6 179 -7 19 -33 21 -40 3z"/>
    <path d="M5256 27534 c-11 -29 -7 -212 6 -220 24 -15 38 29 38 117 0 95 -5
119 -25 119 -7 0 -16 -7 -19 -16z"/>
    <path d="M2468 27413 c-9 -35 -8 -178 1 -192 14 -22 41 -5 42 26 6 165 5 178
-17 181 -14 2 -23 -3 -26 -15z"/>
    <path d="M1529 27368 c-1 -132 -8 -199 -20 -214 -12 -14 -31 -15 -145 -9 -145
8 -174 3 -174 -26 0 -18 8 -19 133 -20 72 0 141 -2 152 -4 37 -7 45 -33 45
-146 0 -109 7 -132 35 -109 11 9 15 37 15 109 0 89 2 99 23 119 22 20 33 22
161 22 137 0 137 0 134 23 -3 21 -6 22 -148 25 -83 1 -149 7 -155 13 -6 6 -10
64 -10 137 0 124 -1 127 -22 130 -21 3 -23 -1 -24 -50z"/>
    <path d="M4352 27318 c-8 -8 -12 -45 -12 -104 0 -63 -4 -95 -13 -102 -7 -6
-69 -14 -138 -18 -68 -3 -126 -8 -128 -10 -2 -2 -1 -10 2 -19 5 -12 27 -15
120 -15 106 0 115 -2 135 -23 20 -21 22 -34 22 -124 0 -108 5 -133 25 -133 19
0 25 34 25 136 0 134 2 135 162 135 110 -1 127 1 133 16 13 36 -22 45 -140 38
-143 -9 -148 -5 -155 133 -5 94 -14 114 -38 90z"/>
    <path d="M3405 27258 c-2 -7 -6 -61 -8 -119 -5 -112 2 -144 25 -121 9 9 14 52
16 132 3 105 2 120 -12 120 -9 0 -18 -6 -21 -12z"/>
    <path d="M5252 27088 c-14 -14 -17 -235 -3 -257 19 -29 29 4 36 113 9 139 0
177 -33 144z"/>
    <path d="M3397 26923 c-4 -3 -7 -62 -7 -130 0 -116 1 -123 20 -123 19 0 20 7
20 130 0 102 -3 130 -13 130 -8 0 -17 -3 -20 -7z"/>
    <path d="M2465 26900 c-11 -17 -15 -289 -5 -315 13 -34 40 -33 41 3 11 308 10
322 -16 322 -7 0 -17 -5 -20 -10z"/>
    <path d="M5245 26688 c-3 -13 -4 -79 -3 -148 2 -103 6 -125 18 -125 12 0 16
17 20 75 8 112 0 220 -16 220 -8 0 -16 -10 -19 -22z"/>
    <path d="M3386 26528 c-2 -24 -4 -70 -3 -103 2 -47 6 -60 19 -63 22 -4 30 39
26 133 -2 56 -6 70 -20 73 -13 2 -18 -6 -22 -40z"/>
    <path d="M2447 26382 c-3 -4 -3 -73 0 -155 5 -112 9 -147 19 -147 7 0 18 9 24
19 14 27 13 234 -2 266 -11 24 -32 33 -41 17z"/>
    <path d="M5237 26183 c-12 -11 -8 -241 3 -248 6 -4 17 -1 25 5 11 10 15 37 15
115 0 57 -3 110 -6 119 -6 16 -26 21 -37 9z"/>
    <path d="M3393 26113 c-17 -6 -18 -239 -2 -248 20 -13 24 7 27 122 4 113 -1
135 -25 126z"/>
    <path d="M2445 25798 c-9 -30 -14 -284 -6 -297 14 -22 37 -6 45 29 8 41 8 243
0 264 -7 19 -33 21 -39 4z"/>
    <path d="M5237 25764 c-4 -4 -7 -59 -7 -121 0 -104 2 -114 18 -111 15 3 17 17
17 117 0 107 -7 136 -28 115z"/>
    <path d="M3377 25714 c-4 -4 -7 -77 -7 -161 0 -142 1 -154 18 -151 15 3 17 19
17 157 0 145 -6 177 -28 155z"/>
    <path d="M5227 25373 c-4 -3 -7 -71 -7 -150 0 -122 2 -145 16 -150 9 -3 20 0
25 8 10 16 12 259 3 283 -6 16 -26 21 -37 9z"/>
    <path d="M2430 25254 c-6 -14 -10 -95 -10 -180 0 -130 2 -156 15 -161 9 -3 19
-2 23 2 11 11 19 338 9 353 -14 19 -27 14 -37 -14z"/>
    <path d="M3367 25264 c-12 -12 -8 -292 4 -300 22 -13 27 14 31 156 2 124 1
145 -13 148 -8 1 -18 0 -22 -4z"/>
    <path d="M5214 24827 c-2 -7 -3 -67 -2 -133 2 -98 6 -119 18 -119 12 0 16 23
20 123 3 67 4 127 2 132 -5 15 -32 12 -38 -3z"/>
    <path d="M3350 24606 c0 -113 2 -136 15 -136 21 0 26 32 23 155 -3 95 -5 110
-20 113 -16 3 -18 -8 -18 -132z"/>
    <path d="M2422 24668 c-8 -8 -12 -61 -12 -164 0 -156 8 -188 37 -149 19 26 19
298 0 314 -10 8 -17 7 -25 -1z"/>
    <path d="M730 24580 c-9 -16 -21 -20 -66 -20 -54 0 -55 -1 -53 -27 1 -16 -1
-38 -5 -51 -11 -33 1 -69 27 -84 30 -16 79 -11 95 9 15 21 16 85 0 101 -9 9
-7 16 10 32 22 21 30 60 12 60 -5 0 -14 -9 -20 -20z m-30 -105 c10 -12 10 -18
0 -30 -25 -30 -61 -7 -46 30 3 8 12 15 19 15 8 0 20 -7 27 -15z"/>
    <path d="M5212 24358 c-14 -14 -17 -244 -3 -253 5 -3 17 2 26 11 13 14 16 35
13 121 -2 109 -13 144 -36 121z"/>
    <path d="M3346 24255 c-9 -24 -7 -248 3 -263 6 -10 10 -10 20 1 16 20 11 269
-5 274 -6 2 -14 -3 -18 -12z"/>
    <path d="M2412 24128 c-16 -16 -17 -334 -1 -344 27 -17 34 19 34 183 0 164 -5
189 -33 161z"/>
    <path d="M5212 23858 c-8 -8 -12 -55 -12 -144 0 -107 3 -133 15 -137 8 -4 16
-3 19 1 4 6 9 237 7 280 -1 15 -13 16 -29 0z"/>
    <path d="M3342 23748 c-13 -13 -17 -279 -5 -291 3 -4 12 -2 20 4 10 9 13 46
13 150 0 135 -5 160 -28 137z"/>
    <path d="M2397 23543 c-3 -10 -8 -97 -12 -193 -5 -137 -3 -179 7 -192 9 -13
17 -15 28 -8 12 8 15 43 15 207 0 176 -2 198 -17 201 -9 2 -18 -5 -21 -15z"/>
    <path d="M5200 23383 c-4 -203 -2 -238 11 -238 17 0 27 61 28 173 1 76 -1 82
-19 82 -12 0 -20 -7 -20 -17z"/>
    <path d="M1454 23379 c-3 -6 -9 -59 -11 -117 -5 -97 -8 -109 -31 -134 -25 -27
-29 -28 -131 -28 -111 0 -138 -7 -128 -34 5 -13 25 -16 109 -18 57 0 112 0
122 1 11 1 27 -6 38 -16 16 -14 18 -27 13 -102 -6 -90 1 -118 29 -108 13 5 16
23 16 98 0 120 8 130 94 122 66 -6 93 8 80 41 -5 12 -20 16 -70 16 -89 0 -96
13 -93 158 1 59 -1 114 -5 120 -9 15 -23 15 -32 1z"/>
    <path d="M4277 23354 c-4 -4 -7 -50 -7 -101 0 -75 -4 -102 -20 -134 l-21 -40
-98 2 c-106 2 -121 -2 -121 -32 0 -18 8 -19 119 -19 85 0 122 -4 128 -12 4 -7
8 -65 8 -128 0 -97 2 -115 16 -118 21 -4 29 35 29 147 0 54 5 92 12 99 8 8 50
12 125 12 l113 0 0 25 c0 24 -3 25 -57 27 -32 1 -73 1 -92 0 -38 -2 -64 16
-88 62 -11 21 -14 53 -11 120 2 76 0 91 -12 94 -9 1 -19 0 -23 -4z"/>
    <path d="M3320 23061 c0 -92 4 -142 11 -147 22 -13 29 23 29 154 0 125 -1 132
-20 132 -19 0 -20 -7 -20 -139z"/>
    <path d="M2387 22993 c-2 -4 -8 -81 -12 -171 -6 -145 -5 -163 10 -168 9 -4 20
-3 25 2 5 5 10 83 12 174 3 147 1 165 -14 168 -9 2 -18 -1 -21 -5z"/>
    <path d="M5197 22923 c-12 -12 -8 -341 4 -349 23 -14 29 25 29 189 0 132 -3
167 -13 167 -8 0 -17 -3 -20 -7z"/>
    <path d="M3316 22745 c-11 -29 -7 -243 5 -251 22 -13 27 13 30 136 3 108 1
125 -12 128 -9 2 -19 -4 -23 -13z"/>
    <path d="M2377 22473 c-4 -3 -7 -71 -7 -150 0 -122 2 -145 16 -150 9 -3 20 0
24 7 6 10 7 259 1 293 -1 9 -25 9 -34 0z"/>
    <path d="M5180 22229 c0 -114 3 -150 12 -147 20 7 26 46 27 176 1 116 0 122
-19 122 -19 0 -20 -7 -20 -151z"/>
    <path d="M3310 22230 c0 -104 3 -130 14 -130 21 0 26 23 26 130 0 107 -5 130
-26 130 -11 0 -14 -26 -14 -130z"/>
    <path d="M2366 21955 c-3 -9 -6 -46 -6 -81 0 -49 4 -66 15 -71 25 -9 30 4 30
85 0 63 -3 77 -16 80 -9 2 -19 -4 -23 -13z"/>
    <path d="M5175 21848 c-3 -8 -4 -66 -3 -129 2 -93 6 -114 18 -114 13 0 15 20
15 124 0 91 -3 125 -12 128 -7 3 -15 -2 -18 -9z"/>
    <path d="M3304 21827 c-2 -7 -3 -62 -2 -123 2 -89 6 -109 18 -109 12 0 15 22
18 123 2 105 0 122 -13 122 -9 0 -18 -6 -21 -13z"/>
    <path d="M2356 21494 c-3 -9 -6 -60 -6 -115 0 -82 3 -101 16 -106 27 -10 34
17 34 130 0 98 -2 107 -19 107 -10 0 -22 -7 -25 -16z"/>
    <path d="M3298 21388 c-9 -45 -2 -218 9 -229 6 -6 13 -7 16 -2 9 15 19 210 12
232 -9 28 -32 27 -37 -1z"/>
    <path d="M5166 21273 c-8 -53 -7 -196 2 -210 19 -30 30 8 33 122 4 104 2 120
-12 123 -12 2 -18 -7 -23 -35z"/>
    <path d="M2352 21018 c-8 -8 -12 -57 -12 -160 l0 -148 24 0 c24 0 25 3 28 83
4 110 -5 230 -17 234 -6 2 -16 -2 -23 -9z"/>
    <path d="M3296 20843 c-4 -16 -10 -207 -7 -240 2 -22 30 -14 36 10 10 41 1
240 -12 244 -6 2 -14 -4 -17 -14z"/>
    <path d="M5167 20783 c-11 -18 -11 -293 0 -304 8 -8 14 -5 22 10 16 28 10 293
-6 298 -6 2 -13 0 -16 -4z"/>
    <path d="M2337 20408 c-5 -116 -3 -146 9 -158 25 -26 32 2 36 150 3 141 2 145
-18 148 -20 3 -21 -2 -27 -140z"/>
    <path d="M3287 20363 c-4 -3 -7 -78 -7 -165 0 -146 1 -159 18 -156 15 3 18 21
24 148 3 80 4 153 1 163 -4 17 -24 23 -36 10z"/>
    <path d="M5157 20183 c-12 -12 -8 -281 4 -289 22 -13 29 23 29 159 0 107 -3
137 -13 137 -8 0 -17 -3 -20 -7z"/>
    <path d="M2342 19998 c-13 -13 -17 -278 -4 -278 23 1 30 25 36 141 5 99 3 129
-7 137 -10 9 -17 8 -25 0z"/>
    <path d="M3277 19783 c-10 -9 -9 -283 1 -283 26 0 32 30 32 157 0 104 -3 133
-13 133 -8 0 -17 -3 -20 -7z"/>
    <path d="M5151 19666 c-8 -9 -11 -59 -9 -157 3 -136 4 -144 23 -144 19 0 20 7
22 147 2 111 -1 149 -11 157 -10 8 -16 8 -25 -3z"/>
    <path d="M2327 19416 c-9 -22 -11 -301 -3 -314 3 -6 13 -9 20 -6 10 4 15 41
18 144 3 77 3 151 0 165 -5 27 -27 34 -35 11z"/>
    <path d="M3267 19324 c-10 -11 -8 -304 2 -304 21 0 27 34 26 164 0 130 -6 161
-28 140z"/>
    <path d="M5143 19129 c-10 -28 -9 -236 0 -245 3 -4 13 -4 22 -1 22 9 22 238 0
257 -12 10 -16 8 -22 -11z"/>
    <path d="M3256 18839 c-2 -8 -7 -80 -11 -161 -5 -140 -5 -148 13 -148 17 0 20
11 26 92 10 147 8 204 -9 218 -12 10 -16 10 -19 -1z"/>
    <path d="M2316 18822 c-7 -12 -10 -281 -3 -289 4 -3 13 -3 22 0 11 5 15 22 15
69 0 35 3 100 7 146 6 79 5 82 -15 82 -11 0 -23 -4 -26 -8z"/>
    <path d="M5130 18556 c0 -124 2 -146 15 -146 29 0 37 49 28 170 -7 97 -11 115
-25 118 -17 3 -18 -9 -18 -142z"/>
    <path d="M3244 18309 c-9 -15 -13 -174 -6 -246 5 -56 27 -73 37 -30 11 42 1
280 -12 284 -6 2 -15 -1 -19 -8z"/>
    <path d="M4195 18183 c-10 -177 -5 -173 -187 -173 -117 0 -140 -2 -145 -16
-12 -32 13 -38 155 -35 173 3 170 6 174 -134 3 -92 5 -100 23 -100 18 0 20 8
23 101 4 135 5 136 149 136 144 -1 163 3 163 34 l0 25 -136 -2 c-177 -1 -169
-8 -169 159 0 122 -1 127 -21 130 -21 3 -22 -2 -29 -125z"/>
    <path d="M2311 18287 c-8 -10 -11 -50 -9 -123 3 -90 6 -109 19 -112 14 -2 17
14 23 109 5 89 4 116 -7 126 -12 12 -16 12 -26 0z"/>
    <path d="M1365 18257 c-2 -6 -6 -61 -9 -121 -7 -149 -6 -147 -166 -147 -115 0
-160 -8 -160 -28 0 -17 90 -31 193 -31 80 0 107 -3 117 -15 9 -10 11 -46 9
-116 -4 -107 3 -126 35 -94 12 13 16 36 16 100 0 123 8 130 144 130 108 0 134
9 123 39 -5 13 -26 16 -115 16 -74 0 -114 4 -126 13 -16 12 -20 33 -24 135 -3
91 -8 122 -19 126 -7 3 -16 0 -18 -7z"/>
    <path d="M5125 18200 c-9 -14 -16 -246 -9 -297 6 -42 29 -60 39 -30 7 21 15
290 9 314 -6 24 -28 31 -39 13z"/>
    <path d="M3237 17823 c-4 -3 -7 -71 -7 -150 0 -132 1 -144 18 -141 15 3 18 19
22 128 3 69 4 135 2 148 -3 21 -21 29 -35 15z"/>
    <path d="M2297 17773 c-4 -3 -7 -69 -7 -145 0 -129 1 -138 19 -138 28 0 31 18
31 161 0 118 -2 129 -18 129 -10 0 -22 -3 -25 -7z"/>
    <path d="M5116 17634 c-9 -24 -7 -302 2 -308 23 -14 30 17 32 139 1 72 2 140
1 151 -1 26 -27 39 -35 18z"/>
    <path d="M1334 17495 c-7 -18 3 -35 21 -35 15 0 28 27 19 41 -8 14 -34 11 -40
-6z"/>
    <path d="M1450 17485 c0 -15 6 -25 14 -25 22 0 30 19 16 35 -18 22 -30 18 -30
-10z"/>
    <path d="M1210 17480 c0 -13 7 -20 20 -20 13 0 20 7 20 20 0 13 -7 20 -20 20
-13 0 -20 -7 -20 -20z"/>
    <path d="M1120 17470 c0 -13 7 -20 20 -20 13 0 20 7 20 20 0 13 -7 20 -20 20
-13 0 -20 -7 -20 -20z"/>
    <path d="M1574 17478 c-9 -14 23 -38 42 -31 8 3 14 14 14 24 0 22 -44 27 -56
7z"/>
    <path d="M1023 17464 c-8 -21 13 -42 28 -27 13 13 5 43 -11 43 -6 0 -13 -7
-17 -16z"/>
    <path d="M1722 17458 c-18 -18 5 -38 44 -38 23 0 34 5 34 14 0 17 -5 21 -41
29 -14 4 -31 1 -37 -5z"/>
    <path d="M922 17438 c2 -12 10 -23 18 -23 22 0 19 39 -3 43 -15 3 -18 -1 -15
-20z"/>
    <path d="M827 17423 c-4 -3 -7 -12 -7 -20 0 -15 26 -18 34 -4 7 11 -18 33 -27
24z"/>
    <path d="M1850 17417 c0 -21 25 -38 44 -31 26 10 15 39 -17 42 -18 2 -27 -1
-27 -11z"/>
    <path d="M1944 17389 c-9 -14 24 -41 46 -37 8 2 15 12 15 23 0 23 -48 34 -61
14z"/>
    <path d="M720 17369 c0 -24 23 -21 28 4 2 10 -3 17 -12 17 -10 0 -16 -9 -16
-21z"/>
    <path d="M2051 17361 c-19 -12 -6 -41 19 -41 25 0 38 29 19 41 -8 5 -16 9 -19
9 -3 0 -11 -4 -19 -9z"/>
    <path d="M630 17340 c0 -11 7 -20 15 -20 8 0 15 9 15 20 0 11 -7 20 -15 20 -8
0 -15 -9 -15 -20z"/>
    <path d="M530 17299 c0 -14 5 -19 17 -17 26 5 29 38 4 38 -15 0 -21 -6 -21
-21z"/>
    <path d="M2130 17307 c0 -18 21 -37 41 -37 24 0 33 18 19 35 -15 19 -60 20
-60 2z"/>
    <path d="M3224 17287 c-2 -7 -3 -76 -2 -152 3 -117 6 -140 18 -140 13 0 15 25
18 153 2 132 0 152 -13 152 -9 0 -18 -6 -21 -13z"/>
    <path d="M1632 17264 c-24 -16 -29 -39 -12 -49 6 -4 17 -2 24 4 7 6 16 8 19 4
13 -13 6 -33 -23 -66 -16 -19 -30 -38 -30 -42 0 -16 60 -65 80 -65 27 0 70 43
70 70 0 25 -8 25 -36 -1 -41 -38 -57 -6 -27 55 13 28 14 41 5 60 -16 37 -44
48 -70 30z"/>
    <path d="M2226 17265 c-3 -9 6 -26 24 -42 30 -26 30 -27 30 -140 0 -105 1
-113 20 -113 25 0 32 37 28 165 l-3 99 -40 23 c-48 27 -51 27 -59 8z"/>
    <path d="M444 17259 c-3 -6 -1 -16 4 -21 13 -13 45 8 36 23 -7 12 -31 11 -40
-2z"/>
    <path d="M1458 17260 c-27 -17 -60 -78 -53 -100 10 -32 42 -44 70 -26 15 10
26 12 30 6 11 -18 -5 -69 -31 -100 -21 -24 -30 -28 -55 -23 -22 4 -29 2 -29
-10 0 -9 9 -21 21 -27 28 -16 78 15 106 66 28 49 31 134 5 184 -18 37 -37 46
-64 30z m30 -47 c2 -11 -4 -25 -12 -32 -21 -18 -47 -7 -39 16 16 45 45 55 51
16z"/>
    <path d="M1175 17251 c-3 -6 4 -15 15 -21 27 -14 26 -55 -2 -74 -49 -35 -81
-9 -60 47 15 40 6 48 -19 18 -25 -31 -25 -85 1 -111 21 -21 60 -26 89 -10 13
6 24 5 37 -5 23 -18 56 -19 72 -3 20 20 14 36 -15 40 -24 3 -28 8 -31 40 -2
20 2 47 8 58 15 28 6 36 -24 21 -18 -10 -29 -10 -44 -2 -13 7 -23 7 -27 2z"/>
    <path d="M5106 17095 c-3 -9 -6 -88 -6 -176 0 -135 2 -161 15 -166 9 -3 19 -2
23 1 4 4 7 85 7 179 0 150 -2 172 -16 175 -9 2 -19 -4 -23 -13z"/>
    <path d="M3214 16807 c-2 -7 -3 -82 -2 -167 3 -130 5 -155 18 -155 12 0 16 26
20 158 3 86 4 162 2 167 -5 14 -32 12 -38 -3z"/>
    <path d="M2282 16768 c-6 -8 -10 -69 -9 -153 2 -133 3 -140 22 -140 19 0 20 9
26 135 4 74 5 143 2 153 -5 20 -26 22 -41 5z"/>
    <path d="M5099 16474 c-14 -39 -7 -213 9 -227 24 -19 31 13 31 136 0 96 -3
117 -15 117 -8 0 -19 -12 -25 -26z"/>
    <path d="M3206 16278 c-3 -13 -6 -85 -6 -161 0 -115 3 -139 15 -144 9 -3 18
-3 21 0 3 2 6 76 7 163 2 139 0 159 -14 162 -10 2 -19 -6 -23 -20z"/>
    <path d="M2271 16271 c-14 -25 -14 -261 -1 -281 9 -13 12 -12 25 5 13 16 15
46 13 154 -3 135 -13 168 -37 122z"/>
    <path d="M5097 16003 c-4 -3 -7 -66 -7 -139 0 -135 9 -167 36 -130 13 18 12
244 -1 266 -7 12 -19 13 -28 3z"/>
    <path d="M4170 15908 c0 -2 -3 -63 -5 -137 -4 -101 -9 -139 -21 -152 -12 -13
-44 -18 -174 -24 -167 -7 -197 -16 -165 -49 12 -11 30 -14 78 -11 184 13 254
14 265 3 8 -8 12 -60 12 -154 0 -79 4 -145 9 -148 5 -4 16 -3 25 0 14 5 16 28
16 148 0 97 4 146 12 154 8 8 58 12 158 12 152 0 172 5 162 42 -5 19 -11 20
-153 16 -81 -2 -155 -1 -163 4 -12 7 -13 31 -9 138 6 133 0 160 -33 160 -8 0
-14 -1 -14 -2z"/>
    <path d="M3204 15817 c-2 -7 -3 -78 -2 -157 3 -121 5 -145 18 -145 13 0 15 25
18 158 2 137 0 157 -13 157 -9 0 -18 -6 -21 -13z"/>
    <path d="M4345 15795 c-35 -34 -35 -91 -1 -106 49 -23 122 62 96 110 -15 30
-64 28 -95 -4z"/>
    <path d="M3937 15782 c-21 -23 -21 -35 -2 -72 12 -24 22 -30 48 -30 44 1 67
21 67 58 0 54 -77 84 -113 44z"/>
    <path d="M2256 15752 c-4 -7 -9 -242 -6 -324 0 -11 8 -18 20 -18 22 0 21 -10
25 215 2 55 1 108 -2 118 -4 18 -28 23 -37 9z"/>
    <path d="M1296 15574 c-18 -18 -20 -33 -7 -67 14 -37 50 -45 73 -17 27 34 24
78 -8 90 -34 13 -40 13 -58 -6z"/>
    <path d="M5088 15428 c-3 -133 3 -168 28 -147 12 9 14 37 12 138 -3 109 -5
126 -20 129 -15 3 -17 -11 -20 -120z"/>
    <path d="M4348 15433 c-26 -30 -28 -39 -17 -76 18 -66 88 -57 129 16 13 24 13
28 -9 51 -29 31 -80 35 -103 9z"/>
    <path d="M3946 15414 c-23 -34 -17 -65 17 -84 24 -13 30 -13 55 0 35 20 41 61
13 89 -29 29 -65 27 -85 -5z"/>
    <path d="M3202 15368 c-8 -8 -12 -58 -12 -160 0 -122 3 -148 14 -148 25 0 28
17 28 162 0 139 -7 169 -30 146z"/>
    <path d="M2246 15204 c-3 -9 -6 -69 -6 -135 0 -109 2 -119 18 -119 17 0 20 12
25 120 3 67 4 127 0 135 -7 20 -29 19 -37 -1z"/>
    <path d="M5087 14983 c-10 -10 -8 -286 2 -302 19 -29 28 3 35 114 9 158 -4
222 -37 188z"/>
    <path d="M3185 14818 c-3 -46 -5 -112 -3 -148 3 -57 5 -65 23 -65 19 0 20 7
20 145 0 127 -2 145 -17 148 -13 3 -17 -10 -23 -80z"/>
    <path d="M2235 14550 c-10 -17 -18 -145 -11 -184 6 -33 27 -48 39 -28 3 4 8
55 12 115 7 104 7 107 -13 107 -12 0 -24 -4 -27 -10z"/>
    <path d="M5087 14484 c-12 -12 -8 -232 4 -240 22 -13 29 22 27 130 -3 101 -11
130 -31 110z"/>
    <path d="M3179 14308 c-2 -191 1 -209 27 -174 10 15 14 54 14 158 0 131 -1
138 -20 138 -19 0 -20 -7 -21 -122z"/>
    <path d="M1065 13956 c-19 -14 -19 -15 -1 -35 17 -19 18 -27 6 -114 -13 -99
-6 -137 25 -137 22 0 93 52 101 73 10 31 -16 77 -52 92 -30 12 -34 19 -34 50
0 28 5 38 20 42 24 6 26 28 4 37 -25 10 -49 7 -69 -8z m93 -182 c4 -25 -22
-49 -43 -40 -31 12 -9 70 25 64 8 -2 16 -13 18 -24z"/>
    <path d="M2227 13963 c-4 -3 -7 -18 -7 -33 0 -14 -8 -42 -19 -63 -16 -31 -17
-39 -5 -54 7 -10 14 -31 14 -48 0 -38 14 -60 32 -52 19 7 33 208 18 238 -11
20 -22 24 -33 12z"/>
    <path d="M5080 13925 c-5 -14 -10 -82 -10 -150 0 -101 3 -124 15 -129 26 -10
36 39 33 172 -2 89 -7 127 -15 129 -7 3 -17 -7 -23 -22z"/>
    <path d="M3167 13758 c-3 -79 -2 -147 3 -152 6 -5 15 -4 25 4 23 19 18 283 -6
288 -14 2 -17 -16 -22 -140z"/>
    <path d="M1327 13851 c-9 -16 -17 -45 -17 -65 0 -30 5 -38 25 -46 14 -5 25
-13 25 -18 0 -14 -23 -32 -42 -32 -21 0 -25 -35 -5 -43 21 -8 57 11 66 35 5
13 14 57 20 98 11 67 10 76 -6 87 -27 20 -47 15 -66 -16z m30 -48 c-14 -14
-19 -15 -29 -4 -11 10 -9 15 6 27 27 20 47 0 23 -23z"/>
    <path d="M1476 13867 c-21 -16 -14 -62 9 -53 7 2 16 2 19 -1 8 -8 -26 -63 -46
-74 -28 -15 -21 -45 16 -68 57 -36 114 -20 131 37 8 27 -10 29 -44 6 -36 -26
-48 -5 -27 50 10 25 16 60 14 78 -2 27 -8 34 -28 36 -14 2 -33 -3 -44 -11z"/>
    <path d="M2116 13804 c-13 -12 -14 -20 -6 -28 13 -13 45 4 45 24 0 21 -21 23
-39 4z"/>
    <path d="M420 13760 c0 -24 26 -38 42 -22 8 8 8 15 -2 27 -18 21 -40 19 -40
-5z"/>
    <path d="M1987 13743 c-17 -17 -6 -34 20 -31 36 4 45 38 10 38 -13 0 -27 -3
-30 -7z"/>
    <path d="M497 13734 c-11 -12 13 -44 33 -44 25 0 35 17 20 35 -13 15 -42 20
-53 9z"/>
    <path d="M1873 13697 c-13 -5 -23 -19 -23 -29 0 -26 53 -21 58 6 5 26 -9 36
-35 23z"/>
    <path d="M594 13689 c-3 -6 0 -17 7 -25 18 -17 44 -2 36 20 -7 18 -33 21 -43
5z"/>
    <path d="M700 13645 c0 -15 6 -25 14 -25 19 0 28 14 20 34 -10 25 -34 19 -34
-9z"/>
    <path d="M1744 13645 c-7 -17 4 -37 17 -30 12 8 12 45 -1 45 -6 0 -13 -7 -16
-15z"/>
    <path d="M780 13620 c0 -13 7 -20 20 -20 13 0 20 7 20 20 0 13 -7 20 -20 20
-13 0 -20 -7 -20 -20z"/>
    <path d="M1620 13611 c0 -24 13 -33 34 -25 27 10 20 44 -9 44 -18 0 -25 -5
-25 -19z"/>
    <path d="M880 13600 c0 -13 7 -20 20 -20 13 0 20 7 20 20 0 13 -7 20 -20 20
-13 0 -20 -7 -20 -20z"/>
    <path d="M1504 13595 c-4 -9 -2 -21 4 -27 15 -15 44 -1 40 19 -4 23 -36 29
-44 8z"/>
    <path d="M990 13580 c0 -13 7 -20 20 -20 13 0 20 7 20 20 0 13 -7 20 -20 20
-13 0 -20 -7 -20 -20z"/>
    <path d="M1112 13573 c4 -22 43 -25 43 -3 0 8 -11 16 -23 18 -19 3 -23 0 -20
-15z"/>
    <path d="M1231 13580 c-17 -10 -7 -40 13 -40 7 0 16 6 19 14 8 19 -15 37 -32
26z"/>
    <path d="M1367 13583 c-14 -13 -6 -33 13 -33 13 0 20 7 20 20 0 19 -20 27 -33
13z"/>
    <path d="M5075 13408 c-3 -8 -4 -86 -3 -173 3 -134 5 -160 18 -160 13 0 15 25
15 169 0 127 -3 170 -12 173 -7 3 -15 -2 -18 -9z"/>
    <path d="M3158 13238 c-3 -195 -1 -211 27 -188 12 10 15 40 15 161 0 142 -1
149 -20 149 -19 0 -20 -7 -22 -122z"/>
    <path d="M2212 13328 c-8 -8 -12 -52 -12 -135 0 -104 3 -125 16 -130 28 -10
34 19 32 146 -3 123 -10 145 -36 119z"/>
    <path d="M244 13179 c-3 -5 -4 -41 -4 -81 1 -40 -3 -215 -9 -388 -6 -173 -15
-515 -21 -760 -6 -245 -12 -463 -15 -485 -2 -22 -7 -159 -10 -305 -13 -590
-53 -2036 -60 -2150 -3 -52 -10 -275 -15 -495 -5 -220 -14 -573 -19 -785 -6
-212 -15 -594 -21 -850 -6 -256 -15 -622 -20 -815 -5 -192 -12 -496 -16 -675
-3 -179 -8 -338 -11 -355 -6 -43 -16 -2741 -10 -2735 3 3 8 172 11 375 4 204
11 485 16 625 5 140 12 431 15 645 6 423 12 572 25 580 4 3 13 -2 20 -10 7 -8
19 -15 26 -15 26 0 14 29 -22 57 l-37 27 7 236 c3 129 9 348 12 485 3 138 9
405 14 595 5 190 9 421 10 514 0 93 2 172 4 175 2 3 7 164 10 356 4 193 8 388
11 435 3 47 7 229 10 405 3 176 7 376 10 445 3 69 10 292 15 495 6 204 15 519
20 700 5 182 12 440 15 575 3 135 7 290 10 345 6 106 15 428 40 1390 8 325 20
727 25 895 6 168 10 360 10 426 0 113 -1 122 -20 127 -11 3 -22 1 -26 -4z"/>
    <path d="M5066 12782 c-3 -5 -5 -64 -5 -131 0 -100 2 -123 15 -128 8 -3 17 -3
20 0 9 9 12 232 2 250 -9 18 -24 22 -32 9z"/>
    <path d="M3156 12743 c-3 -4 -6 -69 -6 -145 0 -127 2 -139 18 -136 15 3 17 19
20 139 2 111 0 138 -12 142 -8 3 -17 3 -20 0z"/>
    <path d="M2197 12683 c-4 -3 -7 -55 -7 -115 0 -89 3 -110 15 -115 9 -3 18 -3
22 0 3 4 8 46 10 94 6 106 -12 165 -40 136z"/>
    <path d="M5062 12103 c2 -88 6 -108 18 -108 12 0 16 20 18 108 3 102 2 107
-18 107 -20 0 -21 -5 -18 -107z"/>
    <path d="M3152 12158 c-14 -14 -17 -283 -4 -292 23 -14 30 17 34 144 6 162 2
180 -30 148z"/>
    <path d="M2186 12064 c-3 -9 -6 -76 -6 -151 0 -122 2 -134 17 -131 23 4 30 41
32 165 1 108 -3 133 -24 133 -7 0 -16 -7 -19 -16z"/>
    <path d="M2083 11984 c-3 -8 -1 -20 6 -27 14 -14 47 15 37 32 -10 16 -36 13
-43 -5z"/>
    <path d="M1734 11975 c-9 -23 14 -45 26 -25 5 8 8 19 7 24 -6 17 -27 18 -33 1z"/>
    <path d="M1845 11980 c-10 -16 4 -30 31 -30 17 0 24 5 24 20 0 15 -7 20 -24
20 -14 0 -28 -4 -31 -10z"/>
    <path d="M1964 11979 c-9 -15 12 -33 30 -26 9 4 16 13 16 22 0 17 -35 21 -46
4z"/>
    <path d="M1343 11964 c-8 -20 8 -36 26 -25 15 10 8 41 -9 41 -6 0 -13 -7 -17
-16z"/>
    <path d="M1467 11973 c-14 -13 -6 -33 12 -33 16 0 31 18 31 36 0 7 -36 5 -43
-3z"/>
    <path d="M1602 11963 c5 -26 38 -29 38 -4 0 15 -6 21 -21 21 -14 0 -19 -5 -17
-17z"/>
    <path d="M825 11960 c-8 -13 14 -42 26 -34 5 3 9 14 9 25 0 20 -24 26 -35 9z"/>
    <path d="M942 11953 c2 -10 10 -18 18 -18 8 0 16 8 18 18 2 12 -3 17 -18 17
-15 0 -20 -5 -18 -17z"/>
    <path d="M1077 11964 c-9 -9 4 -34 18 -34 14 0 27 25 18 34 -4 3 -12 6 -18 6
-6 0 -14 -3 -18 -6z"/>
    <path d="M1202 11953 c4 -20 18 -26 37 -14 18 12 5 31 -20 31 -14 0 -19 -6
-17 -17z"/>
    <path d="M453 11953 c-7 -2 -13 -14 -13 -25 0 -28 34 -19 38 10 3 22 -2 25
-25 15z"/>
    <path d="M570 11939 c0 -14 5 -19 17 -17 26 5 29 38 4 38 -15 0 -21 -6 -21
-21z"/>
    <path d="M692 11943 c2 -10 10 -18 18 -18 22 0 18 29 -3 33 -14 3 -18 -1 -15
-15z"/>
    <path d="M297 11936 c-7 -18 1 -26 25 -26 11 0 18 7 18 20 0 23 -35 28 -43 6z"/>
    <path d="M4127 11774 c-4 -4 -7 -52 -7 -107 0 -91 -2 -103 -24 -132 -25 -32
-25 -32 -141 -39 -65 -3 -124 -10 -132 -15 -31 -17 10 -26 122 -28 61 -1 118
-2 127 -2 35 -2 51 -58 44 -153 -6 -97 -2 -118 24 -118 15 0 18 14 22 125 3
83 9 130 18 140 11 14 31 16 106 13 98 -3 115 2 97 30 -8 14 -27 17 -101 17
-51 0 -96 5 -101 10 -6 6 -12 66 -13 135 -3 103 -6 125 -18 128 -9 1 -19 0
-23 -4z"/>
    <path d="M1706 11632 c-6 -9 -19 -181 -20 -267 -1 -37 1 -40 24 -37 52 5 113
71 113 122 0 36 -1 38 -50 55 -37 13 -38 14 -41 67 -3 53 -14 79 -26 60z m62
-184 c4 -29 -29 -75 -47 -64 -11 7 -10 21 10 74 11 30 33 24 37 -10z"/>
    <path d="M3132 11463 c3 -142 5 -168 18 -168 12 0 16 22 20 115 7 168 2 220
-21 220 -19 0 -19 -9 -17 -167z"/>
    <path d="M5054 11597 c-8 -23 0 -294 9 -304 5 -4 15 1 23 11 15 21 17 116 5
235 -6 62 -24 91 -37 58z"/>
    <path d="M1896 11545 c-34 -44 -34 -117 -1 -123 41 -8 39 -22 -9 -66 -26 -25
-45 -50 -41 -56 23 -37 105 39 129 120 20 67 20 93 1 130 -21 40 -47 38 -79
-5z m39 -41 c0 -19 -5 -29 -15 -29 -16 0 -25 28 -16 51 10 25 31 10 31 -22z"/>
    <path d="M2026 11538 c-3 -18 -8 -74 -11 -124 -7 -96 1 -118 31 -93 12 9 14
35 12 127 -2 78 -7 117 -15 119 -7 3 -14 -9 -17 -29z"/>
    <path d="M636 11524 c-41 -42 -41 -74 -1 -109 18 -16 22 -27 18 -55 -8 -56 12
-23 31 51 19 71 18 140 -1 146 -6 2 -27 -13 -47 -33z m27 -34 c-7 -25 -22 -35
-34 -23 -10 10 18 56 31 48 4 -3 6 -14 3 -25z"/>
    <path d="M752 11523 c-6 -16 -13 -68 -15 -116 -4 -71 -2 -90 10 -94 8 -3 20 0
26 6 12 12 28 196 20 219 -9 21 -30 13 -41 -15z"/>
    <path d="M495 11500 c-3 -5 -24 -10 -46 -10 -72 0 -113 -71 -73 -128 18 -26
41 -28 66 -5 18 16 21 16 47 0 53 -31 80 -15 44 26 -13 14 -18 34 -17 73 2 51
-7 67 -21 44z m-40 -50 c10 -16 -14 -50 -36 -50 -25 0 -35 25 -19 45 14 17 46
20 55 5z"/>
    <path d="M1177 11454 c-11 -12 -8 -59 5 -72 29 -29 83 6 76 50 -2 18 -10 24
-38 26 -20 2 -39 0 -43 -4z"/>
    <path d="M2176 11432 c-9 -15 -14 -369 -6 -382 4 -7 15 -10 23 -7 12 5 16 36
19 169 4 189 1 228 -18 228 -7 0 -15 -4 -18 -8z"/>
    <path d="M592 11292 c-17 -12 -4 -42 18 -42 19 0 34 25 24 41 -6 11 -25 11
-42 1z"/>
    <path d="M3126 11084 c-3 -9 -6 -83 -6 -164 0 -147 7 -177 33 -151 14 14 20
287 6 312 -12 23 -25 24 -33 3z"/>
    <path d="M2093 10954 c-8 -21 13 -42 28 -27 13 13 5 43 -11 43 -6 0 -13 -7
-17 -16z"/>
    <path d="M2170 10950 c0 -11 7 -20 15 -20 8 0 15 9 15 20 0 11 -7 20 -15 20
-8 0 -15 -9 -15 -20z"/>
    <path d="M1870 10940 c0 -13 7 -20 20 -20 13 0 20 7 20 20 0 13 -7 20 -20 20
-13 0 -20 -7 -20 -20z"/>
    <path d="M1977 10946 c-7 -18 1 -26 25 -26 11 0 18 7 18 20 0 23 -35 28 -43 6z"/>
    <path d="M1557 10943 c-13 -12 -7 -33 8 -33 8 0 15 9 15 20 0 20 -11 26 -23
13z"/>
    <path d="M1677 10943 c-14 -13 -6 -33 13 -33 13 0 20 7 20 20 0 19 -20 27 -33
13z"/>
    <path d="M1775 10940 c-3 -5 -3 -14 0 -20 10 -17 32 -11 38 10 4 15 0 20 -13
20 -11 0 -22 -4 -25 -10z"/>
    <path d="M1111 10931 c-18 -12 -6 -42 14 -35 8 3 15 15 15 25 0 21 -8 23 -29
10z"/>
    <path d="M1212 10918 c2 -12 10 -23 18 -23 22 0 19 39 -3 43 -15 3 -18 -1 -15
-20z"/>
    <path d="M1320 10919 c0 -14 5 -19 17 -17 26 5 29 38 4 38 -15 0 -21 -6 -21
-21z"/>
    <path d="M1445 10930 c-8 -14 3 -30 21 -30 8 0 14 9 14 20 0 21 -24 28 -35 10z"/>
    <path d="M866 10921 c-9 -14 5 -42 18 -38 15 5 14 39 -1 44 -6 2 -14 0 -17 -6z"/>
    <path d="M987 10924 c-14 -14 -7 -35 11 -32 9 2 17 10 17 17 0 16 -18 25 -28
15z"/>
    <path d="M637 10914 c-15 -15 -7 -45 11 -42 9 2 17 12 17 22 0 20 -16 31 -28
20z"/>
    <path d="M757 10900 c-4 -15 0 -20 14 -20 12 0 19 7 19 20 0 11 -6 20 -14 20
-7 0 -16 -9 -19 -20z"/>
    <path d="M273 10894 c-3 -8 -1 -20 6 -27 14 -14 47 15 37 32 -10 16 -36 13
-43 -5z"/>
    <path d="M381 10896 c-8 -10 -8 -16 2 -25 16 -13 27 -5 27 21 0 21 -13 23 -29
4z"/>
    <path d="M490 10889 c0 -14 5 -19 17 -17 26 5 29 38 4 38 -15 0 -21 -6 -21
-21z"/>
    <path d="M5050 10673 c0 -146 8 -189 30 -167 7 7 10 63 8 160 -3 132 -5 149
-20 152 -17 3 -18 -9 -18 -145z"/>
    <path d="M2164 10718 c-12 -19 -16 -202 -5 -218 9 -13 12 -13 25 0 11 11 16
41 17 112 1 53 -2 101 -5 107 -9 14 -23 14 -32 -1z"/>
    <path d="M3116 10488 c-3 -13 -6 -81 -6 -151 0 -106 3 -129 15 -134 9 -3 18
-4 20 -2 3 4 9 255 6 292 -2 25 -28 21 -35 -5z"/>
    <path d="M5047 10253 c-9 -8 -9 -206 -1 -227 3 -9 12 -16 19 -16 9 0 15 32 20
114 4 63 4 120 0 125 -7 12 -28 14 -38 4z"/>
    <path d="M4099 10191 c-1 -17 -2 -83 -3 -146 l-1 -115 -36 -30 -37 -29 -158
-3 c-156 -3 -159 -3 -162 -25 -2 -14 2 -23 10 -24 7 0 90 -1 185 -2 107 -1
176 -6 183 -13 6 -6 11 -61 11 -136 0 -97 3 -129 14 -138 22 -18 25 -2 33 151
l7 134 55 7 c30 3 108 6 173 7 l118 1 -3 28 -3 27 -155 -4 c-126 -2 -158 0
-168 11 -7 9 -12 69 -14 169 -3 151 -3 154 -25 157 -19 3 -23 -1 -24 -27z"/>
    <path d="M2155 10189 c-4 -5 -9 -72 -12 -148 -5 -107 -3 -140 7 -146 29 -18
40 25 40 151 0 67 -3 129 -6 138 -7 18 -20 21 -29 5z"/>
    <path d="M1185 10043 c-4 -10 -9 -56 -12 -103 -5 -73 -9 -89 -30 -112 -24 -25
-30 -26 -174 -33 -114 -6 -149 -11 -149 -21 0 -30 40 -36 179 -29 119 6 139 5
150 -9 10 -11 13 -48 12 -130 -2 -117 5 -140 34 -116 12 10 15 38 15 120 0
145 -2 143 179 150 128 5 136 6 136 25 0 19 -8 20 -135 23 -174 3 -170 0 -170
144 0 86 -3 108 -14 108 -8 0 -17 -8 -21 -17z"/>
    <path d="M3117 10023 c-3 -5 -7 -80 -9 -168 -3 -142 -1 -160 14 -163 13 -3 17
10 23 80 9 114 3 250 -12 255 -6 2 -13 0 -16 -4z"/>
    <path d="M5047 9684 c-4 -4 -7 -83 -7 -176 0 -156 1 -169 18 -166 15 3 17 19
17 172 0 159 -5 192 -28 170z"/>
    <path d="M2140 9625 c-13 -35 -13 -322 0 -330 6 -4 17 -1 25 5 22 18 22 322 0
340 -12 10 -16 8 -25 -15z"/>
    <path d="M3113 9498 c-12 -15 -24 -251 -16 -303 3 -19 11 -35 18 -35 18 0 25
57 25 200 0 127 -7 163 -27 138z"/>
    <path d="M2126 9043 c-3 -10 -6 -69 -8 -130 -2 -120 6 -149 37 -123 12 10 15
36 15 129 0 78 -4 121 -12 129 -17 17 -26 15 -32 -5z"/>
    <path d="M3097 8994 c-12 -12 -8 -292 4 -300 23 -14 29 24 26 160 -2 130 -9
161 -30 140z"/>
    <path d="M5036 8924 c-3 -9 -6 -74 -6 -145 0 -119 1 -129 19 -129 15 0 19 11
25 77 3 42 6 98 6 125 0 69 -28 115 -44 72z"/>
    <path d="M2116 8545 c-11 -30 -7 -343 5 -351 25 -15 31 20 33 188 1 152 -1
173 -15 176 -9 2 -19 -4 -23 -13z"/>
    <path d="M3087 8494 c-4 -4 -7 -70 -7 -146 0 -129 1 -138 19 -138 17 0 20 11
26 93 9 126 4 191 -15 195 -9 1 -19 0 -23 -4z"/>
    <path d="M5030 8214 c0 -133 1 -145 18 -142 15 3 17 18 20 123 3 133 -1 165
-23 165 -13 0 -15 -24 -15 -146z"/>
    <path d="M348 8028 l-3 -33 -67 -3 c-58 -2 -68 -6 -68 -21 0 -10 -3 -32 -6
-48 -8 -39 35 -93 75 -93 38 0 71 38 71 82 0 20 7 41 15 48 11 9 15 26 13 53
-4 50 -25 61 -30 15z m-37 -109 c15 -30 -9 -54 -46 -45 -34 9 -44 35 -20 52
27 20 53 17 66 -7z"/>
    <path d="M3076 7985 c-10 -26 -7 -308 3 -324 8 -12 12 -13 25 -1 14 11 16 36
14 174 -3 139 -5 161 -19 164 -9 2 -19 -4 -23 -13z"/>
    <path d="M5463 7934 c-8 -21 13 -42 28 -27 13 13 5 43 -11 43 -6 0 -13 -7 -17
-16z"/>
    <path d="M5566 7941 c-10 -16 6 -42 21 -37 8 3 17 6 19 6 2 0 4 9 4 20 0 21
-33 29 -44 11z"/>
    <path d="M5702 7933 c2 -10 10 -18 18 -18 8 0 16 8 18 18 2 12 -3 17 -18 17
-15 0 -20 -5 -18 -17z"/>
    <path d="M5067 7933 c-12 -12 -7 -41 8 -47 20 -7 38 27 23 42 -14 14 -22 15
-31 5z"/>
    <path d="M5194 7925 c-7 -18 3 -35 21 -35 18 0 28 32 13 42 -19 11 -28 10 -34
-7z"/>
    <path d="M5312 7923 c4 -22 43 -25 43 -3 0 8 -11 16 -23 18 -19 3 -23 0 -20
-15z"/>
    <path d="M2106 7913 c-12 -37 -10 -243 2 -255 27 -27 37 10 37 140 0 110 -2
127 -17 130 -9 2 -19 -5 -22 -15z"/>
    <path d="M2681 7866 c-8 -10 -8 -16 2 -25 16 -13 27 -5 27 21 0 21 -13 23 -29
4z"/>
    <path d="M2805 7870 c-8 -13 3 -30 20 -30 14 0 27 24 18 34 -10 9 -31 7 -38
-4z"/>
    <path d="M2960 7859 c0 -25 33 -22 38 4 2 12 -3 17 -17 17 -15 0 -21 -6 -21
-21z"/>
    <path d="M2314 7855 c-7 -18 3 -35 21 -35 18 0 26 25 12 39 -15 15 -27 14 -33
-4z"/>
    <path d="M2447 7863 c-9 -9 -9 -43 1 -43 18 1 34 19 29 34 -7 17 -19 21 -30 9z"/>
    <path d="M2547 7863 c-14 -13 -6 -33 13 -33 13 0 20 7 20 20 0 19 -20 27 -33
13z"/>
    <path d="M2032 7838 c2 -13 8 -23 13 -23 6 0 11 10 13 23 2 15 -2 22 -13 22
-11 0 -15 -7 -13 -22z"/>
    <path d="M2196 7843 c-4 -9 -3 -20 2 -25 9 -9 52 18 52 33 0 16 -48 10 -54 -8z"/>
    <path d="M1663 7843 c-18 -7 -16 -43 2 -43 18 0 31 28 19 39 -5 5 -15 6 -21 4z"/>
    <path d="M1793 7834 c-3 -8 -1 -20 6 -27 14 -14 47 15 37 32 -10 16 -36 13
-43 -5z"/>
    <path d="M1930 7830 c0 -13 7 -20 20 -20 13 0 20 7 20 20 0 13 -7 20 -20 20
-13 0 -20 -7 -20 -20z"/>
    <path d="M1533 7833 c-18 -7 -16 -43 2 -43 18 0 31 28 19 39 -5 5 -15 6 -21 4z"/>
    <path d="M1144 7815 c-7 -18 3 -35 21 -35 18 0 26 15 19 34 -8 20 -33 21 -40
1z"/>
    <path d="M1287 7823 c-14 -13 -6 -33 13 -33 13 0 20 7 20 20 0 19 -20 27 -33
13z"/>
    <path d="M1412 7813 c2 -10 10 -18 18 -18 8 0 16 8 18 18 2 12 -3 17 -18 17
-15 0 -20 -5 -18 -17z"/>
    <path d="M871 7811 c-16 -10 -6 -31 15 -31 8 0 14 9 14 20 0 22 -7 25 -29 11z"/>
    <path d="M990 7799 c0 -15 5 -20 22 -17 34 5 37 38 4 38 -20 0 -26 -5 -26 -21z"/>
    <path d="M579 7794 c-10 -13 -10 -17 1 -24 17 -10 40 5 40 26 0 19 -25 18 -41
-2z"/>
    <path d="M716 7802 c-2 -4 -1 -14 4 -22 7 -11 11 -11 24 -1 9 8 16 17 16 22 0
11 -37 12 -44 1z"/>
    <path d="M187 7794 c-15 -15 -7 -45 11 -42 9 2 17 12 17 22 0 20 -16 31 -28
20z"/>
    <path d="M304 7789 c-9 -15 11 -33 30 -26 9 4 13 13 10 22 -7 17 -30 20 -40 4z"/>
    <path d="M430 7780 c0 -13 7 -20 20 -20 13 0 20 7 20 20 0 13 -7 20 -20 20
-13 0 -20 -7 -20 -20z"/>
    <path d="M5026 7758 c-3 -13 -6 -102 -6 -199 0 -166 1 -177 19 -182 12 -3 22
1 25 10 3 8 6 92 6 186 -1 127 -4 177 -14 190 -17 22 -22 22 -30 -5z"/>
    <path d="M855 7705 c-31 -30 -35 -94 -7 -117 33 -29 135 -7 105 23 -6 6 -9 26
-6 44 11 70 -43 100 -92 50z"/>
    <path d="M1155 7710 c-15 -17 -16 -24 -7 -45 10 -22 9 -26 -18 -40 -17 -9 -30
-22 -30 -30 0 -23 60 -56 98 -53 41 4 46 21 8 28 -41 7 -42 22 -1 58 35 32 52
72 40 91 -11 19 -71 13 -90 -9z"/>
    <path d="M1349 7700 c-35 -35 -36 -69 -1 -86 13 -6 29 -17 34 -22 16 -16 -9
-42 -39 -42 -32 0 -27 -34 6 -38 47 -7 91 64 91 146 0 75 -40 93 -91 42z m48
-26 c7 -20 -11 -38 -32 -30 -13 4 -14 10 -5 26 13 24 28 26 37 4z"/>
    <path d="M165 7690 c-4 -6 -3 -14 0 -20 9 -15 35 -12 35 4 0 17 -27 29 -35 16z"/>
    <path d="M262 7544 c2 -11 11 -20 22 -22 13 -3 17 1 14 14 -2 11 -11 20 -22
22 -13 3 -17 -1 -14 -14z"/>
    <path d="M320 7470 c0 -15 5 -20 18 -18 9 2 17 10 17 18 0 8 -8 16 -17 18 -13
2 -18 -3 -18 -18z"/>
    <path d="M3077 7483 c-9 -14 -19 -251 -12 -272 8 -25 32 -28 39 -3 9 27 10
257 2 270 -8 14 -23 16 -29 5z"/>
    <path d="M1160 7461 c0 -12 6 -21 16 -21 9 0 14 7 12 17 -5 25 -28 28 -28 4z"/>
    <path d="M1504 7459 c-8 -14 11 -33 25 -25 11 7 4 36 -9 36 -5 0 -12 -5 -16
-11z"/>
    <path d="M1390 7446 c0 -10 9 -16 21 -16 24 0 21 23 -4 28 -10 2 -17 -3 -17
-12z"/>
    <path d="M806 7435 c-3 -9 1 -18 10 -22 19 -7 26 0 18 21 -8 20 -20 21 -28 1z"/>
    <path d="M1020 7436 c0 -8 4 -17 9 -20 11 -7 33 18 24 27 -12 12 -33 7 -33 -7z"/>
    <path d="M455 7431 c-8 -15 3 -31 21 -31 9 0 14 7 12 17 -4 20 -24 28 -33 14z"/>
    <path d="M570 7420 c0 -11 6 -20 14 -20 21 0 31 21 15 31 -22 14 -29 11 -29
-11z"/>
    <path d="M2099 7334 c-10 -12 -13 -46 -12 -122 2 -109 11 -135 38 -112 21 17
22 222 1 239 -10 9 -17 7 -27 -5z"/>
    <path d="M5017 7063 c-9 -8 -9 -330 -1 -361 4 -14 13 -22 23 -20 14 3 17 28
21 181 3 98 1 185 -3 193 -8 15 -29 19 -40 7z"/>
    <path d="M3060 6885 c0 -118 3 -145 14 -145 22 0 33 48 35 156 2 112 -3 134
-30 134 -18 0 -19 -9 -19 -145z"/>
    <path d="M2084 6807 c-2 -7 -3 -62 -2 -123 3 -101 4 -109 23 -109 18 0 20 8
25 108 3 60 1 115 -3 123 -10 18 -36 18 -43 1z"/>
    <path d="M5207 6739 c-17 -10 -17 -11 1 -33 17 -22 17 -31 2 -197 -13 -150
-18 -174 -33 -177 -9 -2 -17 -12 -17 -23 0 -16 7 -19 46 -19 46 0 46 0 39 28
-19 76 -18 90 9 117 15 15 32 25 39 22 19 -6 21 -111 2 -127 -28 -24 -18 -41
23 -38 33 3 37 6 33 28 -3 24 -8 97 -10 151 -1 36 -28 45 -62 20 -17 -13 -30
-17 -34 -11 -11 18 7 214 21 236 8 11 11 24 7 27 -10 10 -45 8 -66 -4z"/>
    <path d="M2460 6695 c0 -16 30 -35 54 -35 22 0 20 27 -3 40 -28 14 -51 12 -51
-5z"/>
    <path d="M2367 6659 c-25 -15 -47 -63 -47 -103 0 -48 39 -75 94 -65 87 15 116
110 47 156 -36 25 -66 28 -94 12z m71 -45 c12 -8 22 -22 22 -31 0 -46 -79 -73
-100 -34 -14 28 -13 38 10 61 24 24 38 25 68 4z"/>
    <path d="M3061 6541 c-7 -11 -11 -84 -11 -176 l0 -156 23 3 c22 3 22 4 22 172
0 121 -3 170 -12 173 -6 2 -16 -5 -22 -16z"/>
    <path d="M2354 6466 c-11 -30 4 -48 37 -44 40 4 57 -19 44 -58 -14 -38 -40
-52 -65 -36 -29 18 -40 15 -40 -11 0 -47 54 -63 96 -29 75 60 69 191 -7 175
-17 -3 -35 0 -44 7 -12 10 -16 9 -21 -4z"/>
    <path d="M5014 6363 c-10 -37 -11 -354 -1 -377 5 -14 10 -16 21 -7 16 14 31
348 16 386 -12 33 -28 32 -36 -2z"/>
    <path d="M5471 6351 c-16 -30 -13 -43 8 -36 11 3 22 1 26 -4 11 -18 -31 -98
-64 -122 -38 -28 -38 -36 -6 -71 29 -32 71 -45 93 -31 28 17 24 32 -9 40 -50
13 -59 37 -27 70 30 32 51 95 46 138 -2 24 -8 31 -30 33 -18 2 -30 -3 -37 -17z"/>
    <path d="M5634 6328 c-11 -13 -25 -35 -31 -49 -26 -60 18 -115 72 -91 30 14
41 1 36 -43 -4 -44 -24 -61 -56 -47 -23 11 -25 10 -25 -12 0 -60 22 -70 67
-32 36 30 53 84 53 162 0 52 -4 64 -31 97 -35 43 -57 46 -85 15z m58 -54 c11
-22 10 -28 -7 -40 -26 -19 -34 -18 -47 11 -8 19 -8 28 2 40 19 22 39 18 52
-11z"/>
    <path d="M2533 6304 c-36 -27 -42 -54 -18 -74 8 -7 15 -18 15 -24 0 -16 -54
-56 -75 -56 -8 0 -15 -9 -15 -19 0 -22 57 -61 89 -61 26 0 72 23 91 45 21 25
5 28 -31 6 -39 -24 -62 -26 -78 -8 -8 11 -5 19 15 38 43 40 76 104 72 141 -4
42 -24 45 -65 12z"/>
    <path d="M2708 6283 c-16 -20 -28 -49 -28 -64 0 -23 5 -30 28 -35 49 -10 52
-13 52 -42 0 -36 -54 -110 -86 -118 -23 -6 -31 -23 -18 -37 12 -11 94 67 114
108 20 42 27 130 14 194 -9 43 -41 41 -76 -6z m40 -44 c-4 -28 -31 -32 -36 -6
-5 23 18 51 30 39 6 -6 8 -20 6 -33z"/>
    <path d="M2076 6295 c-11 -29 -7 -253 5 -261 26 -16 37 22 40 146 4 121 3 125
-17 128 -13 2 -24 -4 -28 -13z"/>
    <path d="M3047 5984 c-12 -12 -8 -302 3 -309 6 -4 18 -1 26 6 22 18 16 302 -6
307 -9 1 -19 0 -23 -4z"/>
    <path d="M2070 5761 c-13 -26 -13 -278 0 -286 6 -4 17 -1 25 5 22 18 22 300 0
300 -8 0 -19 -9 -25 -19z"/>
    <path d="M4998 5628 c-2 -7 -1 -71 2 -142 5 -135 18 -168 39 -103 11 32 14
204 4 240 -5 20 -39 23 -45 5z"/>
    <path d="M3037 5451 c-7 -29 -3 -318 5 -326 4 -4 14 -5 23 -2 13 5 15 31 15
161 0 85 -3 161 -6 170 -8 22 -31 20 -37 -3z"/>
    <path d="M2062 5253 c-6 -10 -12 -81 -13 -157 -4 -125 -2 -140 14 -150 14 -8
20 -8 27 4 15 22 8 312 -7 317 -6 2 -16 -4 -21 -14z"/>
    <path d="M5002 5088 c-8 -8 -12 -50 -12 -124 0 -119 4 -144 25 -144 21 0 25
25 25 140 0 134 -7 159 -38 128z"/>
    <path d="M744 5035 c-26 -26 -26 -29 -23 -128 l4 -102 -27 -13 c-31 -15 -40
-49 -10 -37 44 18 47 14 47 -69 0 -54 4 -80 13 -83 8 -3 12 6 12 28 0 18 6 60
12 92 11 52 16 61 41 69 38 14 32 42 -8 43 -28 0 -30 2 -27 34 1 20 -4 41 -13
52 -10 10 -15 30 -13 51 3 29 7 33 36 36 28 3 33 7 30 25 -5 33 -42 34 -74 2z"/>
    <path d="M3027 4938 c-13 -166 -8 -228 19 -228 18 0 22 22 28 155 6 123 2 155
-24 155 -14 0 -18 -13 -23 -82z"/>
    <path d="M1390 4931 c0 -12 6 -21 16 -21 9 0 14 7 12 17 -5 25 -28 28 -28 4z"/>
    <path d="M1480 4931 c0 -12 6 -21 16 -21 9 0 14 7 12 17 -5 25 -28 28 -28 4z"/>
    <path d="M1572 4933 c5 -25 28 -28 28 -4 0 12 -6 21 -16 21 -9 0 -14 -7 -12
-17z"/>
    <path d="M1810 4930 c0 -11 7 -20 15 -20 8 0 15 9 15 20 0 11 -7 20 -15 20 -8
0 -15 -9 -15 -20z"/>
    <path d="M1080 4915 c0 -19 -10 -30 -40 -45 -44 -22 -68 -56 -52 -72 7 -7 18
-2 35 17 23 28 47 28 47 0 0 -26 -50 -73 -87 -82 -56 -13 -54 -36 7 -65 57
-27 113 -27 108 1 -2 8 -12 17 -23 19 -48 8 -49 12 -18 45 52 55 68 108 41
135 -9 9 -9 15 0 24 16 16 15 35 -3 42 -11 4 -15 -1 -15 -19z"/>
    <path d="M1207 4933 c-13 -12 -7 -33 8 -33 8 0 15 9 15 20 0 20 -11 26 -23 13z"/>
    <path d="M1300 4921 c0 -12 6 -21 16 -21 9 0 14 7 12 17 -5 25 -28 28 -28 4z"/>
    <path d="M612 4903 c5 -25 28 -28 28 -4 0 12 -6 21 -16 21 -9 0 -14 -7 -12
-17z"/>
    <path d="M362 4883 c5 -25 28 -28 28 -4 0 12 -6 21 -16 21 -9 0 -14 -7 -12
-17z"/>
    <path d="M452 4879 c1 -13 8 -23 13 -21 15 3 12 35 -3 40 -9 3 -13 -3 -10 -19z"/>
    <path d="M1850 4871 c0 -21 26 -36 36 -20 6 11 -13 39 -27 39 -5 0 -9 -9 -9
-19z"/>
    <path d="M1252 4854 c-35 -25 -46 -51 -32 -85 13 -30 16 -32 64 -33 39 -1 43
-20 12 -51 -26 -26 -33 -45 -18 -45 5 0 25 17 45 37 30 29 37 44 37 74 0 44
-12 80 -35 102 -21 21 -44 21 -73 1z m46 -58 c-4 -25 -27 -28 -41 -4 -8 12 -7
21 2 32 18 21 43 2 39 -28z"/>
    <path d="M1910 4796 c0 -18 16 -29 30 -21 13 8 1 35 -16 35 -8 0 -14 -6 -14
-14z"/>
    <path d="M2046 4788 c-3 -13 -6 -43 -6 -68 0 -25 -7 -56 -16 -68 -14 -21 -14
-26 6 -68 15 -30 28 -44 39 -42 13 3 16 21 19 113 3 122 -2 155 -22 155 -8 0
-16 -10 -20 -22z"/>
    <path d="M230 4766 c0 -8 4 -17 9 -20 11 -7 33 18 24 27 -12 12 -33 7 -33 -7z"/>
    <path d="M1950 4737 c0 -25 31 -77 46 -77 21 0 17 28 -6 40 -11 6 -20 20 -20
30 0 11 -4 20 -10 20 -5 0 -10 -6 -10 -13z"/>
    <path d="M5493 4743 c-19 -7 -16 -31 6 -42 26 -14 50 12 31 34 -13 16 -17 17
-37 8z"/>
    <path d="M5606 4734 c-8 -21 1 -34 25 -34 23 0 26 35 3 44 -21 8 -21 8 -28
-10z"/>
    <path d="M5716 4741 c-9 -14 4 -41 20 -41 8 0 14 10 14 25 0 25 -23 35 -34 16z"/>
    <path d="M5120 4725 c-15 -18 -6 -45 15 -45 9 0 15 9 15 24 0 31 -14 40 -30
21z"/>
    <path d="M5231 4726 c-16 -19 -6 -36 20 -36 15 0 20 6 17 22 -4 27 -21 33 -37
14z"/>
    <path d="M5364 4725 c-4 -9 -2 -21 4 -27 15 -15 44 -1 40 19 -4 23 -36 29 -44
8z"/>
    <path d="M180 4700 c0 -11 7 -20 15 -20 8 0 15 9 15 20 0 11 -7 20 -15 20 -8
0 -15 -9 -15 -20z"/>
    <path d="M5000 4700 c0 -15 7 -20 25 -20 18 0 25 5 25 20 0 15 -7 20 -25 20
-18 0 -25 -5 -25 -20z"/>
    <path d="M2827 4643 c-17 -16 -6 -43 16 -43 31 0 38 9 26 31 -10 19 -30 25
-42 12z"/>
    <path d="M2943 4635 c-9 -24 4 -30 63 -31 50 0 54 1 54 23 0 21 -4 23 -55 23
-41 0 -57 -4 -62 -15z"/>
    <path d="M122 4623 c5 -25 28 -28 28 -4 0 12 -6 21 -16 21 -9 0 -14 -7 -12
-17z"/>
    <path d="M2707 4634 c-16 -16 -7 -44 14 -44 15 0 20 5 17 22 -3 22 -19 33 -31
22z"/>
    <path d="M2477 4623 c-4 -3 -7 -15 -7 -25 0 -21 36 -25 43 -5 9 27 -17 50 -36
30z"/>
    <path d="M2584 4619 c-3 -6 0 -18 9 -26 18 -18 37 -9 37 18 0 21 -34 27 -46 8z"/>
    <path d="M2142 4596 c-11 -25 -1 -36 34 -36 19 0 18 46 -2 54 -21 8 -19 9 -32
-18z"/>
    <path d="M2264 4605 c-7 -18 3 -35 21 -35 18 0 26 25 12 39 -15 15 -27 14 -33
-4z"/>
    <path d="M2367 4606 c-8 -20 20 -43 35 -28 14 14 3 42 -16 42 -7 0 -16 -6 -19
-14z"/>
    <path d="M1833 4603 c-22 -8 -15 -43 7 -43 13 0 20 7 20 19 0 22 -9 30 -27 24z"/>
    <path d="M1947 4603 c-4 -3 -7 -15 -7 -25 0 -21 36 -25 43 -5 9 27 -17 50 -36
30z"/>
    <path d="M1687 4586 c-7 -17 18 -40 33 -31 5 3 10 15 10 26 0 23 -35 27 -43 5z"/>
    <path d="M1463 4574 c-7 -18 11 -39 26 -30 17 11 13 46 -4 46 -9 0 -18 -7 -22
-16z"/>
    <path d="M1582 4573 c2 -10 10 -18 18 -18 8 0 16 8 18 18 2 12 -3 17 -18 17
-15 0 -20 -5 -18 -17z"/>
    <path d="M1056 4565 c-11 -28 -7 -35 20 -35 21 0 25 4 22 22 -4 27 -33 36 -42
13z"/>
    <path d="M1190 4554 c0 -33 33 -30 38 4 3 17 -2 22 -17 22 -16 0 -21 -6 -21
-26z"/>
    <path d="M1327 4573 c-14 -13 -6 -33 13 -33 13 0 20 7 20 20 0 19 -20 27 -33
13z"/>
    <path d="M933 4559 c-16 -16 -5 -39 19 -39 14 0 19 6 16 22 -4 25 -19 33 -35
17z"/>
    <path d="M800 4541 c0 -15 6 -21 21 -21 14 0 19 5 17 17 -5 26 -38 29 -38 4z"/>
    <path d="M431 4541 c-14 -9 -9 -41 7 -41 15 0 34 28 27 40 -8 12 -16 13 -34 1z"/>
    <path d="M567 4543 c-14 -13 -6 -33 13 -33 13 0 20 7 20 20 0 19 -20 27 -33
13z"/>
    <path d="M680 4530 c0 -15 7 -20 25 -20 18 0 25 5 25 20 0 15 -7 20 -25 20
-18 0 -25 -5 -25 -20z"/>
    <path d="M3026 4538 c-9 -26 -13 -307 -5 -320 6 -10 13 -10 26 -2 16 10 18 29
18 170 0 143 -2 159 -18 162 -9 2 -19 -2 -21 -10z"/>
    <path d="M197 4533 c-4 -3 -7 -12 -7 -20 0 -17 26 -17 33 1 8 21 -11 35 -26
19z"/>
    <path d="M300 4520 c0 -15 5 -20 18 -18 9 2 17 10 17 18 0 8 -8 16 -17 18 -13
2 -18 -3 -18 -18z"/>
    <path d="M4990 4411 c0 -121 7 -144 35 -121 12 10 14 34 11 116 -5 110 -9 124
-32 124 -11 0 -14 -22 -14 -119z"/>
    <path d="M2042 4288 c-15 -15 -16 -185 -2 -222 24 -63 48 -1 48 121 0 99 -15
132 -46 101z"/>
    <path d="M3022 3998 c-8 -8 -12 -51 -12 -130 0 -100 3 -120 16 -125 28 -10 34
18 32 141 -3 118 -10 140 -36 114z"/>
    <path d="M4987 3953 c-10 -37 -8 -213 3 -233 15 -29 27 -25 40 14 11 33 12
180 2 218 -6 23 -39 23 -45 1z"/>
    <path d="M2036 3828 c-8 -25 -16 -197 -10 -213 8 -20 40 -19 48 1 3 9 6 63 6
120 0 98 -1 104 -20 104 -11 0 -22 -6 -24 -12z"/>
    <path d="M3006 3503 c-8 -49 -8 -207 0 -227 8 -21 31 -20 38 2 4 15 11 220 7
250 0 6 -9 12 -20 12 -14 0 -20 -10 -25 -37z"/>
    <path d="M4980 3349 c0 -128 2 -140 18 -137 14 3 18 20 25 108 9 130 3 170
-23 170 -19 0 -20 -8 -20 -141z"/>
    <path d="M2026 3401 c-8 -12 -9 -211 -2 -219 4 -3 15 -1 24 4 20 13 36 161 22
200 -9 24 -34 32 -44 15z"/>
    <path d="M2996 3055 c-10 -26 -7 -268 4 -285 7 -12 12 -12 22 -2 9 9 13 52 13
155 0 123 -2 142 -16 145 -9 2 -19 -4 -23 -13z"/>
    <path d="M4977 3064 c-9 -9 -9 -186 -1 -208 9 -23 33 -19 39 7 3 12 5 62 3
112 -2 72 -6 90 -18 93 -9 1 -19 0 -23 -4z"/>
    <path d="M2008 2967 c-2 -29 -2 -75 1 -103 5 -40 9 -49 26 -49 19 0 20 8 23
103 3 102 3 102 -21 102 -22 0 -25 -5 -29 -53z"/>
    <path d="M5482 2728 c-7 -28 -15 -35 -48 -43 -30 -8 -39 -14 -36 -27 2 -10 9
-19 15 -19 7 -1 22 -3 33 -4 31 -3 44 -14 44 -36 0 -28 23 -19 30 12 4 18 14
25 38 29 37 6 38 7 30 38 -5 19 -11 22 -27 17 -17 -5 -25 1 -42 29 -12 20 -23
36 -25 36 -2 0 -7 -15 -12 -32z"/>
    <path d="M5130 2695 c-7 -19 -17 -25 -40 -25 -25 0 -30 -4 -30 -25 0 -21 5
-25 27 -25 18 0 35 -10 49 -27 l22 -28 11 27 c8 20 18 27 43 30 28 2 33 7 33
28 0 20 -6 26 -28 28 -15 2 -33 12 -40 23 -16 26 -36 24 -47 -6z"/>
    <path d="M5718 2694 c-10 -9 3 -42 18 -48 10 -4 14 3 14 24 0 27 -17 40 -32
24z"/>
    <path d="M4982 2643 c-6 -11 -13 -221 -17 -508 -3 -269 -8 -492 -11 -496 -7
-12 -69 -18 -229 -24 -82 -3 -220 -9 -305 -14 -85 -5 -215 -10 -289 -11 -74 0
-138 -3 -141 -5 -4 -2 -70 -7 -146 -10 -76 -3 -247 -10 -379 -16 -368 -16
-419 -17 -439 -7 -18 10 -18 28 -11 527 7 472 6 518 -9 530 -9 8 -20 11 -24 7
-7 -7 -14 -237 -25 -814 -3 -136 -9 -248 -14 -253 -10 -10 -869 -63 -890 -54
-15 5 -16 241 -4 750 8 314 5 375 -19 375 -27 0 -31 -40 -35 -327 -2 -164 -7
-410 -11 -546 -7 -243 -7 -249 -28 -257 -20 -7 -241 -20 -701 -40 -99 -4 -223
-11 -275 -14 -199 -14 -622 -36 -793 -42 l-177 -6 0 -39 0 -39 98 0 c106 0
148 -17 140 -56 -3 -17 -14 -19 -101 -22 -86 -2 -98 -5 -95 -19 2 -10 14 -20
28 -23 21 -5 26 -13 28 -45 6 -70 73 -134 127 -121 42 11 54 52 52 181 l-2
120 50 2 c28 1 138 7 245 13 107 6 278 15 380 20 293 16 365 20 525 30 83 5
312 16 510 25 198 9 484 23 635 31 151 9 381 20 510 25 129 4 339 13 465 18
366 16 927 40 1085 46 80 3 174 8 210 10 36 3 151 7 255 10 105 4 264 10 355
15 91 6 182 10 203 10 37 0 37 0 37 41 l0 42 -47 -7 c-26 -3 -133 -9 -238 -12
-104 -3 -239 -9 -299 -14 -132 -12 -146 -6 -147 53 -2 171 2 770 6 802 7 54
-7 167 -22 172 -6 2 -16 -4 -21 -14z m-4761 -1473 c32 -18 18 -90 -18 -90 -41
0 -69 60 -41 88 15 15 33 15 59 2z"/>
    <path d="M2792 2622 c-7 -21 -18 -31 -41 -35 -17 -4 -31 -13 -31 -21 0 -19 27
-39 41 -31 6 5 21 -5 34 -21 l23 -29 22 28 c12 15 28 27 35 27 8 0 17 4 20 10
10 17 -12 44 -36 45 -16 0 -25 7 -29 24 -8 35 -26 36 -38 3z"/>
    <path d="M2520 2617 c0 -27 -17 -47 -41 -47 -10 0 -20 -4 -23 -9 -10 -16 5
-41 25 -41 10 0 24 -9 31 -20 17 -27 37 -25 48 6 8 19 16 25 30 21 23 -6 45
16 36 38 -3 8 -17 15 -31 15 -20 0 -29 7 -36 30 -13 35 -39 40 -39 7z"/>
    <path d="M2178 2598 c-2 -27 -9 -34 -36 -42 -43 -12 -42 -49 2 -54 21 -3 31
-11 39 -33 14 -36 37 -38 37 -4 0 29 30 45 86 45 29 0 34 3 34 25 0 22 -4 24
-57 27 -56 3 -58 4 -68 36 -12 41 -33 41 -37 0z"/>
    <path d="M5610 2120 c-17 -41 -43 -50 -146 -50 l-84 0 0 -39 c0 -83 39 -123
50 -50 l5 34 77 3 c58 2 84 -1 102 -13 14 -9 30 -14 37 -10 16 11 7 122 -13
141 -13 14 -16 12 -28 -16z"/>
    <path d="M2257 2063 c-4 -3 -7 -17 -7 -30 0 -35 34 -26 38 10 3 26 -14 37 -31
20z"/>
    <path d="M4110 2055 c-10 -13 -27 -15 -69 -12 -71 5 -114 -16 -119 -59 -2 -16
-7 -33 -12 -38 -5 -5 -45 -8 -90 -8 -94 2 -130 -13 -130 -57 0 -26 16 -51 31
-51 4 0 10 13 14 30 4 16 10 32 14 34 4 3 81 1 171 -5 160 -9 166 -10 183 -34
27 -36 37 -31 37 19 0 51 -2 52 -89 55 -36 1 -68 4 -73 7 -10 7 -10 41 0 48 9
5 110 -8 150 -20 22 -6 23 -5 20 46 -3 56 -16 71 -38 45z"/>
    <path d="M5227 2063 c-4 -3 -7 -19 -7 -35 0 -21 5 -28 19 -28 26 0 41 22 34
48 -5 21 -32 30 -46 15z"/>
    <path d="M2512 2027 c-37 -39 -43 -167 -7 -167 9 0 16 14 20 38 8 54 27 87 53
90 32 5 42 -27 14 -46 -35 -23 -24 -82 16 -82 28 0 72 41 72 66 0 47 -27 94
-64 109 -50 21 -79 19 -104 -8z"/>
    <path d="M2311 2011 c-81 -76 2 -213 99 -161 21 11 40 60 40 106 0 24 -8 39
-31 58 -40 34 -70 33 -108 -3z m86 -57 c16 -25 16 -27 -2 -40 -42 -31 -87 -3
-67 41 15 33 47 32 69 -1z"/>
    <path d="M758 1994 c-53 -28 -64 -94 -24 -141 l24 -28 120 2 c86 2 123 -1 130
-10 5 -6 24 -40 42 -74 31 -63 60 -82 60 -41 0 12 -11 38 -24 57 -14 20 -26
47 -28 61 -3 25 -3 25 89 28 l91 3 22 -31 c12 -17 26 -28 31 -25 18 12 9 56
-17 82 -24 24 -30 25 -92 20 -37 -4 -88 -9 -113 -13 l-46 -6 -31 51 c-45 73
-68 69 -37 -6 11 -25 12 -40 5 -47 -11 -11 -10 -11 -112 -20 -70 -7 -77 -6
-87 13 -15 28 -14 56 4 71 13 10 19 10 33 -4 23 -20 52 -21 52 -2 0 27 -13 47
-39 60 -22 12 -30 12 -53 0z"/>
  </g>
</svg>