<?xml version="1.0" encoding="UTF-8"?>
<svg xmlns="http://www.w3.org/2000/svg"
     xmlns:inkscape="http://www.inkscape.org/namespaces/inkscape"
     viewBox="0 0 408 405" width="408" height="405">
  <rect x="0" y="0" width="100%" height="100%" fill="#fffaf0"/>
  <g transform="translate(0.000000,405.000000) scale(0.100000,-0.100000)">
    <g inkscape:groupmode="layer" inkscape:label="silhouette" fill="none" stroke="#2a2a2a" stroke-width="1.4" stroke-linejoin="round" stroke-linecap="round">
      <path d="M2297 2812 l-68 -3 -99 -133 c-54 -74 -105 -147 -113 -162 -9 -16 -43 -56 -77 -89 -34 -33 -107 -112 -163 -175 -56 -63 -182 -199 -279 -301 -98 -103 -178 -193 -178 -201 0 -9 23 -18 73 -27 39 -7 142 -30 227 -51 85 -21 184 -44 220 -52 36 -8 65 -19 65 -24 0 -5 -167 -11 -402 -14 -248 -3 -406 -9 -411 -15 -6 -6 -12 -212 -16 -491 -5 -394 -3 -484 8 -493 9 -7 156 -12 472 -13 l459 -3 1 -255 c1 -320 0 -300 24 -300 20 0 20 7 20 308 l0 307 -472 0 -473 0 4 440 c2 321 6 443 15 452 9 10 115 14 449 15 l437 3 25 30 c28 34 33 96 10 115 -18 15 -35 5 -35 -21 0 -32 -26 -33 -128 -9 -54 12 -128 28 -167 36 -38 7 -110 22 -160 34 -49 11 -106 24 -125 28 -19 4 -36 14 -38 22 -1 9 84 106 194 220 108 113 206 221 219 240 13 19 64 75 113 124 85 84 91 87 101 67 7 -11 18 -21 26 -21 12 0 15 14 15 61 0 33 5 70 11 82 15 29 145 202 164 217 7 6 31 10 52 8 35 -3 38 -5 38 -33 0 -28 -3 -30 -42 -33 -42 -3 -43 -4 -43 -41 0 -40 14 -58 63 -79 20 -9 34 -9 48 -2 19 11 22 31 24 145 l0 40 484 2 c307 1 492 -2 504 -8 11 -6 17 -19 15 -32 -3 -21 -7 -22 -74 -19 -78 4 -95 -5 -64 -33 11 -10 20 -30 20 -45 0 -33 35 -60 78 -60 37 0 52 18 63 77 16 86 27 84 103 -13 38 -48 64 -90 59 -95 -4 -4 -26 -12 -48 -17 -30 -6 -40 -13 -40 -27 0 -17 9 -21 55 -25 l55 -5 0 -405 c0 -223 -2 -416 -5 -430 -4 -15 -15 -26 -27 -28 -45 -7 -57 -62 -15 -62 42 0 43 -10 41 -454 -1 -476 2 -452 -74 -458 -33 -2 -41 -7 -43 -25 -3 -21 0 -23 46 -23 28 0 54 -5 59 -13 5 -6 9 -134 8 -284 0 -244 2 -273 16 -273 23 0 28 152 29 924 0 356 2 652 5 656 2 4 5 217 6 473 0 355 -2 471 -12 489 -17 32 -162 219 -189 243 -21 19 -37 20 -548 20 -290 1 -558 -1 -595 -3z m1068 -171 c0 -8 -8 -19 -17 -25 -22 -13 -44 5 -34 29 7 20 51 16 51 -4z"/>
    </g>
    <g inkscape:groupmode="layer" inkscape:label="cutouts" fill="none" stroke="#2a2a2a" stroke-width="1.4" stroke-linejoin="round" stroke-linecap="round">
      <path d="M2123 2520 c-13 -5 -23 -16 -23 -25 0 -12 13 -15 64 -15 67 0 80 7 70 34 -7 18 -73 21 -111 6z"/>
      <path d="M2030 2325 c0 -18 5 -25 20 -25 15 0 20 7 20 25 0 18 -5 25 -20 25 -15 0 -20 -7 -20 -25z"/>
      <path d="M2037 2204 c-4 -4 -7 -25 -7 -46 0 -32 3 -39 18 -36 13 2 17 13 17 42 0 37 -13 55 -28 40z"/>
      <path d="M2030 2009 c0 -43 3 -50 18 -47 13 2 18 15 20 51 3 42 1 47 -17 47 -18 0 -21 -6 -21 -51z"/>
      <path d="M1783 2000 c-31 -19 -39 -34 -45 -90 -3 -22 -9 -25 -43 -28 -77 -5 -85 -9 -85 -47 0 -46 16 -52 46 -19 25 26 28 27 106 21 48 -4 91 -13 105 -23 42 -27 53 -13 53 66 0 62 -3 75 -27 106 -33 40 -62 44 -110 14z m68 -40 c23 -13 26 -62 4 -80 -12 -10 -22 -10 -39 -2 -33 15 -42 48 -20 73 20 22 28 23 55 9z"/>
      <path d="M2030 1825 c0 -48 3 -56 18 -53 13 3 17 14 17 53 0 39 -4 50 -17 53 -15 3 -18 -5 -18 -53z"/>
      <path d="M2124 1575 c-11 -28 7 -35 91 -35 85 0 107 9 85 35 -18 21 -168 21 -176 0z"/>
      <path d="M1530 1172 c0 -4 6 -16 14 -27 7 -11 17 -34 20 -52 6 -27 3 -37 -18 -58 -30 -30 -51 -31 -93 -5 -36 21 -41 44 -18 74 8 11 15 28 15 38 0 32 -89 19 -112 -16 -19 -28 -8 -78 25 -111 113 -113 303 -12 232 124 -13 26 -33 41 -56 41 -5 0 -9 -3 -9 -8z"/>
      <path d="M2150 621 c-16 -4 -25 -14 -25 -26 0 -18 7 -20 75 -20 62 0 75 3 78 17 2 9 -5 18 -15 21 -40 11 -89 15 -113 8z"/>
      <path d="M1614 246 c-29 -29 -34 -41 -34 -83 0 -53 9 -70 53 -97 28 -17 28 -18 11 -37 -16 -18 -16 -19 4 -19 12 0 26 8 31 19 6 10 22 22 36 25 49 12 85 134 52 177 -16 22 -71 49 -98 49 -11 0 -36 -15 -55 -34z m111 -70 c7 -42 -6 -86 -24 -86 -16 0 -40 36 -46 73 -6 29 -3 42 10 57 26 29 52 10 60 -44z"/>
      <path d="M1342 268 c-7 -7 -12 -22 -12 -33 0 -24 -36 -61 -92 -94 -21 -13 -38 -27 -38 -32 0 -14 8 -11 71 26 32 18 60 31 62 27 3 -4 4 -40 3 -79 l-2 -73 47 0 47 0 1 118 c0 64 -2 125 -5 135 -6 20 -63 24 -82 5z"/>
    </g>
    <g inkscape:groupmode="layer" inkscape:label="folds-valley" fill="none" stroke="#2a2a2a" stroke-width="1.4" stroke-linejoin="round" stroke-linecap="round">
    </g>
    <g inkscape:groupmode="layer" inkscape:label="folds-mountain" fill="none" stroke="#2a2a2a" stroke-width="1.4" stroke-linejoin="round" stroke-linecap="round">
    </g>
    <g inkscape:groupmode="layer" inkscape:label="axles" fill="none" stroke="#2a2a2a" stroke-width="1.4" stroke-linejoin="round" stroke-linecap="round">
    </g>
    <g inkscape:groupmode="layer" inkscape:label="glue-zones" fill="none" stroke="#2a2a2a" stroke-width="1.4" stroke-linejoin="round" stroke-linecap="round">
    </g>
    <g inkscape:groupmode="layer" inkscape:label="labels" fill="none" stroke="#2a2a2a" stroke-width="1.4" stroke-linejoin="round" stroke-linecap="round">
      <path d="M3287 2523 c-13 -12 -7 -41 9 -47 26 -10 79 -7 92 6 22 22 -5 48 -52 48 -23 0 -46 -3 -49 -7z"/>
      <path d="M3034 2505 c-11 -28 10 -36 87 -33 66 3 74 5 74 23 0 18 -8 20 -78 23 -64 2 -78 0 -83 -13z"/>
      <path d="M2855 2523 c-49 -5 -63 -17 -45 -38 10 -12 28 -15 74 -13 58 3 61 4 61 28 0 27 -14 31 -90 23z"/>
      <path d="M2563 2523 c-7 -2 -13 -16 -13 -29 0 -25 1 -25 82 -22 71 3 83 6 86 22 2 10 -2 22 -10 27 -14 9 -124 11 -145 2z"/>
      <path d="M2343 2520 c-13 -5 -23 -16 -23 -25 0 -23 158 -22 167 1 3 9 0 20 -8 25 -18 11 -107 10 -136 -1z"/>
      <path d="M3355 1591 c-21 -4 -30 -12 -30 -26 0 -18 6 -20 63 -19 43 1 67 6 73 15 14 24 -51 42 -106 30z"/>
      <path d="M3010 1565 c0 -24 2 -25 74 -25 87 0 106 5 106 31 0 17 -8 19 -90 19 -89 0 -90 0 -90 -25z"/>
      <path d="M2703 1574 c-10 -27 10 -34 106 -35 71 -1 97 3 108 14 29 28 5 37 -103 37 -86 0 -106 -3 -111 -16z"/>
      <path d="M2407 1583 c-10 -3 -17 -12 -15 -21 5 -25 169 -30 188 -7 12 14 11 18 -1 26 -14 9 -139 11 -172 2z"/>
      <path d="M3211 621 c-8 -5 -11 -16 -8 -25 5 -13 22 -16 82 -16 67 0 75 2 75 19 0 10 -7 22 -16 25 -24 9 -117 7 -133 -3z"/>
      <path d="M2983 623 c-34 -4 -42 -20 -21 -41 19 -19 127 -16 135 4 3 8 2 19 -3 23 -12 11 -72 19 -111 14z"/>
      <path d="M2732 623 c-58 -4 -63 -6 -60 -25 3 -19 11 -22 81 -25 66 -3 78 -1 84 13 6 15 -22 47 -36 42 -3 -1 -34 -3 -69 -5z"/>
      <path d="M2394 605 c-11 -28 7 -37 62 -33 60 5 69 10 61 33 -9 21 -115 22 -123 0z"/>
      <path d="M10 1557 c0 -32 11 -45 132 -154 73 -65 150 -134 171 -154 l38 -37 -7 -601 -7 -601 25 0 25 0 6 368 c10 543 9 882 -3 882 -6 0 -36 24 -68 53 -32 28 -115 103 -185 165 l-127 113 0 -34z"/>
      <path d="M255 782 c9 -42 -19 -63 -83 -60 -60 3 -72 -5 -47 -32 10 -11 15 -26 11 -36 -13 -33 14 -85 52 -101 35 -15 37 -14 59 12 16 18 23 39 23 68 0 23 7 61 16 84 13 34 15 49 6 68 -17 36 -45 34 -37 -3z m-27 -146 c5 -37 -10 -51 -37 -37 -20 11 -29 50 -14 65 17 17 48 0 51 -28z"/>
      <path d="M1727 33 c-17 -16 -3 -23 51 -22 l57 0 -45 15 c-52 16 -54 16 -63 7z"/>
    </g>
    <g inkscape:groupmode="layer" inkscape:label="marks-other" fill="none" stroke="#2a2a2a" stroke-width="1.4" stroke-linejoin="round" stroke-linecap="round">
    </g>
  </g>
</svg>