<?xml version="1.0" encoding="UTF-8"?>
<svg xmlns="http://www.w3.org/2000/svg"
     xmlns:inkscape="http://www.inkscape.org/namespaces/inkscape"
     viewBox="0 0 360 405" width="360" height="405">
  <rect x="0" y="0" width="100%" height="100%" fill="#fffaf0"/>
  <g transform="translate(0.000000,405.000000) scale(0.100000,-0.100000)">
    <g inkscape:groupmode="layer" inkscape:label="silhouette" fill="none" stroke="#2a2a2a" stroke-width="1.4" stroke-linejoin="round" stroke-linecap="round">
      <path d="M162 2667 c-38 -79 -74 -147 -80 -151 -8 -5 -12 -294 -13 -1029 -1 -562 -2 -1038 -2 -1057 -1 -19 0 -122 1 -227 2 -164 4 -193 17 -193 16 0 20 106 15 426 -2 156 -2 157 97 154 98 -3 103 -2 103 19 0 25 -19 31 -104 31 -40 0 -77 5 -82 10 -10 10 -8 857 1 887 3 7 30 13 72 15 62 3 68 5 71 26 3 21 0 22 -62 22 -36 0 -68 5 -71 11 -12 18 -6 842 6 854 5 5 32 9 58 8 59 -3 92 16 72 41 -8 10 -29 16 -52 16 -21 0 -40 4 -43 9 -7 10 53 157 79 197 14 21 23 24 80 24 35 0 67 -5 71 -11 11 -18 -14 -33 -54 -34 -36 0 -37 -1 -34 -35 4 -47 43 -82 86 -78 30 3 31 4 38 67 4 35 10 71 13 78 4 12 74 14 452 9 247 -3 471 -5 499 -5 36 0 55 -5 66 -18 17 -20 108 -182 111 -198 1 -5 -29 -12 -68 -15 -62 -4 -70 -8 -73 -26 -3 -19 3 -22 68 -27 78 -7 100 -18 100 -51 0 -12 5 -27 12 -34 8 -8 8 -15 -1 -26 -18 -22 -10 -90 11 -94 23 -4 34 42 20 82 -10 24 -9 34 5 55 l16 25 329 -333 c181 -183 327 -338 325 -344 -2 -7 -64 -21 -143 -34 -76 -12 -179 -29 -229 -38 -150 -28 -277 -45 -286 -39 -5 3 -9 11 -9 19 0 15 -27 45 -40 45 -5 0 -10 -21 -12 -47 -3 -47 -4 -48 -38 -51 -71 -5 -100 -13 -100 -28 0 -8 10 -18 23 -23 12 -4 148 -9 302 -10 362 -3 704 -16 716 -28 5 -5 11 -198 13 -436 4 -356 2 -428 -10 -438 -10 -8 -122 -10 -436 -5 -233 4 -432 8 -443 9 -19 2 -20 -4 -19 -168 2 -450 3 -465 22 -465 16 0 17 21 20 277 2 160 7 282 13 288 6 6 179 10 452 10 l442 0 1 493 c0 344 -3 495 -10 498 -6 1 -161 7 -344 11 -207 5 -333 12 -334 18 -1 6 23 13 53 18 30 4 115 19 189 32 74 14 168 28 209 33 45 4 76 12 79 20 4 12 -29 47 -498 530 -233 240 -260 271 -309 360 -29 53 -68 120 -86 148 l-33 51 -73 6 c-41 3 -320 6 -621 7 l-546 1 -70 -144z"/>
    </g>
    <g inkscape:groupmode="layer" inkscape:label="cutouts" fill="none" stroke="#2a2a2a" stroke-width="1.4" stroke-linejoin="round" stroke-linecap="round">
      <path d="M630 2515 c-24 -29 5 -45 84 -45 82 0 107 10 90 37 -15 25 -154 32 -174 8z"/>
      <path d="M392 2523 c-27 -4 -33 -8 -30 -26 3 -20 10 -22 69 -25 71 -3 119 9 119 32 0 23 -60 31 -158 19z"/>
      <path d="M662 1588 c-23 -28 2 -39 84 -36 71 3 79 5 79 23 0 18 -8 20 -76 23 -54 2 -79 -1 -87 -10z"/>
      <path d="M383 1584 c-10 -27 12 -35 83 -32 63 3 69 5 72 26 3 21 0 22 -73 22 -59 0 -77 -3 -82 -16z"/>
      <path d="M662 627 c-25 -29 2 -38 109 -35 96 3 104 4 104 23 0 18 -8 20 -101 23 -74 2 -104 -1 -112 -11z"/>
      <path d="M387 633 c-12 -11 -8 -43 6 -44 117 -8 158 -7 164 7 11 30 -17 44 -92 44 -39 0 -75 -3 -78 -7z"/>
    </g>
    <g inkscape:groupmode="layer" inkscape:label="folds-valley" fill="none" stroke="#2a2a2a" stroke-width="1.4" stroke-linejoin="round" stroke-linecap="round">
    </g>
    <g inkscape:groupmode="layer" inkscape:label="folds-mountain" fill="none" stroke="#2a2a2a" stroke-width="1.4" stroke-linejoin="round" stroke-linecap="round">
    </g>
    <g inkscape:groupmode="layer" inkscape:label="axles" fill="none" stroke="#2a2a2a" stroke-width="1.4" stroke-linejoin="round" stroke-linecap="round">
    </g>
    <g inkscape:groupmode="layer" inkscape:label="glue-zones" fill="none" stroke="#2a2a2a" stroke-width="1.4" stroke-linejoin="round" stroke-linecap="round">
    </g>
    <g inkscape:groupmode="layer" inkscape:label="labels" fill="none" stroke="#2a2a2a" stroke-width="1.4" stroke-linejoin="round" stroke-linecap="round">
      <path d="M1888 2023 c-28 -4 -45 -34 -50 -88 -3 -26 -7 -30 -38 -33 -74 -5 -80 -9 -80 -52 0 -49 16 -60 44 -28 20 25 24 25 120 21 86 -5 99 -8 103 -24 7 -24 32 -25 35 -1 1 19 0 28 -12 96 -9 49 -60 118 -84 115 -6 -1 -23 -4 -38 -6z m67 -99 c0 -24 -5 -30 -27 -32 -22 -3 -30 2 -40 22 -9 22 -8 29 7 46 16 18 21 19 39 6 13 -8 21 -24 21 -42z"/>
      <path d="M1340 2711 c-7 -14 -25 -21 -65 -26 -30 -4 -55 -9 -55 -12 0 -8 34 -67 49 -85 10 -13 28 -18 62 -18 55 0 57 4 58 89 1 50 -8 70 -31 71 -4 0 -12 -9 -18 -19z m5 -81 c8 -13 -20 -24 -41 -16 -20 8 -9 26 16 26 10 0 22 -5 25 -10z"/>
      <path d="M1609 2206 c-3 -3 -3 -22 -1 -41 3 -27 9 -35 21 -33 22 4 23 71 1 76 -9 1 -18 0 -21 -2z"/>
      <path d="M1612 1998 c2 -48 7 -63 18 -63 12 0 15 13 15 60 0 50 -3 60 -18 63 -16 3 -18 -3 -15 -60z"/>
      <path d="M1170 2505 c-22 -26 2 -36 76 -33 61 3 69 5 69 23 0 18 -8 20 -66 23 -50 2 -69 -1 -79 -13z"/>
      <path d="M1607 1863 c-4 -3 -7 -28 -7 -54 0 -35 4 -49 17 -53 22 -9 34 12 30 54 -4 51 -21 73 -40 53z"/>
      <path d="M1997 1182 c-20 -21 -23 -89 -6 -125 28 -62 157 -89 215 -45 16 12 32 27 36 33 14 19 8 87 -9 116 -20 34 -54 41 -46 9 3 -11 9 -23 14 -26 15 -9 10 -61 -9 -84 -26 -32 -97 -38 -139 -11 -33 21 -50 58 -39 87 6 15 9 15 29 -5 29 -27 43 -27 58 1 10 19 8 25 -17 45 -35 28 -65 29 -87 5z"/>
      <path d="M908 2513 c-6 -7 -8 -20 -4 -28 8 -22 154 -22 163 1 3 8 1 20 -5 26 -15 15 -142 16 -154 1z"/>
      <path d="M1252 1602 c-38 -3 -43 -6 -40 -25 3 -20 9 -22 63 -22 52 0 60 2 60 19 0 23 -27 32 -83 28z"/>
      <path d="M974 1585 c-10 -25 6 -35 57 -35 58 0 91 14 83 35 -8 21 -132 21 -140 0z"/>
      <path d="M1315 640 c-52 -4 -60 -8 -60 -25 0 -18 8 -20 100 -23 105 -2 130 4 120 30 -7 19 -69 26 -160 18z"/>
      <path d="M2313 223 c-54 -27 -72 -126 -32 -177 17 -22 29 -27 58 -25 20 1 43 -2 53 -5 9 -4 29 -6 45 -4 27 3 28 5 27 56 -3 81 -29 141 -70 158 -40 17 -41 17 -81 -3z m65 -109 c-4 -35 -32 -39 -36 -6 -4 27 17 57 30 44 5 -5 8 -22 6 -38z"/>
      <path d="M1053 642 c-55 -2 -73 -7 -77 -19 -10 -26 4 -32 89 -34 73 -2 80 -1 83 18 5 30 -17 38 -95 35z"/>
      <path d="M2047 233 c-4 -3 -7 -16 -7 -27 0 -12 -14 -38 -31 -59 -33 -40 -32 -65 2 -46 28 15 33 6 30 -46 l-3 -45 45 0 44 0 7 102 c3 56 3 105 -1 109 -12 10 -79 20 -86 12z"/>
    </g>
    <g inkscape:groupmode="layer" inkscape:label="marks-other" fill="none" stroke="#2a2a2a" stroke-width="1.4" stroke-linejoin="round" stroke-linecap="round">
    </g>
  </g>
</svg>