<svg xmlns="http://www.w3.org/2000/svg" viewBox="0 0 576 656" width="576" height="656">
  <rect x="0" y="0" width="100%" height="100%" fill="#fffaf0"/>
  <g fill="none" stroke="#2a2a2a" stroke-width="1.4" stroke-linejoin="round" stroke-linecap="round">
    <path d="M2843 6462 c-7 -5 -8 -37 -2 -105 5 -59 4 -119 -1 -149 -6 -28 -7
-54 -4 -59 3 -5 28 -9 56 -9 43 0 54 4 79 31 l28 30 15 -36 c26 -61 72 -59
135 5 45 46 45 67 -1 105 -43 36 -91 34 -128 -7 l-29 -32 -10 26 c-10 27 -29
38 -65 38 -36 0 -46 19 -46 91 0 68 -6 84 -27 71z m99 -209 c37 -33 13 -77
-39 -71 -34 4 -41 29 -19 63 19 29 33 31 58 8z m196 -21 c11 -15 9 -21 -18
-45 -43 -38 -74 -33 -78 11 -5 55 3 65 46 57 20 -3 43 -14 50 -23z"/>
    <path d="M2663 6445 c-3 -9 1 -21 10 -28 11 -8 16 -34 19 -82 l3 -70 -47 -5
c-26 -3 -55 -14 -66 -23 -17 -16 -21 -16 -32 -2 -15 18 -43 19 -73 3 -12 -6
-35 -14 -52 -18 -37 -7 -46 -37 -13 -42 21 -3 23 -8 23 -55 -1 -48 1 -53 21
-53 33 0 50 25 35 53 -30 56 -17 87 36 87 18 0 35 -6 37 -12 23 -89 34 -96
113 -78 69 16 110 53 67 62 -12 2 -16 25 -19 130 -2 70 -6 132 -10 138 -10 15
-45 12 -52 -5z m25 -243 c4 -29 -14 -52 -42 -52 -26 0 -46 18 -46 42 0 41 82
51 88 10z"/>
    <path d="M3750 6343 c0 -3 7 -15 16 -25 16 -16 15 -22 -8 -85 -27 -72 -23 -70
-91 -56 -32 6 -68 -21 -87 -67 -17 -41 10 -80 55 -80 18 0 53 -3 79 -6 49 -7
62 7 30 31 -15 11 -14 17 10 78 30 75 66 186 66 205 0 7 -14 12 -35 12 -19 0
-35 -3 -35 -7z m-67 -200 c2 -5 7 -20 11 -35 5 -21 2 -30 -15 -39 -28 -15 -69
3 -69 30 0 30 60 66 73 44z"/>
    <path d="M3315 6283 c-58 -13 -87 -27 -104 -52 -19 -27 -19 -28 0 -70 19 -43
20 -44 59 -38 33 4 42 2 50 -14 11 -20 39 -26 41 -9 4 33 6 158 2 173 -4 17
-11 19 -48 10z m5 -58 c10 -12 10 -21 1 -41 -9 -20 -17 -25 -43 -22 -17 2 -36
11 -42 21 -9 15 -7 22 13 38 28 23 54 24 71 4z"/>
    <path d="M3450 6269 c0 -7 6 -17 13 -23 10 -7 12 -26 9 -59 -4 -43 -8 -50 -33
-59 -40 -14 -40 -48 0 -48 35 0 52 19 61 68 6 35 7 37 43 35 24 -2 37 2 37 10
0 19 -21 37 -42 37 -11 0 -23 11 -28 25 -7 18 -17 25 -35 25 -14 0 -25 -5 -25
-11z"/>
    <path d="M10 6201 c0 -15 8 -21 33 -23 l32 -3 0 -80 c0 -102 -32 -886 -46
-1110 -9 -158 -22 -1288 -13 -1200 4 36 38 867 64 1535 5 140 17 396 26 568
19 351 22 332 -53 332 -36 0 -43 -3 -43 -19z"/>
    <path d="M4139 6159 c-27 -29 -44 -39 -66 -39 -17 0 -36 -7 -43 -15 -11 -13
-8 -15 17 -15 16 0 32 -3 36 -6 3 -3 -20 -37 -50 -74 -51 -62 -59 -68 -85 -63
-21 4 -28 2 -28 -10 0 -24 50 -58 79 -55 23 3 26 8 26 39 0 30 9 46 47 87 76
81 141 194 111 191 -5 0 -24 -18 -44 -40z"/>
    <path d="M2255 6168 c-71 -24 -80 -32 -83 -76 -3 -34 2 -47 22 -67 30 -30 55
-32 89 -5 14 11 32 20 39 20 19 0 58 42 58 63 0 19 -15 23 -25 7 -10 -17 -33
7 -40 41 -7 31 -13 33 -60 17z m25 -56 l21 -17 -21 -28 c-28 -35 -61 -33 -74
5 -18 50 29 76 74 40z"/>
    <path d="M2016 6089 c-21 -16 -26 -29 -26 -62 0 -48 6 -59 37 -76 53 -27 117
-4 136 51 10 29 -5 28 -40 -2 -38 -34 -50 -36 -81 -14 -33 23 -30 71 4 85 21
7 31 6 45 -7 17 -16 19 -16 25 0 17 44 -54 62 -100 25z"/>
    <path d="M2825 5940 c-196 -16 -468 -99 -676 -207 -216 -113 -352 -214 -539
-402 -177 -178 -260 -291 -382 -527 -121 -232 -196 -475 -234 -754 -18 -135
-15 -437 6 -572 40 -262 150 -556 293 -783 94 -150 255 -330 397 -444 120 -96
181 -136 303 -197 88 -45 112 -54 272 -111 94 -33 280 -74 335 -73 25 0 80 -4
123 -9 43 -4 131 -4 195 1 160 11 192 17 192 35 0 11 -6 13 -22 9 -13 -4 -95
-10 -183 -13 -165 -5 -306 5 -433 31 -95 20 -292 83 -316 101 -11 8 -27 15
-35 15 -24 0 -177 79 -261 135 -431 287 -702 701 -813 1245 -9 41 -18 100 -22
130 -9 78 -6 455 4 520 51 320 115 512 257 774 106 194 224 347 391 506 301
286 621 454 1013 532 132 27 436 36 590 18 181 -21 447 -102 585 -180 22 -12
65 -36 95 -53 30 -17 98 -62 150 -101 342 -255 585 -617 685 -1016 14 -58 30
-119 35 -135 16 -52 42 -360 36 -437 -15 -220 -30 -324 -76 -498 -61 -232
-169 -469 -312 -680 -85 -125 -125 -174 -239 -291 -252 -257 -533 -429 -874
-534 -190 -59 -199 -62 -203 -74 -4 -13 40 -15 82 -2 483 141 803 336 1087
659 308 350 492 754 550 1207 18 138 15 444 -4 575 -59 387 -209 707 -475
1013 -160 184 -402 356 -641 457 -67 28 -265 89 -356 109 -129 29 -372 37
-580 21z"/>
    <path d="M1746 5909 c-15 -17 -25 -39 -22 -48 15 -56 14 -67 -10 -96 -24 -29
-25 -30 -40 -10 -8 11 -14 36 -13 55 2 26 -4 42 -23 63 -33 36 -42 34 -35 -7
4 -26 1 -39 -14 -52 -18 -16 -26 -44 -13 -44 3 0 14 5 25 11 17 9 21 5 33 -23
18 -42 49 -70 68 -63 15 6 30 31 42 68 3 10 15 17 29 17 58 0 104 80 78 136
-17 37 -71 34 -105 -7z m82 -30 c4 -24 -32 -64 -51 -56 -22 8 -22 53 1 66 23
14 46 9 50 -10z"/>
    <path d="M4167 5887 c-21 -30 -37 -57 -37 -60 0 -14 34 -6 54 12 26 23 57 30
63 14 3 -7 -7 -23 -21 -36 -30 -28 -36 -60 -9 -50 9 4 27 18 39 32 18 20 25
23 35 14 10 -10 7 -21 -14 -52 -27 -41 -34 -61 -19 -61 25 1 72 66 72 101 0
20 -12 39 -44 69 -26 25 -42 48 -39 56 3 10 -2 14 -19 14 -18 0 -34 -13 -61
-53z"/>
    <path d="M2981 5786 c-8 -9 -24 -12 -49 -9 -49 7 -86 -22 -100 -79 -9 -35 -8
-47 4 -66 21 -32 39 -37 86 -23 34 11 43 10 57 -3 24 -22 53 -20 85 5 36 28
33 36 -16 35 l-43 -1 0 78 c1 78 -3 88 -24 63z m-33 -74 c4 -40 -22 -74 -52
-70 -28 4 -35 62 -10 89 28 31 58 21 62 -19z"/>
    <path d="M4403 5763 c-7 -3 -13 -12 -13 -20 0 -9 -16 -33 -36 -55 -46 -51 -33
-73 20 -33 22 17 42 25 52 21 15 -6 13 -11 -11 -36 -24 -25 -26 -30 -12 -36
11 -4 30 5 52 25 20 17 40 31 45 31 24 0 18 -25 -15 -66 -26 -32 -34 -49 -27
-56 13 -13 89 65 98 100 8 30 -12 52 -46 52 -20 0 -38 11 -62 39 -18 21 -39
36 -45 34z"/>
    <path d="M1353 5610 c-48 -19 -56 -76 -17 -127 29 -38 64 -43 104 -16 35 24
40 33 40 76 0 45 -23 48 -28 4 -3 -27 -44 -67 -68 -67 -25 0 -25 21 0 45 28
26 34 63 14 83 -14 14 -15 14 -45 2z"/>
    <path d="M4776 5495 c-11 -8 -32 -15 -48 -15 -17 0 -28 -5 -28 -14 0 -8 -18
-29 -40 -46 -32 -25 -39 -37 -34 -54 9 -30 34 -47 58 -40 31 10 39 28 14 34
-12 3 -23 11 -25 17 -5 14 53 53 77 53 13 0 70 60 70 74 0 11 -25 5 -44 -9z"/>
    <path d="M1215 5491 c-3 -6 9 -20 26 -33 38 -28 54 -65 38 -84 -9 -12 -18 -8
-50 21 -42 37 -58 42 -77 23 -21 -21 -14 -39 12 -32 19 4 30 -2 56 -34 36 -45
59 -46 86 -5 22 34 12 88 -22 125 -28 28 -58 36 -69 19z"/>
    <path d="M4940 5445 c0 -25 -38 -54 -194 -147 -49 -29 -63 -61 -23 -50 12 3
33 13 46 24 30 23 70 23 78 1 4 -11 -1 -22 -16 -32 -51 -35 -94 -78 -84 -84 5
-4 38 12 72 34 55 36 61 43 61 74 0 18 -4 37 -10 40 -19 12 -10 24 44 62 57
40 70 59 54 87 -13 24 -28 19 -28 -9z"/>
    <path d="M902 5414 c-12 -8 -22 -22 -22 -30 0 -16 26 -19 35 -4 14 22 51 7
106 -42 131 -121 142 -129 163 -126 13 2 21 10 21 23 0 15 -6 19 -22 17 -15
-2 -27 6 -39 23 -9 14 -30 33 -46 41 -16 8 -51 37 -78 64 -53 53 -80 61 -118
34z"/>
    <path d="M1020 5198 c-34 -56 -19 -82 18 -31 25 35 42 22 42 -32 0 -36 -5 -48
-31 -69 -64 -54 -139 -17 -139 67 0 27 6 49 15 57 19 16 19 30 1 30 -25 0 -46
-42 -46 -90 0 -99 77 -152 160 -110 49 25 74 70 71 129 -3 80 -55 107 -91 49z"/>
    <path d="M4890 5170 c0 -6 -22 -24 -50 -41 -54 -33 -63 -53 -27 -63 34 -9 37
-8 37 15 0 14 12 26 43 39 54 24 60 30 46 47 -13 15 -49 18 -49 3z"/>
    <path d="M4911 5024 c-33 -28 -38 -48 -19 -89 12 -26 48 -42 67 -30 15 9 14
25 -2 25 -8 0 -22 9 -31 19 -21 23 -9 56 25 66 31 10 46 -10 25 -34 -20 -22
-7 -36 23 -26 27 8 36 53 15 76 -24 27 -67 24 -103 -7z"/>
    <path d="M5165 4904 c-22 -9 -78 -29 -125 -46 -94 -32 -110 -42 -93 -59 8 -8
17 -8 32 1 31 16 38 -12 12 -49 -25 -35 -27 -51 -6 -51 9 0 24 14 33 31 37 66
36 66 76 46 44 -21 46 -21 46 -2 0 8 -14 22 -31 30 -41 22 -27 37 56 65 70 23
105 50 64 50 -13 -1 -42 -8 -64 -16z"/>
    <path d="M2927 4502 c-10 -14 -28 -280 -30 -427 l-2 -150 -145 -7 c-80 -5
-253 -11 -385 -15 -220 -7 -240 -10 -243 -26 -4 -17 13 -18 365 -11 303 6 372
9 391 22 33 22 48 3 28 -36 -23 -45 -33 -537 -11 -546 8 -3 19 2 23 12 5 9 12
121 15 249 5 201 8 237 25 269 l19 37 119 2 c65 2 211 3 324 4 255 2 300 7
300 33 0 19 -6 19 -322 11 -426 -10 -407 -11 -437 23 l-24 29 7 210 c8 236 9
294 7 313 -1 13 -17 16 -24 4z"/>
    <path d="M3110 4120 c-13 -18 -20 -41 -18 -57 3 -26 7 -28 52 -31 80 -5 116
53 60 97 -38 30 -69 27 -94 -9z"/>
    <path d="M2676 4109 c-47 -37 -27 -109 30 -109 32 0 74 42 74 74 0 26 -32 56
-61 56 -9 0 -28 -9 -43 -21z"/>
    <path d="M3115 3778 c-48 -27 -58 -71 -25 -106 28 -30 64 -28 89 4 26 33 27
76 3 97 -22 20 -39 21 -67 5z"/>
    <path d="M2676 3741 c-35 -37 -30 -77 11 -87 61 -16 110 36 85 91 -16 36 -60
34 -96 -4z"/>
    <path d="M2853 2304 c-3 -9 -1 -25 5 -35 7 -10 11 -62 11 -124 -1 -59 4 -112
9 -117 15 -15 68 0 102 29 23 19 30 33 30 61 0 50 -9 60 -55 64 -37 3 -40 5
-43 36 -2 18 3 43 11 55 8 12 12 28 10 35 -7 18 -72 15 -80 -4z m115 -181 c3
-22 -34 -57 -50 -47 -13 8 -9 36 9 56 20 22 37 19 41 -9z"/>
    <path d="M2660 1777 c-61 -32 -84 -54 -106 -102 -24 -50 -29 -89 -18 -120 7
-17 65 -45 95 -45 34 0 31 -22 -8 -62 -53 -53 -112 -63 -138 -24 -14 21 -21
24 -36 15 -23 -12 -25 -52 -2 -70 23 -20 126 -14 164 8 43 26 124 135 150 201
26 70 23 177 -7 199 -23 17 -62 17 -94 0z m51 -61 c8 -18 8 -40 -2 -87 -13
-59 -16 -64 -46 -70 -51 -10 -68 9 -68 76 0 50 3 60 28 81 37 31 74 31 88 0z"/>
    <path d="M2940 1779 c-57 -23 -100 -85 -100 -143 0 -26 5 -36 21 -41 34 -11
52 14 38 53 -16 47 9 84 54 80 27 -2 33 -8 35 -31 2 -15 -7 -48 -20 -74 -27
-54 -138 -177 -178 -198 -89 -46 -77 -98 13 -60 46 19 97 19 133 0 42 -21 74
-19 117 10 62 43 42 87 -23 50 -32 -18 -52 -18 -96 0 l-35 14 65 80 c44 54 70
97 81 133 20 70 19 85 -10 113 -25 26 -54 30 -95 14z"/>
  </g>
</svg>